<?xml version="1.0" standalone="no"?>
<!DOCTYPE svg PUBLIC "-//W3C//DTD SVG 1.1//EN"
	"http://www.w3.org/Graphics/SVG/1.1/DTD/svg11.dtd">
<svg xmlns="http://www.w3.org/2000/svg" version="1.1"
	xmlns:xlink="http://www.w3.org/1999/xlink"
	color="black"
	width="816.00px" height="1056.00px">
<style type="text/css">
.fill {fill: currentColor}
.stroke {stroke: currentColor; fill: none}
text{white-space: pre}
</style>
<title>MP.abc page 1</title>
<!-- Creator: abcm2ps-8.13.8 -->
<!-- CreationDate: Sep 23, 2017 22:31 -->
<!-- CommandLine: -O= -v MP.abc -->
<g stroke-width="0.70">
<!-- title: Marche Pontificale -->
</g>
<g stroke-width="0.70" font-family="serif" font-size="20.00">
<text x="408.00" y="116.00" text-anchor="middle">Marche Pontificale</text>
</g>
<g stroke-width="0.70" font-family="serif" font-size="14.00" font-style="italic">
<text x="748.80" y="140.00" text-anchor="end">Charles Gounod</text>
</g>
<g stroke-width="0.70" font-family="serif" font-size="15.00" font-weight="bold">
<text x="123.70" y="163.00">Allegretto maestoso  </text>
</g>
<g stroke-width="0.70" transform="scale(0.700)" font-family="serif" font-size="15.00" font-weight="bold">
<defs>
<ellipse id="hd" rx="4.1" ry="2.9"
	transform="rotate(-20)" class="fill"/>
</defs>
<use x="385.71" y="229.86" xlink:href="#hd"/>
<path d="M389.21 229.86v-21.00" class="stroke"/>
</g>
<g stroke-width="0.70" font-family="serif" font-size="15.00" font-weight="bold">
<text x="277.70" y="163.00">= 100</text>
<path class="stroke" stroke-width="1"
	d="M67.20 271.00v-89.00"/>
<defs>
<path id="brace" class="fill" d="m-2.5 101
	c-4.5 -4.6 -7.5 -12.2 -4.4 -26.8
	3.5 -14.3 3.2 -21.7 -2.1 -24.2
	7.4 2.4 7.3 14.2 3.5 29.5
	-2.7 9.5 -1.5 16.2 3 21.5
	M-2.5 1c-4.5 4.6 -7.5 12.2 -4.4 26.8
	c3.5 14.3 3.2 21.7 -2.1 24.2
	7.4 -2.4 7.3 -14.2 3.5 -29.5
	-2.7 -9.5 -1.5 -16.2 3 -21.5"/>
</defs>
<g transform="translate(67.20,182.00) scale(1,0.89)">
	<use xlink:href="#brace"/>
</g>
<path class="stroke" stroke-width="1"
	d="M250.50 206.00v-24.00"/>
<path class="stroke" stroke-width="1"
	d="M250.50 271.00v-65.00"/>
<path class="stroke" stroke-width="1"
	d="M385.20 206.00v-24.00"/>
<path class="stroke" stroke-width="1"
	d="M385.20 271.00v-65.00"/>
<path class="stroke" stroke-width="1"
	d="M577.80 206.00v-24.00"/>
<path class="stroke" stroke-width="1"
	d="M577.80 271.00v-65.00"/>
<path class="stroke" stroke-width="1"
	d="M748.80 206.00v-24.00"/>
<path class="stroke" stroke-width="1"
	d="M748.80 271.00v-65.00"/>
<path d="m67.20 206.00
	h681.60
	M67.20 200.00
	h681.60
	M67.20 194.00
	h681.60
	M67.20 188.00
	h681.60
	M67.20 182.00
	h681.60
	" class="stroke"/>
<path d="m67.20 271.00
	h681.60
	M67.20 265.00
	h681.60
	M67.20 259.00
	h681.60
	M67.20 253.00
	h681.60
	M67.20 247.00
	h681.60
	" class="stroke"/>
<defs>
<path id="utclef" class="fill" d="m-50 -90
	c-72 -41 -72 -158 52 -188
	150 -10 220 188 90 256
	-114 52 -275 0 -293 -136
	-15 -181 93 -229 220 -334
	88 -87 79 -133 62 -210
	-51 33 -94 105 -89 186
	17 267 36 374 49 574
	6 96 -19 134 -77 135
	-80 1 -126 -93 -61 -133
	85 -41 133 101 31 105
	23 17 92 37 90 -92
	-10 -223 -39 -342 -50 -617
	0 -90 0 -162 96 -232
	56 72 63 230 22 289
	-74 106 -257 168 -255 316
	9 153 148 185 252 133
	86 -65 29 -192 -80 -176
	-71 12 -105 67 -59 124"/>
<use id="tclef" transform="translate(0,6) scale(0.045)"
	xlink:href="#utclef"/>
</defs>
<use x="79.20" y="200.00" xlink:href="#tclef"/>
<defs>
<path id="uflat" class="fill" d="
	m100 -746
	h32
	v734
	l-32 4
	m32 -332
	c46 -72 152 -90 208 -20
	100 110 -120 326 -208 348
	m0 -28
	c54 0 200 -206 130 -290
	-50 -60 -130 -4 -130 34"/>
<use id="ft0" transform="translate(-3.5,3.5) scale(0.018)"
	xlink:href="#uflat"/>
</defs>
<use x="94.20" y="194.00" xlink:href="#ft0"/>
<defs>
<path id="csig" class="fill" d="
	m6 -5.3
	c0.9 0 2.3 0.7 2.4 2.2
	-1.2 -2 -3.6 0.1 -1.6 1.7
	2 1 3.8 -3.5 -0.8 -4.7
	-2 -0.4 -6.4 1.3 -5.8 7
	0.4 6.4 7.9 6.8 9.1 0.7
	-2.3 5.6 -6.7 5.1 -6.8 0
	-0.5 -4.4 0.7 -7.5 3.5 -6.9"/>
</defs>
<use x="105.20" y="194.00" xlink:href="#csig"/>
<defs>
<path id="Hd" class="fill" d="m3 -1.6
	c-1 -1.8 -7 1.4 -6 3.2
	1 1.8 7 -1.4 6 -3.2
	m0.5 -0.3
	c2 3.8 -5 7.6 -7 3.8
	-2 -3.8 5 -7.6 7 -3.8"/>
</defs>
<use x="128.70" y="197.00" xlink:href="#Hd"/>
<path d="M132.20 197.00v-25.00" class="stroke"/>
<use x="128.70" y="191.00" xlink:href="#Hd"/>
<use x="177.70" y="200.00" xlink:href="#hd"/>
<path d="M181.20 200.00v-28.00" class="stroke"/>
<use x="177.70" y="191.00" xlink:href="#hd"/>
<path class="fill"
	d="M215.70 171.00l26.10 0.00v3.20l-26.10 -0.00"/>
<path class="fill"
	d="M233.50 176.00l8.00 0.00v3.20l-8.00 -0.00"/>
<use x="212.60" y="200.00" xlink:href="#hd"/>
<circle class="fill" cx="220.30" cy="197.00" r="1.2"/>
<path d="M216.10 200.00v-28.00" class="stroke"/>
<use x="212.60" y="191.00" xlink:href="#hd"/>
<circle class="fill" cx="220.30" cy="191.00" r="1.2"/>
<use x="238.00" y="200.00" xlink:href="#hd"/>
<path d="M241.50 200.00v-28.00" class="stroke"/>
<use x="238.00" y="191.00" xlink:href="#hd"/>
<use x="263.50" y="182.00" xlink:href="#Hd"/>
<path d="M260.00 182.00v40.00" class="stroke"/>
<use x="263.50" y="203.00" xlink:href="#Hd"/>
<use x="263.50" y="191.00" xlink:href="#Hd"/>
<use x="312.40" y="203.00" xlink:href="#hd"/>
<path d="M315.90 203.00v-28.00" class="stroke"/>
<use x="312.40" y="194.00" xlink:href="#hd"/>
<path class="fill"
	d="M350.50 174.00l26.10 0.00v3.20l-26.10 -0.00"/>
<path class="fill"
	d="M368.20 179.00l8.00 0.00v3.20l-8.00 -0.00"/>
<use x="347.30" y="203.00" xlink:href="#hd"/>
<circle class="fill" cx="355.00" cy="203.00" r="1.2"/>
<path d="M350.80 203.00v-28.00" class="stroke"/>
<use x="347.30" y="194.00" xlink:href="#hd"/>
<circle class="fill" cx="355.00" cy="191.00" r="1.2"/>
<use x="372.70" y="203.00" xlink:href="#hd"/>
<path d="M376.20 203.00v-28.00" class="stroke"/>
<use x="372.70" y="194.00" xlink:href="#hd"/>
<use x="397.70" y="206.00" xlink:href="#hd"/>
<path d="M401.20 206.00v-31.00" class="stroke"/>
<path class="fill"
	d="M401.20 175.00c0.6 5.6 9.6 9 5.6 18.4
	1.6 -6 -1.3 -11.6 -5.6 -12.8
"/>
<use x="397.70" y="194.00" xlink:href="#hd"/>
<defs>
<path id="r8e" class="fill" d="m 0 0
	c-1.5 1.5 -2.4 2 -3.6 2
	2.4 -2.8 -2.8 -4 -2.8 -1.2
	c0 2.7 4.3 2.4 5.9 0.6"/>
<g id="r8">
	<path d="m3.3 -4l-3.4 9.6" class="stroke"/>
	<use x="3.4" y="-4" xlink:href="#r8e"/>
</g>
</defs>
<use x="420.00" y="194.00" xlink:href="#r8"/>
<use x="444.50" y="203.00" xlink:href="#hd"/>
<path d="M448.00 203.00v-25.00" class="stroke"/>
<path class="fill"
	d="M448.00 178.00c0.6 5.6 9.6 9 5.6 18.4
	1.6 -6 -1.3 -11.6 -5.6 -12.8
"/>
<use x="444.50" y="197.00" xlink:href="#hd"/>
<use x="466.80" y="194.00" xlink:href="#r8"/>
<defs>
<path id="hl" class="stroke" d="m-6 0h12"/>
</defs>
<use x="491.40" y="212.00" xlink:href="#hl"/>
<use x="491.40" y="212.00" xlink:href="#hd"/>
<path d="M494.90 212.00v-31.00" class="stroke"/>
<path class="fill"
	d="M494.90 181.00c0.6 5.6 9.6 9 5.6 18.4
	1.6 -6 -1.3 -11.6 -5.6 -12.8
"/>
<use x="491.40" y="206.00" xlink:href="#hd"/>
<use x="491.40" y="200.00" xlink:href="#hd"/>
<use x="513.60" y="194.00" xlink:href="#r8"/>
<use x="538.20" y="212.00" xlink:href="#hl"/>
<use x="538.20" y="212.00" xlink:href="#hd"/>
<path d="M541.70 212.00v-28.00" class="stroke"/>
<path class="fill"
	d="M541.70 184.00c0.6 5.6 9.6 9 5.6 18.4
	1.6 -6 -1.3 -11.6 -5.6 -12.8
"/>
<use x="538.20" y="203.00" xlink:href="#hd"/>
<use x="560.50" y="194.00" xlink:href="#r8"/>
<use x="590.30" y="212.00" xlink:href="#hl"/>
<use x="590.30" y="212.00" xlink:href="#hd"/>
<circle class="fill" cx="598.00" cy="209.00" r="1.2"/>
<path d="M593.80 212.00v-40.00" class="stroke"/>
<use x="590.30" y="206.00" xlink:href="#hd"/>
<circle class="fill" cx="598.00" cy="203.00" r="1.2"/>
<use x="590.30" y="191.00" xlink:href="#hd"/>
<circle class="fill" cx="598.00" cy="191.00" r="1.2"/>
<use x="649.50" y="212.00" xlink:href="#hl"/>
<use x="649.50" y="212.00" xlink:href="#hd"/>
<path d="M653.00 212.00v-37.00" class="stroke"/>
<path class="fill"
	d="M653.00 175.00c0.6 5.6 9.6 9 5.6 18.4
	1.6 -6 -1.3 -11.6 -5.6 -12.8
"/>
<use x="649.50" y="203.00" xlink:href="#hd"/>
<use x="649.50" y="194.00" xlink:href="#hd"/>
<use x="674.30" y="212.00" xlink:href="#hl"/>
<use x="674.30" y="212.00" xlink:href="#hd"/>
<path d="M677.80 212.00v-34.00" class="stroke"/>
<use x="674.30" y="203.00" xlink:href="#hd"/>
<use x="674.30" y="197.00" xlink:href="#hd"/>
<use x="709.20" y="212.00" xlink:href="#hl"/>
<use x="709.20" y="212.00" xlink:href="#hd"/>
<path d="M712.70 212.00v-34.00" class="stroke"/>
<path class="fill"
	d="M712.70 178.00c0.6 5.6 9.6 9 5.6 18.4
	1.6 -6 -1.3 -11.6 -5.6 -12.8
"/>
<use x="709.20" y="203.00" xlink:href="#hd"/>
<use x="709.20" y="197.00" xlink:href="#hd"/>
<use x="731.40" y="194.00" xlink:href="#r8"/>
<path class="fill"
	d="M181.20 200.00c4.39 5.00 23.50 5.00 27.89 -0.00
	v0.23c-5.23 6.77 -22.66 6.77 -27.89 -0.23"/>
<path class="fill"
	d="M181.20 191.00c4.39 -5.00 23.50 -5.00 27.89 -0.00
	v-0.23c-5.23 -6.77 -22.66 -6.77 -27.89 0.23"/>
<path class="fill"
	d="M315.90 203.00c4.39 5.00 23.50 5.00 27.89 -0.00
	v0.23c-5.23 6.77 -22.66 6.77 -27.89 -0.23"/>
<path class="fill"
	d="M315.90 194.00c4.39 -5.00 23.50 -5.00 27.89 -0.00
	v-0.23c-5.23 -6.77 -22.66 -6.77 -27.89 0.23"/>
<path class="fill"
	d="M677.80 212.00c4.39 5.00 23.50 5.00 27.89 -0.00
	v0.23c-5.23 6.77 -22.66 6.77 -27.89 -0.23"/>
<path class="fill"
	d="M677.80 203.00c4.39 5.00 23.50 5.00 27.89 -0.00
	v0.23c-5.23 6.77 -22.66 6.77 -27.89 -0.23"/>
<path class="fill"
	d="M677.80 197.00c4.39 -5.00 23.50 -5.00 27.89 -0.00
	v-0.23c-5.23 -6.77 -22.66 -6.77 -27.89 0.23"/>
<defs>
<path id="ubclef" class="fill" d="m-200 -87
	c124 -35 222 -78 254 -236
	43 -228 -167 -246 -192 -103
	59 -80 157 22 92 78
	-62 47 -115 -22 -106 -88
	21 -141 270 -136 274 52
	-1 175 -106 264 -322 297
	m357 -250
	c0 -36 51 -34 51 0
	0 37 -51 36 -51 0
	m-2 -129
	c0 -36 51 -34 51 0
	0 38 -51 37 -51 0"/>
<use id="bclef" transform="translate(0,18) scale(0.045)"
	xlink:href="#ubclef"/>
</defs>
<use x="79.20" y="253.00" xlink:href="#bclef"/>
<use x="94.20" y="265.00" xlink:href="#ft0"/>
<use x="105.20" y="259.00" xlink:href="#csig"/>
<use x="128.70" y="241.00" xlink:href="#hl"/>
<use x="128.70" y="235.00" xlink:href="#hl"/>
<use x="128.70" y="232.00" xlink:href="#Hd"/>
<path d="M125.20 232.00v27.00" class="stroke"/>
<use x="177.70" y="241.00" xlink:href="#hl"/>
<use x="177.70" y="235.00" xlink:href="#hl"/>
<use x="177.70" y="235.00" xlink:href="#hd"/>
<path d="M174.20 235.00v24.00" class="stroke"/>
<path class="fill"
	d="M208.70 259.20l26.10 0.00v-3.20l-26.10 -0.00"/>
<path class="fill"
	d="M226.50 254.20l8.00 0.00v-3.20l-8.00 -0.00"/>
<use x="212.60" y="241.00" xlink:href="#hl"/>
<use x="212.60" y="235.00" xlink:href="#hl"/>
<use x="212.60" y="235.00" xlink:href="#hd"/>
<circle class="fill" cx="220.30" cy="232.00" r="1.2"/>
<path d="M209.10 235.00v23.20" class="stroke"/>
<use x="238.00" y="241.00" xlink:href="#hl"/>
<use x="238.00" y="235.00" xlink:href="#hl"/>
<use x="238.00" y="235.00" xlink:href="#hd"/>
<path d="M234.50 235.00v23.20" class="stroke"/>
<use x="263.50" y="241.00" xlink:href="#hl"/>
<use x="263.50" y="238.00" xlink:href="#Hd"/>
<path d="M260.00 238.00v21.00" class="stroke"/>
<use x="312.40" y="241.00" xlink:href="#hl"/>
<use x="312.40" y="238.00" xlink:href="#hd"/>
<path d="M308.90 238.00v21.00" class="stroke"/>
<path class="fill"
	d="M343.50 260.90l26.10 0.00v-3.20l-26.10 -0.00"/>
<path class="fill"
	d="M361.20 255.90l8.00 0.00v-3.20l-8.00 -0.00"/>
<use x="347.30" y="241.00" xlink:href="#hl"/>
<use x="347.30" y="238.00" xlink:href="#hd"/>
<circle class="fill" cx="355.00" cy="238.00" r="1.2"/>
<path d="M343.80 238.00v21.90" class="stroke"/>
<use x="372.70" y="241.00" xlink:href="#hl"/>
<use x="372.70" y="238.00" xlink:href="#hd"/>
<path d="M369.20 238.00v21.90" class="stroke"/>
<use x="397.70" y="241.00" xlink:href="#hl"/>
<use x="397.70" y="241.00" xlink:href="#hd"/>
<path d="M394.20 241.00v21.00" class="stroke"/>
<path class="fill"
	d="M394.20 262.00c0.6 -5.6 9.6 -9 5.6 -18.4
	1.6 6 -1.3 11.6 -5.6 12.8
"/>
<use x="420.00" y="259.00" xlink:href="#r8"/>
<use x="444.50" y="241.00" xlink:href="#hl"/>
<use x="444.50" y="241.00" xlink:href="#hd"/>
<path d="M441.00 241.00v21.00" class="stroke"/>
<path class="fill"
	d="M441.00 262.00c0.6 -5.6 9.6 -9 5.6 -18.4
	1.6 6 -1.3 11.6 -5.6 12.8
"/>
<use x="466.80" y="259.00" xlink:href="#r8"/>
<use x="491.40" y="244.00" xlink:href="#hd"/>
<path d="M487.90 244.00v21.00" class="stroke"/>
<path class="fill"
	d="M487.90 265.00c0.6 -5.6 9.6 -9 5.6 -18.4
	1.6 6 -1.3 11.6 -5.6 12.8
"/>
<use x="513.60" y="259.00" xlink:href="#r8"/>
<use x="538.20" y="247.00" xlink:href="#hd"/>
<path d="M534.70 247.00v21.00" class="stroke"/>
<path class="fill"
	d="M534.70 268.00c0.6 -5.6 9.6 -9 5.6 -18.4
	1.6 6 -1.3 11.6 -5.6 12.8
"/>
<use x="560.50" y="259.00" xlink:href="#r8"/>
<use x="590.30" y="250.00" xlink:href="#hd"/>
<path d="M586.80 250.00v21.00" class="stroke"/>
<use x="625.00" y="262.00" xlink:href="#hd"/>
<path d="M628.50 262.00v-21.00" class="stroke"/>
<use x="674.30" y="253.00" xlink:href="#hd"/>
<path d="M670.80 253.00v21.00" class="stroke"/>
<use x="709.20" y="253.00" xlink:href="#hd"/>
<path d="M705.70 253.00v21.00" class="stroke"/>
<path class="fill"
	d="M705.70 274.00c0.6 -5.6 9.6 -9 5.6 -18.4
	1.6 6 -1.3 11.6 -5.6 12.8
"/>
<use x="731.40" y="259.00" xlink:href="#r8"/>
<path class="fill"
	d="M181.20 235.00c4.39 -5.00 23.50 -5.00 27.89 -0.00
	v-0.23c-5.23 -6.77 -22.66 -6.77 -27.89 0.23"/>
<path class="fill"
	d="M315.90 238.00c4.39 -5.00 23.50 -5.00 27.89 -0.00
	v-0.23c-5.23 -6.77 -22.66 -6.77 -27.89 0.23"/>
<path class="fill"
	d="M677.80 253.00c4.39 -5.00 23.50 -5.00 27.89 -0.00
	v-0.23c-5.23 -6.77 -22.66 -6.77 -27.89 0.23"/>
<text font-family="serif" font-size="16" font-weight="bold" font-style="italic"
	x="127.70" y="217.40">f</text>
</g>
<g stroke-width="0.70" font-family="serif" font-size="15.00" font-weight="bold">
<path class="stroke" stroke-width="1"
	d="M67.20 401.00v-84.00"/>
<g transform="translate(67.20,317.00) scale(1,0.84)">
	<use xlink:href="#brace"/>
</g>
<path class="stroke" stroke-width="1"
	d="M235.20 341.00v-24.00"/>
<path class="stroke" stroke-width="1"
	d="M235.20 401.00v-60.00"/>
<path class="stroke" stroke-width="1"
	d="M382.90 341.00v-24.00"/>
<path class="stroke" stroke-width="1"
	d="M382.90 401.00v-60.00"/>
<path class="stroke" stroke-width="1"
	d="M577.00 341.00v-24.00"/>
<path class="stroke" stroke-width="1"
	d="M577.00 401.00v-60.00"/>
<path class="stroke" stroke-width="1"
	d="M748.80 341.00v-24.00"/>
<path class="stroke" stroke-width="1"
	d="M748.80 401.00v-60.00"/>
<path d="m67.20 341.00
	h681.60
	M67.20 335.00
	h681.60
	M67.20 329.00
	h681.60
	M67.20 323.00
	h681.60
	M67.20 317.00
	h681.60
	" class="stroke"/>
<path d="m67.20 401.00
	h681.60
	M67.20 395.00
	h681.60
	M67.20 389.00
	h681.60
	M67.20 383.00
	h681.60
	M67.20 377.00
	h681.60
	" class="stroke"/>
<path class="fill"
	d="M248.20 328.00c7.05 5.70 38.44 12.33 45.50 9.60
	v0.25c-8.42 4.48 -37.08 -2.14 -45.50 -9.85"/>
<use x="79.20" y="335.00" xlink:href="#tclef"/>
<use x="94.20" y="329.00" xlink:href="#ft0"/>
<use x="112.70" y="338.00" xlink:href="#Hd"/>
<path d="M116.20 338.00v-25.00" class="stroke"/>
<use x="112.70" y="332.00" xlink:href="#Hd"/>
<use x="162.00" y="341.00" xlink:href="#hd"/>
<path d="M165.50 341.00v-28.00" class="stroke"/>
<use x="162.00" y="332.00" xlink:href="#hd"/>
<path class="fill"
	d="M200.30 310.80l26.30 0.00v3.20l-26.30 -0.00"/>
<path class="fill"
	d="M218.20 315.80l8.00 0.00v3.20l-8.00 -0.00"/>
<use x="197.10" y="341.00" xlink:href="#hd"/>
<circle class="fill" cx="204.80" cy="338.00" r="1.2"/>
<path d="M200.60 341.00v-29.20" class="stroke"/>
<use x="197.10" y="332.00" xlink:href="#hd"/>
<circle class="fill" cx="204.80" cy="332.00" r="1.2"/>
<use x="222.70" y="338.00" xlink:href="#hd"/>
<path d="M226.20 338.00v-26.20" class="stroke"/>
<use x="222.70" y="332.00" xlink:href="#hd"/>
<use x="248.20" y="344.00" xlink:href="#Hd"/>
<path d="M251.70 344.00v-40.00" class="stroke"/>
<use x="248.20" y="332.00" xlink:href="#Hd"/>
<use x="248.20" y="323.00" xlink:href="#Hd"/>
<use x="297.70" y="344.00" xlink:href="#hd"/>
<path d="M301.20 344.00v-28.00" class="stroke"/>
<path class="fill"
	d="M301.20 316.00c0.6 5.6 9.6 9 5.6 18.4
	1.6 -6 -1.3 -11.6 -5.6 -12.8
"/>
<use x="297.70" y="335.00" xlink:href="#hd"/>
<use x="320.10" y="329.00" xlink:href="#r8"/>
<path class="fill"
	d="M348.00 310.80l26.30 0.00v3.20l-26.30 -0.00"/>
<path class="fill"
	d="M365.90 315.80l8.00 0.00v3.20l-8.00 -0.00"/>
<use x="344.80" y="338.00" xlink:href="#hd"/>
<circle class="fill" cx="352.50" cy="338.00" r="1.2"/>
<path d="M348.30 338.00v-26.20" class="stroke"/>
<use x="344.80" y="332.00" xlink:href="#hd"/>
<circle class="fill" cx="352.50" cy="332.00" r="1.2"/>
<use x="370.40" y="338.00" xlink:href="#hd"/>
<path d="M373.90 338.00v-26.20" class="stroke"/>
<use x="370.40" y="332.00" xlink:href="#hd"/>
<use x="395.50" y="341.00" xlink:href="#hd"/>
<path d="M399.00 341.00v-31.00" class="stroke"/>
<path class="fill"
	d="M399.00 310.00c0.6 5.6 9.6 9 5.6 18.4
	1.6 -6 -1.3 -11.6 -5.6 -12.8
"/>
<use x="395.50" y="329.00" xlink:href="#hd"/>
<use x="417.90" y="329.00" xlink:href="#r8"/>
<use x="442.60" y="338.00" xlink:href="#hd"/>
<path d="M446.10 338.00v-25.00" class="stroke"/>
<path class="fill"
	d="M446.10 313.00c0.6 5.6 9.6 9 5.6 18.4
	1.6 -6 -1.3 -11.6 -5.6 -12.8
"/>
<use x="442.60" y="332.00" xlink:href="#hd"/>
<use x="465.00" y="329.00" xlink:href="#r8"/>
<use x="489.80" y="347.00" xlink:href="#hl"/>
<use x="489.80" y="347.00" xlink:href="#hd"/>
<path d="M493.30 347.00v-31.00" class="stroke"/>
<path class="fill"
	d="M493.30 316.00c0.6 5.6 9.6 9 5.6 18.4
	1.6 -6 -1.3 -11.6 -5.6 -12.8
"/>
<use x="489.80" y="335.00" xlink:href="#hd"/>
<use x="512.20" y="329.00" xlink:href="#r8"/>
<use x="537.10" y="344.00" xlink:href="#hd"/>
<path d="M540.60 344.00v-25.00" class="stroke"/>
<path class="fill"
	d="M540.60 319.00c0.6 5.6 9.6 9 5.6 18.4
	1.6 -6 -1.3 -11.6 -5.6 -12.8
"/>
<use x="537.10" y="338.00" xlink:href="#hd"/>
<use x="559.60" y="329.00" xlink:href="#r8"/>
<use x="595.50" y="344.00" xlink:href="#hd"/>
<path d="M599.00 344.00v-40.00" class="stroke"/>
<use x="595.50" y="338.00" xlink:href="#hd"/>
<use x="595.50" y="323.00" xlink:href="#hd"/>
<path class="fill"
	d="M633.80 303.30l26.20 2.50v3.20l-26.20 -2.50"/>
<path class="fill"
	d="M651.70 310.00l8.00 0.80v3.20l-8.00 -0.80"/>
<use x="630.70" y="344.00" xlink:href="#hd"/>
<circle class="fill" cx="638.40" cy="344.00" r="1.2"/>
<path d="M634.20 344.00v-39.70" class="stroke"/>
<use x="630.70" y="338.00" xlink:href="#hd"/>
<circle class="fill" cx="638.40" cy="338.00" r="1.2"/>
<use x="630.70" y="323.00" xlink:href="#hd"/>
<circle class="fill" cx="638.40" cy="320.00" r="1.2"/>
<use x="656.20" y="341.00" xlink:href="#hd"/>
<path d="M659.70 341.00v-34.30" class="stroke"/>
<use x="656.20" y="326.00" xlink:href="#hd"/>
<use x="673.80" y="341.00" xlink:href="#hd"/>
<path d="M677.30 341.00v-34.00" class="stroke"/>
<use x="673.80" y="326.00" xlink:href="#hd"/>
<use x="708.90" y="341.00" xlink:href="#hd"/>
<path d="M712.40 341.00v-34.00" class="stroke"/>
<path class="fill"
	d="M712.40 307.00c0.6 5.6 9.6 9 5.6 18.4
	1.6 -6 -1.3 -11.6 -5.6 -12.8
"/>
<use x="708.90" y="326.00" xlink:href="#hd"/>
<use x="731.30" y="329.00" xlink:href="#r8"/>
<path class="fill"
	d="M165.50 341.00c4.43 5.01 23.69 5.01 28.12 -0.00
	v0.23c-5.27 6.78 -22.85 6.78 -28.12 -0.23"/>
<path class="fill"
	d="M165.50 332.00c4.43 -5.01 23.69 -5.01 28.12 -0.00
	v-0.23c-5.27 -6.78 -22.85 -6.78 -28.12 0.23"/>
<path class="fill"
	d="M251.70 344.00c6.65 5.26 35.85 5.26 42.50 -0.00
	v0.24c-7.92 7.02 -34.58 7.02 -42.50 -0.24"/>
<path class="fill"
	d="M599.00 344.00c4.43 5.01 23.69 5.01 28.12 -0.00
	v0.23c-5.27 6.78 -22.85 6.78 -28.12 -0.23"/>
<path class="fill"
	d="M599.00 338.00c4.43 5.01 23.69 5.01 28.12 -0.00
	v0.23c-5.27 6.78 -22.85 6.78 -28.12 -0.23"/>
<path class="fill"
	d="M599.00 323.00c4.43 -5.01 23.69 -5.01 28.12 -0.00
	v-0.23c-5.27 -6.78 -22.85 -6.78 -28.12 0.23"/>
<path class="fill"
	d="M677.30 341.00c4.43 5.01 23.69 5.01 28.12 -0.00
	v0.23c-5.27 6.78 -22.85 6.78 -28.12 -0.23"/>
<path class="fill"
	d="M677.30 326.00c4.43 -5.01 23.69 -5.01 28.12 -0.00
	v-0.23c-5.27 -6.78 -22.85 -6.78 -28.12 0.23"/>
<use x="79.20" y="383.00" xlink:href="#bclef"/>
<use x="94.20" y="395.00" xlink:href="#ft0"/>
<use x="112.70" y="371.00" xlink:href="#hl"/>
<use x="112.70" y="368.00" xlink:href="#Hd"/>
<path d="M109.20 368.00v21.00" class="stroke"/>
<use x="162.00" y="371.00" xlink:href="#hl"/>
<use x="162.00" y="371.00" xlink:href="#hd"/>
<path d="M158.50 371.00v21.00" class="stroke"/>
<path class="fill"
	d="M193.30 395.20l26.30 0.00v-3.20l-26.30 -0.00"/>
<path class="fill"
	d="M211.20 390.20l8.00 0.00v-3.20l-8.00 -0.00"/>
<use x="197.10" y="371.00" xlink:href="#hl"/>
<use x="197.10" y="371.00" xlink:href="#hd"/>
<circle class="fill" cx="204.80" cy="368.00" r="1.2"/>
<path d="M193.60 371.00v23.20" class="stroke"/>
<use x="222.70" y="371.00" xlink:href="#hl"/>
<use x="222.70" y="371.00" xlink:href="#hd"/>
<path d="M219.20 371.00v23.20" class="stroke"/>
<use x="248.20" y="374.00" xlink:href="#Hd"/>
<path d="M244.70 374.00v21.00" class="stroke"/>
<use x="297.70" y="374.00" xlink:href="#hd"/>
<path d="M294.20 374.00v21.00" class="stroke"/>
<path class="fill"
	d="M294.20 395.00c0.6 -5.6 9.6 -9 5.6 -18.4
	1.6 6 -1.3 11.6 -5.6 12.8
"/>
<use x="320.10" y="389.00" xlink:href="#r8"/>
<path class="fill"
	d="M341.00 396.90l26.30 0.00v-3.20l-26.30 -0.00"/>
<path class="fill"
	d="M358.90 391.90l8.00 0.00v-3.20l-8.00 -0.00"/>
<use x="344.80" y="371.00" xlink:href="#hl"/>
<use x="344.80" y="371.00" xlink:href="#hd"/>
<circle class="fill" cx="352.50" cy="368.00" r="1.2"/>
<path d="M341.30 371.00v24.90" class="stroke"/>
<use x="344.80" y="377.00" xlink:href="#hd"/>
<circle class="fill" cx="352.50" cy="374.00" r="1.2"/>
<use x="370.40" y="371.00" xlink:href="#hl"/>
<use x="370.40" y="371.00" xlink:href="#hd"/>
<path d="M366.90 371.00v24.90" class="stroke"/>
<use x="370.40" y="377.00" xlink:href="#hd"/>
<use x="395.50" y="371.00" xlink:href="#hl"/>
<use x="395.50" y="371.00" xlink:href="#hd"/>
<path d="M392.00 371.00v28.00" class="stroke"/>
<path class="fill"
	d="M392.00 399.00c0.6 -5.6 9.6 -9 5.6 -18.4
	1.6 6 -1.3 11.6 -5.6 12.8
"/>
<use x="395.50" y="380.00" xlink:href="#hd"/>
<use x="417.90" y="389.00" xlink:href="#r8"/>
<use x="442.60" y="371.00" xlink:href="#hl"/>
<use x="442.60" y="371.00" xlink:href="#hd"/>
<path d="M439.10 371.00v31.00" class="stroke"/>
<path class="fill"
	d="M439.10 402.00c0.6 -5.6 9.6 -9 5.6 -18.4
	1.6 6 -1.3 11.6 -5.6 12.8
"/>
<use x="442.60" y="383.00" xlink:href="#hd"/>
<use x="465.00" y="389.00" xlink:href="#r8"/>
<use x="489.80" y="380.00" xlink:href="#hd"/>
<path d="M486.30 380.00v25.00" class="stroke"/>
<path class="fill"
	d="M486.30 405.00c0.6 -5.6 9.6 -9 5.6 -18.4
	1.6 6 -1.3 11.6 -5.6 12.8
"/>
<use x="489.80" y="386.00" xlink:href="#hd"/>
<use x="512.20" y="389.00" xlink:href="#r8"/>
<use x="537.10" y="374.00" xlink:href="#hd"/>
<defs>
<path id="unat" class="fill" d="
	m96 -750
	h-32
	v716
	l32 -8
	182 -54
	v282
	h32
	v-706
	l-34 10
	-180 50
	v-290
	m0 592
	v-190
	l182 -52
	v188"/>
<use id="nt0" transform="translate(-3,5) scale(0.018)"
	xlink:href="#unat"/>
</defs>
<use x="528.10" y="374.00" xlink:href="#nt0"/>
<path d="M533.60 374.00v25.00" class="stroke"/>
<path class="fill"
	d="M533.60 399.00c0.6 -5.6 9.6 -9 5.6 -18.4
	1.6 6 -1.3 11.6 -5.6 12.8
"/>
<use x="537.10" y="380.00" xlink:href="#hd"/>
<use x="559.60" y="389.00" xlink:href="#r8"/>
<use x="595.50" y="374.00" xlink:href="#hd"/>
<use x="586.50" y="374.00" xlink:href="#nt0"/>
<path d="M592.00 374.00v25.00" class="stroke"/>
<use x="595.50" y="380.00" xlink:href="#hd"/>
<path class="fill"
	d="M626.80 403.90l26.20 6.40v-3.20l-26.20 -6.40"/>
<path class="fill"
	d="M644.70 403.30l8.00 1.90v-3.20l-8.00 -1.90"/>
<use x="630.70" y="374.00" xlink:href="#hd"/>
<circle class="fill" cx="638.40" cy="374.00" r="1.2"/>
<path d="M627.20 374.00v29.00" class="stroke"/>
<use x="630.70" y="380.00" xlink:href="#hd"/>
<circle class="fill" cx="638.40" cy="380.00" r="1.2"/>
<use x="656.20" y="371.00" xlink:href="#hl"/>
<use x="656.20" y="371.00" xlink:href="#hd"/>
<path d="M652.70 371.00v38.20" class="stroke"/>
<use x="656.20" y="392.00" xlink:href="#hd"/>
<use x="656.20" y="380.00" xlink:href="#hd"/>
<use x="673.80" y="371.00" xlink:href="#hl"/>
<use x="673.80" y="371.00" xlink:href="#hd"/>
<path d="M670.30 371.00v40.00" class="stroke"/>
<use x="673.80" y="392.00" xlink:href="#hd"/>
<use x="673.80" y="380.00" xlink:href="#hd"/>
<use x="708.90" y="371.00" xlink:href="#hl"/>
<use x="708.90" y="371.00" xlink:href="#hd"/>
<path d="M705.40 371.00v40.00" class="stroke"/>
<path class="fill"
	d="M705.40 411.00c0.6 -5.6 9.6 -9 5.6 -18.4
	1.6 6 -1.3 11.6 -5.6 12.8
"/>
<use x="708.90" y="392.00" xlink:href="#hd"/>
<use x="708.90" y="380.00" xlink:href="#hd"/>
<use x="731.30" y="389.00" xlink:href="#r8"/>
<path class="fill"
	d="M165.50 371.00c4.43 -5.01 23.69 -5.01 28.12 -0.00
	v-0.23c-5.27 -6.78 -22.85 -6.78 -28.12 0.23"/>
<path class="fill"
	d="M251.70 374.00c6.65 -5.26 35.85 -5.26 42.50 -0.00
	v-0.24c-7.92 -7.02 -34.58 -7.02 -42.50 0.24"/>
<path class="fill"
	d="M599.00 380.00c4.43 5.01 23.69 5.01 28.12 -0.00
	v0.23c-5.27 6.78 -22.85 6.78 -28.12 -0.23"/>
<path class="fill"
	d="M599.00 374.00c4.43 -5.01 23.69 -5.01 28.12 -0.00
	v-0.23c-5.27 -6.78 -22.85 -6.78 -28.12 0.23"/>
<path class="fill"
	d="M677.30 392.00c4.43 5.01 23.69 5.01 28.12 -0.00
	v0.23c-5.27 6.78 -22.85 6.78 -28.12 -0.23"/>
<path class="fill"
	d="M677.30 380.00c4.43 -5.01 23.69 -5.01 28.12 -0.00
	v-0.23c-5.27 -6.78 -22.85 -6.78 -28.12 0.23"/>
<path class="fill"
	d="M677.30 371.00c4.43 -5.01 23.69 -5.01 28.12 -0.00
	v-0.23c-5.27 -6.78 -22.85 -6.78 -28.12 0.23"/>
<text font-family="serif" font-size="16" font-weight="bold" font-style="italic"
	x="111.70" y="353.40">f</text>
</g>
<g stroke-width="0.70" font-family="serif" font-size="15.00" font-weight="bold">
<path class="stroke" stroke-width="1"
	d="M67.20 529.00v-82.00"/>
<g transform="translate(67.20,447.00) scale(1,0.82)">
	<use xlink:href="#brace"/>
</g>
<path class="stroke" stroke-width="1"
	d="M238.10 471.00v-24.00"/>
<path class="stroke" stroke-width="1"
	d="M238.10 529.00v-58.00"/>
<path class="stroke" stroke-width="1"
	d="M376.50 471.00v-24.00"/>
<path class="stroke" stroke-width="1"
	d="M376.50 529.00v-58.00"/>
<path class="stroke" stroke-width="1"
	d="M572.60 471.00v-24.00"/>
<path class="stroke" stroke-width="1"
	d="M572.60 529.00v-58.00"/>
<path class="stroke" stroke-width="1"
	d="M748.80 471.00v-24.00"/>
<path class="stroke" stroke-width="1"
	d="M748.80 529.00v-58.00"/>
<path d="m67.20 471.00
	h681.60
	M67.20 465.00
	h681.60
	M67.20 459.00
	h681.60
	M67.20 453.00
	h681.60
	M67.20 447.00
	h681.60
	" class="stroke"/>
<path d="m67.20 529.00
	h681.60
	M67.20 523.00
	h681.60
	M67.20 517.00
	h681.60
	M67.20 511.00
	h681.60
	M67.20 505.00
	h681.60
	" class="stroke"/>
<use x="79.20" y="465.00" xlink:href="#tclef"/>
<use x="94.20" y="459.00" xlink:href="#ft0"/>
<use x="112.70" y="462.00" xlink:href="#Hd"/>
<path d="M116.20 462.00v-25.00" class="stroke"/>
<use x="112.70" y="456.00" xlink:href="#Hd"/>
<use x="163.40" y="465.00" xlink:href="#hd"/>
<path d="M166.90 465.00v-28.00" class="stroke"/>
<use x="163.40" y="456.00" xlink:href="#hd"/>
<path class="fill"
	d="M202.50 436.00l26.80 0.00v3.20l-26.80 -0.00"/>
<path class="fill"
	d="M220.90 441.00l8.00 0.00v3.20l-8.00 -0.00"/>
<use x="199.30" y="465.00" xlink:href="#hd"/>
<circle class="fill" cx="207.00" cy="462.00" r="1.2"/>
<path d="M202.80 465.00v-28.00" class="stroke"/>
<use x="199.30" y="456.00" xlink:href="#hd"/>
<circle class="fill" cx="207.00" cy="456.00" r="1.2"/>
<use x="225.40" y="465.00" xlink:href="#hd"/>
<path d="M228.90 465.00v-28.00" class="stroke"/>
<use x="225.40" y="456.00" xlink:href="#hd"/>
<use x="251.10" y="447.00" xlink:href="#Hd"/>
<path d="M247.60 447.00v40.00" class="stroke"/>
<use x="251.10" y="468.00" xlink:href="#Hd"/>
<use x="251.10" y="456.00" xlink:href="#Hd"/>
<use x="301.80" y="468.00" xlink:href="#hd"/>
<path d="M305.30 468.00v-28.00" class="stroke"/>
<use x="301.80" y="459.00" xlink:href="#hd"/>
<path class="fill"
	d="M340.90 439.00l26.80 0.00v3.20l-26.80 -0.00"/>
<path class="fill"
	d="M359.30 444.00l8.00 0.00v3.20l-8.00 -0.00"/>
<use x="337.70" y="468.00" xlink:href="#hd"/>
<circle class="fill" cx="345.40" cy="468.00" r="1.2"/>
<path d="M341.20 468.00v-28.00" class="stroke"/>
<use x="337.70" y="459.00" xlink:href="#hd"/>
<circle class="fill" cx="345.40" cy="456.00" r="1.2"/>
<use x="363.80" y="468.00" xlink:href="#hd"/>
<path d="M367.30 468.00v-28.00" class="stroke"/>
<use x="363.80" y="459.00" xlink:href="#hd"/>
<use x="389.30" y="471.00" xlink:href="#hd"/>
<path d="M392.80 471.00v-31.00" class="stroke"/>
<path class="fill"
	d="M392.80 440.00c0.6 5.6 9.6 9 5.6 18.4
	1.6 -6 -1.3 -11.6 -5.6 -12.8
"/>
<use x="389.30" y="459.00" xlink:href="#hd"/>
<use x="412.20" y="459.00" xlink:href="#r8"/>
<use x="437.60" y="468.00" xlink:href="#hd"/>
<path d="M441.10 468.00v-25.00" class="stroke"/>
<path class="fill"
	d="M441.10 443.00c0.6 5.6 9.6 9 5.6 18.4
	1.6 -6 -1.3 -11.6 -5.6 -12.8
"/>
<use x="437.60" y="462.00" xlink:href="#hd"/>
<use x="460.50" y="459.00" xlink:href="#r8"/>
<use x="486.00" y="477.00" xlink:href="#hl"/>
<use x="486.00" y="477.00" xlink:href="#hd"/>
<path d="M489.50 477.00v-31.00" class="stroke"/>
<path class="fill"
	d="M489.50 446.00c0.6 5.6 9.6 9 5.6 18.4
	1.6 -6 -1.3 -11.6 -5.6 -12.8
"/>
<use x="486.00" y="471.00" xlink:href="#hd"/>
<use x="486.00" y="465.00" xlink:href="#hd"/>
<use x="508.90" y="459.00" xlink:href="#r8"/>
<use x="531.80" y="477.00" xlink:href="#hl"/>
<use x="531.80" y="477.00" xlink:href="#hd"/>
<path d="M535.30 477.00v-28.00" class="stroke"/>
<path class="fill"
	d="M535.30 449.00c0.6 5.6 9.6 9 5.6 18.4
	1.6 -6 -1.3 -11.6 -5.6 -12.8
"/>
<use x="531.80" y="468.00" xlink:href="#hd"/>
<use x="554.70" y="459.00" xlink:href="#r8"/>
<use x="585.40" y="477.00" xlink:href="#hl"/>
<use x="585.40" y="477.00" xlink:href="#hd"/>
<circle class="fill" cx="593.10" cy="474.00" r="1.2"/>
<path d="M588.90 477.00v-40.00" class="stroke"/>
<use x="585.40" y="471.00" xlink:href="#hd"/>
<circle class="fill" cx="593.10" cy="468.00" r="1.2"/>
<use x="585.40" y="456.00" xlink:href="#hd"/>
<circle class="fill" cx="593.10" cy="456.00" r="1.2"/>
<use x="646.60" y="477.00" xlink:href="#hl"/>
<use x="646.60" y="477.00" xlink:href="#hd"/>
<path d="M650.10 477.00v-37.00" class="stroke"/>
<path class="fill"
	d="M650.10 440.00c0.6 5.6 9.6 9 5.6 18.4
	1.6 -6 -1.3 -11.6 -5.6 -12.8
"/>
<use x="646.60" y="468.00" xlink:href="#hd"/>
<use x="646.60" y="459.00" xlink:href="#hd"/>
<use x="672.10" y="477.00" xlink:href="#hl"/>
<use x="672.10" y="477.00" xlink:href="#hd"/>
<path d="M675.60 477.00v-34.00" class="stroke"/>
<use x="672.10" y="468.00" xlink:href="#hd"/>
<use x="672.10" y="462.00" xlink:href="#hd"/>
<use x="708.00" y="477.00" xlink:href="#hl"/>
<use x="708.00" y="477.00" xlink:href="#hd"/>
<path d="M711.50 477.00v-34.00" class="stroke"/>
<path class="fill"
	d="M711.50 443.00c0.6 5.6 9.6 9 5.6 18.4
	1.6 -6 -1.3 -11.6 -5.6 -12.8
"/>
<use x="708.00" y="468.00" xlink:href="#hd"/>
<use x="708.00" y="462.00" xlink:href="#hd"/>
<use x="730.90" y="459.00" xlink:href="#r8"/>
<path class="fill"
	d="M166.90 465.00c4.56 5.02 24.40 5.02 28.96 -0.00
	v0.23c-5.43 6.79 -23.53 6.79 -28.96 -0.23"/>
<path class="fill"
	d="M166.90 456.00c4.56 -5.02 24.40 -5.02 28.96 -0.00
	v-0.23c-5.43 -6.79 -23.53 -6.79 -28.96 0.23"/>
<path class="fill"
	d="M305.30 468.00c4.56 5.02 24.40 5.02 28.96 -0.00
	v0.23c-5.43 6.79 -23.53 6.79 -28.96 -0.23"/>
<path class="fill"
	d="M305.30 459.00c4.56 -5.02 24.40 -5.02 28.96 -0.00
	v-0.23c-5.43 -6.79 -23.53 -6.79 -28.96 0.23"/>
<path class="fill"
	d="M675.60 477.00c4.56 5.02 24.40 5.02 28.96 -0.00
	v0.23c-5.43 6.79 -23.53 6.79 -28.96 -0.23"/>
<path class="fill"
	d="M675.60 468.00c4.56 5.02 24.40 5.02 28.96 -0.00
	v0.23c-5.43 6.79 -23.53 6.79 -28.96 -0.23"/>
<path class="fill"
	d="M675.60 462.00c4.56 -5.02 24.40 -5.02 28.96 -0.00
	v-0.23c-5.43 -6.79 -23.53 -6.79 -28.96 0.23"/>
<use x="79.20" y="511.00" xlink:href="#bclef"/>
<use x="94.20" y="523.00" xlink:href="#ft0"/>
<use x="112.70" y="499.00" xlink:href="#hl"/>
<use x="112.70" y="499.00" xlink:href="#Hd"/>
<path d="M109.20 499.00v31.00" class="stroke"/>
<use x="112.70" y="511.00" xlink:href="#Hd"/>
<use x="112.70" y="505.00" xlink:href="#Hd"/>
<use x="163.40" y="499.00" xlink:href="#hl"/>
<use x="163.40" y="499.00" xlink:href="#hd"/>
<path d="M159.90 499.00v34.00" class="stroke"/>
<use x="163.40" y="514.00" xlink:href="#hd"/>
<use x="163.40" y="508.00" xlink:href="#hd"/>
<path class="fill"
	d="M195.50 535.20l26.80 0.00v-3.20l-26.80 -0.00"/>
<path class="fill"
	d="M213.90 530.20l8.00 0.00v-3.20l-8.00 -0.00"/>
<use x="199.30" y="499.00" xlink:href="#hl"/>
<use x="199.30" y="499.00" xlink:href="#hd"/>
<circle class="fill" cx="207.00" cy="496.00" r="1.2"/>
<path d="M195.80 499.00v35.20" class="stroke"/>
<use x="199.30" y="514.00" xlink:href="#hd"/>
<circle class="fill" cx="207.00" cy="514.00" r="1.2"/>
<use x="199.30" y="508.00" xlink:href="#hd"/>
<circle class="fill" cx="207.00" cy="508.00" r="1.2"/>
<use x="225.40" y="499.00" xlink:href="#hl"/>
<use x="225.40" y="499.00" xlink:href="#hd"/>
<path d="M221.90 499.00v35.20" class="stroke"/>
<use x="225.40" y="514.00" xlink:href="#hd"/>
<use x="225.40" y="508.00" xlink:href="#hd"/>
<use x="251.10" y="499.00" xlink:href="#hl"/>
<use x="251.10" y="499.00" xlink:href="#Hd"/>
<path d="M247.60 499.00v37.00" class="stroke"/>
<use x="251.10" y="517.00" xlink:href="#Hd"/>
<use x="251.10" y="511.00" xlink:href="#Hd"/>
<use x="301.80" y="502.00" xlink:href="#hd"/>
<path d="M298.30 502.00v34.00" class="stroke"/>
<use x="301.80" y="517.00" xlink:href="#hd"/>
<use x="301.80" y="511.00" xlink:href="#hd"/>
<path class="fill"
	d="M333.90 536.90l26.80 0.00v-3.20l-26.80 -0.00"/>
<path class="fill"
	d="M352.30 531.90l8.00 0.00v-3.20l-8.00 -0.00"/>
<use x="337.70" y="502.00" xlink:href="#hd"/>
<circle class="fill" cx="345.40" cy="502.00" r="1.2"/>
<path d="M334.20 502.00v33.90" class="stroke"/>
<use x="337.70" y="517.00" xlink:href="#hd"/>
<circle class="fill" cx="345.40" cy="514.00" r="1.2"/>
<use x="337.70" y="511.00" xlink:href="#hd"/>
<circle class="fill" cx="345.40" cy="508.00" r="1.2"/>
<use x="363.80" y="502.00" xlink:href="#hd"/>
<path d="M360.30 502.00v33.90" class="stroke"/>
<use x="363.80" y="517.00" xlink:href="#hd"/>
<use x="363.80" y="511.00" xlink:href="#hd"/>
<use x="389.30" y="502.00" xlink:href="#hd"/>
<path d="M385.80 502.00v37.00" class="stroke"/>
<path class="fill"
	d="M385.80 539.00c0.6 -5.6 9.6 -9 5.6 -18.4
	1.6 6 -1.3 11.6 -5.6 12.8
"/>
<use x="389.30" y="520.00" xlink:href="#hd"/>
<use x="389.30" y="508.00" xlink:href="#hd"/>
<use x="412.20" y="517.00" xlink:href="#r8"/>
<use x="437.60" y="505.00" xlink:href="#hd"/>
<path d="M434.10 505.00v34.00" class="stroke"/>
<path class="fill"
	d="M434.10 539.00c0.6 -5.6 9.6 -9 5.6 -18.4
	1.6 6 -1.3 11.6 -5.6 12.8
"/>
<use x="437.60" y="520.00" xlink:href="#hd"/>
<use x="437.60" y="511.00" xlink:href="#hd"/>
<use x="460.50" y="517.00" xlink:href="#r8"/>
<use x="486.00" y="508.00" xlink:href="#hd"/>
<path d="M482.50 508.00v34.00" class="stroke"/>
<path class="fill"
	d="M482.50 542.00c0.6 -5.6 9.6 -9 5.6 -18.4
	1.6 6 -1.3 11.6 -5.6 12.8
"/>
<use x="479.00" y="523.00" xlink:href="#hd"/>
<use x="486.00" y="520.00" xlink:href="#hd"/>
<use x="508.90" y="517.00" xlink:href="#r8"/>
<use x="531.80" y="526.00" xlink:href="#hd"/>
<path d="M535.30 526.00v-34.00" class="stroke"/>
<path class="fill"
	d="M535.30 492.00c0.6 5.6 9.6 9 5.6 18.4
	1.6 -6 -1.3 -11.6 -5.6 -12.8
"/>
<use x="531.80" y="520.00" xlink:href="#hd"/>
<use x="531.80" y="511.00" xlink:href="#hd"/>
<use x="554.70" y="517.00" xlink:href="#r8"/>
<use x="585.40" y="529.00" xlink:href="#hd"/>
<path d="M588.90 529.00v-40.00" class="stroke"/>
<use x="585.40" y="520.00" xlink:href="#hd"/>
<use x="585.40" y="508.00" xlink:href="#hd"/>
<use x="621.20" y="535.00" xlink:href="#hl"/>
<use x="621.20" y="541.00" xlink:href="#hl"/>
<use x="621.20" y="541.00" xlink:href="#hd"/>
<path d="M624.70 541.00v-40.00" class="stroke"/>
<use x="621.20" y="520.00" xlink:href="#hd"/>
<use x="672.10" y="532.00" xlink:href="#hd"/>
<path d="M675.60 532.00v-40.00" class="stroke"/>
<use x="672.10" y="520.00" xlink:href="#hd"/>
<use x="672.10" y="511.00" xlink:href="#hd"/>
<use x="708.00" y="532.00" xlink:href="#hd"/>
<path d="M711.50 532.00v-40.00" class="stroke"/>
<path class="fill"
	d="M711.50 492.00c0.6 5.6 9.6 9 5.6 18.4
	1.6 -6 -1.3 -11.6 -5.6 -12.8
"/>
<use x="708.00" y="520.00" xlink:href="#hd"/>
<use x="708.00" y="511.00" xlink:href="#hd"/>
<use x="730.90" y="517.00" xlink:href="#r8"/>
<path class="fill"
	d="M166.90 514.00c4.56 5.02 24.40 5.02 28.96 -0.00
	v0.23c-5.43 6.79 -23.53 6.79 -28.96 -0.23"/>
<path class="fill"
	d="M166.90 508.00c4.56 -5.02 24.40 -5.02 28.96 -0.00
	v-0.23c-5.43 -6.79 -23.53 -6.79 -28.96 0.23"/>
<path class="fill"
	d="M166.90 499.00c4.56 -5.02 24.40 -5.02 28.96 -0.00
	v-0.23c-5.43 -6.79 -23.53 -6.79 -28.96 0.23"/>
<path class="fill"
	d="M305.30 517.00c4.56 5.02 24.40 5.02 28.96 -0.00
	v0.23c-5.43 6.79 -23.53 6.79 -28.96 -0.23"/>
<path class="fill"
	d="M305.30 511.00c4.56 -5.02 24.40 -5.02 28.96 -0.00
	v-0.23c-5.43 -6.79 -23.53 -6.79 -28.96 0.23"/>
<path class="fill"
	d="M305.30 502.00c4.56 -5.02 24.40 -5.02 28.96 -0.00
	v-0.23c-5.43 -6.79 -23.53 -6.79 -28.96 0.23"/>
<path class="fill"
	d="M675.60 532.00c4.56 5.02 24.40 5.02 28.96 -0.00
	v0.23c-5.43 6.79 -23.53 6.79 -28.96 -0.23"/>
<path class="fill"
	d="M675.60 520.00c4.56 5.02 24.40 5.02 28.96 -0.00
	v0.23c-5.43 6.79 -23.53 6.79 -28.96 -0.23"/>
<path class="fill"
	d="M675.60 511.00c4.56 -5.02 24.40 -5.02 28.96 -0.00
	v-0.23c-5.43 -6.79 -23.53 -6.79 -28.96 0.23"/>
</g>
<g stroke-width="0.70" font-family="serif" font-size="15.00" font-weight="bold">
<path class="stroke" stroke-width="1"
	d="M67.20 658.00v-83.00"/>
<g transform="translate(67.20,575.00) scale(1,0.83)">
	<use xlink:href="#brace"/>
</g>
<path class="stroke" stroke-width="1"
	d="M236.60 599.00v-24.00"/>
<path class="stroke" stroke-width="1"
	d="M236.60 658.00v-59.00"/>
<path class="stroke" stroke-width="1"
	d="M386.00 599.00v-24.00"/>
<path class="stroke" stroke-width="1"
	d="M386.00 658.00v-59.00"/>
<path class="stroke" stroke-width="1"
	d="M575.10 599.00v-24.00"/>
<path class="stroke" stroke-width="1"
	d="M575.10 658.00v-59.00"/>
<path class="stroke" stroke-width="1"
	d="M748.80 599.00v-24.00"/>
<path class="stroke" stroke-width="1"
	d="M748.80 658.00v-59.00"/>
<path d="m67.20 599.00
	h681.60
	M67.20 593.00
	h681.60
	M67.20 587.00
	h681.60
	M67.20 581.00
	h681.60
	M67.20 575.00
	h681.60
	" class="stroke"/>
<path d="m67.20 658.00
	h681.60
	M67.20 652.00
	h681.60
	M67.20 646.00
	h681.60
	M67.20 640.00
	h681.60
	M67.20 634.00
	h681.60
	" class="stroke"/>
<path class="fill"
	d="M249.60 586.00c7.14 5.71 39.01 12.34 46.15 9.60
	v0.25c-8.53 4.49 -37.63 -2.14 -46.15 -9.85"/>
<path class="fill"
	d="M251.10 629.90c7.47 -3.93 41.18 -2.48 48.65 2.10
	v-0.25c-8.93 -6.33 -39.72 -7.79 -48.65 -1.85"/>
<use x="79.20" y="593.00" xlink:href="#tclef"/>
<use x="94.20" y="587.00" xlink:href="#ft0"/>
<use x="112.70" y="596.00" xlink:href="#Hd"/>
<path d="M116.20 596.00v-25.00" class="stroke"/>
<use x="112.70" y="590.00" xlink:href="#Hd"/>
<use x="162.60" y="599.00" xlink:href="#hd"/>
<path d="M166.10 599.00v-28.00" class="stroke"/>
<use x="162.60" y="590.00" xlink:href="#hd"/>
<path class="fill"
	d="M201.30 568.80l26.50 0.00v3.20l-26.50 -0.00"/>
<path class="fill"
	d="M219.50 573.80l8.00 0.00v3.20l-8.00 -0.00"/>
<use x="198.20" y="599.00" xlink:href="#hd"/>
<circle class="fill" cx="205.90" cy="596.00" r="1.2"/>
<path d="M201.70 599.00v-29.20" class="stroke"/>
<use x="198.20" y="590.00" xlink:href="#hd"/>
<circle class="fill" cx="205.90" cy="590.00" r="1.2"/>
<use x="224.00" y="596.00" xlink:href="#hd"/>
<path d="M227.50 596.00v-26.20" class="stroke"/>
<use x="224.00" y="590.00" xlink:href="#hd"/>
<use x="249.60" y="602.00" xlink:href="#Hd"/>
<path d="M253.10 602.00v-40.00" class="stroke"/>
<use x="249.60" y="590.00" xlink:href="#Hd"/>
<use x="249.60" y="581.00" xlink:href="#Hd"/>
<use x="299.80" y="602.00" xlink:href="#hd"/>
<path d="M303.30 602.00v-28.00" class="stroke"/>
<path class="fill"
	d="M303.30 574.00c0.6 5.6 9.6 9 5.6 18.4
	1.6 -6 -1.3 -11.6 -5.6 -12.8
"/>
<use x="299.80" y="593.00" xlink:href="#hd"/>
<use x="322.50" y="587.00" xlink:href="#r8"/>
<path class="fill"
	d="M350.70 568.80l26.60 0.00v3.20l-26.60 -0.00"/>
<path class="fill"
	d="M368.90 573.80l8.00 0.00v3.20l-8.00 -0.00"/>
<use x="347.50" y="605.00" xlink:href="#hl"/>
<use x="347.50" y="605.00" xlink:href="#hd"/>
<circle class="fill" cx="355.20" cy="602.00" r="1.2"/>
<path d="M351.00 605.00v-35.20" class="stroke"/>
<use x="347.50" y="596.00" xlink:href="#hd"/>
<circle class="fill" cx="355.20" cy="596.00" r="1.2"/>
<use x="347.50" y="590.00" xlink:href="#hd"/>
<circle class="fill" cx="355.20" cy="590.00" r="1.2"/>
<use x="373.40" y="605.00" xlink:href="#hl"/>
<use x="373.40" y="605.00" xlink:href="#hd"/>
<path d="M376.90 605.00v-35.20" class="stroke"/>
<use x="373.40" y="596.00" xlink:href="#hd"/>
<use x="373.40" y="590.00" xlink:href="#hd"/>
<use x="398.70" y="605.00" xlink:href="#hl"/>
<use x="398.70" y="605.00" xlink:href="#hd"/>
<path d="M402.20 605.00v-37.00" class="stroke"/>
<path class="fill"
	d="M402.20 568.00c0.6 5.6 9.6 9 5.6 18.4
	1.6 -6 -1.3 -11.6 -5.6 -12.8
"/>
<use x="398.70" y="599.00" xlink:href="#hd"/>
<use x="398.70" y="587.00" xlink:href="#hd"/>
<use x="421.40" y="587.00" xlink:href="#r8"/>
<use x="444.00" y="605.00" xlink:href="#hl"/>
<use x="444.00" y="605.00" xlink:href="#hd"/>
<path d="M447.50 605.00v-34.00" class="stroke"/>
<path class="fill"
	d="M447.50 571.00c0.6 5.6 9.6 9 5.6 18.4
	1.6 -6 -1.3 -11.6 -5.6 -12.8
"/>
<use x="444.00" y="596.00" xlink:href="#hd"/>
<use x="444.00" y="590.00" xlink:href="#hd"/>
<use x="466.70" y="587.00" xlink:href="#r8"/>
<use x="489.30" y="605.00" xlink:href="#hl"/>
<use x="489.30" y="611.00" xlink:href="#hl"/>
<use x="489.30" y="614.00" xlink:href="#hd"/>
<path d="M492.80 614.00v-40.00" class="stroke"/>
<path class="fill"
	d="M492.80 574.00c0.6 5.6 9.6 9 5.6 18.4
	1.6 -6 -1.3 -11.6 -5.6 -12.8
"/>
<use x="489.30" y="605.00" xlink:href="#hd"/>
<use x="489.30" y="593.00" xlink:href="#hd"/>
<use x="512.00" y="587.00" xlink:href="#r8"/>
<use x="534.70" y="605.00" xlink:href="#hl"/>
<use x="534.70" y="611.00" xlink:href="#hl"/>
<use x="534.70" y="614.00" xlink:href="#hd"/>
<path d="M538.20 614.00v-37.00" class="stroke"/>
<path class="fill"
	d="M538.20 577.00c0.6 5.6 9.6 9 5.6 18.4
	1.6 -6 -1.3 -11.6 -5.6 -12.8
"/>
<use x="534.70" y="608.00" xlink:href="#hd"/>
<use x="525.70" y="608.00" xlink:href="#nt0"/>
<use x="534.70" y="596.00" xlink:href="#hd"/>
<use x="557.40" y="587.00" xlink:href="#r8"/>
<use x="593.60" y="602.00" xlink:href="#hd"/>
<path d="M597.10 602.00v-40.00" class="stroke"/>
<use x="593.60" y="596.00" xlink:href="#hd"/>
<use x="593.60" y="587.00" xlink:href="#hd"/>
<use x="584.60" y="587.00" xlink:href="#nt0"/>
<use x="593.60" y="581.00" xlink:href="#hd"/>
<path class="fill"
	d="M632.40 561.30l26.50 2.50v3.20l-26.50 -2.50"/>
<path class="fill"
	d="M650.50 568.00l8.00 0.80v3.20l-8.00 -0.80"/>
<use x="629.20" y="602.00" xlink:href="#hd"/>
<circle class="fill" cx="636.90" cy="602.00" r="1.2"/>
<path d="M632.70 602.00v-39.70" class="stroke"/>
<use x="629.20" y="596.00" xlink:href="#hd"/>
<circle class="fill" cx="636.90" cy="596.00" r="1.2"/>
<use x="629.20" y="587.00" xlink:href="#hd"/>
<circle class="fill" cx="636.90" cy="584.00" r="1.2"/>
<use x="629.20" y="581.00" xlink:href="#hd"/>
<circle class="fill" cx="636.90" cy="578.00" r="1.2"/>
<use x="655.00" y="605.00" xlink:href="#hl"/>
<use x="655.00" y="605.00" xlink:href="#hd"/>
<path d="M658.50 605.00v-40.30" class="stroke"/>
<use x="655.00" y="599.00" xlink:href="#hd"/>
<use x="655.00" y="584.00" xlink:href="#hd"/>
<use x="672.90" y="605.00" xlink:href="#hl"/>
<use x="672.90" y="605.00" xlink:href="#hd"/>
<path d="M676.40 605.00v-40.00" class="stroke"/>
<use x="672.90" y="599.00" xlink:href="#hd"/>
<use x="672.90" y="584.00" xlink:href="#hd"/>
<use x="708.40" y="605.00" xlink:href="#hl"/>
<use x="708.40" y="605.00" xlink:href="#hd"/>
<path d="M711.90 605.00v-40.00" class="stroke"/>
<path class="fill"
	d="M711.90 565.00c0.6 5.6 9.6 9 5.6 18.4
	1.6 -6 -1.3 -11.6 -5.6 -12.8
"/>
<use x="708.40" y="599.00" xlink:href="#hd"/>
<use x="708.40" y="584.00" xlink:href="#hd"/>
<use x="731.10" y="587.00" xlink:href="#r8"/>
<path class="fill"
	d="M166.10 599.00c4.50 5.01 24.07 5.01 28.57 -0.00
	v0.23c-5.36 6.79 -23.21 6.79 -28.57 -0.23"/>
<path class="fill"
	d="M166.10 590.00c4.50 -5.01 24.07 -5.01 28.57 -0.00
	v-0.23c-5.36 -6.79 -23.21 -6.79 -28.57 0.23"/>
<path class="fill"
	d="M253.10 602.00c6.74 5.28 36.42 5.28 43.15 -0.00
	v0.24c-8.03 7.03 -35.12 7.03 -43.15 -0.24"/>
<path class="fill"
	d="M597.10 602.00c4.50 5.01 24.07 5.01 28.57 -0.00
	v0.23c-5.36 6.79 -23.21 6.79 -28.57 -0.23"/>
<path class="fill"
	d="M597.10 596.00c4.50 5.01 24.07 5.01 28.57 -0.00
	v0.23c-5.36 6.79 -23.21 6.79 -28.57 -0.23"/>
<path class="fill"
	d="M597.10 587.00c4.50 -5.01 24.07 -5.01 28.57 -0.00
	v-0.23c-5.36 -6.79 -23.21 -6.79 -28.57 0.23"/>
<path class="fill"
	d="M597.10 581.00c4.50 -5.01 24.07 -5.01 28.57 -0.00
	v-0.23c-5.36 -6.79 -23.21 -6.79 -28.57 0.23"/>
<path class="fill"
	d="M676.40 605.00c4.50 5.01 24.07 5.01 28.57 -0.00
	v0.23c-5.36 6.79 -23.21 6.79 -28.57 -0.23"/>
<path class="fill"
	d="M676.40 599.00c4.50 5.01 24.07 5.01 28.57 -0.00
	v0.23c-5.36 6.79 -23.21 6.79 -28.57 -0.23"/>
<path class="fill"
	d="M676.40 584.00c4.50 -5.01 24.07 -5.01 28.57 -0.00
	v-0.23c-5.36 -6.79 -23.21 -6.79 -28.57 0.23"/>
<use x="79.20" y="640.00" xlink:href="#bclef"/>
<use x="94.20" y="652.00" xlink:href="#ft0"/>
<use x="112.70" y="634.00" xlink:href="#Hd"/>
<path d="M109.20 634.00v31.00" class="stroke"/>
<use x="112.70" y="646.00" xlink:href="#Hd"/>
<use x="112.70" y="640.00" xlink:href="#Hd"/>
<use x="162.60" y="634.00" xlink:href="#hd"/>
<path d="M159.10 634.00v34.00" class="stroke"/>
<use x="162.60" y="649.00" xlink:href="#hd"/>
<use x="162.60" y="643.00" xlink:href="#hd"/>
<path class="fill"
	d="M194.30 670.00l26.50 0.00v-3.20l-26.50 -0.00"/>
<path class="fill"
	d="M212.50 665.00l8.00 0.00v-3.20l-8.00 -0.00"/>
<use x="198.20" y="634.00" xlink:href="#hd"/>
<circle class="fill" cx="205.90" cy="631.00" r="1.2"/>
<path d="M194.70 634.00v35.00" class="stroke"/>
<use x="198.20" y="649.00" xlink:href="#hd"/>
<circle class="fill" cx="205.90" cy="649.00" r="1.2"/>
<use x="198.20" y="643.00" xlink:href="#hd"/>
<circle class="fill" cx="205.90" cy="643.00" r="1.2"/>
<use x="224.00" y="634.00" xlink:href="#hd"/>
<path d="M220.50 634.00v35.00" class="stroke"/>
<use x="224.00" y="649.00" xlink:href="#hd"/>
<use x="224.00" y="643.00" xlink:href="#hd"/>
<use x="249.60" y="634.00" xlink:href="#Hd"/>
<path d="M246.10 634.00v37.00" class="stroke"/>
<use x="249.60" y="652.00" xlink:href="#Hd"/>
<use x="249.60" y="646.00" xlink:href="#Hd"/>
<use x="299.80" y="637.00" xlink:href="#hd"/>
<path d="M296.30 637.00v34.00" class="stroke"/>
<path class="fill"
	d="M296.30 671.00c0.6 -5.6 9.6 -9 5.6 -18.4
	1.6 6 -1.3 11.6 -5.6 12.8
"/>
<use x="299.80" y="652.00" xlink:href="#hd"/>
<use x="299.80" y="646.00" xlink:href="#hd"/>
<use x="322.50" y="646.00" xlink:href="#r8"/>
<path class="fill"
	d="M343.70 676.00l26.60 0.00v-3.20l-26.60 -0.00"/>
<path class="fill"
	d="M361.90 671.00l8.00 0.00v-3.20l-8.00 -0.00"/>
<use x="347.50" y="634.00" xlink:href="#hd"/>
<circle class="fill" cx="355.20" cy="631.00" r="1.2"/>
<path d="M344.00 634.00v41.00" class="stroke"/>
<use x="347.50" y="655.00" xlink:href="#hd"/>
<circle class="fill" cx="355.20" cy="655.00" r="1.2"/>
<use x="347.50" y="649.00" xlink:href="#hd"/>
<circle class="fill" cx="355.20" cy="649.00" r="1.2"/>
<use x="373.40" y="634.00" xlink:href="#hd"/>
<path d="M369.90 634.00v41.00" class="stroke"/>
<use x="373.40" y="655.00" xlink:href="#hd"/>
<use x="373.40" y="649.00" xlink:href="#hd"/>
<use x="398.70" y="658.00" xlink:href="#hd"/>
<path d="M402.20 658.00v-40.00" class="stroke"/>
<path class="fill"
	d="M402.20 618.00c0.6 5.6 9.6 9 5.6 18.4
	1.6 -6 -1.3 -11.6 -5.6 -12.8
"/>
<use x="398.70" y="649.00" xlink:href="#hd"/>
<use x="398.70" y="637.00" xlink:href="#hd"/>
<use x="421.40" y="646.00" xlink:href="#r8"/>
<use x="444.00" y="661.00" xlink:href="#hd"/>
<path d="M447.50 661.00v-40.00" class="stroke"/>
<path class="fill"
	d="M447.50 621.00c0.6 5.6 9.6 9 5.6 18.4
	1.6 -6 -1.3 -11.6 -5.6 -12.8
"/>
<use x="444.00" y="649.00" xlink:href="#hd"/>
<use x="444.00" y="640.00" xlink:href="#hd"/>
<use x="466.70" y="646.00" xlink:href="#r8"/>
<use x="489.30" y="664.00" xlink:href="#hl"/>
<use x="489.30" y="664.00" xlink:href="#hd"/>
<path d="M492.80 664.00v-40.00" class="stroke"/>
<path class="fill"
	d="M492.80 624.00c0.6 5.6 9.6 9 5.6 18.4
	1.6 -6 -1.3 -11.6 -5.6 -12.8
"/>
<use x="489.30" y="649.00" xlink:href="#hd"/>
<use x="489.30" y="643.00" xlink:href="#hd"/>
<use x="512.00" y="646.00" xlink:href="#r8"/>
<use x="534.70" y="658.00" xlink:href="#hd"/>
<path d="M538.20 658.00v-31.00" class="stroke"/>
<path class="fill"
	d="M538.20 627.00c0.6 5.6 9.6 9 5.6 18.4
	1.6 -6 -1.3 -11.6 -5.6 -12.8
"/>
<use x="534.70" y="646.00" xlink:href="#hd"/>
<use x="557.40" y="646.00" xlink:href="#r8"/>
<use x="593.60" y="658.00" xlink:href="#hd"/>
<path d="M597.10 658.00v-40.00" class="stroke"/>
<use x="593.60" y="637.00" xlink:href="#hd"/>
<path class="fill"
	d="M632.40 619.70l26.50 6.40v3.20l-26.50 -6.40"/>
<path class="fill"
	d="M650.50 629.10l8.00 1.90v3.20l-8.00 -1.90"/>
<use x="629.20" y="658.00" xlink:href="#hd"/>
<circle class="fill" cx="636.90" cy="655.00" r="1.2"/>
<path d="M632.70 658.00v-37.20" class="stroke"/>
<use x="629.20" y="637.00" xlink:href="#hd"/>
<circle class="fill" cx="636.90" cy="637.00" r="1.2"/>
<use x="655.00" y="664.00" xlink:href="#hl"/>
<use x="655.00" y="670.00" xlink:href="#hl"/>
<use x="655.00" y="670.00" xlink:href="#hd"/>
<path d="M658.50 670.00v-43.00" class="stroke"/>
<use x="655.00" y="649.00" xlink:href="#hd"/>
<use x="672.90" y="664.00" xlink:href="#hl"/>
<use x="672.90" y="670.00" xlink:href="#hl"/>
<use x="672.90" y="670.00" xlink:href="#hd"/>
<path d="M676.40 670.00v-40.00" class="stroke"/>
<use x="672.90" y="649.00" xlink:href="#hd"/>
<use x="708.40" y="664.00" xlink:href="#hl"/>
<use x="708.40" y="670.00" xlink:href="#hl"/>
<use x="708.40" y="670.00" xlink:href="#hd"/>
<path d="M711.90 670.00v-40.00" class="stroke"/>
<path class="fill"
	d="M711.90 630.00c0.6 5.6 9.6 9 5.6 18.4
	1.6 -6 -1.3 -11.6 -5.6 -12.8
"/>
<use x="708.40" y="649.00" xlink:href="#hd"/>
<use x="731.10" y="646.00" xlink:href="#r8"/>
<path class="fill"
	d="M166.10 649.00c4.50 5.01 24.07 5.01 28.57 -0.00
	v0.23c-5.36 6.79 -23.21 6.79 -28.57 -0.23"/>
<path class="fill"
	d="M166.10 643.00c4.50 -5.01 24.07 -5.01 28.57 -0.00
	v-0.23c-5.36 -6.79 -23.21 -6.79 -28.57 0.23"/>
<path class="fill"
	d="M166.10 634.00c4.50 -5.01 24.07 -5.01 28.57 -0.00
	v-0.23c-5.36 -6.79 -23.21 -6.79 -28.57 0.23"/>
<path class="fill"
	d="M253.10 652.00c6.74 5.28 36.42 5.28 43.15 -0.00
	v0.24c-8.03 7.03 -35.12 7.03 -43.15 -0.24"/>
<path class="fill"
	d="M253.10 646.00c6.74 -5.28 36.42 -5.28 43.15 -0.00
	v-0.24c-8.03 -7.03 -35.12 -7.03 -43.15 0.24"/>
<path class="fill"
	d="M597.10 658.00c4.50 5.01 24.07 5.01 28.57 -0.00
	v0.23c-5.36 6.79 -23.21 6.79 -28.57 -0.23"/>
<path class="fill"
	d="M597.10 637.00c4.50 -5.01 24.07 -5.01 28.57 -0.00
	v-0.23c-5.36 -6.79 -23.21 -6.79 -28.57 0.23"/>
<path class="fill"
	d="M676.40 670.00c4.50 5.01 24.07 5.01 28.57 -0.00
	v0.23c-5.36 6.79 -23.21 6.79 -28.57 -0.23"/>
<path class="fill"
	d="M676.40 649.00c4.50 -5.01 24.07 -5.01 28.57 -0.00
	v-0.23c-5.36 -6.79 -23.21 -6.79 -28.57 0.23"/>
</g>
<g stroke-width="0.70" font-family="serif" font-size="15.00" font-weight="bold">
<path class="stroke" stroke-width="1"
	d="M67.20 801.00v-97.00"/>
<g transform="translate(67.20,704.00) scale(1,0.97)">
	<use xlink:href="#brace"/>
</g>
<defs>
<g id="rdots" class="fill">
	<circle cx="0" cy="-9" r="1.2"/>
	<circle cx="0" cy="-15" r="1.2"/>
</g>
</defs>
<use x="118.70" y="728.00" xlink:href="#rdots"/>
<path class="stroke" stroke-width="1"
	d="M114.70 728.00v-24.00"/>
<path class="stroke" stroke-width="3"
	d="M110.20 728.00v-24.00"/>
<use x="118.70" y="801.00" xlink:href="#rdots"/>
<path class="stroke" stroke-width="1"
	d="M114.70 801.00v-73.00"/>
<path class="stroke" stroke-width="3"
	d="M110.20 801.00v-73.00"/>
<path class="stroke" stroke-width="1"
	d="M273.80 728.00v-24.00"/>
<path class="stroke" stroke-width="1"
	d="M273.80 801.00v-73.00"/>
<path class="stroke" stroke-width="1"
	d="M428.00 728.00v-24.00"/>
<path class="stroke" stroke-width="1"
	d="M428.00 801.00v-73.00"/>
<path class="stroke" stroke-width="1"
	d="M592.70 728.00v-24.00"/>
<path class="stroke" stroke-width="1"
	d="M592.70 801.00v-73.00"/>
<path class="stroke" stroke-width="1"
	d="M748.80 728.00v-24.00"/>
<path class="stroke" stroke-width="1"
	d="M748.80 801.00v-73.00"/>
<path d="m67.20 728.00
	h681.60
	M67.20 722.00
	h681.60
	M67.20 716.00
	h681.60
	M67.20 710.00
	h681.60
	M67.20 704.00
	h681.60
	" class="stroke"/>
<path d="m67.20 801.00
	h681.60
	M67.20 795.00
	h681.60
	M67.20 789.00
	h681.60
	M67.20 783.00
	h681.60
	M67.20 777.00
	h681.60
	" class="stroke"/>
</g>
<g stroke-width="0.70" font-family="Bookman" font-size="12.00" font-style="italic">
<text x="432.50" y="755.60">cresc.</text>
<text x="695.20" y="757.10">dim.</text>
<use x="79.20" y="722.00" xlink:href="#tclef"/>
<use x="94.20" y="716.00" xlink:href="#ft0"/>
<use x="132.70" y="734.00" xlink:href="#hl"/>
<use x="132.70" y="740.00" xlink:href="#hl"/>
<use x="132.70" y="740.00" xlink:href="#Hd"/>
<path d="M136.20 740.00v-34.00" class="stroke"/>
<use x="132.70" y="734.00" xlink:href="#Hd"/>
<use x="132.70" y="725.00" xlink:href="#Hd"/>
<use x="200.70" y="734.00" xlink:href="#hl"/>
<use x="200.70" y="740.00" xlink:href="#hl"/>
<use x="200.70" y="740.00" xlink:href="#hd"/>
<path d="M204.20 740.00v-34.00" class="stroke"/>
<path class="fill"
	d="M204.20 706.00c0.6 5.6 9.6 9 5.6 18.4
	1.6 -6 -1.3 -11.6 -5.6 -12.8
"/>
<use x="200.70" y="734.00" xlink:href="#hd"/>
<use x="200.70" y="725.00" xlink:href="#hd"/>
<use x="220.10" y="716.00" xlink:href="#r8"/>
<path class="fill"
	d="M242.30 707.90l20.10 -3.80v3.20l-20.10 3.80"/>
<use x="239.20" y="734.00" xlink:href="#hl"/>
<use x="239.20" y="740.00" xlink:href="#hl"/>
<use x="239.20" y="740.00" xlink:href="#hd"/>
<path d="M242.70 740.00v-31.10" class="stroke"/>
<use x="239.20" y="734.00" xlink:href="#hd"/>
<use x="239.20" y="728.00" xlink:href="#hd"/>
<use x="258.60" y="734.00" xlink:href="#hl"/>
<use x="258.60" y="740.00" xlink:href="#hl"/>
<use x="258.60" y="740.00" xlink:href="#hd"/>
<path d="M262.10 740.00v-34.90" class="stroke"/>
<use x="258.60" y="734.00" xlink:href="#hd"/>
<use x="258.60" y="722.00" xlink:href="#hd"/>
<use x="286.80" y="734.00" xlink:href="#hl"/>
<use x="286.80" y="740.00" xlink:href="#hl"/>
<use x="286.80" y="740.00" xlink:href="#Hd"/>
<path d="M290.30 740.00v-34.00" class="stroke"/>
<use x="286.80" y="734.00" xlink:href="#Hd"/>
<use x="286.80" y="725.00" xlink:href="#Hd"/>
<use x="354.80" y="734.00" xlink:href="#hl"/>
<use x="354.80" y="740.00" xlink:href="#hl"/>
<use x="354.80" y="740.00" xlink:href="#hd"/>
<path d="M358.30 740.00v-34.00" class="stroke"/>
<path class="fill"
	d="M358.30 706.00c0.6 5.6 9.6 9 5.6 18.4
	1.6 -6 -1.3 -11.6 -5.6 -12.8
"/>
<use x="354.80" y="734.00" xlink:href="#hd"/>
<use x="354.80" y="725.00" xlink:href="#hd"/>
<use x="374.20" y="716.00" xlink:href="#r8"/>
<path class="fill"
	d="M396.40 705.70l20.10 -2.40v3.20l-20.10 2.40"/>
<use x="393.30" y="734.00" xlink:href="#hl"/>
<use x="393.30" y="740.00" xlink:href="#hl"/>
<use x="393.30" y="740.00" xlink:href="#hd"/>
<path d="M396.80 740.00v-33.40" class="stroke"/>
<use x="393.30" y="734.00" xlink:href="#hd"/>
<use x="393.30" y="725.00" xlink:href="#hd"/>
<use x="412.70" y="734.00" xlink:href="#hl"/>
<use x="412.70" y="740.00" xlink:href="#hl"/>
<use x="412.70" y="740.00" xlink:href="#hd"/>
<path d="M416.20 740.00v-35.60" class="stroke"/>
<use x="412.70" y="734.00" xlink:href="#hd"/>
<use x="412.70" y="722.00" xlink:href="#hd"/>
<use x="440.50" y="734.00" xlink:href="#hl"/>
<use x="440.50" y="740.00" xlink:href="#hl"/>
<use x="440.50" y="740.00" xlink:href="#hd"/>
<path d="M444.00 740.00v-40.00" class="stroke"/>
<path class="fill"
	d="M444.00 700.00c0.6 5.6 9.6 9 5.6 18.4
	1.6 -6 -1.3 -11.6 -5.6 -12.8
"/>
<use x="440.50" y="734.00" xlink:href="#hd"/>
<use x="440.50" y="719.00" xlink:href="#hd"/>
<use x="459.90" y="716.00" xlink:href="#r8"/>
<path class="fill"
	d="M482.10 699.70l20.10 -2.40v3.20l-20.10 2.40"/>
<use x="478.90" y="734.00" xlink:href="#hl"/>
<use x="478.90" y="734.00" xlink:href="#hd"/>
<path d="M482.40 734.00v-33.40" class="stroke"/>
<use x="478.90" y="725.00" xlink:href="#hd"/>
<use x="478.90" y="719.00" xlink:href="#hd"/>
<use x="498.30" y="734.00" xlink:href="#hl"/>
<use x="498.30" y="734.00" xlink:href="#hd"/>
<path d="M501.80 734.00v-35.60" class="stroke"/>
<use x="498.30" y="725.00" xlink:href="#hd"/>
<use x="498.30" y="716.00" xlink:href="#hd"/>
<use x="519.50" y="734.00" xlink:href="#hl"/>
<use x="519.50" y="734.00" xlink:href="#hd"/>
<path d="M523.00 734.00v-40.00" class="stroke"/>
<path class="fill"
	d="M523.00 694.00c0.6 5.6 9.6 9 5.6 18.4
	1.6 -6 -1.3 -11.6 -5.6 -12.8
"/>
<use x="519.50" y="725.00" xlink:href="#hd"/>
<use x="519.50" y="719.00" xlink:href="#hd"/>
<use x="519.50" y="713.00" xlink:href="#hd"/>
<use x="539.00" y="716.00" xlink:href="#r8"/>
<use x="558.00" y="725.00" xlink:href="#hd"/>
<path d="M561.50 725.00v-34.00" class="stroke"/>
<path class="fill"
	d="M561.50 691.00c0.6 5.6 9.6 9 5.6 18.4
	1.6 -6 -1.3 -11.6 -5.6 -12.8
"/>
<use x="558.00" y="719.00" xlink:href="#hd"/>
<use x="558.00" y="710.00" xlink:href="#hd"/>
<use x="577.40" y="716.00" xlink:href="#r8"/>
<use x="605.70" y="734.00" xlink:href="#hl"/>
<use x="605.70" y="737.00" xlink:href="#Hd"/>
<path d="M609.20 737.00v-34.00" class="stroke"/>
<use x="613.50" y="734.00" xlink:href="#hl"/>
<use x="613.50" y="734.00" xlink:href="#Hd"/>
<use x="605.70" y="728.00" xlink:href="#Hd"/>
<use x="605.70" y="722.00" xlink:href="#Hd"/>
<path class="fill"
	d="M676.80 697.80l60.50 0.00v3.20l-60.50 -0.00"/>
<use x="673.70" y="734.00" xlink:href="#hl"/>
<use x="673.70" y="737.00" xlink:href="#hd"/>
<path d="M677.20 737.00v-38.20" class="stroke"/>
<use x="680.70" y="734.00" xlink:href="#hl"/>
<use x="680.70" y="734.00" xlink:href="#hd"/>
<use x="673.70" y="728.00" xlink:href="#hd"/>
<use x="673.70" y="722.00" xlink:href="#hd"/>
<use x="695.20" y="734.00" xlink:href="#hl"/>
<use x="695.20" y="734.00" xlink:href="#hd"/>
<path d="M698.70 734.00v-35.20" class="stroke"/>
<use x="695.20" y="728.00" xlink:href="#hd"/>
<use x="695.20" y="716.00" xlink:href="#hd"/>
<use x="714.40" y="734.00" xlink:href="#hl"/>
<use x="714.40" y="734.00" xlink:href="#hd"/>
<path d="M717.90 734.00v-35.20" class="stroke"/>
<use x="714.40" y="728.00" xlink:href="#hd"/>
<use x="714.40" y="722.00" xlink:href="#hd"/>
<use x="733.50" y="734.00" xlink:href="#hl"/>
<use x="733.50" y="734.00" xlink:href="#hd"/>
<path d="M737.00 734.00v-35.20" class="stroke"/>
<use x="733.50" y="728.00" xlink:href="#hd"/>
<use x="733.50" y="719.00" xlink:href="#hd"/>
<path class="fill"
	d="M136.20 740.00c9.03 5.60 51.96 5.60 60.99 -0.00
	v0.26c-10.86 7.34 -50.13 7.34 -60.99 -0.26"/>
<path class="fill"
	d="M136.20 734.00c9.03 5.60 51.96 5.60 60.99 -0.00
	v0.26c-10.86 7.34 -50.13 7.34 -60.99 -0.26"/>
<path class="fill"
	d="M136.20 725.00c9.03 -5.60 51.96 -5.60 60.99 -0.00
	v-0.26c-10.86 -7.34 -50.13 -7.34 -60.99 0.26"/>
<path class="fill"
	d="M290.30 740.00c9.03 5.60 51.96 5.60 60.99 -0.00
	v0.26c-10.86 7.34 -50.13 7.34 -60.99 -0.26"/>
<path class="fill"
	d="M290.30 734.00c9.03 5.60 51.96 5.60 60.99 -0.00
	v0.26c-10.86 7.34 -50.13 7.34 -60.99 -0.26"/>
<path class="fill"
	d="M290.30 725.00c9.03 -5.60 51.96 -5.60 60.99 -0.00
	v-0.26c-10.86 -7.34 -50.13 -7.34 -60.99 0.26"/>
<path class="fill"
	d="M609.20 737.00c9.03 5.60 51.96 5.60 60.99 -0.00
	v0.26c-10.86 7.34 -50.13 7.34 -60.99 -0.26"/>
<path class="fill"
	d="M613.90 734.00c8.97 -5.59 51.55 -5.59 60.52 -0.00
	v-0.26c-10.79 -7.33 -49.73 -7.33 -60.52 0.26"/>
<path class="fill"
	d="M609.20 728.00c9.03 -5.60 51.96 -5.60 60.99 -0.00
	v-0.26c-10.86 -7.34 -50.13 -7.34 -60.99 0.26"/>
<path class="fill"
	d="M609.20 722.00c9.03 -5.60 51.96 -5.60 60.99 -0.00
	v-0.26c-10.86 -7.34 -50.13 -7.34 -60.99 0.26"/>
<use x="79.20" y="783.00" xlink:href="#bclef"/>
<use x="94.20" y="795.00" xlink:href="#ft0"/>
<defs>
<path id="r4" class="fill" d="m-1 -8.5
	l3.6 5.1 -2.1 5.2 2.2 4.3
	c-2.6 -2.3 -5.1 0 -2.4 2.6
	-4.8 -3 -1.5 -6.9 1.4 -4.1
	l-3.1 -4.5 1.9 -5.1 -1.5 -3.5"/>
</defs>
<use x="132.70" y="789.00" xlink:href="#r4"/>
<use x="162.20" y="804.00" xlink:href="#hd"/>
<path d="M165.70 804.00v-40.00" class="stroke"/>
<path class="fill"
	d="M165.70 764.00c0.6 5.6 9.6 9 5.6 18.4
	1.6 -6 -1.3 -11.6 -5.6 -12.8
"/>
<use x="162.20" y="783.00" xlink:href="#hd"/>
<use x="181.60" y="789.00" xlink:href="#r8"/>
<use x="200.70" y="807.00" xlink:href="#hl"/>
<use x="200.70" y="813.00" xlink:href="#hl"/>
<use x="200.70" y="813.00" xlink:href="#hd"/>
<path d="M204.20 813.00v-40.00" class="stroke"/>
<use x="200.70" y="792.00" xlink:href="#hd"/>
<use x="239.20" y="807.00" xlink:href="#hl"/>
<use x="239.20" y="813.00" xlink:href="#hl"/>
<use x="239.20" y="813.00" xlink:href="#hd"/>
<path d="M242.70 813.00v-40.00" class="stroke"/>
<path class="fill"
	d="M242.70 773.00c0.6 5.6 9.6 9 5.6 18.4
	1.6 -6 -1.3 -11.6 -5.6 -12.8
"/>
<use x="239.20" y="792.00" xlink:href="#hd"/>
<use x="258.60" y="789.00" xlink:href="#r8"/>
<use x="286.80" y="789.00" xlink:href="#r4"/>
<use x="316.30" y="804.00" xlink:href="#hd"/>
<path d="M319.80 804.00v-40.00" class="stroke"/>
<path class="fill"
	d="M319.80 764.00c0.6 5.6 9.6 9 5.6 18.4
	1.6 -6 -1.3 -11.6 -5.6 -12.8
"/>
<use x="316.30" y="783.00" xlink:href="#hd"/>
<use x="335.80" y="789.00" xlink:href="#r8"/>
<use x="354.80" y="807.00" xlink:href="#hl"/>
<use x="354.80" y="813.00" xlink:href="#hl"/>
<use x="354.80" y="813.00" xlink:href="#hd"/>
<path d="M358.30 813.00v-40.00" class="stroke"/>
<use x="354.80" y="792.00" xlink:href="#hd"/>
<use x="393.30" y="807.00" xlink:href="#hl"/>
<use x="393.30" y="813.00" xlink:href="#hl"/>
<use x="393.30" y="813.00" xlink:href="#hd"/>
<path d="M396.80 813.00v-40.00" class="stroke"/>
<path class="fill"
	d="M396.80 773.00c0.6 5.6 9.6 9 5.6 18.4
	1.6 -6 -1.3 -11.6 -5.6 -12.8
"/>
<use x="393.30" y="792.00" xlink:href="#hd"/>
<use x="412.70" y="789.00" xlink:href="#r8"/>
<use x="440.50" y="789.00" xlink:href="#r4"/>
<use x="478.90" y="804.00" xlink:href="#hd"/>
<path d="M482.40 804.00v-40.00" class="stroke"/>
<path class="fill"
	d="M482.40 764.00c0.6 5.6 9.6 9 5.6 18.4
	1.6 -6 -1.3 -11.6 -5.6 -12.8
"/>
<use x="478.90" y="783.00" xlink:href="#hd"/>
<use x="498.30" y="789.00" xlink:href="#r8"/>
<use x="519.50" y="807.00" xlink:href="#hl"/>
<use x="519.50" y="813.00" xlink:href="#hl"/>
<use x="519.50" y="813.00" xlink:href="#hd"/>
<path d="M523.00 813.00v-40.00" class="stroke"/>
<use x="519.50" y="792.00" xlink:href="#hd"/>
<use x="558.00" y="807.00" xlink:href="#hl"/>
<use x="558.00" y="813.00" xlink:href="#hl"/>
<use x="558.00" y="813.00" xlink:href="#hd"/>
<path d="M561.50 813.00v-40.00" class="stroke"/>
<path class="fill"
	d="M561.50 773.00c0.6 5.6 9.6 9 5.6 18.4
	1.6 -6 -1.3 -11.6 -5.6 -12.8
"/>
<use x="558.00" y="792.00" xlink:href="#hd"/>
<use x="577.40" y="789.00" xlink:href="#r8"/>
<use x="605.70" y="789.00" xlink:href="#r4"/>
<use x="635.20" y="801.00" xlink:href="#hd"/>
<path d="M638.70 801.00v-40.00" class="stroke"/>
<path class="fill"
	d="M638.70 761.00c0.6 5.6 9.6 9 5.6 18.4
	1.6 -6 -1.3 -11.6 -5.6 -12.8
"/>
<use x="635.20" y="780.00" xlink:href="#hd"/>
<use x="654.60" y="789.00" xlink:href="#r8"/>
<use x="673.70" y="807.00" xlink:href="#hl"/>
<use x="673.70" y="813.00" xlink:href="#hl"/>
<use x="673.70" y="813.00" xlink:href="#hd"/>
<path d="M677.20 813.00v-40.00" class="stroke"/>
<path class="fill"
	d="M677.20 773.00c0.6 5.6 9.6 9 5.6 18.4
	1.6 -6 -1.3 -11.6 -5.6 -12.8
"/>
<use x="673.70" y="792.00" xlink:href="#hd"/>
<use x="695.20" y="789.00" xlink:href="#r8"/>
<path class="fill"
	d="M710.50 795.20l19.90 0.00v-3.20l-19.90 -0.00"/>
<use x="714.40" y="774.00" xlink:href="#hd"/>
<path d="M710.90 774.00v20.20" class="stroke"/>
<use x="733.50" y="774.00" xlink:href="#hd"/>
<path d="M730.00 774.00v20.20" class="stroke"/>
<path class="fill"
	d="M204.20 813.00c4.96 5.07 26.51 5.07 31.47 -0.00
	v0.23c-5.90 6.83 -25.57 6.83 -31.47 -0.23"/>
<path class="fill"
	d="M204.20 792.00c4.96 -5.07 26.51 -5.07 31.47 -0.00
	v-0.23c-5.90 -6.83 -25.57 -6.83 -31.47 0.23"/>
<path class="fill"
	d="M358.30 813.00c4.96 5.07 26.51 5.07 31.47 -0.00
	v0.23c-5.90 6.83 -25.57 6.83 -31.47 -0.23"/>
<path class="fill"
	d="M358.30 792.00c4.96 -5.07 26.51 -5.07 31.47 -0.00
	v-0.23c-5.90 -6.83 -25.57 -6.83 -31.47 0.23"/>
<path class="fill"
	d="M523.00 813.00c4.96 5.07 26.51 5.07 31.47 -0.00
	v0.23c-5.90 6.83 -25.57 6.83 -31.47 -0.23"/>
<path class="fill"
	d="M523.00 792.00c4.96 -5.07 26.51 -5.07 31.47 -0.00
	v-0.23c-5.90 -6.83 -25.57 -6.83 -31.47 0.23"/>
<text font-family="serif" font-size="16" font-weight="bold" font-style="italic"
	x="130.70" y="760.40">p</text>
<path class="stroke"
d="M424.00 764.00l-27.70 -4l27.70 -4"/>
</g>
<g stroke-width="0.70" font-family="Bookman" font-size="12.00" font-style="italic">
<path class="stroke" stroke-width="1"
	d="M67.20 944.00v-97.00"/>
<g transform="translate(67.20,847.00) scale(1,0.97)">
	<use xlink:href="#brace"/>
</g>
<path class="stroke" stroke-width="1"
	d="M253.40 871.00v-24.00"/>
<path class="stroke" stroke-width="1"
	d="M253.40 944.00v-73.00"/>
<path class="stroke" stroke-width="1"
	d="M407.20 871.00v-24.00"/>
<path class="stroke" stroke-width="1"
	d="M407.20 944.00v-73.00"/>
<path class="stroke" stroke-width="1"
	d="M575.10 871.00v-24.00"/>
<path class="stroke" stroke-width="1"
	d="M575.10 944.00v-73.00"/>
<path class="stroke" stroke-width="3"
	d="M747.30 871.00v-24.00"/>
<path class="stroke" stroke-width="1"
	d="M742.80 871.00v-24.00"/>
<use x="738.80" y="871.00" xlink:href="#rdots"/>
<path class="stroke" stroke-width="3"
	d="M747.30 944.00v-73.00"/>
<path class="stroke" stroke-width="1"
	d="M742.80 944.00v-73.00"/>
<use x="738.80" y="944.00" xlink:href="#rdots"/>
<path d="m67.20 871.00
	h681.60
	M67.20 865.00
	h681.60
	M67.20 859.00
	h681.60
	M67.20 853.00
	h681.60
	M67.20 847.00
	h681.60
	" class="stroke"/>
<path d="m67.20 944.00
	h681.60
	M67.20 938.00
	h681.60
	M67.20 932.00
	h681.60
	M67.20 926.00
	h681.60
	M67.20 920.00
	h681.60
	" class="stroke"/>
<text x="460.10" y="902.10">cresc.</text>
<use x="79.20" y="865.00" xlink:href="#tclef"/>
<use x="94.20" y="859.00" xlink:href="#ft0"/>
<use x="112.70" y="877.00" xlink:href="#hl"/>
<use x="112.70" y="883.00" xlink:href="#hl"/>
<use x="112.70" y="883.00" xlink:href="#Hd"/>
<path d="M116.20 883.00v-34.00" class="stroke"/>
<use x="112.70" y="877.00" xlink:href="#Hd"/>
<use x="112.70" y="868.00" xlink:href="#Hd"/>
<use x="180.50" y="877.00" xlink:href="#hl"/>
<use x="180.50" y="883.00" xlink:href="#hl"/>
<use x="180.50" y="883.00" xlink:href="#hd"/>
<path d="M184.00 883.00v-34.00" class="stroke"/>
<path class="fill"
	d="M184.00 849.00c0.6 5.6 9.6 9 5.6 18.4
	1.6 -6 -1.3 -11.6 -5.6 -12.8
"/>
<use x="180.50" y="877.00" xlink:href="#hd"/>
<use x="180.50" y="868.00" xlink:href="#hd"/>
<use x="199.80" y="859.00" xlink:href="#r8"/>
<path class="fill"
	d="M222.00 850.90l20.10 -3.80v3.20l-20.10 3.80"/>
<use x="218.80" y="877.00" xlink:href="#hl"/>
<use x="218.80" y="883.00" xlink:href="#hl"/>
<use x="218.80" y="883.00" xlink:href="#hd"/>
<path d="M222.30 883.00v-31.10" class="stroke"/>
<use x="218.80" y="877.00" xlink:href="#hd"/>
<use x="218.80" y="871.00" xlink:href="#hd"/>
<use x="238.20" y="877.00" xlink:href="#hl"/>
<use x="238.20" y="883.00" xlink:href="#hl"/>
<use x="238.20" y="883.00" xlink:href="#hd"/>
<path d="M241.70 883.00v-34.90" class="stroke"/>
<use x="238.20" y="877.00" xlink:href="#hd"/>
<use x="238.20" y="865.00" xlink:href="#hd"/>
<use x="266.40" y="877.00" xlink:href="#hl"/>
<use x="266.40" y="883.00" xlink:href="#hl"/>
<use x="266.40" y="883.00" xlink:href="#Hd"/>
<path d="M269.90 883.00v-34.00" class="stroke"/>
<use x="266.40" y="877.00" xlink:href="#Hd"/>
<use x="266.40" y="868.00" xlink:href="#Hd"/>
<use x="334.20" y="877.00" xlink:href="#hl"/>
<use x="334.20" y="883.00" xlink:href="#hl"/>
<use x="334.20" y="883.00" xlink:href="#hd"/>
<path d="M337.70 883.00v-34.00" class="stroke"/>
<path class="fill"
	d="M337.70 849.00c0.6 5.6 9.6 9 5.6 18.4
	1.6 -6 -1.3 -11.6 -5.6 -12.8
"/>
<use x="334.20" y="877.00" xlink:href="#hd"/>
<use x="334.20" y="868.00" xlink:href="#hd"/>
<use x="353.60" y="859.00" xlink:href="#r8"/>
<path class="fill"
	d="M375.70 848.70l20.10 -2.40v3.20l-20.10 2.40"/>
<use x="372.60" y="877.00" xlink:href="#hl"/>
<use x="372.60" y="883.00" xlink:href="#hl"/>
<use x="372.60" y="883.00" xlink:href="#hd"/>
<path d="M376.10 883.00v-33.40" class="stroke"/>
<use x="372.60" y="877.00" xlink:href="#hd"/>
<use x="372.60" y="868.00" xlink:href="#hd"/>
<use x="392.00" y="877.00" xlink:href="#hl"/>
<use x="392.00" y="883.00" xlink:href="#hl"/>
<use x="392.00" y="883.00" xlink:href="#hd"/>
<path d="M395.50 883.00v-35.60" class="stroke"/>
<use x="392.00" y="877.00" xlink:href="#hd"/>
<use x="392.00" y="865.00" xlink:href="#hd"/>
<use x="419.70" y="877.00" xlink:href="#hl"/>
<use x="419.70" y="883.00" xlink:href="#hl"/>
<use x="419.70" y="883.00" xlink:href="#hd"/>
<path d="M423.20 883.00v-40.00" class="stroke"/>
<path class="fill"
	d="M423.20 843.00c0.6 5.6 9.6 9 5.6 18.4
	1.6 -6 -1.3 -11.6 -5.6 -12.8
"/>
<use x="419.70" y="877.00" xlink:href="#hd"/>
<use x="419.70" y="862.00" xlink:href="#hd"/>
<use x="439.10" y="859.00" xlink:href="#r8"/>
<path class="fill"
	d="M463.30 844.00l19.80 0.00v3.20l-19.80 -0.00"/>
<use x="460.10" y="877.00" xlink:href="#hl"/>
<use x="460.10" y="877.00" xlink:href="#hd"/>
<path d="M463.60 877.00v-32.00" class="stroke"/>
<use x="460.10" y="868.00" xlink:href="#hd"/>
<use x="460.10" y="862.00" xlink:href="#hd"/>
<use x="479.20" y="877.00" xlink:href="#hl"/>
<use x="479.20" y="877.00" xlink:href="#hd"/>
<path d="M482.70 877.00v-32.00" class="stroke"/>
<use x="479.20" y="868.00" xlink:href="#hd"/>
<use x="479.20" y="862.00" xlink:href="#hd"/>
<use x="500.40" y="847.00" xlink:href="#hd"/>
<path d="M496.90 847.00v40.00" class="stroke"/>
<path class="fill"
	d="M496.90 887.00c0.6 -5.6 9.6 -9 5.6 -18.4
	1.6 6 -1.3 11.6 -5.6 12.8
"/>
<use x="500.40" y="868.00" xlink:href="#hd"/>
<use x="500.40" y="862.00" xlink:href="#hd"/>
<use x="500.40" y="853.00" xlink:href="#hd"/>
<use x="519.40" y="859.00" xlink:href="#r8"/>
<use x="540.50" y="850.00" xlink:href="#hd"/>
<path d="M537.00 850.00v37.00" class="stroke"/>
<path class="fill"
	d="M537.00 887.00c0.6 -5.6 9.6 -9 5.6 -18.4
	1.6 6 -1.3 11.6 -5.6 12.8
"/>
<use x="540.50" y="868.00" xlink:href="#hd"/>
<use x="540.50" y="862.00" xlink:href="#hd"/>
<use x="540.50" y="856.00" xlink:href="#hd"/>
<use x="559.90" y="859.00" xlink:href="#r8"/>
<use x="593.60" y="868.00" xlink:href="#hd"/>
<circle class="fill" cx="608.30" cy="868.00" r="1.2"/>
<path d="M597.10 868.00v-34.00" class="stroke"/>
<use x="600.60" y="865.00" xlink:href="#hd"/>
<circle class="fill" cx="608.30" cy="862.00" r="1.2"/>
<use x="593.60" y="859.00" xlink:href="#hd"/>
<circle class="fill" cx="608.30" cy="856.00" r="1.2"/>
<use x="584.60" y="859.00" xlink:href="#nt0"/>
<use x="593.60" y="853.00" xlink:href="#hd"/>
<circle class="fill" cx="608.30" cy="850.00" r="1.2"/>
<use x="646.50" y="868.00" xlink:href="#hd"/>
<path d="M650.00 868.00v-37.00" class="stroke"/>
<path class="fill"
	d="M650.00 831.00c0.6 5.6 9.6 9 5.6 18.4
	1.6 -6 -1.3 -11.6 -5.6 -12.8
"/>
<use x="653.60" y="865.00" xlink:href="#hd"/>
<use x="646.50" y="859.00" xlink:href="#hd"/>
<use x="637.50" y="859.00" xlink:href="#nt0"/>
<use x="646.50" y="850.00" xlink:href="#hd"/>
<use x="668.50" y="871.00" xlink:href="#hd"/>
<path d="M672.00 871.00v-34.00" class="stroke"/>
<use x="668.50" y="865.00" xlink:href="#hd"/>
<use x="668.50" y="856.00" xlink:href="#hd"/>
<use x="708.90" y="871.00" xlink:href="#hd"/>
<path d="M712.40 871.00v-34.00" class="stroke"/>
<path class="fill"
	d="M712.40 837.00c0.6 5.6 9.6 9 5.6 18.4
	1.6 -6 -1.3 -11.6 -5.6 -12.8
"/>
<use x="708.90" y="865.00" xlink:href="#hd"/>
<use x="708.90" y="856.00" xlink:href="#hd"/>
<use x="728.30" y="859.00" xlink:href="#r8"/>
<path class="fill"
	d="M116.20 883.00c9.00 5.59 51.76 5.59 60.77 -0.00
	v0.26c-10.83 7.33 -49.94 7.33 -60.77 -0.26"/>
<path class="fill"
	d="M116.20 877.00c9.00 5.59 51.76 5.59 60.77 -0.00
	v0.26c-10.83 7.33 -49.94 7.33 -60.77 -0.26"/>
<path class="fill"
	d="M116.20 868.00c9.00 -5.59 51.76 -5.59 60.77 -0.00
	v-0.26c-10.83 -7.33 -49.94 -7.33 -60.77 0.26"/>
<path class="fill"
	d="M269.90 883.00c9.00 5.59 51.76 5.59 60.77 -0.00
	v0.26c-10.83 7.33 -49.94 7.33 -60.77 -0.26"/>
<path class="fill"
	d="M269.90 877.00c9.00 5.59 51.76 5.59 60.77 -0.00
	v0.26c-10.83 7.33 -49.94 7.33 -60.77 -0.26"/>
<path class="fill"
	d="M269.90 868.00c9.00 -5.59 51.76 -5.59 60.77 -0.00
	v-0.26c-10.83 -7.33 -49.94 -7.33 -60.77 0.26"/>
<path class="fill"
	d="M672.00 871.00c5.26 5.10 28.14 5.10 33.40 -0.00
	v0.23c-6.26 6.87 -27.13 6.87 -33.40 -0.23"/>
<path class="fill"
	d="M672.00 865.00c5.26 5.10 28.14 5.10 33.40 -0.00
	v0.23c-6.26 6.87 -27.13 6.87 -33.40 -0.23"/>
<path class="fill"
	d="M672.00 856.00c5.26 -5.10 28.14 -5.10 33.40 -0.00
	v-0.23c-6.26 -6.87 -27.13 -6.87 -33.40 0.23"/>
<use x="79.20" y="926.00" xlink:href="#bclef"/>
<use x="94.20" y="938.00" xlink:href="#ft0"/>
<use x="112.70" y="932.00" xlink:href="#r4"/>
<use x="142.10" y="947.00" xlink:href="#hd"/>
<path d="M145.60 947.00v-40.00" class="stroke"/>
<path class="fill"
	d="M145.60 907.00c0.6 5.6 9.6 9 5.6 18.4
	1.6 -6 -1.3 -11.6 -5.6 -12.8
"/>
<use x="142.10" y="926.00" xlink:href="#hd"/>
<use x="161.50" y="932.00" xlink:href="#r8"/>
<use x="180.50" y="950.00" xlink:href="#hl"/>
<use x="180.50" y="956.00" xlink:href="#hl"/>
<use x="180.50" y="956.00" xlink:href="#hd"/>
<path d="M184.00 956.00v-40.00" class="stroke"/>
<use x="180.50" y="935.00" xlink:href="#hd"/>
<use x="218.80" y="950.00" xlink:href="#hl"/>
<use x="218.80" y="956.00" xlink:href="#hl"/>
<use x="218.80" y="956.00" xlink:href="#hd"/>
<path d="M222.30 956.00v-40.00" class="stroke"/>
<path class="fill"
	d="M222.30 916.00c0.6 5.6 9.6 9 5.6 18.4
	1.6 -6 -1.3 -11.6 -5.6 -12.8
"/>
<use x="218.80" y="935.00" xlink:href="#hd"/>
<use x="238.20" y="932.00" xlink:href="#r8"/>
<use x="266.40" y="932.00" xlink:href="#r4"/>
<use x="295.80" y="947.00" xlink:href="#hd"/>
<path d="M299.30 947.00v-40.00" class="stroke"/>
<path class="fill"
	d="M299.30 907.00c0.6 5.6 9.6 9 5.6 18.4
	1.6 -6 -1.3 -11.6 -5.6 -12.8
"/>
<use x="295.80" y="926.00" xlink:href="#hd"/>
<use x="315.20" y="932.00" xlink:href="#r8"/>
<use x="334.20" y="950.00" xlink:href="#hl"/>
<use x="334.20" y="956.00" xlink:href="#hl"/>
<use x="334.20" y="956.00" xlink:href="#hd"/>
<path d="M337.70 956.00v-40.00" class="stroke"/>
<use x="334.20" y="935.00" xlink:href="#hd"/>
<use x="372.60" y="950.00" xlink:href="#hl"/>
<use x="372.60" y="956.00" xlink:href="#hl"/>
<use x="372.60" y="956.00" xlink:href="#hd"/>
<path d="M376.10 956.00v-40.00" class="stroke"/>
<path class="fill"
	d="M376.10 916.00c0.6 5.6 9.6 9 5.6 18.4
	1.6 -6 -1.3 -11.6 -5.6 -12.8
"/>
<use x="372.60" y="935.00" xlink:href="#hd"/>
<use x="392.00" y="932.00" xlink:href="#r8"/>
<use x="419.70" y="932.00" xlink:href="#r4"/>
<use x="460.10" y="920.00" xlink:href="#hd"/>
<path d="M456.60 920.00v40.00" class="stroke"/>
<path class="fill"
	d="M456.60 960.00c0.6 -5.6 9.6 -9 5.6 -18.4
	1.6 6 -1.3 11.6 -5.6 12.8
"/>
<use x="460.10" y="941.00" xlink:href="#hd"/>
<use x="479.20" y="932.00" xlink:href="#r8"/>
<use x="500.40" y="950.00" xlink:href="#hl"/>
<use x="500.40" y="953.00" xlink:href="#hd"/>
<path d="M503.90 953.00v-40.00" class="stroke"/>
<use x="500.40" y="932.00" xlink:href="#hd"/>
<use x="540.50" y="950.00" xlink:href="#hl"/>
<use x="540.50" y="953.00" xlink:href="#hd"/>
<path d="M544.00 953.00v-40.00" class="stroke"/>
<path class="fill"
	d="M544.00 913.00c0.6 5.6 9.6 9 5.6 18.4
	1.6 -6 -1.3 -11.6 -5.6 -12.8
"/>
<use x="540.50" y="932.00" xlink:href="#hd"/>
<use x="559.90" y="932.00" xlink:href="#r8"/>
<use x="593.60" y="932.00" xlink:href="#r4"/>
<use x="623.00" y="944.00" xlink:href="#hd"/>
<path d="M626.50 944.00v-40.00" class="stroke"/>
<path class="fill"
	d="M626.50 904.00c0.6 5.6 9.6 9 5.6 18.4
	1.6 -6 -1.3 -11.6 -5.6 -12.8
"/>
<use x="623.00" y="923.00" xlink:href="#hd"/>
<use x="646.50" y="932.00" xlink:href="#r8"/>
<use x="668.50" y="950.00" xlink:href="#hl"/>
<use x="668.50" y="956.00" xlink:href="#hl"/>
<use x="668.50" y="956.00" xlink:href="#hd"/>
<path d="M672.00 956.00v-40.00" class="stroke"/>
<path class="fill"
	d="M672.00 916.00c0.6 5.6 9.6 9 5.6 18.4
	1.6 -6 -1.3 -11.6 -5.6 -12.8
"/>
<use x="668.50" y="935.00" xlink:href="#hd"/>
<use x="687.90" y="932.00" xlink:href="#r8"/>
<use x="708.90" y="914.00" xlink:href="#hl"/>
<use x="708.90" y="914.00" xlink:href="#hd"/>
<path d="M705.40 914.00v40.00" class="stroke"/>
<path class="fill"
	d="M705.40 954.00c0.6 -5.6 9.6 -9 5.6 -18.4
	1.6 6 -1.3 11.6 -5.6 12.8
"/>
<use x="708.90" y="935.00" xlink:href="#hd"/>
<use x="728.30" y="932.00" xlink:href="#r8"/>
<path class="fill"
	d="M503.90 953.00c5.21 5.10 27.85 5.10 33.06 -0.00
	v0.23c-6.20 6.86 -26.86 6.86 -33.06 -0.23"/>
<path class="fill"
	d="M503.90 932.00c5.21 -5.10 27.85 -5.10 33.06 -0.00
	v-0.23c-6.20 -6.86 -26.86 -6.86 -33.06 0.23"/>
<text font-family="serif" font-size="16" font-weight="bold" font-style="italic"
	x="110.70" y="903.40">p</text>
<path class="stroke"
d="M403.20 907.00l-27.60 -4l27.60 -4"/>
<text font-family="serif" font-size="16" font-weight="bold" font-style="italic"
	x="592.60" y="903.40">f</text>
</g>
</svg>
