<?xml version="1.0" standalone="no"?>
<!DOCTYPE svg PUBLIC "-//W3C//DTD SVG 1.1//EN"
	"http://www.w3.org/Graphics/SVG/1.1/DTD/svg11.dtd">
<svg xmlns="http://www.w3.org/2000/svg" version="1.1"
	xmlns:xlink="http://www.w3.org/1999/xlink"
	color="black"
	width="816.00px" height="1128.00px">
<style type="text/css">
.fill {fill: currentColor}
.stroke {stroke: currentColor; fill: none}
text{white-space: pre}
</style>
<title>MP.abc page 2</title>
<!-- Creator: abcm2ps-8.13.8 -->
<!-- CreationDate: Sep 23, 2017 00:19 -->
<!-- CommandLine: -O= -v MP.abc -->
<g stroke-width="0.70">
<path class="stroke" stroke-width="1"
	d="M67.20 194.00v-101.00"/>
<defs>
<path id="brace" class="fill" d="m-2.5 101
	c-4.5 -4.6 -7.5 -12.2 -4.4 -26.8
	3.5 -14.3 3.2 -21.7 -2.1 -24.2
	7.4 2.4 7.3 14.2 3.5 29.5
	-2.7 9.5 -1.5 16.2 3 21.5
	M-2.5 1c-4.5 4.6 -7.5 12.2 -4.4 26.8
	c3.5 14.3 3.2 21.7 -2.1 24.2
	7.4 -2.4 7.3 -14.2 3.5 -29.5
	-2.7 -9.5 -1.5 -16.2 3 -21.5"/>
</defs>
<g transform="translate(67.20,93.00) scale(1,1.01)">
	<use xlink:href="#brace"/>
</g>
<path class="stroke" stroke-width="1"
	d="M316.60 117.00v-24.00"/>
<path class="stroke" stroke-width="1"
	d="M316.60 194.00v-77.00"/>
<path class="stroke" stroke-width="1"
	d="M524.30 117.00v-24.00"/>
<path class="stroke" stroke-width="1"
	d="M524.30 194.00v-77.00"/>
<path class="stroke" stroke-width="1"
	d="M748.80 117.00v-24.00"/>
<path class="stroke" stroke-width="1"
	d="M748.80 194.00v-77.00"/>
<path d="m67.20 117.00
	h681.60
	M67.20 111.00
	h681.60
	M67.20 105.00
	h681.60
	M67.20 99.00
	h681.60
	M67.20 93.00
	h681.60
	" class="stroke"/>
<path d="m67.20 194.00
	h681.60
	M67.20 188.00
	h681.60
	M67.20 182.00
	h681.60
	M67.20 176.00
	h681.60
	M67.20 170.00
	h681.60
	" class="stroke"/>
<defs>
<path id="utclef" class="fill" d="m-50 -90
	c-72 -41 -72 -158 52 -188
	150 -10 220 188 90 256
	-114 52 -275 0 -293 -136
	-15 -181 93 -229 220 -334
	88 -87 79 -133 62 -210
	-51 33 -94 105 -89 186
	17 267 36 374 49 574
	6 96 -19 134 -77 135
	-80 1 -126 -93 -61 -133
	85 -41 133 101 31 105
	23 17 92 37 90 -92
	-10 -223 -39 -342 -50 -617
	0 -90 0 -162 96 -232
	56 72 63 230 22 289
	-74 106 -257 168 -255 316
	9 153 148 185 252 133
	86 -65 29 -192 -80 -176
	-71 12 -105 67 -59 124"/>
<use id="tclef" transform="translate(0,6) scale(0.045)"
	xlink:href="#utclef"/>
</defs>
<use x="79.20" y="111.00" xlink:href="#tclef"/>
<defs>
<path id="uflat" class="fill" d="
	m100 -746
	h32
	v734
	l-32 4
	m32 -332
	c46 -72 152 -90 208 -20
	100 110 -120 326 -208 348
	m0 -28
	c54 0 200 -206 130 -290
	-50 -60 -130 -4 -130 34"/>
<use id="ft0" transform="translate(-3.5,3.5) scale(0.018)"
	xlink:href="#uflat"/>
</defs>
<use x="94.20" y="105.00" xlink:href="#ft0"/>
<defs>
<path id="hl" class="stroke" d="m-6 0h12"/>
</defs>
<use x="112.20" y="123.00" xlink:href="#hl"/>
<defs>
<ellipse id="hd" rx="4.1" ry="2.9"
	transform="rotate(-20)" class="fill"/>
</defs>
<use x="112.20" y="126.00" xlink:href="#hd"/>
<path d="M115.70 126.00v-34.00" class="stroke"/>
<path class="fill"
	d="M115.70 92.00c0.6 5.6 9.6 9 5.6 18.4
	1.6 -6 -1.3 -11.6 -5.6 -12.8
"/>
<use x="112.20" y="120.00" xlink:href="#hd"/>
<use x="112.20" y="111.00" xlink:href="#hd"/>
<defs>
<path id="r8e" class="fill" d="m 0 0
	c-1.5 1.5 -2.4 2 -3.6 2
	2.4 -2.8 -2.8 -4 -2.8 -1.2
	c0 2.7 4.3 2.4 5.9 0.6"/>
<g id="r8">
	<path d="m3.3 -4l-3.4 9.6" class="stroke"/>
	<use x="3.4" y="-4" xlink:href="#r8e"/>
</g>
</defs>
<use x="138.10" y="105.00" xlink:href="#r8"/>
<path class="fill"
	d="M167.20 91.70l26.60 -2.50v3.20l-26.60 2.50"/>
<use x="164.00" y="123.00" xlink:href="#hl"/>
<use x="164.00" y="126.00" xlink:href="#hd"/>
<path d="M167.50 126.00v-33.30" class="stroke"/>
<use x="164.00" y="111.00" xlink:href="#hd"/>
<use x="189.90" y="120.00" xlink:href="#hd"/>
<path d="M193.40 120.00v-29.70" class="stroke"/>
<use x="189.90" y="108.00" xlink:href="#hd"/>
<use x="218.70" y="111.00" xlink:href="#hd"/>
<path d="M222.20 111.00v-25.00" class="stroke"/>
<path class="fill"
	d="M222.20 86.00c0.6 5.6 9.6 9 5.6 18.4
	1.6 -6 -1.3 -11.6 -5.6 -12.8
"/>
<use x="218.70" y="105.00" xlink:href="#hd"/>
<use x="244.60" y="105.00" xlink:href="#r8"/>
<use x="270.50" y="117.00" xlink:href="#hd"/>
<use x="261.50" y="117.00" xlink:href="#ft0"/>
<path d="M274.00 117.00v-34.00" class="stroke"/>
<path class="fill"
	d="M274.00 83.00c0.6 5.6 9.6 9 5.6 18.4
	1.6 -6 -1.3 -11.6 -5.6 -12.8
"/>
<use x="277.60" y="114.00" xlink:href="#hd"/>
<use x="270.50" y="108.00" xlink:href="#hd"/>
<use x="270.50" y="102.00" xlink:href="#hd"/>
<use x="296.40" y="105.00" xlink:href="#r8"/>
<defs>
<path id="Hd" class="fill" d="m3 -1.6
	c-1 -1.8 -7 1.4 -6 3.2
	1 1.8 7 -1.4 6 -3.2
	m0.5 -0.3
	c2 3.8 -5 7.6 -7 3.8
	-2 -3.8 5 -7.6 7 -3.8"/>
</defs>
<use x="331.00" y="120.00" xlink:href="#Hd"/>
<path d="M334.50 120.00v-40.00" class="stroke"/>
<use x="331.00" y="114.00" xlink:href="#Hd"/>
<use x="331.00" y="105.00" xlink:href="#Hd"/>
<use x="331.00" y="99.00" xlink:href="#Hd"/>
<use x="423.50" y="120.00" xlink:href="#hd"/>
<path d="M427.00 120.00v-34.00" class="stroke"/>
<path class="fill"
	d="M427.00 86.00c0.6 5.6 9.6 9 5.6 18.4
	1.6 -6 -1.3 -11.6 -5.6 -12.8
"/>
<use x="423.50" y="114.00" xlink:href="#hd"/>
<use x="423.50" y="105.00" xlink:href="#hd"/>
<use x="449.40" y="105.00" xlink:href="#r8"/>
<path class="fill"
	d="M481.40 87.20l26.60 -5.40v3.20l-26.60 5.40"/>
<use x="478.20" y="123.00" xlink:href="#hl"/>
<use x="478.20" y="123.00" xlink:href="#hd"/>
<path d="M481.70 123.00v-34.90" class="stroke"/>
<use x="478.20" y="114.00" xlink:href="#hd"/>
<use x="478.20" y="108.00" xlink:href="#hd"/>
<use x="504.10" y="114.00" xlink:href="#hd"/>
<path d="M507.60 114.00v-31.20" class="stroke"/>
<use x="504.10" y="108.00" xlink:href="#hd"/>
<use x="504.10" y="99.00" xlink:href="#hd"/>
<use x="538.60" y="114.00" xlink:href="#hd"/>
<path d="M542.10 114.00v-28.00" class="stroke"/>
<path class="fill"
	d="M542.10 86.00c0.6 5.6 9.6 9 5.6 18.4
	1.6 -6 -1.3 -11.6 -5.6 -12.8
"/>
<use x="538.60" y="105.00" xlink:href="#hd"/>
<use x="564.60" y="105.00" xlink:href="#r8"/>
<path class="fill"
	d="M596.50 85.70l26.60 -2.50v3.20l-26.60 2.50"/>
<use x="593.30" y="120.00" xlink:href="#hd"/>
<path d="M596.80 120.00v-33.30" class="stroke"/>
<use x="593.30" y="105.00" xlink:href="#hd"/>
<use x="619.30" y="114.00" xlink:href="#hd"/>
<path d="M622.80 114.00v-29.70" class="stroke"/>
<use x="619.30" y="102.00" xlink:href="#hd"/>
<use x="648.00" y="99.00" xlink:href="#hd"/>
<path d="M644.50 99.00v25.00" class="stroke"/>
<path class="fill"
	d="M644.50 124.00c0.6 -5.6 9.6 -9 5.6 -18.4
	1.6 6 -1.3 11.6 -5.6 12.8
"/>
<use x="648.00" y="105.00" xlink:href="#hd"/>
<use x="674.00" y="105.00" xlink:href="#r8"/>
<use x="702.70" y="96.00" xlink:href="#hd"/>
<defs>
<path id="unat" class="fill" d="
	m96 -750
	h-32
	v716
	l32 -8
	182 -54
	v282
	h32
	v-706
	l-34 10
	-180 50
	v-290
	m0 592
	v-190
	l182 -52
	v188"/>
<use id="nt0" transform="translate(-3,5) scale(0.018)"
	xlink:href="#unat"/>
</defs>
<use x="693.70" y="96.00" xlink:href="#nt0"/>
<path d="M699.20 96.00v34.00" class="stroke"/>
<path class="fill"
	d="M699.20 130.00c0.6 -5.6 9.6 -9 5.6 -18.4
	1.6 6 -1.3 11.6 -5.6 12.8
"/>
<use x="695.70" y="111.00" xlink:href="#hd"/>
<use x="702.70" y="108.00" xlink:href="#hd"/>
<use x="702.70" y="102.00" xlink:href="#hd"/>
<defs>
<path id="usharp" class="fill" d="
	m136 -702
	v890
	h32
	v-890
	m128 840
	h32
	v-888
	h-32
	m-232 286
	v116
	l338 -96
	v-116
	m-338 442
	v116
	l338 -98
	v-114"/>
<use id="sh0" transform="translate(-4,5) scale(0.018)"
	xlink:href="#usharp"/>
</defs>
<use x="686.70" y="102.00" xlink:href="#sh0"/>
<use x="728.60" y="105.00" xlink:href="#r8"/>
<defs>
<path id="ubclef" class="fill" d="m-200 -87
	c124 -35 222 -78 254 -236
	43 -228 -167 -246 -192 -103
	59 -80 157 22 92 78
	-62 47 -115 -22 -106 -88
	21 -141 270 -136 274 52
	-1 175 -106 264 -322 297
	m357 -250
	c0 -36 51 -34 51 0
	0 37 -51 36 -51 0
	m-2 -129
	c0 -36 51 -34 51 0
	0 38 -51 37 -51 0"/>
<use id="bclef" transform="translate(0,18) scale(0.045)"
	xlink:href="#ubclef"/>
</defs>
<use x="79.20" y="176.00" xlink:href="#bclef"/>
<use x="94.20" y="188.00" xlink:href="#ft0"/>
<defs>
<path id="r4" class="fill" d="m-1 -8.5
	l3.6 5.1 -2.1 5.2 2.2 4.3
	c-2.6 -2.3 -5.1 0 -2.4 2.6
	-4.8 -3 -1.5 -6.9 1.4 -4.1
	l-3.1 -4.5 1.9 -5.1 -1.5 -3.5"/>
</defs>
<use x="112.20" y="182.00" xlink:href="#r4"/>
<use x="164.00" y="194.00" xlink:href="#hd"/>
<path d="M167.50 194.00v-40.00" class="stroke"/>
<path class="fill"
	d="M167.50 154.00c0.6 5.6 9.6 9 5.6 18.4
	1.6 -6 -1.3 -11.6 -5.6 -12.8
"/>
<use x="164.00" y="173.00" xlink:href="#hd"/>
<use x="189.90" y="182.00" xlink:href="#r8"/>
<use x="218.70" y="200.00" xlink:href="#hl"/>
<use x="218.70" y="203.00" xlink:href="#hd"/>
<path d="M222.20 203.00v-40.00" class="stroke"/>
<use x="218.70" y="182.00" xlink:href="#hd"/>
<use x="270.50" y="197.00" xlink:href="#hd"/>
<path d="M274.00 197.00v-40.00" class="stroke"/>
<path class="fill"
	d="M274.00 157.00c0.6 5.6 9.6 9 5.6 18.4
	1.6 -6 -1.3 -11.6 -5.6 -12.8
"/>
<use x="270.50" y="176.00" xlink:href="#hd"/>
<use x="296.40" y="182.00" xlink:href="#r8"/>
<use x="331.00" y="182.00" xlink:href="#r4"/>
<use x="371.70" y="167.00" xlink:href="#hd"/>
<path d="M368.20 167.00v40.00" class="stroke"/>
<path class="fill"
	d="M368.20 207.00c0.6 -5.6 9.6 -9 5.6 -18.4
	1.6 6 -1.3 11.6 -5.6 12.8
"/>
<use x="371.70" y="188.00" xlink:href="#hd"/>
<use x="397.60" y="182.00" xlink:href="#r8"/>
<use x="423.50" y="197.00" xlink:href="#hd"/>
<path d="M427.00 197.00v-40.00" class="stroke"/>
<path class="fill"
	d="M427.00 157.00c0.6 5.6 9.6 9 5.6 18.4
	1.6 -6 -1.3 -11.6 -5.6 -12.8
"/>
<use x="423.50" y="176.00" xlink:href="#hd"/>
<use x="449.40" y="182.00" xlink:href="#r8"/>
<path class="fill"
	d="M474.40 182.20l26.60 0.00v-3.20l-26.60 -0.00"/>
<use x="478.20" y="164.00" xlink:href="#hl"/>
<use x="478.20" y="158.00" xlink:href="#hl"/>
<use x="478.20" y="158.00" xlink:href="#hd"/>
<use x="469.20" y="158.00" xlink:href="#ft0"/>
<path d="M474.70 158.00v23.20" class="stroke"/>
<use x="504.10" y="164.00" xlink:href="#hl"/>
<use x="504.10" y="158.00" xlink:href="#hl"/>
<use x="504.10" y="158.00" xlink:href="#hd"/>
<path d="M500.60 158.00v23.20" class="stroke"/>
<use x="538.60" y="164.00" xlink:href="#hl"/>
<use x="538.60" y="161.00" xlink:href="#hd"/>
<path d="M535.10 161.00v21.00" class="stroke"/>
<path class="fill"
	d="M535.10 182.00c0.6 -5.6 9.6 -9 5.6 -18.4
	1.6 6 -1.3 11.6 -5.6 12.8
"/>
<use x="564.60" y="182.00" xlink:href="#r8"/>
<use x="593.30" y="167.00" xlink:href="#hd"/>
<path d="M589.80 167.00v40.00" class="stroke"/>
<path class="fill"
	d="M589.80 207.00c0.6 -5.6 9.6 -9 5.6 -18.4
	1.6 6 -1.3 11.6 -5.6 12.8
"/>
<use x="593.30" y="188.00" xlink:href="#hd"/>
<use x="619.30" y="182.00" xlink:href="#r8"/>
<use x="648.00" y="197.00" xlink:href="#hd"/>
<path d="M651.50 197.00v-40.00" class="stroke"/>
<path class="fill"
	d="M651.50 157.00c0.6 5.6 9.6 9 5.6 18.4
	1.6 -6 -1.3 -11.6 -5.6 -12.8
"/>
<use x="648.00" y="176.00" xlink:href="#hd"/>
<use x="674.00" y="182.00" xlink:href="#r8"/>
<use x="702.70" y="170.00" xlink:href="#hd"/>
<path d="M699.20 170.00v40.00" class="stroke"/>
<path class="fill"
	d="M699.20 210.00c0.6 -5.6 9.6 -9 5.6 -18.4
	1.6 6 -1.3 11.6 -5.6 12.8
"/>
<use x="702.70" y="191.00" xlink:href="#hd"/>
<use x="728.60" y="182.00" xlink:href="#r8"/>
<path class="stroke"
d="M560.50 145.00l-393.50 -4l393.50 -4"/>
</g>
<g stroke-width="0.70">
<path class="stroke" stroke-width="1"
	d="M67.20 346.00v-106.00"/>
<g transform="translate(67.20,240.00) scale(1,1.06)">
	<use xlink:href="#brace"/>
</g>
<path class="stroke" stroke-width="1"
	d="M351.80 264.00v-24.00"/>
<path class="stroke" stroke-width="1"
	d="M351.80 346.00v-82.00"/>
<path class="stroke" stroke-width="1"
	d="M582.40 264.00v-24.00"/>
<path class="stroke" stroke-width="1"
	d="M582.40 346.00v-82.00"/>
<path class="stroke" stroke-width="1"
	d="M748.80 264.00v-24.00"/>
<path class="stroke" stroke-width="1"
	d="M748.80 346.00v-82.00"/>
<path d="m67.20 264.00
	h681.60
	M67.20 258.00
	h681.60
	M67.20 252.00
	h681.60
	M67.20 246.00
	h681.60
	M67.20 240.00
	h681.60
	" class="stroke"/>
<path d="m67.20 346.00
	h681.60
	M67.20 340.00
	h681.60
	M67.20 334.00
	h681.60
	M67.20 328.00
	h681.60
	M67.20 322.00
	h681.60
	" class="stroke"/>
<use x="79.20" y="258.00" xlink:href="#tclef"/>
<use x="94.20" y="252.00" xlink:href="#ft0"/>
<use x="112.20" y="240.00" xlink:href="#hd"/>
<path d="M108.70 240.00v40.00" class="stroke"/>
<use x="112.20" y="261.00" xlink:href="#hd"/>
<use x="112.20" y="255.00" xlink:href="#hd"/>
<use x="112.20" y="246.00" xlink:href="#hd"/>
<path class="fill"
	d="M175.30 224.20l30.60 2.60v3.20l-30.60 -2.60"/>
<use x="172.10" y="264.00" xlink:href="#hd"/>
<path d="M175.60 264.00v-38.70" class="stroke"/>
<use x="172.10" y="258.00" xlink:href="#hd"/>
<use x="156.10" y="258.00" xlink:href="#sh0"/>
<use x="172.10" y="252.00" xlink:href="#hd"/>
<use x="163.10" y="252.00" xlink:href="#nt0"/>
<use x="172.10" y="243.00" xlink:href="#hd"/>
<use x="202.00" y="264.00" xlink:href="#hd"/>
<path d="M205.50 264.00v-36.30" class="stroke"/>
<use x="202.00" y="258.00" xlink:href="#hd"/>
<use x="202.00" y="252.00" xlink:href="#hd"/>
<use x="202.00" y="246.00" xlink:href="#hd"/>
<use x="235.30" y="264.00" xlink:href="#hd"/>
<path d="M238.80 264.00v-34.00" class="stroke"/>
<path class="fill"
	d="M238.80 230.00c0.6 5.6 9.6 9 5.6 18.4
	1.6 -6 -1.3 -11.6 -5.6 -12.8
"/>
<use x="235.30" y="255.00" xlink:href="#hd"/>
<use x="235.30" y="249.00" xlink:href="#hd"/>
<use x="265.30" y="252.00" xlink:href="#r8"/>
<use x="298.50" y="234.00" xlink:href="#hl"/>
<use x="298.50" y="234.00" xlink:href="#hd"/>
<path d="M295.00 234.00v40.00" class="stroke"/>
<path class="fill"
	d="M295.00 274.00c0.6 -5.6 9.6 -9 5.6 -18.4
	1.6 6 -1.3 11.6 -5.6 12.8
"/>
<use x="298.50" y="255.00" xlink:href="#hd"/>
<use x="298.50" y="249.00" xlink:href="#hd"/>
<use x="298.50" y="240.00" xlink:href="#hd"/>
<use x="328.50" y="252.00" xlink:href="#r8"/>
<use x="368.40" y="237.00" xlink:href="#hd"/>
<circle class="fill" cx="376.10" cy="237.00" r="1.2"/>
<path d="M364.90 237.00v40.00" class="stroke"/>
<use x="368.40" y="258.00" xlink:href="#hd"/>
<circle class="fill" cx="376.10" cy="255.00" r="1.2"/>
<use x="368.40" y="249.00" xlink:href="#hd"/>
<circle class="fill" cx="376.10" cy="249.00" r="1.2"/>
<use x="368.40" y="243.00" xlink:href="#hd"/>
<circle class="fill" cx="376.10" cy="243.00" r="1.2"/>
<use x="448.70" y="258.00" xlink:href="#hd"/>
<path d="M452.20 258.00v-28.00" class="stroke"/>
<path class="fill"
	d="M452.20 230.00c0.6 5.6 9.6 9 5.6 18.4
	1.6 -6 -1.3 -11.6 -5.6 -12.8
"/>
<use x="448.70" y="249.00" xlink:href="#hd"/>
<use x="482.00" y="243.00" xlink:href="#hd"/>
<path d="M478.50 243.00v34.00" class="stroke"/>
<use x="482.00" y="258.00" xlink:href="#hd"/>
<use x="482.00" y="249.00" xlink:href="#hd"/>
<path class="fill"
	d="M527.50 226.00l34.80 0.00v3.20l-34.80 -0.00"/>
<path class="fill"
	d="M553.90 231.00l8.00 0.00v3.20l-8.00 -0.00"/>
<use x="524.30" y="261.00" xlink:href="#hd"/>
<circle class="fill" cx="539.00" cy="261.00" r="1.2"/>
<path d="M527.80 261.00v-34.00" class="stroke"/>
<use x="531.30" y="258.00" xlink:href="#hd"/>
<circle class="fill" cx="539.00" cy="255.00" r="1.2"/>
<use x="524.30" y="252.00" xlink:href="#hd"/>
<circle class="fill" cx="539.00" cy="249.00" r="1.2"/>
<use x="515.30" y="252.00" xlink:href="#nt0"/>
<use x="524.30" y="246.00" xlink:href="#hd"/>
<circle class="fill" cx="539.00" cy="243.00" r="1.2"/>
<use x="558.40" y="261.00" xlink:href="#hd"/>
<path d="M561.90 261.00v-34.00" class="stroke"/>
<use x="565.40" y="258.00" xlink:href="#hd"/>
<use x="558.40" y="252.00" xlink:href="#hd"/>
<use x="549.40" y="252.00" xlink:href="#nt0"/>
<use x="558.40" y="246.00" xlink:href="#hd"/>
<use x="602.30" y="261.00" xlink:href="#Hd"/>
<path d="M605.80 261.00v-34.00" class="stroke"/>
<use x="610.10" y="258.00" xlink:href="#Hd"/>
<use x="602.30" y="252.00" xlink:href="#Hd"/>
<use x="592.30" y="252.00" xlink:href="#nt0"/>
<use x="602.30" y="246.00" xlink:href="#Hd"/>
<use x="668.80" y="264.00" xlink:href="#hd"/>
<path d="M672.30 264.00v-34.00" class="stroke"/>
<use x="668.80" y="258.00" xlink:href="#hd"/>
<use x="668.80" y="249.00" xlink:href="#hd"/>
<use x="715.90" y="252.00" xlink:href="#r4"/>
<use x="79.20" y="328.00" xlink:href="#bclef"/>
<use x="94.20" y="340.00" xlink:href="#ft0"/>
<use x="112.20" y="352.00" xlink:href="#hl"/>
<use x="112.20" y="355.00" xlink:href="#hd"/>
<path d="M115.70 355.00v-40.00" class="stroke"/>
<path class="fill"
	d="M115.70 315.00c0.6 5.6 9.6 9 5.6 18.4
	1.6 -6 -1.3 -11.6 -5.6 -12.8
"/>
<use x="112.20" y="334.00" xlink:href="#hd"/>
<use x="142.10" y="334.00" xlink:href="#r8"/>
<use x="172.10" y="352.00" xlink:href="#hl"/>
<use x="172.10" y="352.00" xlink:href="#hd"/>
<path d="M175.60 352.00v-40.00" class="stroke"/>
<path class="fill"
	d="M175.60 312.00c0.6 5.6 9.6 9 5.6 18.4
	1.6 -6 -1.3 -11.6 -5.6 -12.8
"/>
<use x="172.10" y="331.00" xlink:href="#hd"/>
<use x="202.00" y="334.00" xlink:href="#r8"/>
<use x="235.30" y="322.00" xlink:href="#hd"/>
<path d="M231.80 322.00v40.00" class="stroke"/>
<path class="fill"
	d="M231.80 362.00c0.6 -5.6 9.6 -9 5.6 -18.4
	1.6 6 -1.3 11.6 -5.6 12.8
"/>
<use x="235.30" y="343.00" xlink:href="#hd"/>
<use x="265.30" y="334.00" xlink:href="#r8"/>
<use x="298.50" y="349.00" xlink:href="#hd"/>
<path d="M302.00 349.00v-40.00" class="stroke"/>
<path class="fill"
	d="M302.00 309.00c0.6 5.6 9.6 9 5.6 18.4
	1.6 -6 -1.3 -11.6 -5.6 -12.8
"/>
<use x="298.50" y="328.00" xlink:href="#hd"/>
<use x="328.50" y="334.00" xlink:href="#r8"/>
<use x="368.40" y="346.00" xlink:href="#hd"/>
<path d="M371.90 346.00v-40.00" class="stroke"/>
<use x="368.40" y="325.00" xlink:href="#hd"/>
<path class="fill"
	d="M411.60 355.20l34.00 -4.50v-3.20l-34.00 4.50"/>
<use x="415.40" y="316.00" xlink:href="#hl"/>
<use x="415.40" y="316.00" xlink:href="#hd"/>
<path d="M411.90 316.00v38.20" class="stroke"/>
<use x="415.40" y="337.00" xlink:href="#hd"/>
<use x="448.70" y="316.00" xlink:href="#hl"/>
<use x="448.70" y="316.00" xlink:href="#hd"/>
<path d="M445.20 316.00v33.80" class="stroke"/>
<use x="448.70" y="331.00" xlink:href="#hd"/>
<use x="482.00" y="325.00" xlink:href="#hd"/>
<path d="M478.50 325.00v21.00" class="stroke"/>
<path class="fill"
	d="M527.50 305.00l34.80 0.00v3.20l-34.80 -0.00"/>
<path class="fill"
	d="M553.90 310.00l8.00 0.00v3.20l-8.00 -0.00"/>
<use x="524.30" y="346.00" xlink:href="#hd"/>
<circle class="fill" cx="532.00" cy="343.00" r="1.2"/>
<path d="M527.80 346.00v-40.00" class="stroke"/>
<use x="524.30" y="325.00" xlink:href="#hd"/>
<circle class="fill" cx="532.00" cy="325.00" r="1.2"/>
<use x="558.40" y="346.00" xlink:href="#hd"/>
<path d="M561.90 346.00v-40.00" class="stroke"/>
<use x="558.40" y="325.00" xlink:href="#hd"/>
<use x="602.30" y="346.00" xlink:href="#Hd"/>
<path d="M605.80 346.00v-40.00" class="stroke"/>
<use x="602.30" y="325.00" xlink:href="#Hd"/>
<use x="668.80" y="352.00" xlink:href="#hl"/>
<use x="668.80" y="358.00" xlink:href="#hl"/>
<use x="668.80" y="358.00" xlink:href="#hd"/>
<path d="M672.30 358.00v-40.00" class="stroke"/>
<use x="668.80" y="337.00" xlink:href="#hd"/>
<use x="715.90" y="334.00" xlink:href="#r4"/>
<text font-family="serif" font-size="16" font-weight="bold" font-style="italic"
	x="111.20" y="293.40">f</text>
<text font-family="serif" font-size="16" font-weight="bold" font-style="italic"
	x="366.40" y="293.40">ff</text>
</g>
<g stroke-width="0.70">
<path class="stroke" stroke-width="1"
	d="M67.20 493.00v-101.00"/>
<g transform="translate(67.20,392.00) scale(1,1.01)">
	<use xlink:href="#brace"/>
</g>
<defs>
<g id="rdots" class="fill">
	<circle cx="0" cy="-9" r="1.2"/>
	<circle cx="0" cy="-15" r="1.2"/>
</g>
</defs>
<use x="118.70" y="416.00" xlink:href="#rdots"/>
<path class="stroke" stroke-width="1"
	d="M114.70 416.00v-24.00"/>
<path class="stroke" stroke-width="3"
	d="M110.20 416.00v-24.00"/>
<use x="118.70" y="493.00" xlink:href="#rdots"/>
<path class="stroke" stroke-width="1"
	d="M114.70 493.00v-77.00"/>
<path class="stroke" stroke-width="3"
	d="M110.20 493.00v-77.00"/>
<path class="stroke" stroke-width="1"
	d="M279.00 416.00v-24.00"/>
<path class="stroke" stroke-width="1"
	d="M279.00 493.00v-77.00"/>
<path class="stroke" stroke-width="1"
	d="M448.60 416.00v-24.00"/>
<path class="stroke" stroke-width="1"
	d="M448.60 493.00v-77.00"/>
<path class="stroke" stroke-width="1"
	d="M600.40 416.00v-24.00"/>
<path class="stroke" stroke-width="1"
	d="M600.40 493.00v-77.00"/>
<path class="stroke" stroke-width="1"
	d="M748.80 416.00v-24.00"/>
<path class="stroke" stroke-width="1"
	d="M748.80 493.00v-77.00"/>
<path d="m67.20 416.00
	h681.60
	M67.20 410.00
	h681.60
	M67.20 404.00
	h681.60
	M67.20 398.00
	h681.60
	M67.20 392.00
	h681.60
	" class="stroke"/>
<path d="m67.20 493.00
	h681.60
	M67.20 487.00
	h681.60
	M67.20 481.00
	h681.60
	M67.20 475.00
	h681.60
	M67.20 469.00
	h681.60
	" class="stroke"/>
<use x="79.20" y="410.00" xlink:href="#tclef"/>
<use x="94.20" y="404.00" xlink:href="#ft0"/>
<use x="133.20" y="422.00" xlink:href="#hl"/>
<use x="133.20" y="428.00" xlink:href="#hl"/>
<use x="133.20" y="428.00" xlink:href="#Hd"/>
<path d="M136.70 428.00v-34.00" class="stroke"/>
<use x="133.20" y="422.00" xlink:href="#Hd"/>
<use x="133.20" y="413.00" xlink:href="#Hd"/>
<use x="186.90" y="422.00" xlink:href="#hl"/>
<use x="186.90" y="428.00" xlink:href="#hl"/>
<use x="186.90" y="434.00" xlink:href="#hl"/>
<use x="186.90" y="434.00" xlink:href="#hd"/>
<path d="M190.40 434.00v-31.00" class="stroke"/>
<path class="fill"
	d="M190.40 403.00c0.6 5.6 9.6 9 5.6 18.4
	1.6 -6 -1.3 -11.6 -5.6 -12.8
"/>
<use x="186.90" y="428.00" xlink:href="#hd"/>
<use x="186.90" y="422.00" xlink:href="#hd"/>
<use x="211.20" y="404.00" xlink:href="#r8"/>
<path class="fill"
	d="M241.20 392.80l28.30 -2.50v3.20l-28.30 2.50"/>
<path class="fill"
	d="M261.20 396.00l8.00 -0.70v3.20l-8.00 0.70"/>
<use x="238.00" y="422.00" xlink:href="#hl"/>
<use x="238.00" y="428.00" xlink:href="#hl"/>
<use x="238.00" y="428.00" xlink:href="#hd"/>
<circle class="fill" cx="245.70" cy="425.00" r="1.2"/>
<path d="M241.50 428.00v-34.30" class="stroke"/>
<use x="238.00" y="422.00" xlink:href="#hd"/>
<circle class="fill" cx="245.70" cy="419.00" r="1.2"/>
<use x="238.00" y="413.00" xlink:href="#hd"/>
<circle class="fill" cx="245.70" cy="413.00" r="1.2"/>
<use x="265.70" y="422.00" xlink:href="#hl"/>
<use x="265.70" y="422.00" xlink:href="#hd"/>
<path d="M269.20 422.00v-30.70" class="stroke"/>
<use x="265.70" y="416.00" xlink:href="#hd"/>
<use x="265.70" y="410.00" xlink:href="#hd"/>
<use x="292.60" y="422.00" xlink:href="#hl"/>
<use x="292.60" y="422.00" xlink:href="#Hd"/>
<path d="M296.10 422.00v-34.00" class="stroke"/>
<use x="292.60" y="413.00" xlink:href="#Hd"/>
<use x="292.60" y="407.00" xlink:href="#Hd"/>
<use x="346.20" y="422.00" xlink:href="#hl"/>
<use x="346.20" y="428.00" xlink:href="#hl"/>
<use x="346.20" y="428.00" xlink:href="#hd"/>
<path d="M349.70 428.00v-34.00" class="stroke"/>
<path class="fill"
	d="M349.70 394.00c0.6 5.6 9.6 9 5.6 18.4
	1.6 -6 -1.3 -11.6 -5.6 -12.8
"/>
<use x="346.20" y="422.00" xlink:href="#hd"/>
<use x="346.20" y="413.00" xlink:href="#hd"/>
<use x="370.50" y="404.00" xlink:href="#r8"/>
<path class="fill"
	d="M400.50 386.80l28.40 -2.50v3.20l-28.40 2.50"/>
<path class="fill"
	d="M420.50 390.00l8.00 -0.70v3.20l-8.00 0.70"/>
<use x="397.40" y="413.00" xlink:href="#hd"/>
<circle class="fill" cx="405.10" cy="413.00" r="1.2"/>
<path d="M400.90 413.00v-25.30" class="stroke"/>
<use x="397.40" y="407.00" xlink:href="#hd"/>
<circle class="fill" cx="405.10" cy="407.00" r="1.2"/>
<use x="425.00" y="413.00" xlink:href="#hd"/>
<path d="M428.50 413.00v-27.70" class="stroke"/>
<use x="432.10" y="410.00" xlink:href="#hd"/>
<use x="425.00" y="404.00" xlink:href="#hd"/>
<use x="462.10" y="413.00" xlink:href="#hd"/>
<path d="M465.60 413.00v-31.00" class="stroke"/>
<use x="462.10" y="407.00" xlink:href="#hd"/>
<use x="462.10" y="401.00" xlink:href="#hd"/>
<use x="500.10" y="413.00" xlink:href="#hd"/>
<path d="M503.60 413.00v-31.00" class="stroke"/>
<use x="500.10" y="407.00" xlink:href="#hd"/>
<use x="500.10" y="401.00" xlink:href="#hd"/>
<path class="fill"
	d="M521.20 383.10l8.60 -4.30v1.80l-8.60 4.30"/>
<path class="fill"
	d="M521.50 386.50l8.00 -4.00v1.80l-8.00 4.00"/>
<defs>
<path id="ghd" class="fill" d="m2.2 -1.5
	c-1.32 -2.31 -5.94 0.33 -4.62 2.64
	1.32 2.31 5.94 -0.33 4.62 -2.64"/>
</defs>
<use x="519.20" y="401.00" xlink:href="#ghd"/>
<path d="M521.50 401.00v-17.00" class="stroke"/>
<use x="527.20" y="395.00" xlink:href="#ghd"/>
<path d="M529.50 395.00v-15.00" class="stroke"/>
<path class="stroke"
	d="M518.20 405.50c0.00 4.80 11.60 6.00 14.50 6.00"/>
<use x="538.20" y="413.00" xlink:href="#hd"/>
<circle class="fill" cx="545.90" cy="413.00" r="1.2"/>
<path d="M541.70 413.00v-34.00" class="stroke"/>
<use x="538.20" y="407.00" xlink:href="#hd"/>
<circle class="fill" cx="545.90" cy="407.00" r="1.2"/>
<use x="538.20" y="398.00" xlink:href="#hd"/>
<circle class="fill" cx="545.90" cy="395.00" r="1.2"/>
<use x="581.50" y="413.00" xlink:href="#hd"/>
<path d="M585.00 413.00v-31.00" class="stroke"/>
<path class="fill"
	d="M585.00 382.00c0.6 5.6 9.6 9 5.6 18.4
	1.6 -6 -1.3 -11.6 -5.6 -12.8
"/>
<use x="581.50" y="407.00" xlink:href="#hd"/>
<use x="581.50" y="401.00" xlink:href="#hd"/>
<use x="614.00" y="413.00" xlink:href="#Hd"/>
<path d="M617.50 413.00v-31.00" class="stroke"/>
<use x="614.00" y="407.00" xlink:href="#Hd"/>
<use x="614.00" y="401.00" xlink:href="#Hd"/>
<use x="667.60" y="422.00" xlink:href="#hl"/>
<use x="667.60" y="428.00" xlink:href="#hl"/>
<use x="667.60" y="428.00" xlink:href="#hd"/>
<path d="M671.10 428.00v-40.00" class="stroke"/>
<use x="667.60" y="422.00" xlink:href="#hd"/>
<use x="667.60" y="413.00" xlink:href="#hd"/>
<use x="667.60" y="407.00" xlink:href="#hd"/>
<use x="705.70" y="422.00" xlink:href="#hl"/>
<use x="705.70" y="428.00" xlink:href="#hl"/>
<use x="705.70" y="428.00" xlink:href="#hd"/>
<path d="M709.20 428.00v-40.00" class="stroke"/>
<path class="fill"
	d="M709.20 388.00c0.6 5.6 9.6 9 5.6 18.4
	1.6 -6 -1.3 -11.6 -5.6 -12.8
"/>
<use x="705.70" y="422.00" xlink:href="#hd"/>
<use x="705.70" y="413.00" xlink:href="#hd"/>
<use x="705.70" y="407.00" xlink:href="#hd"/>
<use x="729.90" y="404.00" xlink:href="#r8"/>
<path class="fill"
	d="M671.10 428.00c4.89 5.06 26.16 5.06 31.05 -0.00
	v0.23c-5.82 6.83 -25.23 6.83 -31.05 -0.23"/>
<path class="fill"
	d="M671.10 422.00c4.89 5.06 26.16 5.06 31.05 -0.00
	v0.23c-5.82 6.83 -25.23 6.83 -31.05 -0.23"/>
<path class="fill"
	d="M671.10 413.00c4.89 -5.06 26.16 -5.06 31.05 -0.00
	v-0.23c-5.82 -6.83 -25.23 -6.83 -31.05 0.23"/>
<path class="fill"
	d="M671.10 407.00c4.89 -5.06 26.16 -5.06 31.05 -0.00
	v-0.23c-5.82 -6.83 -25.23 -6.83 -31.05 0.23"/>
<use x="79.20" y="475.00" xlink:href="#bclef"/>
<use x="94.20" y="487.00" xlink:href="#ft0"/>
<use x="133.20" y="496.00" xlink:href="#Hd"/>
<path d="M136.70 496.00v-40.00" class="stroke"/>
<use x="133.20" y="484.00" xlink:href="#Hd"/>
<use x="133.20" y="475.00" xlink:href="#Hd"/>
<use x="186.90" y="499.00" xlink:href="#hl"/>
<use x="186.90" y="505.00" xlink:href="#hl"/>
<use x="186.90" y="511.00" xlink:href="#hl"/>
<use x="186.90" y="517.00" xlink:href="#hl"/>
<use x="186.90" y="517.00" xlink:href="#hd"/>
<path d="M190.40 517.00v-40.00" class="stroke"/>
<path class="fill"
	d="M190.40 477.00c0.6 5.6 9.6 9 5.6 18.4
	1.6 -6 -1.3 -11.6 -5.6 -12.8
"/>
<use x="186.90" y="496.00" xlink:href="#hd"/>
<use x="211.20" y="481.00" xlink:href="#r8"/>
<path class="fill"
	d="M234.20 510.10l28.30 -4.30v-3.20l-28.30 4.30"/>
<path class="fill"
	d="M254.20 502.10l8.00 -1.20v-3.20l-8.00 1.20"/>
<use x="238.00" y="475.00" xlink:href="#hd"/>
<circle class="fill" cx="245.70" cy="472.00" r="1.2"/>
<path d="M234.50 475.00v34.10" class="stroke"/>
<use x="238.00" y="490.00" xlink:href="#hd"/>
<circle class="fill" cx="245.70" cy="490.00" r="1.2"/>
<use x="265.70" y="472.00" xlink:href="#hd"/>
<path d="M262.20 472.00v32.90" class="stroke"/>
<use x="265.70" y="484.00" xlink:href="#hd"/>
<use x="292.60" y="469.00" xlink:href="#Hd"/>
<path d="M289.10 469.00v25.00" class="stroke"/>
<use x="292.60" y="475.00" xlink:href="#Hd"/>
<use x="346.20" y="499.00" xlink:href="#hl"/>
<use x="346.20" y="505.00" xlink:href="#hl"/>
<use x="346.20" y="511.00" xlink:href="#hl"/>
<use x="346.20" y="517.00" xlink:href="#hl"/>
<use x="346.20" y="517.00" xlink:href="#hd"/>
<path d="M349.70 517.00v-40.00" class="stroke"/>
<path class="fill"
	d="M349.70 477.00c0.6 5.6 9.6 9 5.6 18.4
	1.6 -6 -1.3 -11.6 -5.6 -12.8
"/>
<use x="346.20" y="496.00" xlink:href="#hd"/>
<use x="370.50" y="481.00" xlink:href="#r8"/>
<path class="fill"
	d="M393.50 494.90l28.40 0.00v-3.20l-28.40 -0.00"/>
<path class="fill"
	d="M413.50 489.90l8.00 0.00v-3.20l-8.00 -0.00"/>
<use x="397.40" y="469.00" xlink:href="#hd"/>
<circle class="fill" cx="405.10" cy="466.00" r="1.2"/>
<path d="M393.90 469.00v25.00" class="stroke"/>
<use x="397.40" y="475.00" xlink:href="#hd"/>
<circle class="fill" cx="405.10" cy="472.00" r="1.2"/>
<use x="425.00" y="466.00" xlink:href="#hd"/>
<path d="M421.50 466.00v28.00" class="stroke"/>
<use x="418.00" y="475.00" xlink:href="#hd"/>
<use x="425.00" y="472.00" xlink:href="#hd"/>
<use x="462.10" y="463.00" xlink:href="#hl"/>
<use x="462.10" y="463.00" xlink:href="#hd"/>
<path d="M458.60 463.00v31.00" class="stroke"/>
<use x="462.10" y="475.00" xlink:href="#hd"/>
<use x="462.10" y="469.00" xlink:href="#hd"/>
<use x="500.10" y="463.00" xlink:href="#hl"/>
<use x="500.10" y="463.00" xlink:href="#hd"/>
<path d="M496.60 463.00v31.00" class="stroke"/>
<use x="500.10" y="475.00" xlink:href="#hd"/>
<use x="500.10" y="469.00" xlink:href="#hd"/>
<use x="538.20" y="469.00" xlink:href="#hd"/>
<path d="M534.70 469.00v31.00" class="stroke"/>
<path class="fill"
	d="M534.70 500.00c0.6 -5.6 9.6 -9 5.6 -18.4
	1.6 6 -1.3 11.6 -5.6 12.8
"/>
<use x="538.20" y="481.00" xlink:href="#hd"/>
<use x="538.20" y="475.00" xlink:href="#hd"/>
<circle class="fill" cx="545.90" cy="472.00" r="1.2"/>
<use x="581.50" y="463.00" xlink:href="#hl"/>
<use x="581.50" y="463.00" xlink:href="#hd"/>
<path d="M578.00 463.00v31.00" class="stroke"/>
<path class="fill"
	d="M578.00 494.00c0.6 -5.6 9.6 -9 5.6 -18.4
	1.6 6 -1.3 11.6 -5.6 12.8
"/>
<use x="581.50" y="475.00" xlink:href="#hd"/>
<use x="581.50" y="469.00" xlink:href="#hd"/>
<use x="614.00" y="463.00" xlink:href="#hl"/>
<use x="614.00" y="463.00" xlink:href="#Hd"/>
<path d="M610.50 463.00v31.00" class="stroke"/>
<use x="614.00" y="475.00" xlink:href="#Hd"/>
<use x="614.00" y="469.00" xlink:href="#Hd"/>
<use x="667.60" y="496.00" xlink:href="#hd"/>
<path d="M671.10 496.00v-40.00" class="stroke"/>
<use x="667.60" y="484.00" xlink:href="#hd"/>
<use x="667.60" y="475.00" xlink:href="#hd"/>
<use x="705.70" y="496.00" xlink:href="#hd"/>
<path d="M709.20 496.00v-40.00" class="stroke"/>
<path class="fill"
	d="M709.20 456.00c0.6 5.6 9.6 9 5.6 18.4
	1.6 -6 -1.3 -11.6 -5.6 -12.8
"/>
<use x="705.70" y="484.00" xlink:href="#hd"/>
<use x="705.70" y="475.00" xlink:href="#hd"/>
<use x="729.90" y="481.00" xlink:href="#r8"/>
<path class="fill"
	d="M671.10 496.00c4.89 5.06 26.16 5.06 31.05 -0.00
	v0.23c-5.82 6.83 -25.23 6.83 -31.05 -0.23"/>
<path class="fill"
	d="M671.10 484.00c4.89 5.06 26.16 5.06 31.05 -0.00
	v0.23c-5.82 6.83 -25.23 6.83 -31.05 -0.23"/>
<path class="fill"
	d="M671.10 475.00c4.89 -5.06 26.16 -5.06 31.05 -0.00
	v-0.23c-5.82 -6.83 -25.23 -6.83 -31.05 0.23"/>
<text font-family="serif" font-size="16" font-weight="bold" font-style="italic"
	x="131.20" y="443.40">ff</text>
</g>
<g stroke-width="0.70">
<path class="stroke" stroke-width="1"
	d="M67.20 628.00v-82.00"/>
<g transform="translate(67.20,546.00) scale(1,0.82)">
	<use xlink:href="#brace"/>
</g>
<path class="stroke" stroke-width="1"
	d="M250.90 570.00v-24.00"/>
<path class="stroke" stroke-width="1"
	d="M250.90 628.00v-58.00"/>
<path class="stroke" stroke-width="1"
	d="M402.20 570.00v-24.00"/>
<path class="stroke" stroke-width="1"
	d="M402.20 628.00v-58.00"/>
<path class="stroke" stroke-width="1"
	d="M558.70 570.00v-24.00"/>
<path class="stroke" stroke-width="1"
	d="M558.70 628.00v-58.00"/>
<path class="stroke" stroke-width="1"
	d="M748.80 570.00v-24.00"/>
<path class="stroke" stroke-width="1"
	d="M748.80 628.00v-58.00"/>
<path d="m67.20 570.00
	h681.60
	M67.20 564.00
	h681.60
	M67.20 558.00
	h681.60
	M67.20 552.00
	h681.60
	M67.20 546.00
	h681.60
	" class="stroke"/>
<path d="m67.20 628.00
	h681.60
	M67.20 622.00
	h681.60
	M67.20 616.00
	h681.60
	M67.20 610.00
	h681.60
	M67.20 604.00
	h681.60
	" class="stroke"/>
<use x="79.20" y="564.00" xlink:href="#tclef"/>
<use x="94.20" y="558.00" xlink:href="#ft0"/>
<use x="112.70" y="576.00" xlink:href="#hl"/>
<use x="112.70" y="576.00" xlink:href="#Hd"/>
<path d="M116.20 576.00v-40.00" class="stroke"/>
<use x="112.70" y="570.00" xlink:href="#Hd"/>
<use x="112.70" y="564.00" xlink:href="#Hd"/>
<use x="112.70" y="555.00" xlink:href="#Hd"/>
<use x="163.50" y="576.00" xlink:href="#hl"/>
<use x="163.50" y="576.00" xlink:href="#hd"/>
<path d="M167.00 576.00v-34.00" class="stroke"/>
<path class="fill"
	d="M167.00 542.00c0.6 5.6 9.6 9 5.6 18.4
	1.6 -6 -1.3 -11.6 -5.6 -12.8
"/>
<use x="163.50" y="567.00" xlink:href="#hd"/>
<use x="163.50" y="561.00" xlink:href="#hd"/>
<use x="186.50" y="558.00" xlink:href="#r8"/>
<path class="fill"
	d="M215.10 546.10l26.90 -4.20v3.20l-26.90 4.20"/>
<path class="fill"
	d="M233.70 548.20l8.00 -1.30v3.20l-8.00 1.30"/>
<use x="211.90" y="576.00" xlink:href="#hl"/>
<use x="211.90" y="576.00" xlink:href="#hd"/>
<circle class="fill" cx="219.60" cy="573.00" r="1.2"/>
<path d="M215.40 576.00v-28.90" class="stroke"/>
<use x="211.90" y="567.00" xlink:href="#hd"/>
<circle class="fill" cx="219.60" cy="567.00" r="1.2"/>
<use x="238.20" y="576.00" xlink:href="#hl"/>
<use x="238.20" y="576.00" xlink:href="#hd"/>
<path d="M241.70 576.00v-33.10" class="stroke"/>
<use x="238.20" y="567.00" xlink:href="#hd"/>
<use x="238.20" y="561.00" xlink:href="#hd"/>
<use x="263.90" y="576.00" xlink:href="#hl"/>
<use x="263.90" y="576.00" xlink:href="#Hd"/>
<path d="M267.40 576.00v-40.00" class="stroke"/>
<use x="263.90" y="570.00" xlink:href="#Hd"/>
<use x="263.90" y="564.00" xlink:href="#Hd"/>
<use x="263.90" y="555.00" xlink:href="#Hd"/>
<use x="314.70" y="576.00" xlink:href="#hl"/>
<use x="314.70" y="576.00" xlink:href="#hd"/>
<path d="M318.20 576.00v-34.00" class="stroke"/>
<path class="fill"
	d="M318.20 542.00c0.6 5.6 9.6 9 5.6 18.4
	1.6 -6 -1.3 -11.6 -5.6 -12.8
"/>
<use x="314.70" y="567.00" xlink:href="#hd"/>
<use x="314.70" y="561.00" xlink:href="#hd"/>
<use x="337.70" y="558.00" xlink:href="#r8"/>
<path class="fill"
	d="M366.30 546.10l26.90 -4.20v3.20l-26.90 4.20"/>
<path class="fill"
	d="M384.90 548.20l8.00 -1.30v3.20l-8.00 1.30"/>
<use x="363.20" y="576.00" xlink:href="#hl"/>
<use x="363.20" y="576.00" xlink:href="#hd"/>
<circle class="fill" cx="370.90" cy="573.00" r="1.2"/>
<path d="M366.70 576.00v-28.90" class="stroke"/>
<use x="363.20" y="567.00" xlink:href="#hd"/>
<circle class="fill" cx="370.90" cy="567.00" r="1.2"/>
<use x="389.40" y="576.00" xlink:href="#hl"/>
<use x="389.40" y="576.00" xlink:href="#hd"/>
<path d="M392.90 576.00v-33.10" class="stroke"/>
<use x="389.40" y="567.00" xlink:href="#hd"/>
<use x="389.40" y="561.00" xlink:href="#hd"/>
<use x="415.10" y="576.00" xlink:href="#hl"/>
<use x="415.10" y="576.00" xlink:href="#hd"/>
<path d="M418.60 576.00v-31.00" class="stroke"/>
<use x="415.10" y="570.00" xlink:href="#hd"/>
<use x="415.10" y="564.00" xlink:href="#hd"/>
<path class="fill"
	d="M454.10 534.80l26.90 -2.50v3.20l-26.90 2.50"/>
<path class="fill"
	d="M472.70 538.00l8.00 -0.70v3.20l-8.00 0.70"/>
<use x="451.00" y="570.00" xlink:href="#hd"/>
<circle class="fill" cx="458.70" cy="567.00" r="1.2"/>
<path d="M454.50 570.00v-34.30" class="stroke"/>
<use x="451.00" y="564.00" xlink:href="#hd"/>
<circle class="fill" cx="458.70" cy="561.00" r="1.2"/>
<use x="451.00" y="555.00" xlink:href="#hd"/>
<circle class="fill" cx="458.70" cy="555.00" r="1.2"/>
<use x="477.20" y="567.00" xlink:href="#hd"/>
<path d="M480.70 567.00v-33.70" class="stroke"/>
<use x="484.20" y="564.00" xlink:href="#hd"/>
<use x="477.20" y="552.00" xlink:href="#hd"/>
<use x="497.20" y="576.00" xlink:href="#hl"/>
<use x="497.20" y="576.00" xlink:href="#hd"/>
<path d="M500.70 576.00v-31.00" class="stroke"/>
<use x="497.20" y="570.00" xlink:href="#hd"/>
<use x="497.20" y="564.00" xlink:href="#hd"/>
<use x="533.30" y="570.00" xlink:href="#hd"/>
<path d="M536.80 570.00v-31.00" class="stroke"/>
<use x="540.30" y="567.00" xlink:href="#hd"/>
<use x="533.30" y="564.00" xlink:href="#hd"/>
<use x="533.30" y="558.00" xlink:href="#hd"/>
<use x="524.30" y="558.00" xlink:href="#nt0"/>
<use x="571.60" y="576.00" xlink:href="#hl"/>
<use x="571.60" y="576.00" xlink:href="#hd"/>
<path d="M575.10 576.00v-40.00" class="stroke"/>
<path class="fill"
	d="M575.10 536.00c0.6 5.6 9.6 9 5.6 18.4
	1.6 -6 -1.3 -11.6 -5.6 -12.8
"/>
<use x="571.60" y="570.00" xlink:href="#hd"/>
<use x="571.60" y="564.00" xlink:href="#hd"/>
<use x="571.60" y="555.00" xlink:href="#hd"/>
<use x="594.70" y="558.00" xlink:href="#r8"/>
<path class="fill"
	d="M620.70 551.80l26.90 0.00v3.20l-26.90 -0.00"/>
<path class="fill"
	d="M639.30 556.80l8.00 0.00v3.20l-8.00 -0.00"/>
<use x="617.60" y="576.00" xlink:href="#hl"/>
<use x="617.60" y="576.00" xlink:href="#hd"/>
<circle class="fill" cx="625.30" cy="573.00" r="1.2"/>
<path d="M621.10 576.00v-23.20" class="stroke"/>
<use x="643.80" y="576.00" xlink:href="#hl"/>
<use x="643.80" y="576.00" xlink:href="#hd"/>
<path d="M647.30 576.00v-23.20" class="stroke"/>
<use x="661.90" y="576.00" xlink:href="#hl"/>
<use x="661.90" y="576.00" xlink:href="#hd"/>
<path d="M665.40 576.00v-21.00" class="stroke"/>
<path class="fill"
	d="M665.40 555.00c0.6 5.6 9.6 9 5.6 18.4
	1.6 -6 -1.3 -11.6 -5.6 -12.8
"/>
<use x="684.90" y="558.00" xlink:href="#r8"/>
<use x="707.80" y="576.00" xlink:href="#hl"/>
<use x="707.80" y="576.00" xlink:href="#hd"/>
<path d="M711.30 576.00v-21.00" class="stroke"/>
<path class="fill"
	d="M711.30 555.00c0.6 5.6 9.6 9 5.6 18.4
	1.6 -6 -1.3 -11.6 -5.6 -12.8
"/>
<use x="730.90" y="558.00" xlink:href="#r8"/>
<use x="79.20" y="610.00" xlink:href="#bclef"/>
<use x="94.20" y="622.00" xlink:href="#ft0"/>
<use x="112.70" y="607.00" xlink:href="#Hd"/>
<path d="M109.20 607.00v31.00" class="stroke"/>
<use x="112.70" y="619.00" xlink:href="#Hd"/>
<use x="163.50" y="604.00" xlink:href="#hd"/>
<path d="M160.00 604.00v25.00" class="stroke"/>
<path class="fill"
	d="M160.00 629.00c0.6 -5.6 9.6 -9 5.6 -18.4
	1.6 6 -1.3 11.6 -5.6 12.8
"/>
<use x="163.50" y="610.00" xlink:href="#hd"/>
<use x="186.50" y="616.00" xlink:href="#r8"/>
<path class="fill"
	d="M208.10 627.40l26.90 3.10v-3.20l-26.90 -3.10"/>
<path class="fill"
	d="M226.70 624.60l8.00 0.90v-3.20l-8.00 -0.90"/>
<use x="211.90" y="604.00" xlink:href="#hd"/>
<circle class="fill" cx="219.60" cy="601.00" r="1.2"/>
<path d="M208.40 604.00v22.50" class="stroke"/>
<use x="238.20" y="604.00" xlink:href="#hd"/>
<path d="M234.70 604.00v25.50" class="stroke"/>
<use x="238.20" y="610.00" xlink:href="#hd"/>
<use x="263.90" y="607.00" xlink:href="#Hd"/>
<path d="M260.40 607.00v31.00" class="stroke"/>
<use x="263.90" y="619.00" xlink:href="#Hd"/>
<use x="314.70" y="604.00" xlink:href="#hd"/>
<path d="M311.20 604.00v25.00" class="stroke"/>
<path class="fill"
	d="M311.20 629.00c0.6 -5.6 9.6 -9 5.6 -18.4
	1.6 6 -1.3 11.6 -5.6 12.8
"/>
<use x="314.70" y="610.00" xlink:href="#hd"/>
<use x="337.70" y="616.00" xlink:href="#r8"/>
<path class="fill"
	d="M359.30 627.40l26.90 3.10v-3.20l-26.90 -3.10"/>
<path class="fill"
	d="M377.90 624.60l8.00 0.90v-3.20l-8.00 -0.90"/>
<use x="363.20" y="604.00" xlink:href="#hd"/>
<circle class="fill" cx="370.90" cy="601.00" r="1.2"/>
<path d="M359.70 604.00v22.50" class="stroke"/>
<use x="389.40" y="604.00" xlink:href="#hd"/>
<path d="M385.90 604.00v25.50" class="stroke"/>
<use x="389.40" y="610.00" xlink:href="#hd"/>
<use x="415.10" y="607.00" xlink:href="#hd"/>
<path d="M411.60 607.00v21.00" class="stroke"/>
<path class="fill"
	d="M447.10 629.90l26.90 0.00v-3.20l-26.90 -0.00"/>
<path class="fill"
	d="M465.70 624.90l8.00 0.00v-3.20l-8.00 -0.00"/>
<use x="451.00" y="607.00" xlink:href="#hd"/>
<circle class="fill" cx="458.70" cy="607.00" r="1.2"/>
<path d="M447.50 607.00v22.00" class="stroke"/>
<use x="477.20" y="607.00" xlink:href="#hd"/>
<path d="M473.70 607.00v22.00" class="stroke"/>
<use x="497.20" y="628.00" xlink:href="#hd"/>
<path d="M500.70 628.00v-40.00" class="stroke"/>
<use x="497.20" y="607.00" xlink:href="#hd"/>
<use x="533.30" y="628.00" xlink:href="#hd"/>
<path d="M536.80 628.00v-40.00" class="stroke"/>
<use x="533.30" y="607.00" xlink:href="#hd"/>
<use x="571.60" y="634.00" xlink:href="#hl"/>
<use x="571.60" y="640.00" xlink:href="#hl"/>
<use x="571.60" y="640.00" xlink:href="#hd"/>
<path d="M575.10 640.00v-40.00" class="stroke"/>
<path class="fill"
	d="M575.10 600.00c0.6 5.6 9.6 9 5.6 18.4
	1.6 -6 -1.3 -11.6 -5.6 -12.8
"/>
<use x="571.60" y="619.00" xlink:href="#hd"/>
<use x="594.70" y="616.00" xlink:href="#r8"/>
<path class="fill"
	d="M620.70 596.10l26.90 0.00v3.20l-26.90 -0.00"/>
<path class="fill"
	d="M639.30 601.10l8.00 0.00v3.20l-8.00 -0.00"/>
<use x="617.60" y="619.00" xlink:href="#hd"/>
<circle class="fill" cx="625.30" cy="619.00" r="1.2"/>
<path d="M621.10 619.00v-22.00" class="stroke"/>
<use x="643.80" y="619.00" xlink:href="#hd"/>
<path d="M647.30 619.00v-22.00" class="stroke"/>
<use x="661.90" y="619.00" xlink:href="#hd"/>
<path d="M665.40 619.00v-21.00" class="stroke"/>
<path class="fill"
	d="M665.40 598.00c0.6 5.6 9.6 9 5.6 18.4
	1.6 -6 -1.3 -11.6 -5.6 -12.8
"/>
<use x="684.90" y="616.00" xlink:href="#r8"/>
<use x="707.80" y="619.00" xlink:href="#hd"/>
<path d="M711.30 619.00v-21.00" class="stroke"/>
<path class="fill"
	d="M711.30 598.00c0.6 5.6 9.6 9 5.6 18.4
	1.6 -6 -1.3 -11.6 -5.6 -12.8
"/>
<use x="730.90" y="616.00" xlink:href="#r8"/>
</g>
<g stroke-width="0.70">
<path class="stroke" stroke-width="1"
	d="M67.20 757.00v-83.00"/>
<g transform="translate(67.20,674.00) scale(1,0.83)">
	<use xlink:href="#brace"/>
</g>
<path class="stroke" stroke-width="1"
	d="M247.10 698.00v-24.00"/>
<path class="stroke" stroke-width="1"
	d="M247.10 757.00v-59.00"/>
<path class="stroke" stroke-width="1"
	d="M415.20 698.00v-24.00"/>
<path class="stroke" stroke-width="1"
	d="M415.20 757.00v-59.00"/>
<path class="stroke" stroke-width="1"
	d="M592.70 698.00v-24.00"/>
<path class="stroke" stroke-width="1"
	d="M592.70 757.00v-59.00"/>
<path class="stroke" stroke-width="1"
	d="M748.80 698.00v-24.00"/>
<path class="stroke" stroke-width="1"
	d="M748.80 757.00v-59.00"/>
<path d="m67.20 698.00
	h681.60
	M67.20 692.00
	h681.60
	M67.20 686.00
	h681.60
	M67.20 680.00
	h681.60
	M67.20 674.00
	h681.60
	" class="stroke"/>
<path d="m67.20 757.00
	h681.60
	M67.20 751.00
	h681.60
	M67.20 745.00
	h681.60
	M67.20 739.00
	h681.60
	M67.20 733.00
	h681.60
	" class="stroke"/>
<use x="79.20" y="692.00" xlink:href="#tclef"/>
<use x="94.20" y="686.00" xlink:href="#ft0"/>
<use x="112.70" y="701.00" xlink:href="#Hd"/>
<path d="M116.20 701.00v-40.00" class="stroke"/>
<use x="112.70" y="686.00" xlink:href="#Hd"/>
<use x="112.70" y="680.00" xlink:href="#Hd"/>
<use x="167.10" y="704.00" xlink:href="#hl"/>
<use x="167.10" y="704.00" xlink:href="#hd"/>
<path d="M170.60 704.00v-40.00" class="stroke"/>
<use x="167.10" y="689.00" xlink:href="#hd"/>
<use x="167.10" y="683.00" xlink:href="#hd"/>
<path class="fill"
	d="M208.80 667.90l28.60 4.30v3.20l-28.60 -4.30"/>
<path class="fill"
	d="M229.00 675.90l8.00 1.20v3.20l-8.00 -1.20"/>
<use x="205.60" y="689.00" xlink:href="#hd"/>
<circle class="fill" cx="213.30" cy="689.00" r="1.2"/>
<path d="M209.10 689.00v-20.10" class="stroke"/>
<use x="233.50" y="695.00" xlink:href="#hd"/>
<path d="M237.00 695.00v-21.90" class="stroke"/>
<use x="264.10" y="704.00" xlink:href="#hl"/>
<path d="M267.60 704.00v-40.00" class="stroke"/>
<use x="264.10" y="689.00" xlink:href="#hd"/>
<use x="264.10" y="683.00" xlink:href="#hd"/>
<use x="311.30" y="692.00" xlink:href="#hd"/>
<path d="M314.80 692.00v-25.00" class="stroke"/>
<use x="311.30" y="686.00" xlink:href="#hd"/>
<use x="349.80" y="695.00" xlink:href="#hd"/>
<path d="M353.30 695.00v-25.00" class="stroke"/>
<use x="349.80" y="689.00" xlink:href="#hd"/>
<use x="388.30" y="686.00" xlink:href="#r4"/>
<use x="428.90" y="701.00" xlink:href="#hd"/>
<circle class="fill" cx="436.60" cy="701.00" r="1.2"/>
<path d="M432.40 701.00v-40.00" class="stroke"/>
<use x="428.90" y="686.00" xlink:href="#hd"/>
<circle class="fill" cx="436.60" cy="683.00" r="1.2"/>
<use x="428.90" y="680.00" xlink:href="#hd"/>
<circle class="fill" cx="436.60" cy="677.00" r="1.2"/>
<use x="472.70" y="704.00" xlink:href="#hl"/>
<use x="472.70" y="704.00" xlink:href="#hd"/>
<path d="M476.20 704.00v-40.00" class="stroke"/>
<path class="fill"
	d="M476.20 664.00c0.6 5.6 9.6 9 5.6 18.4
	1.6 -6 -1.3 -11.6 -5.6 -12.8
"/>
<use x="472.70" y="689.00" xlink:href="#hd"/>
<use x="472.70" y="683.00" xlink:href="#hd"/>
<path class="fill"
	d="M503.20 661.90l74.30 7.30v3.20l-74.30 -7.30"/>
<use x="500.00" y="701.00" xlink:href="#hd"/>
<path d="M503.50 701.00v-38.10" class="stroke"/>
<use x="500.00" y="686.00" xlink:href="#hd"/>
<use x="500.00" y="680.00" xlink:href="#hd"/>
<use x="524.50" y="704.00" xlink:href="#hl"/>
<use x="524.50" y="704.00" xlink:href="#hd"/>
<path d="M528.00 704.00v-38.70" class="stroke"/>
<use x="524.50" y="689.00" xlink:href="#hd"/>
<use x="524.50" y="683.00" xlink:href="#hd"/>
<use x="549.00" y="704.00" xlink:href="#hl"/>
<use x="549.00" y="704.00" xlink:href="#hd"/>
<path d="M552.50 704.00v-36.30" class="stroke"/>
<use x="549.00" y="692.00" xlink:href="#hd"/>
<use x="549.00" y="686.00" xlink:href="#hd"/>
<use x="573.60" y="704.00" xlink:href="#hl"/>
<use x="573.60" y="704.00" xlink:href="#hd"/>
<path d="M577.10 704.00v-33.90" class="stroke"/>
<use x="573.60" y="695.00" xlink:href="#hd"/>
<use x="573.60" y="689.00" xlink:href="#hd"/>
<use x="606.30" y="701.00" xlink:href="#hd"/>
<path d="M609.80 701.00v-34.00" class="stroke"/>
<use x="606.30" y="692.00" xlink:href="#hd"/>
<use x="606.30" y="686.00" xlink:href="#hd"/>
<use x="644.90" y="701.00" xlink:href="#hd"/>
<path d="M648.40 701.00v-31.00" class="stroke"/>
<use x="644.90" y="695.00" xlink:href="#hd"/>
<use x="644.90" y="689.00" xlink:href="#hd"/>
<use x="683.40" y="698.00" xlink:href="#hd"/>
<path d="M686.90 698.00v-25.00" class="stroke"/>
<use x="683.40" y="692.00" xlink:href="#hd"/>
<use x="721.80" y="686.00" xlink:href="#r4"/>
<use x="79.20" y="739.00" xlink:href="#bclef"/>
<use x="94.20" y="751.00" xlink:href="#ft0"/>
<use x="112.70" y="742.00" xlink:href="#Hd"/>
<path d="M109.20 742.00v25.00" class="stroke"/>
<use x="112.70" y="748.00" xlink:href="#Hd"/>
<use x="167.10" y="739.00" xlink:href="#hd"/>
<path d="M163.60 739.00v28.00" class="stroke"/>
<use x="167.10" y="748.00" xlink:href="#hd"/>
<path class="fill"
	d="M201.80 757.00l28.60 4.30v-3.20l-28.60 -4.30"/>
<path class="fill"
	d="M222.00 755.00l8.00 1.20v-3.20l-8.00 -1.20"/>
<use x="205.60" y="733.00" xlink:href="#hd"/>
<circle class="fill" cx="213.30" cy="730.00" r="1.2"/>
<path d="M202.10 733.00v23.00" class="stroke"/>
<use x="233.50" y="739.00" xlink:href="#hd"/>
<path d="M230.00 739.00v21.20" class="stroke"/>
<use x="264.10" y="739.00" xlink:href="#hd"/>
<path d="M260.60 739.00v28.00" class="stroke"/>
<use x="257.10" y="748.00" xlink:href="#hd"/>
<use x="264.10" y="745.00" xlink:href="#hd"/>
<use x="311.30" y="736.00" xlink:href="#hd"/>
<path d="M307.80 736.00v31.00" class="stroke"/>
<use x="311.30" y="748.00" xlink:href="#hd"/>
<use x="311.30" y="742.00" xlink:href="#hd"/>
<use x="349.80" y="733.00" xlink:href="#hd"/>
<path d="M346.30 733.00v34.00" class="stroke"/>
<use x="349.80" y="748.00" xlink:href="#hd"/>
<use x="349.80" y="739.00" xlink:href="#hd"/>
<use x="388.30" y="745.00" xlink:href="#r4"/>
<use x="428.90" y="742.00" xlink:href="#hd"/>
<circle class="fill" cx="436.60" cy="742.00" r="1.2"/>
<path d="M425.40 742.00v25.00" class="stroke"/>
<use x="428.90" y="748.00" xlink:href="#hd"/>
<circle class="fill" cx="436.60" cy="748.00" r="1.2"/>
<use x="472.70" y="739.00" xlink:href="#hd"/>
<path d="M469.20 739.00v28.00" class="stroke"/>
<path class="fill"
	d="M469.20 767.00c0.6 -5.6 9.6 -9 5.6 -18.4
	1.6 6 -1.3 11.6 -5.6 12.8
"/>
<use x="472.70" y="748.00" xlink:href="#hd"/>
<path class="fill"
	d="M496.20 767.00l74.30 0.00v-3.20l-74.30 -0.00"/>
<use x="500.00" y="742.00" xlink:href="#hd"/>
<path d="M496.50 742.00v24.00" class="stroke"/>
<use x="500.00" y="748.00" xlink:href="#hd"/>
<use x="524.50" y="739.00" xlink:href="#hd"/>
<path d="M521.00 739.00v27.00" class="stroke"/>
<use x="524.50" y="748.00" xlink:href="#hd"/>
<use x="549.00" y="736.00" xlink:href="#hd"/>
<path d="M545.50 736.00v30.00" class="stroke"/>
<use x="549.00" y="748.00" xlink:href="#hd"/>
<use x="573.60" y="733.00" xlink:href="#hd"/>
<path d="M570.10 733.00v33.00" class="stroke"/>
<use x="573.60" y="748.00" xlink:href="#hd"/>
<use x="606.30" y="730.00" xlink:href="#hd"/>
<path d="M602.80 730.00v37.00" class="stroke"/>
<use x="606.30" y="748.00" xlink:href="#hd"/>
<use x="644.90" y="730.00" xlink:href="#hd"/>
<use x="635.90" y="730.00" xlink:href="#nt0"/>
<path d="M641.40 730.00v37.00" class="stroke"/>
<use x="644.90" y="748.00" xlink:href="#hd"/>
<use x="683.40" y="727.00" xlink:href="#hl"/>
<use x="683.40" y="727.00" xlink:href="#hd"/>
<path d="M679.90 727.00v40.00" class="stroke"/>
<use x="683.40" y="748.00" xlink:href="#hd"/>
<use x="721.80" y="745.00" xlink:href="#r4"/>
<path class="fill"
	d="M260.20 725.00l28.60 0.00v-3.20l-28.60 -0.00"/>
<path class="fill"
	d="M280.50 720.00l8.00 0.00v-3.20l-8.00 -0.00"/>
<use x="264.10" y="704.00" xlink:href="#hl"/>
<use x="264.10" y="704.00" xlink:href="#hd"/>
<circle class="fill" cx="271.80" cy="707.00" r="1.2"/>
<path d="M260.60 704.00v20.00" class="stroke"/>
<use x="292.00" y="704.00" xlink:href="#hl"/>
<use x="292.00" y="704.00" xlink:href="#hd"/>
<path d="M288.50 704.00v20.00" class="stroke"/>
<use x="311.30" y="704.00" xlink:href="#hl"/>
<use x="311.30" y="704.00" xlink:href="#hd"/>
<path d="M307.80 704.00v19.00" class="stroke"/>
<use x="349.80" y="704.00" xlink:href="#hl"/>
<use x="349.80" y="704.00" xlink:href="#hd"/>
<path d="M346.30 704.00v19.00" class="stroke"/>
<text font-family="serif" font-size="16" font-weight="bold" font-style="italic"
	x="110.70" y="716.40">ff</text>
</g>
<g stroke-width="0.70">
<path class="stroke" stroke-width="1"
	d="M67.20 895.00v-87.00"/>
<g transform="translate(67.20,808.00) scale(1,0.87)">
	<use xlink:href="#brace"/>
</g>
<path class="stroke" stroke-width="1"
	d="M225.20 832.00v-24.00"/>
<path class="stroke" stroke-width="1"
	d="M225.20 895.00v-63.00"/>
<path class="stroke" stroke-width="1"
	d="M370.50 832.00v-24.00"/>
<path class="stroke" stroke-width="1"
	d="M370.50 895.00v-63.00"/>
<path class="stroke" stroke-width="1"
	d="M489.10 832.00v-24.00"/>
<path class="stroke" stroke-width="1"
	d="M489.10 895.00v-63.00"/>
<path class="stroke" stroke-width="3"
	d="M651.10 832.00v-24.00"/>
<path class="stroke" stroke-width="1"
	d="M646.60 832.00v-24.00"/>
<use x="642.60" y="832.00" xlink:href="#rdots"/>
<path class="stroke" stroke-width="3"
	d="M651.10 895.00v-63.00"/>
<path class="stroke" stroke-width="1"
	d="M646.60 895.00v-63.00"/>
<use x="642.60" y="895.00" xlink:href="#rdots"/>
<path class="stroke" stroke-width="3"
	d="M747.30 832.00v-24.00"/>
<path class="stroke" stroke-width="1"
	d="M742.80 832.00v-24.00"/>
<path class="stroke" stroke-width="3"
	d="M747.30 895.00v-63.00"/>
<path class="stroke" stroke-width="1"
	d="M742.80 895.00v-63.00"/>
<path d="m67.20 832.00
	h681.60
	M67.20 826.00
	h681.60
	M67.20 820.00
	h681.60
	M67.20 814.00
	h681.60
	M67.20 808.00
	h681.60
	" class="stroke"/>
<path d="m67.20 895.00
	h681.60
	M67.20 889.00
	h681.60
	M67.20 883.00
	h681.60
	M67.20 877.00
	h681.60
	M67.20 871.00
	h681.60
	" class="stroke"/>
</g>
<g stroke-width="0.70" font-family="serif" font-size="13.00">
<text x="493.10" y="793.40">1</text>
<path class="stroke"
	d="M489.10 782.00m0 20v-20h155.50v20"/>
<text x="656.60" y="793.40">2</text>
<path class="stroke"
	d="M652.60 782.00m0 20v-20h96.20v20"/>
<use x="79.20" y="826.00" xlink:href="#tclef"/>
<use x="94.20" y="820.00" xlink:href="#ft0"/>
<use x="112.20" y="838.00" xlink:href="#hl"/>
<use x="112.20" y="844.00" xlink:href="#hl"/>
<use x="112.20" y="850.00" xlink:href="#hl"/>
<use x="112.20" y="850.00" xlink:href="#hd"/>
<circle class="fill" cx="119.90" cy="847.00" r="1.2"/>
<path d="M115.70 850.00v-40.00" class="stroke"/>
<use x="112.20" y="829.00" xlink:href="#hd"/>
<circle class="fill" cx="119.90" cy="829.00" r="1.2"/>
<use x="142.10" y="838.00" xlink:href="#hl"/>
<use x="142.10" y="844.00" xlink:href="#hl"/>
<use x="142.10" y="844.00" xlink:href="#hd"/>
<path d="M145.60 844.00v-25.00" class="stroke"/>
<path class="fill"
	d="M145.60 819.00c0.6 5.6 9.6 9 5.6 18.4
	1.6 -6 -1.3 -11.6 -5.6 -12.8
"/>
<use x="142.10" y="838.00" xlink:href="#hd"/>
<path class="fill"
	d="M164.70 814.90l50.60 -6.70v3.20l-50.60 6.70"/>
<use x="161.50" y="838.00" xlink:href="#hl"/>
<use x="161.50" y="841.00" xlink:href="#hd"/>
<path d="M165.00 841.00v-25.20" class="stroke"/>
<use x="161.50" y="835.00" xlink:href="#hd"/>
<use x="178.30" y="838.00" xlink:href="#hl"/>
<use x="178.30" y="838.00" xlink:href="#hd"/>
<path d="M181.80 838.00v-24.40" class="stroke"/>
<use x="178.30" y="832.00" xlink:href="#hd"/>
<use x="194.80" y="835.00" xlink:href="#hd"/>
<path d="M198.30 835.00v-23.60" class="stroke"/>
<use x="194.80" y="829.00" xlink:href="#hd"/>
<use x="211.40" y="832.00" xlink:href="#hd"/>
<path d="M214.90 832.00v-22.80" class="stroke"/>
<use x="211.40" y="826.00" xlink:href="#hd"/>
<path class="fill"
	d="M240.80 801.80l50.30 0.00v3.20l-50.30 -0.00"/>
<use x="237.70" y="829.00" xlink:href="#hd"/>
<path d="M241.20 829.00v-26.20" class="stroke"/>
<use x="237.70" y="823.00" xlink:href="#hd"/>
<use x="254.20" y="832.00" xlink:href="#hd"/>
<path d="M257.70 832.00v-29.20" class="stroke"/>
<use x="254.20" y="826.00" xlink:href="#hd"/>
<use x="270.80" y="829.00" xlink:href="#hd"/>
<path d="M274.30 829.00v-26.20" class="stroke"/>
<use x="270.80" y="823.00" xlink:href="#hd"/>
<use x="287.30" y="826.00" xlink:href="#hd"/>
<path d="M290.80 826.00v-23.20" class="stroke"/>
<use x="287.30" y="820.00" xlink:href="#hd"/>
<use x="305.50" y="823.00" xlink:href="#hd"/>
<path d="M309.00 823.00v-25.00" class="stroke"/>
<path class="fill"
	d="M309.00 798.00c0.6 5.6 9.6 9 5.6 18.4
	1.6 -6 -1.3 -11.6 -5.6 -12.8
"/>
<use x="305.50" y="817.00" xlink:href="#hd"/>
<use x="322.80" y="820.00" xlink:href="#r8"/>
<use x="339.40" y="835.00" xlink:href="#hd"/>
<path d="M342.90 835.00v-40.00" class="stroke"/>
<path class="fill"
	d="M342.90 795.00c0.6 5.6 9.6 9 5.6 18.4
	1.6 -6 -1.3 -11.6 -5.6 -12.8
"/>
<use x="339.40" y="829.00" xlink:href="#hd"/>
<use x="339.40" y="820.00" xlink:href="#hd"/>
<use x="339.40" y="814.00" xlink:href="#hd"/>
<use x="356.70" y="820.00" xlink:href="#r8"/>
<use x="383.50" y="838.00" xlink:href="#hl"/>
<use x="383.50" y="844.00" xlink:href="#hl"/>
<use x="383.50" y="844.00" xlink:href="#Hd"/>
<path d="M387.00 844.00v-34.00" class="stroke"/>
<use x="383.50" y="838.00" xlink:href="#Hd"/>
<use x="383.50" y="829.00" xlink:href="#Hd"/>
<path class="fill"
	d="M405.00 811.10l8.60 -4.30v1.80l-8.60 4.30"/>
<path class="fill"
	d="M405.30 814.50l8.00 -4.00v1.80l-8.00 4.00"/>
<use x="403.00" y="829.00" xlink:href="#ghd"/>
<path d="M405.30 829.00v-17.00" class="stroke"/>
<use x="411.00" y="823.00" xlink:href="#ghd"/>
<path d="M413.30 823.00v-15.00" class="stroke"/>
<path class="stroke"
	d="M402.00 833.50c0.00 4.80 11.60 6.00 14.50 6.00"/>
<use x="422.00" y="838.00" xlink:href="#hl"/>
<use x="422.00" y="841.00" xlink:href="#hd"/>
<path d="M425.50 841.00v-34.00" class="stroke"/>
<use x="429.10" y="838.00" xlink:href="#hl"/>
<use x="429.10" y="838.00" xlink:href="#hd"/>
<use x="422.00" y="832.00" xlink:href="#hd"/>
<use x="422.00" y="826.00" xlink:href="#hd"/>
<path class="fill"
	d="M454.70 806.30l25.70 2.50v3.20l-25.70 -2.50"/>
<path class="fill"
	d="M472.10 812.90l8.00 0.80v3.20l-8.00 -0.80"/>
<use x="451.60" y="838.00" xlink:href="#hl"/>
<use x="451.60" y="841.00" xlink:href="#hd"/>
<circle class="fill" cx="466.30" cy="841.00" r="1.2"/>
<path d="M455.10 841.00v-33.70" class="stroke"/>
<use x="458.60" y="838.00" xlink:href="#hl"/>
<use x="458.60" y="838.00" xlink:href="#hd"/>
<circle class="fill" cx="466.30" cy="835.00" r="1.2"/>
<use x="451.60" y="832.00" xlink:href="#hd"/>
<circle class="fill" cx="466.30" cy="829.00" r="1.2"/>
<use x="451.60" y="826.00" xlink:href="#hd"/>
<circle class="fill" cx="466.30" cy="823.00" r="1.2"/>
<use x="476.60" y="838.00" xlink:href="#hl"/>
<use x="476.60" y="844.00" xlink:href="#hl"/>
<use x="476.60" y="844.00" xlink:href="#hd"/>
<path d="M480.10 844.00v-34.30" class="stroke"/>
<use x="476.60" y="838.00" xlink:href="#hd"/>
<use x="476.60" y="829.00" xlink:href="#hd"/>
<use x="501.60" y="838.00" xlink:href="#hl"/>
<use x="501.60" y="844.00" xlink:href="#hl"/>
<use x="501.60" y="844.00" xlink:href="#hd"/>
<path d="M505.10 844.00v-34.00" class="stroke"/>
<path class="fill"
	d="M505.10 810.00c0.6 5.6 9.6 9 5.6 18.4
	1.6 -6 -1.3 -11.6 -5.6 -12.8
"/>
<use x="501.60" y="838.00" xlink:href="#hd"/>
<use x="501.60" y="829.00" xlink:href="#hd"/>
<path class="fill"
	d="M517.10 832.20l13.10 0.00v-3.20l-13.10 -0.00"/>
<path class="fill"
	d="M517.50 827.20l12.40 0.00v-3.20l-12.40 -0.00"/>
<use x="521.00" y="808.00" xlink:href="#hd"/>
<path d="M517.50 808.00v23.20" class="stroke"/>
<use x="533.40" y="808.00" xlink:href="#hd"/>
<path d="M529.90 808.00v23.20" class="stroke"/>
<path class="fill"
	d="M543.10 824.20l17.50 3.60v-3.20l-17.50 -3.60"/>
<use x="546.90" y="802.00" xlink:href="#hl"/>
<use x="546.90" y="802.00" xlink:href="#hd"/>
<path d="M543.40 802.00v21.30" class="stroke"/>
<use x="563.70" y="808.00" xlink:href="#hd"/>
<path d="M560.20 808.00v18.70" class="stroke"/>
<path class="fill"
	d="M578.40 842.20l50.60 0.00v-3.20l-50.60 -0.00"/>
<use x="582.20" y="817.00" xlink:href="#hd"/>
<path d="M578.70 817.00v24.20" class="stroke"/>
<use x="599.00" y="808.00" xlink:href="#hd"/>
<path d="M595.50 808.00v33.20" class="stroke"/>
<use x="615.60" y="823.00" xlink:href="#hd"/>
<path d="M612.10 823.00v18.20" class="stroke"/>
<use x="632.10" y="817.00" xlink:href="#hd"/>
<path d="M628.60 817.00v24.20" class="stroke"/>
<use x="665.60" y="838.00" xlink:href="#hl"/>
<use x="665.60" y="844.00" xlink:href="#hl"/>
<use x="665.60" y="844.00" xlink:href="#Hd"/>
<path d="M669.10 844.00v-34.00" class="stroke"/>
<use x="665.60" y="838.00" xlink:href="#Hd"/>
<use x="665.60" y="829.00" xlink:href="#Hd"/>
<use x="702.20" y="838.00" xlink:href="#hl"/>
<use x="702.20" y="844.00" xlink:href="#hl"/>
<use x="702.20" y="844.00" xlink:href="#hd"/>
<path d="M705.70 844.00v-34.00" class="stroke"/>
<use x="702.20" y="838.00" xlink:href="#hd"/>
<use x="702.20" y="829.00" xlink:href="#hd"/>
<use x="727.30" y="820.00" xlink:href="#r4"/>
<path class="fill"
	d="M425.50 841.00c3.55 4.91 18.97 4.91 22.52 -0.00
	v0.22c-4.22 6.68 -18.30 6.68 -22.52 -0.22"/>
<path class="fill"
	d="M429.80 838.00c3.55 -4.91 18.97 -4.91 22.52 -0.00
	v-0.22c-4.22 -6.68 -18.30 -6.68 -22.52 0.22"/>
<path class="fill"
	d="M425.50 832.00c3.55 -4.91 18.97 -4.91 22.52 -0.00
	v-0.22c-4.22 -6.68 -18.30 -6.68 -22.52 0.22"/>
<path class="fill"
	d="M425.50 826.00c3.55 -4.91 18.97 -4.91 22.52 -0.00
	v-0.22c-4.22 -6.68 -18.30 -6.68 -22.52 0.22"/>
<path class="fill"
	d="M669.10 844.00c4.66 5.03 24.93 5.03 29.59 -0.00
	v0.23c-5.55 6.80 -24.05 6.80 -29.59 -0.23"/>
<path class="fill"
	d="M669.10 838.00c4.66 5.03 24.93 5.03 29.59 -0.00
	v0.23c-5.55 6.80 -24.05 6.80 -29.59 -0.23"/>
<path class="fill"
	d="M669.10 829.00c4.66 -5.03 24.93 -5.03 29.59 -0.00
	v-0.23c-5.55 -6.80 -24.05 -6.80 -29.59 0.23"/>
<use x="79.20" y="877.00" xlink:href="#bclef"/>
<use x="94.20" y="889.00" xlink:href="#ft0"/>
<use x="112.20" y="901.00" xlink:href="#hl"/>
<use x="112.20" y="907.00" xlink:href="#hl"/>
<use x="112.20" y="913.00" xlink:href="#hl"/>
<use x="112.20" y="919.00" xlink:href="#hl"/>
<use x="112.20" y="919.00" xlink:href="#hd"/>
<circle class="fill" cx="119.90" cy="916.00" r="1.2"/>
<path d="M115.70 919.00v-40.00" class="stroke"/>
<use x="112.20" y="898.00" xlink:href="#hd"/>
<circle class="fill" cx="119.90" cy="898.00" r="1.2"/>
<use x="142.10" y="892.00" xlink:href="#hd"/>
<path d="M145.60 892.00v-25.00" class="stroke"/>
<path class="fill"
	d="M145.60 867.00c0.6 5.6 9.6 9 5.6 18.4
	1.6 -6 -1.3 -11.6 -5.6 -12.8
"/>
<use x="142.10" y="886.00" xlink:href="#hd"/>
<path class="fill"
	d="M157.70 906.90l50.60 -6.70v-3.20l-50.60 6.70"/>
<use x="161.50" y="883.00" xlink:href="#hd"/>
<path d="M158.00 883.00v22.80" class="stroke"/>
<use x="161.50" y="889.00" xlink:href="#hd"/>
<use x="178.30" y="880.00" xlink:href="#hd"/>
<path d="M174.80 880.00v23.60" class="stroke"/>
<use x="178.30" y="886.00" xlink:href="#hd"/>
<use x="194.80" y="877.00" xlink:href="#hd"/>
<path d="M191.30 877.00v24.40" class="stroke"/>
<use x="194.80" y="883.00" xlink:href="#hd"/>
<use x="211.40" y="874.00" xlink:href="#hd"/>
<path d="M207.90 874.00v25.20" class="stroke"/>
<use x="211.40" y="880.00" xlink:href="#hd"/>
<path class="fill"
	d="M233.80 897.90l50.30 0.00v-3.20l-50.30 -0.00"/>
<use x="237.70" y="871.00" xlink:href="#hd"/>
<path d="M234.20 871.00v26.00" class="stroke"/>
<use x="237.70" y="877.00" xlink:href="#hd"/>
<use x="254.20" y="874.00" xlink:href="#hd"/>
<path d="M250.70 874.00v23.00" class="stroke"/>
<use x="254.20" y="880.00" xlink:href="#hd"/>
<use x="270.80" y="871.00" xlink:href="#hd"/>
<path d="M267.30 871.00v26.00" class="stroke"/>
<use x="270.80" y="877.00" xlink:href="#hd"/>
<use x="287.30" y="868.00" xlink:href="#hd"/>
<path d="M283.80 868.00v29.00" class="stroke"/>
<use x="287.30" y="874.00" xlink:href="#hd"/>
<use x="305.50" y="865.00" xlink:href="#hl"/>
<use x="305.50" y="865.00" xlink:href="#hd"/>
<path d="M302.00 865.00v25.00" class="stroke"/>
<path class="fill"
	d="M302.00 890.00c0.6 -5.6 9.6 -9 5.6 -18.4
	1.6 6 -1.3 11.6 -5.6 12.8
"/>
<use x="305.50" y="871.00" xlink:href="#hd"/>
<use x="322.80" y="883.00" xlink:href="#r8"/>
<use x="339.40" y="901.00" xlink:href="#hl"/>
<use x="339.40" y="907.00" xlink:href="#hl"/>
<use x="339.40" y="910.00" xlink:href="#hd"/>
<path d="M342.90 910.00v-40.00" class="stroke"/>
<path class="fill"
	d="M342.90 870.00c0.6 5.6 9.6 9 5.6 18.4
	1.6 -6 -1.3 -11.6 -5.6 -12.8
"/>
<use x="339.40" y="889.00" xlink:href="#hd"/>
<use x="356.70" y="883.00" xlink:href="#r8"/>
<use x="383.50" y="901.00" xlink:href="#hl"/>
<use x="383.50" y="907.00" xlink:href="#hl"/>
<use x="383.50" y="907.00" xlink:href="#Hd"/>
<path d="M387.00 907.00v-40.00" class="stroke"/>
<use x="383.50" y="886.00" xlink:href="#Hd"/>
<use x="422.00" y="901.00" xlink:href="#hl"/>
<use x="422.00" y="907.00" xlink:href="#hl"/>
<use x="422.00" y="907.00" xlink:href="#hd"/>
<path d="M425.50 907.00v-40.00" class="stroke"/>
<use x="422.00" y="886.00" xlink:href="#hd"/>
<path class="fill"
	d="M454.70 868.70l25.70 6.30v3.20l-25.70 -6.30"/>
<path class="fill"
	d="M472.10 878.00l8.00 2.00v3.20l-8.00 -2.00"/>
<use x="451.60" y="901.00" xlink:href="#hl"/>
<use x="451.60" y="907.00" xlink:href="#hl"/>
<use x="451.60" y="907.00" xlink:href="#hd"/>
<circle class="fill" cx="459.30" cy="904.00" r="1.2"/>
<path d="M455.10 907.00v-37.20" class="stroke"/>
<use x="451.60" y="886.00" xlink:href="#hd"/>
<circle class="fill" cx="459.30" cy="886.00" r="1.2"/>
<use x="476.60" y="901.00" xlink:href="#hl"/>
<use x="476.60" y="907.00" xlink:href="#hl"/>
<use x="476.60" y="913.00" xlink:href="#hl"/>
<use x="476.60" y="919.00" xlink:href="#hl"/>
<use x="476.60" y="919.00" xlink:href="#hd"/>
<path d="M480.10 919.00v-43.10" class="stroke"/>
<use x="476.60" y="898.00" xlink:href="#hd"/>
<use x="501.60" y="901.00" xlink:href="#hl"/>
<use x="501.60" y="907.00" xlink:href="#hl"/>
<use x="501.60" y="913.00" xlink:href="#hl"/>
<use x="501.60" y="919.00" xlink:href="#hl"/>
<use x="501.60" y="919.00" xlink:href="#hd"/>
<path d="M505.10 919.00v-40.00" class="stroke"/>
<path class="fill"
	d="M505.10 879.00c0.6 5.6 9.6 9 5.6 18.4
	1.6 -6 -1.3 -11.6 -5.6 -12.8
"/>
<use x="501.60" y="898.00" xlink:href="#hd"/>
<path class="fill"
	d="M517.10 883.20l13.10 0.00v-3.20l-13.10 -0.00"/>
<path class="fill"
	d="M517.50 878.20l12.40 0.00v-3.20l-12.40 -0.00"/>
<use x="521.00" y="865.00" xlink:href="#hl"/>
<use x="521.00" y="859.00" xlink:href="#hl"/>
<use x="521.00" y="856.00" xlink:href="#hd"/>
<path d="M517.50 856.00v26.20" class="stroke"/>
<use x="533.40" y="865.00" xlink:href="#hl"/>
<use x="533.40" y="859.00" xlink:href="#hl"/>
<use x="533.40" y="856.00" xlink:href="#hd"/>
<path d="M529.90 856.00v26.20" class="stroke"/>
<path class="fill"
	d="M543.10 883.20l17.50 0.00v-3.20l-17.50 -0.00"/>
<use x="546.90" y="865.00" xlink:href="#hl"/>
<use x="546.90" y="859.00" xlink:href="#hl"/>
<use x="546.90" y="853.00" xlink:href="#hl"/>
<use x="546.90" y="850.00" xlink:href="#hd"/>
<path d="M543.40 850.00v32.20" class="stroke"/>
<use x="563.70" y="865.00" xlink:href="#hl"/>
<use x="563.70" y="859.00" xlink:href="#hl"/>
<use x="563.70" y="856.00" xlink:href="#hd"/>
<path d="M560.20 856.00v26.20" class="stroke"/>
<path class="fill"
	d="M578.40 889.20l50.60 0.00v-3.20l-50.60 -0.00"/>
<use x="582.20" y="865.00" xlink:href="#hl"/>
<use x="582.20" y="865.00" xlink:href="#hd"/>
<path d="M578.70 865.00v23.20" class="stroke"/>
<use x="599.00" y="865.00" xlink:href="#hl"/>
<use x="599.00" y="859.00" xlink:href="#hl"/>
<use x="599.00" y="856.00" xlink:href="#hd"/>
<path d="M595.50 856.00v32.20" class="stroke"/>
<use x="615.60" y="871.00" xlink:href="#hd"/>
<path d="M612.10 871.00v17.20" class="stroke"/>
<use x="632.10" y="865.00" xlink:href="#hl"/>
<use x="632.10" y="865.00" xlink:href="#hd"/>
<path d="M628.60 865.00v23.20" class="stroke"/>
<use x="665.60" y="901.00" xlink:href="#hl"/>
<use x="665.60" y="907.00" xlink:href="#hl"/>
<use x="665.60" y="913.00" xlink:href="#hl"/>
<use x="665.60" y="919.00" xlink:href="#hl"/>
<use x="665.60" y="919.00" xlink:href="#Hd"/>
<path d="M669.10 919.00v-40.00" class="stroke"/>
<use x="665.60" y="898.00" xlink:href="#Hd"/>
<use x="702.20" y="901.00" xlink:href="#hl"/>
<use x="702.20" y="907.00" xlink:href="#hl"/>
<use x="702.20" y="913.00" xlink:href="#hl"/>
<use x="702.20" y="919.00" xlink:href="#hl"/>
<use x="702.20" y="919.00" xlink:href="#hd"/>
<path d="M705.70 919.00v-40.00" class="stroke"/>
<use x="702.20" y="898.00" xlink:href="#hd"/>
<use x="727.30" y="883.00" xlink:href="#r4"/>
<path class="fill"
	d="M425.50 907.00c3.55 4.91 18.97 4.91 22.52 -0.00
	v0.22c-4.22 6.68 -18.30 6.68 -22.52 -0.22"/>
<path class="fill"
	d="M425.50 886.00c3.55 -4.91 18.97 -4.91 22.52 -0.00
	v-0.22c-4.22 -6.68 -18.30 -6.68 -22.52 0.22"/>
<path class="fill"
	d="M669.10 919.00c4.66 5.03 24.93 5.03 29.59 -0.00
	v0.23c-5.55 6.80 -24.05 6.80 -29.59 -0.23"/>
<path class="fill"
	d="M669.10 898.00c4.66 -5.03 24.93 -5.03 29.59 -0.00
	v-0.23c-5.55 -6.80 -24.05 -6.80 -29.59 0.23"/>
</g>
</svg>
