<?xml version="1.0" standalone="no"?>
<!DOCTYPE svg PUBLIC "-//W3C//DTD SVG 1.1//EN"
	"http://www.w3.org/Graphics/SVG/1.1/DTD/svg11.dtd">
<svg xmlns="http://www.w3.org/2000/svg" version="1.1"
	xmlns:xlink="http://www.w3.org/1999/xlink"
	color="black"
	width="816.00px" height="1056.00px">
<style type="text/css">
.fill {fill: currentColor}
.stroke {stroke: currentColor; fill: none}
text{white-space: pre}
</style>
<title>MP.abc page 2</title>
<!-- Creator: abcm2ps-8.13.8 -->
<!-- CreationDate: Sep 23, 2017 22:31 -->
<!-- CommandLine: -O= -v MP.abc -->
<g stroke-width="0.70">
<path class="stroke" stroke-width="1"
	d="M67.20 205.00v-88.00"/>
<defs>
<path id="brace" class="fill" d="m-2.5 101
	c-4.5 -4.6 -7.5 -12.2 -4.4 -26.8
	3.5 -14.3 3.2 -21.7 -2.1 -24.2
	7.4 2.4 7.3 14.2 3.5 29.5
	-2.7 9.5 -1.5 16.2 3 21.5
	M-2.5 1c-4.5 4.6 -7.5 12.2 -4.4 26.8
	c3.5 14.3 3.2 21.7 -2.1 24.2
	7.4 -2.4 7.3 -14.2 3.5 -29.5
	-2.7 -9.5 -1.5 -16.2 3 -21.5"/>
</defs>
<g transform="translate(67.20,117.00) scale(1,0.88)">
	<use xlink:href="#brace"/>
</g>
<path class="stroke" stroke-width="1"
	d="M263.90 141.00v-24.00"/>
<path class="stroke" stroke-width="1"
	d="M263.90 205.00v-64.00"/>
<path class="stroke" stroke-width="1"
	d="M428.20 141.00v-24.00"/>
<path class="stroke" stroke-width="1"
	d="M428.20 205.00v-64.00"/>
<path class="stroke" stroke-width="1"
	d="M593.90 141.00v-24.00"/>
<path class="stroke" stroke-width="1"
	d="M593.90 205.00v-64.00"/>
<path class="stroke" stroke-width="1"
	d="M748.80 141.00v-24.00"/>
<path class="stroke" stroke-width="1"
	d="M748.80 205.00v-64.00"/>
<path d="m67.20 141.00
	h681.60
	M67.20 135.00
	h681.60
	M67.20 129.00
	h681.60
	M67.20 123.00
	h681.60
	M67.20 117.00
	h681.60
	" class="stroke"/>
<path d="m67.20 205.00
	h681.60
	M67.20 199.00
	h681.60
	M67.20 193.00
	h681.60
	M67.20 187.00
	h681.60
	M67.20 181.00
	h681.60
	" class="stroke"/>
</g>
<g stroke-width="0.70" font-family="Bookman" font-size="12.00" font-style="italic">
<text x="478.80" y="165.10">cre -</text>
<text x="538.20" y="164.10">-</text>
<text x="578.60" y="164.10">-</text>
<text x="606.90" y="164.10">scen -</text>
<text x="692.70" y="166.10">-</text>
<text x="741.30" y="166.10">-</text>
<defs>
<path id="utclef" class="fill" d="m-50 -90
	c-72 -41 -72 -158 52 -188
	150 -10 220 188 90 256
	-114 52 -275 0 -293 -136
	-15 -181 93 -229 220 -334
	88 -87 79 -133 62 -210
	-51 33 -94 105 -89 186
	17 267 36 374 49 574
	6 96 -19 134 -77 135
	-80 1 -126 -93 -61 -133
	85 -41 133 101 31 105
	23 17 92 37 90 -92
	-10 -223 -39 -342 -50 -617
	0 -90 0 -162 96 -232
	56 72 63 230 22 289
	-74 106 -257 168 -255 316
	9 153 148 185 252 133
	86 -65 29 -192 -80 -176
	-71 12 -105 67 -59 124"/>
<use id="tclef" transform="translate(0,6) scale(0.045)"
	xlink:href="#utclef"/>
</defs>
<use x="79.20" y="135.00" xlink:href="#tclef"/>
<defs>
<path id="uflat" class="fill" d="
	m100 -746
	h32
	v734
	l-32 4
	m32 -332
	c46 -72 152 -90 208 -20
	100 110 -120 326 -208 348
	m0 -28
	c54 0 200 -206 130 -290
	-50 -60 -130 -4 -130 34"/>
<use id="ft0" transform="translate(-3.5,3.5) scale(0.018)"
	xlink:href="#uflat"/>
</defs>
<use x="94.20" y="129.00" xlink:href="#ft0"/>
<defs>
<path id="hl" class="stroke" d="m-6 0h12"/>
</defs>
<use x="112.70" y="147.00" xlink:href="#hl"/>
<defs>
<path id="Hd" class="fill" d="m3 -1.6
	c-1 -1.8 -7 1.4 -6 3.2
	1 1.8 7 -1.4 6 -3.2
	m0.5 -0.3
	c2 3.8 -5 7.6 -7 3.8
	-2 -3.8 5 -7.6 7 -3.8"/>
</defs>
<use x="112.70" y="150.00" xlink:href="#Hd"/>
<path d="M116.20 150.00v-34.00" class="stroke"/>
<use x="112.70" y="144.00" xlink:href="#Hd"/>
<use x="112.70" y="135.00" xlink:href="#Hd"/>
<use x="179.70" y="147.00" xlink:href="#hl"/>
<defs>
<ellipse id="hd" rx="4.1" ry="2.9"
	transform="rotate(-20)" class="fill"/>
</defs>
<use x="179.70" y="150.00" xlink:href="#hd"/>
<path d="M183.20 150.00v-34.00" class="stroke"/>
<path class="fill"
	d="M183.20 116.00c0.6 5.6 9.6 9 5.6 18.4
	1.6 -6 -1.3 -11.6 -5.6 -12.8
"/>
<use x="179.70" y="144.00" xlink:href="#hd"/>
<use x="179.70" y="135.00" xlink:href="#hd"/>
<defs>
<path id="r8e" class="fill" d="m 0 0
	c-1.5 1.5 -2.4 2 -3.6 2
	2.4 -2.8 -2.8 -4 -2.8 -1.2
	c0 2.7 4.3 2.4 5.9 0.6"/>
<g id="r8">
	<path d="m3.3 -4l-3.4 9.6" class="stroke"/>
	<use x="3.4" y="-4" xlink:href="#r8e"/>
</g>
</defs>
<use x="199.00" y="129.00" xlink:href="#r8"/>
<path class="fill"
	d="M222.10 112.70l22.20 -2.40v3.20l-22.20 2.40"/>
<use x="218.90" y="147.00" xlink:href="#hl"/>
<use x="218.90" y="147.00" xlink:href="#hd"/>
<path d="M222.40 147.00v-33.30" class="stroke"/>
<use x="225.90" y="144.00" xlink:href="#hd"/>
<use x="218.90" y="138.00" xlink:href="#hd"/>
<defs>
<path id="usharp" class="fill" d="
	m136 -702
	v890
	h32
	v-890
	m128 840
	h32
	v-888
	h-32
	m-232 286
	v116
	l338 -96
	v-116
	m-338 442
	v116
	l338 -98
	v-114"/>
<use id="sh0" transform="translate(-4,5) scale(0.018)"
	xlink:href="#usharp"/>
</defs>
<use x="209.90" y="138.00" xlink:href="#sh0"/>
<use x="218.90" y="132.00" xlink:href="#hd"/>
<use x="240.40" y="147.00" xlink:href="#hl"/>
<use x="240.40" y="147.00" xlink:href="#hd"/>
<path d="M243.90 147.00v-35.70" class="stroke"/>
<use x="247.40" y="144.00" xlink:href="#hd"/>
<use x="240.40" y="138.00" xlink:href="#hd"/>
<use x="240.40" y="129.00" xlink:href="#hd"/>
<use x="276.90" y="147.00" xlink:href="#hl"/>
<use x="276.90" y="150.00" xlink:href="#Hd"/>
<path d="M280.40 150.00v-34.00" class="stroke"/>
<use x="276.90" y="144.00" xlink:href="#Hd"/>
<use x="276.90" y="135.00" xlink:href="#Hd"/>
<use x="343.90" y="147.00" xlink:href="#hl"/>
<use x="343.90" y="150.00" xlink:href="#hd"/>
<path d="M347.40 150.00v-34.00" class="stroke"/>
<path class="fill"
	d="M347.40 116.00c0.6 5.6 9.6 9 5.6 18.4
	1.6 -6 -1.3 -11.6 -5.6 -12.8
"/>
<use x="343.90" y="144.00" xlink:href="#hd"/>
<use x="343.90" y="135.00" xlink:href="#hd"/>
<use x="363.30" y="129.00" xlink:href="#r8"/>
<path class="fill"
	d="M386.30 112.70l22.20 -2.40v3.20l-22.20 2.40"/>
<use x="383.20" y="147.00" xlink:href="#hl"/>
<use x="383.20" y="147.00" xlink:href="#hd"/>
<path d="M386.70 147.00v-33.30" class="stroke"/>
<use x="390.20" y="144.00" xlink:href="#hd"/>
<use x="383.20" y="138.00" xlink:href="#hd"/>
<use x="374.20" y="138.00" xlink:href="#sh0"/>
<use x="383.20" y="132.00" xlink:href="#hd"/>
<use x="404.70" y="147.00" xlink:href="#hl"/>
<use x="404.70" y="147.00" xlink:href="#hd"/>
<path d="M408.20 147.00v-35.70" class="stroke"/>
<use x="411.70" y="144.00" xlink:href="#hd"/>
<use x="404.70" y="138.00" xlink:href="#hd"/>
<use x="404.70" y="129.00" xlink:href="#hd"/>
<use x="440.70" y="147.00" xlink:href="#hl"/>
<use x="440.70" y="150.00" xlink:href="#hd"/>
<path d="M444.20 150.00v-34.00" class="stroke"/>
<path class="fill"
	d="M444.20 116.00c0.6 5.6 9.6 9 5.6 18.4
	1.6 -6 -1.3 -11.6 -5.6 -12.8
"/>
<use x="440.70" y="144.00" xlink:href="#hd"/>
<use x="440.70" y="135.00" xlink:href="#hd"/>
<use x="460.00" y="129.00" xlink:href="#r8"/>
<path class="fill"
	d="M482.00 115.70l20.00 -2.40v3.20l-20.00 2.40"/>
<use x="478.80" y="147.00" xlink:href="#hl"/>
<use x="478.80" y="150.00" xlink:href="#hd"/>
<path d="M482.30 150.00v-33.40" class="stroke"/>
<use x="478.80" y="135.00" xlink:href="#hd"/>
<use x="498.10" y="144.00" xlink:href="#hd"/>
<path d="M501.60 144.00v-29.60" class="stroke"/>
<use x="498.10" y="132.00" xlink:href="#hd"/>
<use x="518.90" y="135.00" xlink:href="#hd"/>
<path d="M522.40 135.00v-25.00" class="stroke"/>
<path class="fill"
	d="M522.40 110.00c0.6 5.6 9.6 9 5.6 18.4
	1.6 -6 -1.3 -11.6 -5.6 -12.8
"/>
<use x="518.90" y="129.00" xlink:href="#hd"/>
<use x="538.20" y="129.00" xlink:href="#r8"/>
<use x="558.10" y="141.00" xlink:href="#hd"/>
<use x="549.10" y="141.00" xlink:href="#ft0"/>
<path d="M561.60 141.00v-34.00" class="stroke"/>
<path class="fill"
	d="M561.60 107.00c0.6 5.6 9.6 9 5.6 18.4
	1.6 -6 -1.3 -11.6 -5.6 -12.8
"/>
<use x="565.10" y="138.00" xlink:href="#hd"/>
<use x="558.10" y="132.00" xlink:href="#hd"/>
<use x="558.10" y="126.00" xlink:href="#hd"/>
<use x="578.60" y="129.00" xlink:href="#r8"/>
<use x="606.90" y="144.00" xlink:href="#Hd"/>
<path d="M610.40 144.00v-40.00" class="stroke"/>
<use x="606.90" y="138.00" xlink:href="#Hd"/>
<use x="606.90" y="129.00" xlink:href="#Hd"/>
<use x="606.90" y="123.00" xlink:href="#Hd"/>
<use x="673.30" y="144.00" xlink:href="#hd"/>
<path d="M676.80 144.00v-34.00" class="stroke"/>
<path class="fill"
	d="M676.80 110.00c0.6 5.6 9.6 9 5.6 18.4
	1.6 -6 -1.3 -11.6 -5.6 -12.8
"/>
<use x="673.30" y="138.00" xlink:href="#hd"/>
<use x="673.30" y="129.00" xlink:href="#hd"/>
<use x="692.70" y="129.00" xlink:href="#r8"/>
<path class="fill"
	d="M717.70 110.50l19.60 -4.80v3.20l-19.60 4.80"/>
<use x="714.50" y="147.00" xlink:href="#hl"/>
<use x="714.50" y="147.00" xlink:href="#hd"/>
<path d="M718.00 147.00v-35.60" class="stroke"/>
<use x="714.50" y="138.00" xlink:href="#hd"/>
<use x="714.50" y="132.00" xlink:href="#hd"/>
<use x="733.50" y="138.00" xlink:href="#hd"/>
<path d="M737.00 138.00v-31.20" class="stroke"/>
<use x="733.50" y="132.00" xlink:href="#hd"/>
<use x="733.50" y="123.00" xlink:href="#hd"/>
<path class="fill"
	d="M116.20 150.00c8.91 5.58 51.06 5.58 59.97 -0.00
	v0.26c-10.70 7.32 -49.26 7.32 -59.97 -0.26"/>
<path class="fill"
	d="M116.20 144.00c8.91 5.58 51.06 5.58 59.97 -0.00
	v0.26c-10.70 7.32 -49.26 7.32 -59.97 -0.26"/>
<path class="fill"
	d="M116.20 135.00c8.91 -5.58 51.06 -5.58 59.97 -0.00
	v-0.26c-10.70 -7.32 -49.26 -7.32 -59.97 0.26"/>
<path class="fill"
	d="M280.40 150.00c8.91 5.58 51.06 5.58 59.97 -0.00
	v0.26c-10.70 7.32 -49.26 7.32 -59.97 -0.26"/>
<path class="fill"
	d="M280.40 144.00c8.91 5.58 51.06 5.58 59.97 -0.00
	v0.26c-10.70 7.32 -49.26 7.32 -59.97 -0.26"/>
<path class="fill"
	d="M280.40 135.00c8.91 -5.58 51.06 -5.58 59.97 -0.00
	v-0.26c-10.70 -7.32 -49.26 -7.32 -59.97 0.26"/>
<defs>
<path id="ubclef" class="fill" d="m-200 -87
	c124 -35 222 -78 254 -236
	43 -228 -167 -246 -192 -103
	59 -80 157 22 92 78
	-62 47 -115 -22 -106 -88
	21 -141 270 -136 274 52
	-1 175 -106 264 -322 297
	m357 -250
	c0 -36 51 -34 51 0
	0 37 -51 36 -51 0
	m-2 -129
	c0 -36 51 -34 51 0
	0 38 -51 37 -51 0"/>
<use id="bclef" transform="translate(0,18) scale(0.045)"
	xlink:href="#ubclef"/>
</defs>
<use x="79.20" y="187.00" xlink:href="#bclef"/>
<use x="94.20" y="199.00" xlink:href="#ft0"/>
<defs>
<path id="r4" class="fill" d="m-1 -8.5
	l3.6 5.1 -2.1 5.2 2.2 4.3
	c-2.6 -2.3 -5.1 0 -2.4 2.6
	-4.8 -3 -1.5 -6.9 1.4 -4.1
	l-3.1 -4.5 1.9 -5.1 -1.5 -3.5"/>
</defs>
<use x="112.70" y="193.00" xlink:href="#r4"/>
<use x="141.50" y="205.00" xlink:href="#hd"/>
<path d="M145.00 205.00v-40.00" class="stroke"/>
<path class="fill"
	d="M145.00 165.00c0.6 5.6 9.6 9 5.6 18.4
	1.6 -6 -1.3 -11.6 -5.6 -12.8
"/>
<use x="141.50" y="184.00" xlink:href="#hd"/>
<use x="160.90" y="193.00" xlink:href="#r8"/>
<use x="179.70" y="211.00" xlink:href="#hl"/>
<use x="179.70" y="214.00" xlink:href="#hd"/>
<path d="M183.20 214.00v-40.00" class="stroke"/>
<use x="179.70" y="193.00" xlink:href="#hd"/>
<use x="218.90" y="211.00" xlink:href="#hl"/>
<use x="218.90" y="214.00" xlink:href="#hd"/>
<path d="M222.40 214.00v-40.00" class="stroke"/>
<path class="fill"
	d="M222.40 174.00c0.6 5.6 9.6 9 5.6 18.4
	1.6 -6 -1.3 -11.6 -5.6 -12.8
"/>
<use x="218.90" y="193.00" xlink:href="#hd"/>
<use x="240.40" y="193.00" xlink:href="#r8"/>
<use x="276.90" y="193.00" xlink:href="#r4"/>
<use x="305.80" y="205.00" xlink:href="#hd"/>
<path d="M309.30 205.00v-40.00" class="stroke"/>
<path class="fill"
	d="M309.30 165.00c0.6 5.6 9.6 9 5.6 18.4
	1.6 -6 -1.3 -11.6 -5.6 -12.8
"/>
<use x="305.80" y="184.00" xlink:href="#hd"/>
<use x="325.10" y="193.00" xlink:href="#r8"/>
<use x="343.90" y="211.00" xlink:href="#hl"/>
<use x="343.90" y="214.00" xlink:href="#hd"/>
<path d="M347.40 214.00v-40.00" class="stroke"/>
<use x="343.90" y="193.00" xlink:href="#hd"/>
<use x="383.20" y="211.00" xlink:href="#hl"/>
<use x="383.20" y="214.00" xlink:href="#hd"/>
<path d="M386.70 214.00v-40.00" class="stroke"/>
<path class="fill"
	d="M386.70 174.00c0.6 5.6 9.6 9 5.6 18.4
	1.6 -6 -1.3 -11.6 -5.6 -12.8
"/>
<use x="383.20" y="193.00" xlink:href="#hd"/>
<use x="404.70" y="193.00" xlink:href="#r8"/>
<use x="440.70" y="193.00" xlink:href="#r4"/>
<use x="478.80" y="205.00" xlink:href="#hd"/>
<path d="M482.30 205.00v-40.00" class="stroke"/>
<path class="fill"
	d="M482.30 165.00c0.6 5.6 9.6 9 5.6 18.4
	1.6 -6 -1.3 -11.6 -5.6 -12.8
"/>
<use x="478.80" y="184.00" xlink:href="#hd"/>
<use x="498.10" y="193.00" xlink:href="#r8"/>
<use x="518.90" y="211.00" xlink:href="#hl"/>
<use x="518.90" y="214.00" xlink:href="#hd"/>
<path d="M522.40 214.00v-40.00" class="stroke"/>
<use x="518.90" y="193.00" xlink:href="#hd"/>
<use x="558.10" y="208.00" xlink:href="#hd"/>
<path d="M561.60 208.00v-40.00" class="stroke"/>
<path class="fill"
	d="M561.60 168.00c0.6 5.6 9.6 9 5.6 18.4
	1.6 -6 -1.3 -11.6 -5.6 -12.8
"/>
<use x="558.10" y="187.00" xlink:href="#hd"/>
<use x="578.60" y="193.00" xlink:href="#r8"/>
<use x="606.90" y="193.00" xlink:href="#r4"/>
<use x="635.80" y="178.00" xlink:href="#hd"/>
<path d="M632.30 178.00v40.00" class="stroke"/>
<path class="fill"
	d="M632.30 218.00c0.6 -5.6 9.6 -9 5.6 -18.4
	1.6 6 -1.3 11.6 -5.6 12.8
"/>
<use x="635.80" y="199.00" xlink:href="#hd"/>
<use x="654.60" y="193.00" xlink:href="#r8"/>
<use x="673.30" y="208.00" xlink:href="#hd"/>
<path d="M676.80 208.00v-40.00" class="stroke"/>
<path class="fill"
	d="M676.80 168.00c0.6 5.6 9.6 9 5.6 18.4
	1.6 -6 -1.3 -11.6 -5.6 -12.8
"/>
<use x="673.30" y="187.00" xlink:href="#hd"/>
<use x="692.70" y="193.00" xlink:href="#r8"/>
<path class="fill"
	d="M710.70 193.20l19.60 0.00v-3.20l-19.60 -0.00"/>
<use x="714.50" y="175.00" xlink:href="#hl"/>
<use x="714.50" y="169.00" xlink:href="#hl"/>
<use x="714.50" y="169.00" xlink:href="#hd"/>
<use x="705.50" y="169.00" xlink:href="#ft0"/>
<path d="M711.00 169.00v23.20" class="stroke"/>
<use x="733.50" y="175.00" xlink:href="#hl"/>
<use x="733.50" y="169.00" xlink:href="#hl"/>
<use x="733.50" y="169.00" xlink:href="#hd"/>
<path d="M730.00 169.00v23.20" class="stroke"/>
<path class="fill"
	d="M183.20 214.00c5.08 5.08 27.16 5.08 32.24 -0.00
	v0.23c-6.05 6.85 -26.20 6.85 -32.24 -0.23"/>
<path class="fill"
	d="M183.20 193.00c5.08 -5.08 27.16 -5.08 32.24 -0.00
	v-0.23c-6.05 -6.85 -26.20 -6.85 -32.24 0.23"/>
<path class="fill"
	d="M347.40 214.00c5.08 5.08 27.16 5.08 32.24 -0.00
	v0.23c-6.05 6.85 -26.20 6.85 -32.24 -0.23"/>
<path class="fill"
	d="M347.40 193.00c5.08 -5.08 27.16 -5.08 32.24 -0.00
	v-0.23c-6.05 -6.85 -26.20 -6.85 -32.24 0.23"/>
<text font-family="serif" font-size="16" font-weight="bold" font-style="italic"
	x="110.70" y="170.40">p</text>
</g>
<g stroke-width="0.70" font-family="Bookman" font-size="12.00" font-style="italic">
<path class="stroke" stroke-width="1"
	d="M67.20 357.00v-106.00"/>
<g transform="translate(67.20,251.00) scale(1,1.06)">
	<use xlink:href="#brace"/>
</g>
<path class="stroke" stroke-width="1"
	d="M279.90 275.00v-24.00"/>
<path class="stroke" stroke-width="1"
	d="M279.90 357.00v-82.00"/>
<path class="stroke" stroke-width="1"
	d="M456.10 275.00v-24.00"/>
<path class="stroke" stroke-width="1"
	d="M456.10 357.00v-82.00"/>
<path class="stroke" stroke-width="1"
	d="M630.60 275.00v-24.00"/>
<path class="stroke" stroke-width="1"
	d="M630.60 357.00v-82.00"/>
<path class="stroke" stroke-width="1"
	d="M748.80 275.00v-24.00"/>
<path class="stroke" stroke-width="1"
	d="M748.80 357.00v-82.00"/>
<path d="m67.20 275.00
	h681.60
	M67.20 269.00
	h681.60
	M67.20 263.00
	h681.60
	M67.20 257.00
	h681.60
	M67.20 251.00
	h681.60
	" class="stroke"/>
<path d="m67.20 357.00
	h681.60
	M67.20 351.00
	h681.60
	M67.20 345.00
	h681.60
	M67.20 339.00
	h681.60
	M67.20 333.00
	h681.60
	" class="stroke"/>
<text x="104.70" y="303.10">- do</text>
<use x="79.20" y="269.00" xlink:href="#tclef"/>
<use x="94.20" y="263.00" xlink:href="#ft0"/>
<use x="112.20" y="272.00" xlink:href="#hd"/>
<path d="M115.70 272.00v-28.00" class="stroke"/>
<path class="fill"
	d="M115.70 244.00c0.6 5.6 9.6 9 5.6 18.4
	1.6 -6 -1.3 -11.6 -5.6 -12.8
"/>
<use x="112.20" y="263.00" xlink:href="#hd"/>
<use x="132.80" y="263.00" xlink:href="#r8"/>
<path class="fill"
	d="M158.30 243.70l20.90 -2.40v3.20l-20.90 2.40"/>
<use x="155.10" y="278.00" xlink:href="#hd"/>
<path d="M158.60 278.00v-33.30" class="stroke"/>
<use x="155.10" y="263.00" xlink:href="#hd"/>
<use x="175.30" y="272.00" xlink:href="#hd"/>
<path d="M178.80 272.00v-29.70" class="stroke"/>
<use x="175.30" y="260.00" xlink:href="#hd"/>
<use x="197.90" y="257.00" xlink:href="#hd"/>
<path d="M194.40 257.00v25.00" class="stroke"/>
<path class="fill"
	d="M194.40 282.00c0.6 -5.6 9.6 -9 5.6 -18.4
	1.6 6 -1.3 11.6 -5.6 12.8
"/>
<use x="197.90" y="263.00" xlink:href="#hd"/>
<use x="218.50" y="263.00" xlink:href="#r8"/>
<use x="243.50" y="254.00" xlink:href="#hd"/>
<defs>
<path id="unat" class="fill" d="
	m96 -750
	h-32
	v716
	l32 -8
	182 -54
	v282
	h32
	v-706
	l-34 10
	-180 50
	v-290
	m0 592
	v-190
	l182 -52
	v188"/>
<use id="nt0" transform="translate(-3,5) scale(0.018)"
	xlink:href="#unat"/>
</defs>
<use x="234.50" y="254.00" xlink:href="#nt0"/>
<path d="M240.00 254.00v34.00" class="stroke"/>
<path class="fill"
	d="M240.00 288.00c0.6 -5.6 9.6 -9 5.6 -18.4
	1.6 6 -1.3 11.6 -5.6 12.8
"/>
<use x="236.50" y="269.00" xlink:href="#hd"/>
<use x="243.50" y="266.00" xlink:href="#hd"/>
<use x="243.50" y="260.00" xlink:href="#hd"/>
<use x="227.50" y="260.00" xlink:href="#sh0"/>
<use x="263.70" y="263.00" xlink:href="#r8"/>
<use x="292.40" y="251.00" xlink:href="#hd"/>
<path d="M288.90 251.00v40.00" class="stroke"/>
<use x="292.40" y="272.00" xlink:href="#hd"/>
<use x="292.40" y="266.00" xlink:href="#hd"/>
<use x="292.40" y="257.00" xlink:href="#hd"/>
<path class="fill"
	d="M336.60 235.30l21.30 2.40v3.20l-21.30 -2.40"/>
<use x="333.40" y="275.00" xlink:href="#hd"/>
<path d="M336.90 275.00v-38.70" class="stroke"/>
<use x="333.40" y="269.00" xlink:href="#hd"/>
<use x="317.40" y="269.00" xlink:href="#sh0"/>
<use x="333.40" y="263.00" xlink:href="#hd"/>
<use x="324.40" y="263.00" xlink:href="#nt0"/>
<use x="333.40" y="254.00" xlink:href="#hd"/>
<use x="354.00" y="275.00" xlink:href="#hd"/>
<path d="M357.50 275.00v-36.30" class="stroke"/>
<use x="354.00" y="269.00" xlink:href="#hd"/>
<use x="354.00" y="263.00" xlink:href="#hd"/>
<use x="354.00" y="257.00" xlink:href="#hd"/>
<use x="376.40" y="275.00" xlink:href="#hd"/>
<path d="M379.90 275.00v-34.00" class="stroke"/>
<path class="fill"
	d="M379.90 241.00c0.6 5.6 9.6 9 5.6 18.4
	1.6 -6 -1.3 -11.6 -5.6 -12.8
"/>
<use x="376.40" y="266.00" xlink:href="#hd"/>
<use x="376.40" y="260.00" xlink:href="#hd"/>
<use x="397.00" y="263.00" xlink:href="#r8"/>
<use x="419.30" y="245.00" xlink:href="#hl"/>
<use x="419.30" y="245.00" xlink:href="#hd"/>
<path d="M415.80 245.00v40.00" class="stroke"/>
<path class="fill"
	d="M415.80 285.00c0.6 -5.6 9.6 -9 5.6 -18.4
	1.6 6 -1.3 11.6 -5.6 12.8
"/>
<use x="419.30" y="266.00" xlink:href="#hd"/>
<use x="419.30" y="260.00" xlink:href="#hd"/>
<use x="419.30" y="251.00" xlink:href="#hd"/>
<use x="439.90" y="263.00" xlink:href="#r8"/>
<use x="468.60" y="248.00" xlink:href="#hd"/>
<circle class="fill" cx="476.30" cy="248.00" r="1.2"/>
<path d="M465.10 248.00v40.00" class="stroke"/>
<use x="468.60" y="269.00" xlink:href="#hd"/>
<circle class="fill" cx="476.30" cy="266.00" r="1.2"/>
<use x="468.60" y="260.00" xlink:href="#hd"/>
<circle class="fill" cx="476.30" cy="260.00" r="1.2"/>
<use x="468.60" y="254.00" xlink:href="#hd"/>
<circle class="fill" cx="476.30" cy="254.00" r="1.2"/>
<use x="522.60" y="269.00" xlink:href="#hd"/>
<path d="M526.10 269.00v-28.00" class="stroke"/>
<path class="fill"
	d="M526.10 241.00c0.6 5.6 9.6 9 5.6 18.4
	1.6 -6 -1.3 -11.6 -5.6 -12.8
"/>
<use x="522.60" y="260.00" xlink:href="#hd"/>
<use x="545.50" y="254.00" xlink:href="#hd"/>
<path d="M542.00 254.00v34.00" class="stroke"/>
<use x="545.50" y="269.00" xlink:href="#hd"/>
<use x="545.50" y="260.00" xlink:href="#hd"/>
<path class="fill"
	d="M577.70 237.00l33.20 0.00v3.20l-33.20 -0.00"/>
<path class="fill"
	d="M602.60 242.00l8.00 0.00v3.20l-8.00 -0.00"/>
<use x="574.60" y="272.00" xlink:href="#hd"/>
<circle class="fill" cx="589.30" cy="272.00" r="1.2"/>
<path d="M578.10 272.00v-34.00" class="stroke"/>
<use x="581.60" y="269.00" xlink:href="#hd"/>
<circle class="fill" cx="589.30" cy="266.00" r="1.2"/>
<use x="574.60" y="263.00" xlink:href="#hd"/>
<circle class="fill" cx="589.30" cy="260.00" r="1.2"/>
<use x="565.60" y="263.00" xlink:href="#nt0"/>
<use x="574.60" y="257.00" xlink:href="#hd"/>
<circle class="fill" cx="589.30" cy="254.00" r="1.2"/>
<use x="607.10" y="272.00" xlink:href="#hd"/>
<path d="M610.60 272.00v-34.00" class="stroke"/>
<use x="614.10" y="269.00" xlink:href="#hd"/>
<use x="607.10" y="263.00" xlink:href="#hd"/>
<use x="598.10" y="263.00" xlink:href="#nt0"/>
<use x="607.10" y="257.00" xlink:href="#hd"/>
<use x="650.10" y="272.00" xlink:href="#Hd"/>
<path d="M653.60 272.00v-34.00" class="stroke"/>
<use x="657.90" y="269.00" xlink:href="#Hd"/>
<use x="650.10" y="263.00" xlink:href="#Hd"/>
<use x="640.10" y="263.00" xlink:href="#nt0"/>
<use x="650.10" y="257.00" xlink:href="#Hd"/>
<use x="695.10" y="275.00" xlink:href="#hd"/>
<path d="M698.60 275.00v-34.00" class="stroke"/>
<use x="695.10" y="269.00" xlink:href="#hd"/>
<use x="695.10" y="260.00" xlink:href="#hd"/>
<use x="726.40" y="263.00" xlink:href="#r4"/>
<use x="79.20" y="339.00" xlink:href="#bclef"/>
<use x="94.20" y="351.00" xlink:href="#ft0"/>
<use x="112.20" y="327.00" xlink:href="#hl"/>
<use x="112.20" y="324.00" xlink:href="#hd"/>
<path d="M108.70 324.00v21.00" class="stroke"/>
<path class="fill"
	d="M108.70 345.00c0.6 -5.6 9.6 -9 5.6 -18.4
	1.6 6 -1.3 11.6 -5.6 12.8
"/>
<use x="132.80" y="345.00" xlink:href="#r8"/>
<use x="155.10" y="330.00" xlink:href="#hd"/>
<path d="M151.60 330.00v40.00" class="stroke"/>
<path class="fill"
	d="M151.60 370.00c0.6 -5.6 9.6 -9 5.6 -18.4
	1.6 6 -1.3 11.6 -5.6 12.8
"/>
<use x="155.10" y="351.00" xlink:href="#hd"/>
<use x="175.30" y="345.00" xlink:href="#r8"/>
<use x="197.90" y="360.00" xlink:href="#hd"/>
<path d="M201.40 360.00v-40.00" class="stroke"/>
<path class="fill"
	d="M201.40 320.00c0.6 5.6 9.6 9 5.6 18.4
	1.6 -6 -1.3 -11.6 -5.6 -12.8
"/>
<use x="197.90" y="339.00" xlink:href="#hd"/>
<use x="218.50" y="345.00" xlink:href="#r8"/>
<use x="243.50" y="333.00" xlink:href="#hd"/>
<path d="M240.00 333.00v40.00" class="stroke"/>
<path class="fill"
	d="M240.00 373.00c0.6 -5.6 9.6 -9 5.6 -18.4
	1.6 6 -1.3 11.6 -5.6 12.8
"/>
<use x="243.50" y="354.00" xlink:href="#hd"/>
<use x="263.70" y="345.00" xlink:href="#r8"/>
<use x="292.40" y="363.00" xlink:href="#hl"/>
<use x="292.40" y="366.00" xlink:href="#hd"/>
<path d="M295.90 366.00v-40.00" class="stroke"/>
<path class="fill"
	d="M295.90 326.00c0.6 5.6 9.6 9 5.6 18.4
	1.6 -6 -1.3 -11.6 -5.6 -12.8
"/>
<use x="292.40" y="345.00" xlink:href="#hd"/>
<use x="313.00" y="345.00" xlink:href="#r8"/>
<use x="333.40" y="363.00" xlink:href="#hl"/>
<use x="333.40" y="363.00" xlink:href="#hd"/>
<path d="M336.90 363.00v-40.00" class="stroke"/>
<path class="fill"
	d="M336.90 323.00c0.6 5.6 9.6 9 5.6 18.4
	1.6 -6 -1.3 -11.6 -5.6 -12.8
"/>
<use x="333.40" y="342.00" xlink:href="#hd"/>
<use x="354.00" y="345.00" xlink:href="#r8"/>
<use x="376.40" y="333.00" xlink:href="#hd"/>
<path d="M372.90 333.00v40.00" class="stroke"/>
<path class="fill"
	d="M372.90 373.00c0.6 -5.6 9.6 -9 5.6 -18.4
	1.6 6 -1.3 11.6 -5.6 12.8
"/>
<use x="376.40" y="354.00" xlink:href="#hd"/>
<use x="397.00" y="345.00" xlink:href="#r8"/>
<use x="419.30" y="360.00" xlink:href="#hd"/>
<path d="M422.80 360.00v-40.00" class="stroke"/>
<path class="fill"
	d="M422.80 320.00c0.6 5.6 9.6 9 5.6 18.4
	1.6 -6 -1.3 -11.6 -5.6 -12.8
"/>
<use x="419.30" y="339.00" xlink:href="#hd"/>
<use x="439.90" y="345.00" xlink:href="#r8"/>
<use x="468.60" y="357.00" xlink:href="#hd"/>
<path d="M472.10 357.00v-40.00" class="stroke"/>
<use x="468.60" y="336.00" xlink:href="#hd"/>
<path class="fill"
	d="M496.30 366.00l23.20 -4.00v-3.20l-23.20 4.00"/>
<use x="500.10" y="327.00" xlink:href="#hl"/>
<use x="500.10" y="327.00" xlink:href="#hd"/>
<path d="M496.60 327.00v38.00" class="stroke"/>
<use x="500.10" y="348.00" xlink:href="#hd"/>
<use x="522.60" y="327.00" xlink:href="#hl"/>
<use x="522.60" y="327.00" xlink:href="#hd"/>
<path d="M519.10 327.00v34.00" class="stroke"/>
<use x="522.60" y="342.00" xlink:href="#hd"/>
<use x="545.50" y="336.00" xlink:href="#hd"/>
<path d="M542.00 336.00v21.00" class="stroke"/>
<path class="fill"
	d="M577.70 316.00l33.20 0.00v3.20l-33.20 -0.00"/>
<path class="fill"
	d="M602.60 321.00l8.00 0.00v3.20l-8.00 -0.00"/>
<use x="574.60" y="357.00" xlink:href="#hd"/>
<circle class="fill" cx="582.30" cy="354.00" r="1.2"/>
<path d="M578.10 357.00v-40.00" class="stroke"/>
<use x="574.60" y="336.00" xlink:href="#hd"/>
<circle class="fill" cx="582.30" cy="336.00" r="1.2"/>
<use x="607.10" y="357.00" xlink:href="#hd"/>
<path d="M610.60 357.00v-40.00" class="stroke"/>
<use x="607.10" y="336.00" xlink:href="#hd"/>
<use x="650.10" y="357.00" xlink:href="#Hd"/>
<path d="M653.60 357.00v-40.00" class="stroke"/>
<use x="650.10" y="336.00" xlink:href="#Hd"/>
<use x="695.10" y="363.00" xlink:href="#hl"/>
<use x="695.10" y="369.00" xlink:href="#hl"/>
<use x="695.10" y="369.00" xlink:href="#hd"/>
<path d="M698.60 369.00v-40.00" class="stroke"/>
<use x="695.10" y="348.00" xlink:href="#hd"/>
<use x="726.40" y="345.00" xlink:href="#r4"/>
<text font-family="serif" font-size="16" font-weight="bold" font-style="italic"
	x="291.40" y="304.40">f</text>
<text font-family="serif" font-size="16" font-weight="bold" font-style="italic"
	x="466.60" y="304.40">ff</text>
</g>
<g stroke-width="0.70" font-family="Bookman" font-size="12.00" font-style="italic">
<path class="stroke" stroke-width="1"
	d="M67.20 504.00v-101.00"/>
<g transform="translate(67.20,403.00) scale(1,1.01)">
	<use xlink:href="#brace"/>
</g>
<defs>
<g id="rdots" class="fill">
	<circle cx="0" cy="-9" r="1.2"/>
	<circle cx="0" cy="-15" r="1.2"/>
</g>
</defs>
<use x="118.70" y="427.00" xlink:href="#rdots"/>
<path class="stroke" stroke-width="1"
	d="M114.70 427.00v-24.00"/>
<path class="stroke" stroke-width="3"
	d="M110.20 427.00v-24.00"/>
<use x="118.70" y="504.00" xlink:href="#rdots"/>
<path class="stroke" stroke-width="1"
	d="M114.70 504.00v-77.00"/>
<path class="stroke" stroke-width="3"
	d="M110.20 504.00v-77.00"/>
<path class="stroke" stroke-width="1"
	d="M279.00 427.00v-24.00"/>
<path class="stroke" stroke-width="1"
	d="M279.00 504.00v-77.00"/>
<path class="stroke" stroke-width="1"
	d="M448.60 427.00v-24.00"/>
<path class="stroke" stroke-width="1"
	d="M448.60 504.00v-77.00"/>
<path class="stroke" stroke-width="1"
	d="M600.40 427.00v-24.00"/>
<path class="stroke" stroke-width="1"
	d="M600.40 504.00v-77.00"/>
<path class="stroke" stroke-width="1"
	d="M748.80 427.00v-24.00"/>
<path class="stroke" stroke-width="1"
	d="M748.80 504.00v-77.00"/>
<path d="m67.20 427.00
	h681.60
	M67.20 421.00
	h681.60
	M67.20 415.00
	h681.60
	M67.20 409.00
	h681.60
	M67.20 403.00
	h681.60
	" class="stroke"/>
<path d="m67.20 504.00
	h681.60
	M67.20 498.00
	h681.60
	M67.20 492.00
	h681.60
	M67.20 486.00
	h681.60
	M67.20 480.00
	h681.60
	" class="stroke"/>
<use x="79.20" y="421.00" xlink:href="#tclef"/>
<use x="94.20" y="415.00" xlink:href="#ft0"/>
<use x="133.20" y="433.00" xlink:href="#hl"/>
<use x="133.20" y="439.00" xlink:href="#hl"/>
<use x="133.20" y="439.00" xlink:href="#Hd"/>
<path d="M136.70 439.00v-34.00" class="stroke"/>
<use x="133.20" y="433.00" xlink:href="#Hd"/>
<use x="133.20" y="424.00" xlink:href="#Hd"/>
<use x="186.90" y="433.00" xlink:href="#hl"/>
<use x="186.90" y="439.00" xlink:href="#hl"/>
<use x="186.90" y="445.00" xlink:href="#hl"/>
<use x="186.90" y="445.00" xlink:href="#hd"/>
<path d="M190.40 445.00v-31.00" class="stroke"/>
<path class="fill"
	d="M190.40 414.00c0.6 5.6 9.6 9 5.6 18.4
	1.6 -6 -1.3 -11.6 -5.6 -12.8
"/>
<use x="186.90" y="439.00" xlink:href="#hd"/>
<use x="186.90" y="433.00" xlink:href="#hd"/>
<use x="211.20" y="415.00" xlink:href="#r8"/>
<path class="fill"
	d="M241.20 403.80l28.30 -2.50v3.20l-28.30 2.50"/>
<path class="fill"
	d="M261.20 407.00l8.00 -0.70v3.20l-8.00 0.70"/>
<use x="238.00" y="433.00" xlink:href="#hl"/>
<use x="238.00" y="439.00" xlink:href="#hl"/>
<use x="238.00" y="439.00" xlink:href="#hd"/>
<circle class="fill" cx="245.70" cy="436.00" r="1.2"/>
<path d="M241.50 439.00v-34.30" class="stroke"/>
<use x="238.00" y="433.00" xlink:href="#hd"/>
<circle class="fill" cx="245.70" cy="430.00" r="1.2"/>
<use x="238.00" y="424.00" xlink:href="#hd"/>
<circle class="fill" cx="245.70" cy="424.00" r="1.2"/>
<use x="265.70" y="433.00" xlink:href="#hl"/>
<use x="265.70" y="433.00" xlink:href="#hd"/>
<path d="M269.20 433.00v-30.70" class="stroke"/>
<use x="265.70" y="427.00" xlink:href="#hd"/>
<use x="265.70" y="421.00" xlink:href="#hd"/>
<use x="292.60" y="433.00" xlink:href="#hl"/>
<use x="292.60" y="433.00" xlink:href="#Hd"/>
<path d="M296.10 433.00v-34.00" class="stroke"/>
<use x="292.60" y="424.00" xlink:href="#Hd"/>
<use x="292.60" y="418.00" xlink:href="#Hd"/>
<use x="346.20" y="433.00" xlink:href="#hl"/>
<use x="346.20" y="439.00" xlink:href="#hl"/>
<use x="346.20" y="439.00" xlink:href="#hd"/>
<path d="M349.70 439.00v-34.00" class="stroke"/>
<path class="fill"
	d="M349.70 405.00c0.6 5.6 9.6 9 5.6 18.4
	1.6 -6 -1.3 -11.6 -5.6 -12.8
"/>
<use x="346.20" y="433.00" xlink:href="#hd"/>
<use x="346.20" y="424.00" xlink:href="#hd"/>
<use x="370.50" y="415.00" xlink:href="#r8"/>
<path class="fill"
	d="M400.50 397.80l28.40 -2.50v3.20l-28.40 2.50"/>
<path class="fill"
	d="M420.50 401.00l8.00 -0.70v3.20l-8.00 0.70"/>
<use x="397.40" y="424.00" xlink:href="#hd"/>
<circle class="fill" cx="405.10" cy="424.00" r="1.2"/>
<path d="M400.90 424.00v-25.30" class="stroke"/>
<use x="397.40" y="418.00" xlink:href="#hd"/>
<circle class="fill" cx="405.10" cy="418.00" r="1.2"/>
<use x="425.00" y="424.00" xlink:href="#hd"/>
<path d="M428.50 424.00v-27.70" class="stroke"/>
<use x="432.10" y="421.00" xlink:href="#hd"/>
<use x="425.00" y="415.00" xlink:href="#hd"/>
<use x="462.10" y="424.00" xlink:href="#hd"/>
<path d="M465.60 424.00v-31.00" class="stroke"/>
<use x="462.10" y="418.00" xlink:href="#hd"/>
<use x="462.10" y="412.00" xlink:href="#hd"/>
<use x="500.10" y="424.00" xlink:href="#hd"/>
<path d="M503.60 424.00v-31.00" class="stroke"/>
<use x="500.10" y="418.00" xlink:href="#hd"/>
<use x="500.10" y="412.00" xlink:href="#hd"/>
<path class="fill"
	d="M521.20 394.10l8.60 -4.30v1.80l-8.60 4.30"/>
<path class="fill"
	d="M521.50 397.50l8.00 -4.00v1.80l-8.00 4.00"/>
<defs>
<path id="ghd" class="fill" d="m2.2 -1.5
	c-1.32 -2.31 -5.94 0.33 -4.62 2.64
	1.32 2.31 5.94 -0.33 4.62 -2.64"/>
</defs>
<use x="519.20" y="412.00" xlink:href="#ghd"/>
<path d="M521.50 412.00v-17.00" class="stroke"/>
<use x="527.20" y="406.00" xlink:href="#ghd"/>
<path d="M529.50 406.00v-15.00" class="stroke"/>
<path class="stroke"
	d="M518.20 416.50c0.00 4.80 11.60 6.00 14.50 6.00"/>
<use x="538.20" y="424.00" xlink:href="#hd"/>
<circle class="fill" cx="545.90" cy="424.00" r="1.2"/>
<path d="M541.70 424.00v-34.00" class="stroke"/>
<use x="538.20" y="418.00" xlink:href="#hd"/>
<circle class="fill" cx="545.90" cy="418.00" r="1.2"/>
<use x="538.20" y="409.00" xlink:href="#hd"/>
<circle class="fill" cx="545.90" cy="406.00" r="1.2"/>
<use x="581.50" y="424.00" xlink:href="#hd"/>
<path d="M585.00 424.00v-31.00" class="stroke"/>
<path class="fill"
	d="M585.00 393.00c0.6 5.6 9.6 9 5.6 18.4
	1.6 -6 -1.3 -11.6 -5.6 -12.8
"/>
<use x="581.50" y="418.00" xlink:href="#hd"/>
<use x="581.50" y="412.00" xlink:href="#hd"/>
<use x="614.00" y="424.00" xlink:href="#Hd"/>
<path d="M617.50 424.00v-31.00" class="stroke"/>
<use x="614.00" y="418.00" xlink:href="#Hd"/>
<use x="614.00" y="412.00" xlink:href="#Hd"/>
<use x="667.60" y="433.00" xlink:href="#hl"/>
<use x="667.60" y="439.00" xlink:href="#hl"/>
<use x="667.60" y="439.00" xlink:href="#hd"/>
<path d="M671.10 439.00v-40.00" class="stroke"/>
<use x="667.60" y="433.00" xlink:href="#hd"/>
<use x="667.60" y="424.00" xlink:href="#hd"/>
<use x="667.60" y="418.00" xlink:href="#hd"/>
<use x="705.70" y="433.00" xlink:href="#hl"/>
<use x="705.70" y="439.00" xlink:href="#hl"/>
<use x="705.70" y="439.00" xlink:href="#hd"/>
<path d="M709.20 439.00v-40.00" class="stroke"/>
<path class="fill"
	d="M709.20 399.00c0.6 5.6 9.6 9 5.6 18.4
	1.6 -6 -1.3 -11.6 -5.6 -12.8
"/>
<use x="705.70" y="433.00" xlink:href="#hd"/>
<use x="705.70" y="424.00" xlink:href="#hd"/>
<use x="705.70" y="418.00" xlink:href="#hd"/>
<use x="729.90" y="415.00" xlink:href="#r8"/>
<path class="fill"
	d="M671.10 439.00c4.89 5.06 26.16 5.06 31.05 -0.00
	v0.23c-5.82 6.83 -25.23 6.83 -31.05 -0.23"/>
<path class="fill"
	d="M671.10 433.00c4.89 5.06 26.16 5.06 31.05 -0.00
	v0.23c-5.82 6.83 -25.23 6.83 -31.05 -0.23"/>
<path class="fill"
	d="M671.10 424.00c4.89 -5.06 26.16 -5.06 31.05 -0.00
	v-0.23c-5.82 -6.83 -25.23 -6.83 -31.05 0.23"/>
<path class="fill"
	d="M671.10 418.00c4.89 -5.06 26.16 -5.06 31.05 -0.00
	v-0.23c-5.82 -6.83 -25.23 -6.83 -31.05 0.23"/>
<use x="79.20" y="486.00" xlink:href="#bclef"/>
<use x="94.20" y="498.00" xlink:href="#ft0"/>
<use x="133.20" y="507.00" xlink:href="#Hd"/>
<path d="M136.70 507.00v-40.00" class="stroke"/>
<use x="133.20" y="495.00" xlink:href="#Hd"/>
<use x="133.20" y="486.00" xlink:href="#Hd"/>
<use x="186.90" y="510.00" xlink:href="#hl"/>
<use x="186.90" y="516.00" xlink:href="#hl"/>
<use x="186.90" y="522.00" xlink:href="#hl"/>
<use x="186.90" y="528.00" xlink:href="#hl"/>
<use x="186.90" y="528.00" xlink:href="#hd"/>
<path d="M190.40 528.00v-40.00" class="stroke"/>
<path class="fill"
	d="M190.40 488.00c0.6 5.6 9.6 9 5.6 18.4
	1.6 -6 -1.3 -11.6 -5.6 -12.8
"/>
<use x="186.90" y="507.00" xlink:href="#hd"/>
<use x="211.20" y="492.00" xlink:href="#r8"/>
<path class="fill"
	d="M234.20 521.10l28.30 -4.30v-3.20l-28.30 4.30"/>
<path class="fill"
	d="M254.20 513.10l8.00 -1.20v-3.20l-8.00 1.20"/>
<use x="238.00" y="486.00" xlink:href="#hd"/>
<circle class="fill" cx="245.70" cy="483.00" r="1.2"/>
<path d="M234.50 486.00v34.10" class="stroke"/>
<use x="238.00" y="501.00" xlink:href="#hd"/>
<circle class="fill" cx="245.70" cy="501.00" r="1.2"/>
<use x="265.70" y="483.00" xlink:href="#hd"/>
<path d="M262.20 483.00v32.90" class="stroke"/>
<use x="265.70" y="495.00" xlink:href="#hd"/>
<use x="292.60" y="480.00" xlink:href="#Hd"/>
<path d="M289.10 480.00v25.00" class="stroke"/>
<use x="292.60" y="486.00" xlink:href="#Hd"/>
<use x="346.20" y="510.00" xlink:href="#hl"/>
<use x="346.20" y="516.00" xlink:href="#hl"/>
<use x="346.20" y="522.00" xlink:href="#hl"/>
<use x="346.20" y="528.00" xlink:href="#hl"/>
<use x="346.20" y="528.00" xlink:href="#hd"/>
<path d="M349.70 528.00v-40.00" class="stroke"/>
<path class="fill"
	d="M349.70 488.00c0.6 5.6 9.6 9 5.6 18.4
	1.6 -6 -1.3 -11.6 -5.6 -12.8
"/>
<use x="346.20" y="507.00" xlink:href="#hd"/>
<use x="370.50" y="492.00" xlink:href="#r8"/>
<path class="fill"
	d="M393.50 505.90l28.40 0.00v-3.20l-28.40 -0.00"/>
<path class="fill"
	d="M413.50 500.90l8.00 0.00v-3.20l-8.00 -0.00"/>
<use x="397.40" y="480.00" xlink:href="#hd"/>
<circle class="fill" cx="405.10" cy="477.00" r="1.2"/>
<path d="M393.90 480.00v25.00" class="stroke"/>
<use x="397.40" y="486.00" xlink:href="#hd"/>
<circle class="fill" cx="405.10" cy="483.00" r="1.2"/>
<use x="425.00" y="477.00" xlink:href="#hd"/>
<path d="M421.50 477.00v28.00" class="stroke"/>
<use x="418.00" y="486.00" xlink:href="#hd"/>
<use x="425.00" y="483.00" xlink:href="#hd"/>
<use x="462.10" y="474.00" xlink:href="#hl"/>
<use x="462.10" y="474.00" xlink:href="#hd"/>
<path d="M458.60 474.00v31.00" class="stroke"/>
<use x="462.10" y="486.00" xlink:href="#hd"/>
<use x="462.10" y="480.00" xlink:href="#hd"/>
<use x="500.10" y="474.00" xlink:href="#hl"/>
<use x="500.10" y="474.00" xlink:href="#hd"/>
<path d="M496.60 474.00v31.00" class="stroke"/>
<use x="500.10" y="486.00" xlink:href="#hd"/>
<use x="500.10" y="480.00" xlink:href="#hd"/>
<use x="538.20" y="480.00" xlink:href="#hd"/>
<path d="M534.70 480.00v31.00" class="stroke"/>
<path class="fill"
	d="M534.70 511.00c0.6 -5.6 9.6 -9 5.6 -18.4
	1.6 6 -1.3 11.6 -5.6 12.8
"/>
<use x="538.20" y="492.00" xlink:href="#hd"/>
<use x="538.20" y="486.00" xlink:href="#hd"/>
<circle class="fill" cx="545.90" cy="483.00" r="1.2"/>
<use x="581.50" y="474.00" xlink:href="#hl"/>
<use x="581.50" y="474.00" xlink:href="#hd"/>
<path d="M578.00 474.00v31.00" class="stroke"/>
<path class="fill"
	d="M578.00 505.00c0.6 -5.6 9.6 -9 5.6 -18.4
	1.6 6 -1.3 11.6 -5.6 12.8
"/>
<use x="581.50" y="486.00" xlink:href="#hd"/>
<use x="581.50" y="480.00" xlink:href="#hd"/>
<use x="614.00" y="474.00" xlink:href="#hl"/>
<use x="614.00" y="474.00" xlink:href="#Hd"/>
<path d="M610.50 474.00v31.00" class="stroke"/>
<use x="614.00" y="486.00" xlink:href="#Hd"/>
<use x="614.00" y="480.00" xlink:href="#Hd"/>
<use x="667.60" y="507.00" xlink:href="#hd"/>
<path d="M671.10 507.00v-40.00" class="stroke"/>
<use x="667.60" y="495.00" xlink:href="#hd"/>
<use x="667.60" y="486.00" xlink:href="#hd"/>
<use x="705.70" y="507.00" xlink:href="#hd"/>
<path d="M709.20 507.00v-40.00" class="stroke"/>
<path class="fill"
	d="M709.20 467.00c0.6 5.6 9.6 9 5.6 18.4
	1.6 -6 -1.3 -11.6 -5.6 -12.8
"/>
<use x="705.70" y="495.00" xlink:href="#hd"/>
<use x="705.70" y="486.00" xlink:href="#hd"/>
<use x="729.90" y="492.00" xlink:href="#r8"/>
<path class="fill"
	d="M671.10 507.00c4.89 5.06 26.16 5.06 31.05 -0.00
	v0.23c-5.82 6.83 -25.23 6.83 -31.05 -0.23"/>
<path class="fill"
	d="M671.10 495.00c4.89 5.06 26.16 5.06 31.05 -0.00
	v0.23c-5.82 6.83 -25.23 6.83 -31.05 -0.23"/>
<path class="fill"
	d="M671.10 486.00c4.89 -5.06 26.16 -5.06 31.05 -0.00
	v-0.23c-5.82 -6.83 -25.23 -6.83 -31.05 0.23"/>
<text font-family="serif" font-size="16" font-weight="bold" font-style="italic"
	x="131.20" y="454.40">ff</text>
</g>
<g stroke-width="0.70" font-family="Bookman" font-size="12.00" font-style="italic">
<path class="stroke" stroke-width="1"
	d="M67.20 639.00v-82.00"/>
<g transform="translate(67.20,557.00) scale(1,0.82)">
	<use xlink:href="#brace"/>
</g>
<path class="stroke" stroke-width="1"
	d="M250.90 581.00v-24.00"/>
<path class="stroke" stroke-width="1"
	d="M250.90 639.00v-58.00"/>
<path class="stroke" stroke-width="1"
	d="M402.20 581.00v-24.00"/>
<path class="stroke" stroke-width="1"
	d="M402.20 639.00v-58.00"/>
<path class="stroke" stroke-width="1"
	d="M558.70 581.00v-24.00"/>
<path class="stroke" stroke-width="1"
	d="M558.70 639.00v-58.00"/>
<path class="stroke" stroke-width="1"
	d="M748.80 581.00v-24.00"/>
<path class="stroke" stroke-width="1"
	d="M748.80 639.00v-58.00"/>
<path d="m67.20 581.00
	h681.60
	M67.20 575.00
	h681.60
	M67.20 569.00
	h681.60
	M67.20 563.00
	h681.60
	M67.20 557.00
	h681.60
	" class="stroke"/>
<path d="m67.20 639.00
	h681.60
	M67.20 633.00
	h681.60
	M67.20 627.00
	h681.60
	M67.20 621.00
	h681.60
	M67.20 615.00
	h681.60
	" class="stroke"/>
<use x="79.20" y="575.00" xlink:href="#tclef"/>
<use x="94.20" y="569.00" xlink:href="#ft0"/>
<use x="112.70" y="587.00" xlink:href="#hl"/>
<use x="112.70" y="587.00" xlink:href="#Hd"/>
<path d="M116.20 587.00v-40.00" class="stroke"/>
<use x="112.70" y="581.00" xlink:href="#Hd"/>
<use x="112.70" y="575.00" xlink:href="#Hd"/>
<use x="112.70" y="566.00" xlink:href="#Hd"/>
<use x="163.50" y="587.00" xlink:href="#hl"/>
<use x="163.50" y="587.00" xlink:href="#hd"/>
<path d="M167.00 587.00v-34.00" class="stroke"/>
<path class="fill"
	d="M167.00 553.00c0.6 5.6 9.6 9 5.6 18.4
	1.6 -6 -1.3 -11.6 -5.6 -12.8
"/>
<use x="163.50" y="578.00" xlink:href="#hd"/>
<use x="163.50" y="572.00" xlink:href="#hd"/>
<use x="186.50" y="569.00" xlink:href="#r8"/>
<path class="fill"
	d="M215.10 557.10l26.90 -4.20v3.20l-26.90 4.20"/>
<path class="fill"
	d="M233.70 559.20l8.00 -1.30v3.20l-8.00 1.30"/>
<use x="211.90" y="587.00" xlink:href="#hl"/>
<use x="211.90" y="587.00" xlink:href="#hd"/>
<circle class="fill" cx="219.60" cy="584.00" r="1.2"/>
<path d="M215.40 587.00v-28.90" class="stroke"/>
<use x="211.90" y="578.00" xlink:href="#hd"/>
<circle class="fill" cx="219.60" cy="578.00" r="1.2"/>
<use x="238.20" y="587.00" xlink:href="#hl"/>
<use x="238.20" y="587.00" xlink:href="#hd"/>
<path d="M241.70 587.00v-33.10" class="stroke"/>
<use x="238.20" y="578.00" xlink:href="#hd"/>
<use x="238.20" y="572.00" xlink:href="#hd"/>
<use x="263.90" y="587.00" xlink:href="#hl"/>
<use x="263.90" y="587.00" xlink:href="#Hd"/>
<path d="M267.40 587.00v-40.00" class="stroke"/>
<use x="263.90" y="581.00" xlink:href="#Hd"/>
<use x="263.90" y="575.00" xlink:href="#Hd"/>
<use x="263.90" y="566.00" xlink:href="#Hd"/>
<use x="314.70" y="587.00" xlink:href="#hl"/>
<use x="314.70" y="587.00" xlink:href="#hd"/>
<path d="M318.20 587.00v-34.00" class="stroke"/>
<path class="fill"
	d="M318.20 553.00c0.6 5.6 9.6 9 5.6 18.4
	1.6 -6 -1.3 -11.6 -5.6 -12.8
"/>
<use x="314.70" y="578.00" xlink:href="#hd"/>
<use x="314.70" y="572.00" xlink:href="#hd"/>
<use x="337.70" y="569.00" xlink:href="#r8"/>
<path class="fill"
	d="M366.30 557.10l26.90 -4.20v3.20l-26.90 4.20"/>
<path class="fill"
	d="M384.90 559.20l8.00 -1.30v3.20l-8.00 1.30"/>
<use x="363.20" y="587.00" xlink:href="#hl"/>
<use x="363.20" y="587.00" xlink:href="#hd"/>
<circle class="fill" cx="370.90" cy="584.00" r="1.2"/>
<path d="M366.70 587.00v-28.90" class="stroke"/>
<use x="363.20" y="578.00" xlink:href="#hd"/>
<circle class="fill" cx="370.90" cy="578.00" r="1.2"/>
<use x="389.40" y="587.00" xlink:href="#hl"/>
<use x="389.40" y="587.00" xlink:href="#hd"/>
<path d="M392.90 587.00v-33.10" class="stroke"/>
<use x="389.40" y="578.00" xlink:href="#hd"/>
<use x="389.40" y="572.00" xlink:href="#hd"/>
<use x="415.10" y="587.00" xlink:href="#hl"/>
<use x="415.10" y="587.00" xlink:href="#hd"/>
<path d="M418.60 587.00v-31.00" class="stroke"/>
<use x="415.10" y="581.00" xlink:href="#hd"/>
<use x="415.10" y="575.00" xlink:href="#hd"/>
<path class="fill"
	d="M454.10 545.80l26.90 -2.50v3.20l-26.90 2.50"/>
<path class="fill"
	d="M472.70 549.00l8.00 -0.70v3.20l-8.00 0.70"/>
<use x="451.00" y="581.00" xlink:href="#hd"/>
<circle class="fill" cx="458.70" cy="578.00" r="1.2"/>
<path d="M454.50 581.00v-34.30" class="stroke"/>
<use x="451.00" y="575.00" xlink:href="#hd"/>
<circle class="fill" cx="458.70" cy="572.00" r="1.2"/>
<use x="451.00" y="566.00" xlink:href="#hd"/>
<circle class="fill" cx="458.70" cy="566.00" r="1.2"/>
<use x="477.20" y="578.00" xlink:href="#hd"/>
<path d="M480.70 578.00v-33.70" class="stroke"/>
<use x="484.20" y="575.00" xlink:href="#hd"/>
<use x="477.20" y="563.00" xlink:href="#hd"/>
<use x="497.20" y="587.00" xlink:href="#hl"/>
<use x="497.20" y="587.00" xlink:href="#hd"/>
<path d="M500.70 587.00v-31.00" class="stroke"/>
<use x="497.20" y="581.00" xlink:href="#hd"/>
<use x="497.20" y="575.00" xlink:href="#hd"/>
<use x="533.30" y="581.00" xlink:href="#hd"/>
<path d="M536.80 581.00v-31.00" class="stroke"/>
<use x="540.30" y="578.00" xlink:href="#hd"/>
<use x="533.30" y="575.00" xlink:href="#hd"/>
<use x="533.30" y="569.00" xlink:href="#hd"/>
<use x="524.30" y="569.00" xlink:href="#nt0"/>
<use x="571.60" y="587.00" xlink:href="#hl"/>
<use x="571.60" y="587.00" xlink:href="#hd"/>
<path d="M575.10 587.00v-40.00" class="stroke"/>
<path class="fill"
	d="M575.10 547.00c0.6 5.6 9.6 9 5.6 18.4
	1.6 -6 -1.3 -11.6 -5.6 -12.8
"/>
<use x="571.60" y="581.00" xlink:href="#hd"/>
<use x="571.60" y="575.00" xlink:href="#hd"/>
<use x="571.60" y="566.00" xlink:href="#hd"/>
<use x="594.70" y="569.00" xlink:href="#r8"/>
<path class="fill"
	d="M620.70 562.80l26.90 0.00v3.20l-26.90 -0.00"/>
<path class="fill"
	d="M639.30 567.80l8.00 0.00v3.20l-8.00 -0.00"/>
<use x="617.60" y="587.00" xlink:href="#hl"/>
<use x="617.60" y="587.00" xlink:href="#hd"/>
<circle class="fill" cx="625.30" cy="584.00" r="1.2"/>
<path d="M621.10 587.00v-23.20" class="stroke"/>
<use x="643.80" y="587.00" xlink:href="#hl"/>
<use x="643.80" y="587.00" xlink:href="#hd"/>
<path d="M647.30 587.00v-23.20" class="stroke"/>
<use x="661.90" y="587.00" xlink:href="#hl"/>
<use x="661.90" y="587.00" xlink:href="#hd"/>
<path d="M665.40 587.00v-21.00" class="stroke"/>
<path class="fill"
	d="M665.40 566.00c0.6 5.6 9.6 9 5.6 18.4
	1.6 -6 -1.3 -11.6 -5.6 -12.8
"/>
<use x="684.90" y="569.00" xlink:href="#r8"/>
<use x="707.80" y="587.00" xlink:href="#hl"/>
<use x="707.80" y="587.00" xlink:href="#hd"/>
<path d="M711.30 587.00v-21.00" class="stroke"/>
<path class="fill"
	d="M711.30 566.00c0.6 5.6 9.6 9 5.6 18.4
	1.6 -6 -1.3 -11.6 -5.6 -12.8
"/>
<use x="730.90" y="569.00" xlink:href="#r8"/>
<use x="79.20" y="621.00" xlink:href="#bclef"/>
<use x="94.20" y="633.00" xlink:href="#ft0"/>
<use x="112.70" y="618.00" xlink:href="#Hd"/>
<path d="M109.20 618.00v31.00" class="stroke"/>
<use x="112.70" y="630.00" xlink:href="#Hd"/>
<use x="163.50" y="615.00" xlink:href="#hd"/>
<path d="M160.00 615.00v25.00" class="stroke"/>
<path class="fill"
	d="M160.00 640.00c0.6 -5.6 9.6 -9 5.6 -18.4
	1.6 6 -1.3 11.6 -5.6 12.8
"/>
<use x="163.50" y="621.00" xlink:href="#hd"/>
<use x="186.50" y="627.00" xlink:href="#r8"/>
<path class="fill"
	d="M208.10 638.40l26.90 3.10v-3.20l-26.90 -3.10"/>
<path class="fill"
	d="M226.70 635.60l8.00 0.90v-3.20l-8.00 -0.90"/>
<use x="211.90" y="615.00" xlink:href="#hd"/>
<circle class="fill" cx="219.60" cy="612.00" r="1.2"/>
<path d="M208.40 615.00v22.50" class="stroke"/>
<use x="238.20" y="615.00" xlink:href="#hd"/>
<path d="M234.70 615.00v25.50" class="stroke"/>
<use x="238.20" y="621.00" xlink:href="#hd"/>
<use x="263.90" y="618.00" xlink:href="#Hd"/>
<path d="M260.40 618.00v31.00" class="stroke"/>
<use x="263.90" y="630.00" xlink:href="#Hd"/>
<use x="314.70" y="615.00" xlink:href="#hd"/>
<path d="M311.20 615.00v25.00" class="stroke"/>
<path class="fill"
	d="M311.20 640.00c0.6 -5.6 9.6 -9 5.6 -18.4
	1.6 6 -1.3 11.6 -5.6 12.8
"/>
<use x="314.70" y="621.00" xlink:href="#hd"/>
<use x="337.70" y="627.00" xlink:href="#r8"/>
<path class="fill"
	d="M359.30 638.40l26.90 3.10v-3.20l-26.90 -3.10"/>
<path class="fill"
	d="M377.90 635.60l8.00 0.90v-3.20l-8.00 -0.90"/>
<use x="363.20" y="615.00" xlink:href="#hd"/>
<circle class="fill" cx="370.90" cy="612.00" r="1.2"/>
<path d="M359.70 615.00v22.50" class="stroke"/>
<use x="389.40" y="615.00" xlink:href="#hd"/>
<path d="M385.90 615.00v25.50" class="stroke"/>
<use x="389.40" y="621.00" xlink:href="#hd"/>
<use x="415.10" y="618.00" xlink:href="#hd"/>
<path d="M411.60 618.00v21.00" class="stroke"/>
<path class="fill"
	d="M447.10 640.90l26.90 0.00v-3.20l-26.90 -0.00"/>
<path class="fill"
	d="M465.70 635.90l8.00 0.00v-3.20l-8.00 -0.00"/>
<use x="451.00" y="618.00" xlink:href="#hd"/>
<circle class="fill" cx="458.70" cy="618.00" r="1.2"/>
<path d="M447.50 618.00v22.00" class="stroke"/>
<use x="477.20" y="618.00" xlink:href="#hd"/>
<path d="M473.70 618.00v22.00" class="stroke"/>
<use x="497.20" y="639.00" xlink:href="#hd"/>
<path d="M500.70 639.00v-40.00" class="stroke"/>
<use x="497.20" y="618.00" xlink:href="#hd"/>
<use x="533.30" y="639.00" xlink:href="#hd"/>
<path d="M536.80 639.00v-40.00" class="stroke"/>
<use x="533.30" y="618.00" xlink:href="#hd"/>
<use x="571.60" y="645.00" xlink:href="#hl"/>
<use x="571.60" y="651.00" xlink:href="#hl"/>
<use x="571.60" y="651.00" xlink:href="#hd"/>
<path d="M575.10 651.00v-40.00" class="stroke"/>
<path class="fill"
	d="M575.10 611.00c0.6 5.6 9.6 9 5.6 18.4
	1.6 -6 -1.3 -11.6 -5.6 -12.8
"/>
<use x="571.60" y="630.00" xlink:href="#hd"/>
<use x="594.70" y="627.00" xlink:href="#r8"/>
<path class="fill"
	d="M620.70 607.10l26.90 0.00v3.20l-26.90 -0.00"/>
<path class="fill"
	d="M639.30 612.10l8.00 0.00v3.20l-8.00 -0.00"/>
<use x="617.60" y="630.00" xlink:href="#hd"/>
<circle class="fill" cx="625.30" cy="630.00" r="1.2"/>
<path d="M621.10 630.00v-22.00" class="stroke"/>
<use x="643.80" y="630.00" xlink:href="#hd"/>
<path d="M647.30 630.00v-22.00" class="stroke"/>
<use x="661.90" y="630.00" xlink:href="#hd"/>
<path d="M665.40 630.00v-21.00" class="stroke"/>
<path class="fill"
	d="M665.40 609.00c0.6 5.6 9.6 9 5.6 18.4
	1.6 -6 -1.3 -11.6 -5.6 -12.8
"/>
<use x="684.90" y="627.00" xlink:href="#r8"/>
<use x="707.80" y="630.00" xlink:href="#hd"/>
<path d="M711.30 630.00v-21.00" class="stroke"/>
<path class="fill"
	d="M711.30 609.00c0.6 5.6 9.6 9 5.6 18.4
	1.6 -6 -1.3 -11.6 -5.6 -12.8
"/>
<use x="730.90" y="627.00" xlink:href="#r8"/>
</g>
<g stroke-width="0.70" font-family="Bookman" font-size="12.00" font-style="italic">
<path class="stroke" stroke-width="1"
	d="M67.20 768.00v-83.00"/>
<g transform="translate(67.20,685.00) scale(1,0.83)">
	<use xlink:href="#brace"/>
</g>
<path class="stroke" stroke-width="1"
	d="M247.10 709.00v-24.00"/>
<path class="stroke" stroke-width="1"
	d="M247.10 768.00v-59.00"/>
<path class="stroke" stroke-width="1"
	d="M415.20 709.00v-24.00"/>
<path class="stroke" stroke-width="1"
	d="M415.20 768.00v-59.00"/>
<path class="stroke" stroke-width="1"
	d="M592.70 709.00v-24.00"/>
<path class="stroke" stroke-width="1"
	d="M592.70 768.00v-59.00"/>
<path class="stroke" stroke-width="1"
	d="M748.80 709.00v-24.00"/>
<path class="stroke" stroke-width="1"
	d="M748.80 768.00v-59.00"/>
<path d="m67.20 709.00
	h681.60
	M67.20 703.00
	h681.60
	M67.20 697.00
	h681.60
	M67.20 691.00
	h681.60
	M67.20 685.00
	h681.60
	" class="stroke"/>
<path d="m67.20 768.00
	h681.60
	M67.20 762.00
	h681.60
	M67.20 756.00
	h681.60
	M67.20 750.00
	h681.60
	M67.20 744.00
	h681.60
	" class="stroke"/>
<use x="79.20" y="703.00" xlink:href="#tclef"/>
<use x="94.20" y="697.00" xlink:href="#ft0"/>
<use x="112.70" y="712.00" xlink:href="#Hd"/>
<path d="M116.20 712.00v-40.00" class="stroke"/>
<use x="112.70" y="697.00" xlink:href="#Hd"/>
<use x="112.70" y="691.00" xlink:href="#Hd"/>
<use x="167.10" y="715.00" xlink:href="#hl"/>
<use x="167.10" y="715.00" xlink:href="#hd"/>
<path d="M170.60 715.00v-40.00" class="stroke"/>
<use x="167.10" y="700.00" xlink:href="#hd"/>
<use x="167.10" y="694.00" xlink:href="#hd"/>
<path class="fill"
	d="M208.80 678.90l28.60 4.30v3.20l-28.60 -4.30"/>
<path class="fill"
	d="M229.00 686.90l8.00 1.20v3.20l-8.00 -1.20"/>
<use x="205.60" y="700.00" xlink:href="#hd"/>
<circle class="fill" cx="213.30" cy="700.00" r="1.2"/>
<path d="M209.10 700.00v-20.10" class="stroke"/>
<use x="233.50" y="706.00" xlink:href="#hd"/>
<path d="M237.00 706.00v-21.90" class="stroke"/>
<use x="264.10" y="715.00" xlink:href="#hl"/>
<path d="M267.60 715.00v-40.00" class="stroke"/>
<use x="264.10" y="700.00" xlink:href="#hd"/>
<use x="264.10" y="694.00" xlink:href="#hd"/>
<use x="311.30" y="703.00" xlink:href="#hd"/>
<path d="M314.80 703.00v-25.00" class="stroke"/>
<use x="311.30" y="697.00" xlink:href="#hd"/>
<use x="349.80" y="706.00" xlink:href="#hd"/>
<path d="M353.30 706.00v-25.00" class="stroke"/>
<use x="349.80" y="700.00" xlink:href="#hd"/>
<use x="388.30" y="697.00" xlink:href="#r4"/>
<use x="428.90" y="712.00" xlink:href="#hd"/>
<circle class="fill" cx="436.60" cy="712.00" r="1.2"/>
<path d="M432.40 712.00v-40.00" class="stroke"/>
<use x="428.90" y="697.00" xlink:href="#hd"/>
<circle class="fill" cx="436.60" cy="694.00" r="1.2"/>
<use x="428.90" y="691.00" xlink:href="#hd"/>
<circle class="fill" cx="436.60" cy="688.00" r="1.2"/>
<use x="472.70" y="715.00" xlink:href="#hl"/>
<use x="472.70" y="715.00" xlink:href="#hd"/>
<path d="M476.20 715.00v-40.00" class="stroke"/>
<path class="fill"
	d="M476.20 675.00c0.6 5.6 9.6 9 5.6 18.4
	1.6 -6 -1.3 -11.6 -5.6 -12.8
"/>
<use x="472.70" y="700.00" xlink:href="#hd"/>
<use x="472.70" y="694.00" xlink:href="#hd"/>
<path class="fill"
	d="M503.20 672.90l74.30 7.30v3.20l-74.30 -7.30"/>
<use x="500.00" y="712.00" xlink:href="#hd"/>
<path d="M503.50 712.00v-38.10" class="stroke"/>
<use x="500.00" y="697.00" xlink:href="#hd"/>
<use x="500.00" y="691.00" xlink:href="#hd"/>
<use x="524.50" y="715.00" xlink:href="#hl"/>
<use x="524.50" y="715.00" xlink:href="#hd"/>
<path d="M528.00 715.00v-38.70" class="stroke"/>
<use x="524.50" y="700.00" xlink:href="#hd"/>
<use x="524.50" y="694.00" xlink:href="#hd"/>
<use x="549.00" y="715.00" xlink:href="#hl"/>
<use x="549.00" y="715.00" xlink:href="#hd"/>
<path d="M552.50 715.00v-36.30" class="stroke"/>
<use x="549.00" y="703.00" xlink:href="#hd"/>
<use x="549.00" y="697.00" xlink:href="#hd"/>
<use x="573.60" y="715.00" xlink:href="#hl"/>
<use x="573.60" y="715.00" xlink:href="#hd"/>
<path d="M577.10 715.00v-33.90" class="stroke"/>
<use x="573.60" y="706.00" xlink:href="#hd"/>
<use x="573.60" y="700.00" xlink:href="#hd"/>
<use x="606.30" y="712.00" xlink:href="#hd"/>
<path d="M609.80 712.00v-34.00" class="stroke"/>
<use x="606.30" y="703.00" xlink:href="#hd"/>
<use x="606.30" y="697.00" xlink:href="#hd"/>
<use x="644.90" y="712.00" xlink:href="#hd"/>
<path d="M648.40 712.00v-31.00" class="stroke"/>
<use x="644.90" y="706.00" xlink:href="#hd"/>
<use x="644.90" y="700.00" xlink:href="#hd"/>
<use x="683.40" y="709.00" xlink:href="#hd"/>
<path d="M686.90 709.00v-25.00" class="stroke"/>
<use x="683.40" y="703.00" xlink:href="#hd"/>
<use x="721.80" y="697.00" xlink:href="#r4"/>
<use x="79.20" y="750.00" xlink:href="#bclef"/>
<use x="94.20" y="762.00" xlink:href="#ft0"/>
<use x="112.70" y="753.00" xlink:href="#Hd"/>
<path d="M109.20 753.00v25.00" class="stroke"/>
<use x="112.70" y="759.00" xlink:href="#Hd"/>
<use x="167.10" y="750.00" xlink:href="#hd"/>
<path d="M163.60 750.00v28.00" class="stroke"/>
<use x="167.10" y="759.00" xlink:href="#hd"/>
<path class="fill"
	d="M201.80 768.00l28.60 4.30v-3.20l-28.60 -4.30"/>
<path class="fill"
	d="M222.00 766.00l8.00 1.20v-3.20l-8.00 -1.20"/>
<use x="205.60" y="744.00" xlink:href="#hd"/>
<circle class="fill" cx="213.30" cy="741.00" r="1.2"/>
<path d="M202.10 744.00v23.00" class="stroke"/>
<use x="233.50" y="750.00" xlink:href="#hd"/>
<path d="M230.00 750.00v21.20" class="stroke"/>
<use x="264.10" y="750.00" xlink:href="#hd"/>
<path d="M260.60 750.00v28.00" class="stroke"/>
<use x="257.10" y="759.00" xlink:href="#hd"/>
<use x="264.10" y="756.00" xlink:href="#hd"/>
<use x="311.30" y="747.00" xlink:href="#hd"/>
<path d="M307.80 747.00v31.00" class="stroke"/>
<use x="311.30" y="759.00" xlink:href="#hd"/>
<use x="311.30" y="753.00" xlink:href="#hd"/>
<use x="349.80" y="744.00" xlink:href="#hd"/>
<path d="M346.30 744.00v34.00" class="stroke"/>
<use x="349.80" y="759.00" xlink:href="#hd"/>
<use x="349.80" y="750.00" xlink:href="#hd"/>
<use x="388.30" y="756.00" xlink:href="#r4"/>
<use x="428.90" y="753.00" xlink:href="#hd"/>
<circle class="fill" cx="436.60" cy="753.00" r="1.2"/>
<path d="M425.40 753.00v25.00" class="stroke"/>
<use x="428.90" y="759.00" xlink:href="#hd"/>
<circle class="fill" cx="436.60" cy="759.00" r="1.2"/>
<use x="472.70" y="750.00" xlink:href="#hd"/>
<path d="M469.20 750.00v28.00" class="stroke"/>
<path class="fill"
	d="M469.20 778.00c0.6 -5.6 9.6 -9 5.6 -18.4
	1.6 6 -1.3 11.6 -5.6 12.8
"/>
<use x="472.70" y="759.00" xlink:href="#hd"/>
<path class="fill"
	d="M496.20 778.00l74.30 0.00v-3.20l-74.30 -0.00"/>
<use x="500.00" y="753.00" xlink:href="#hd"/>
<path d="M496.50 753.00v24.00" class="stroke"/>
<use x="500.00" y="759.00" xlink:href="#hd"/>
<use x="524.50" y="750.00" xlink:href="#hd"/>
<path d="M521.00 750.00v27.00" class="stroke"/>
<use x="524.50" y="759.00" xlink:href="#hd"/>
<use x="549.00" y="747.00" xlink:href="#hd"/>
<path d="M545.50 747.00v30.00" class="stroke"/>
<use x="549.00" y="759.00" xlink:href="#hd"/>
<use x="573.60" y="744.00" xlink:href="#hd"/>
<path d="M570.10 744.00v33.00" class="stroke"/>
<use x="573.60" y="759.00" xlink:href="#hd"/>
<use x="606.30" y="741.00" xlink:href="#hd"/>
<path d="M602.80 741.00v37.00" class="stroke"/>
<use x="606.30" y="759.00" xlink:href="#hd"/>
<use x="644.90" y="741.00" xlink:href="#hd"/>
<use x="635.90" y="741.00" xlink:href="#nt0"/>
<path d="M641.40 741.00v37.00" class="stroke"/>
<use x="644.90" y="759.00" xlink:href="#hd"/>
<use x="683.40" y="738.00" xlink:href="#hl"/>
<use x="683.40" y="738.00" xlink:href="#hd"/>
<path d="M679.90 738.00v40.00" class="stroke"/>
<use x="683.40" y="759.00" xlink:href="#hd"/>
<use x="721.80" y="756.00" xlink:href="#r4"/>
<path class="fill"
	d="M260.20 736.00l28.60 0.00v-3.20l-28.60 -0.00"/>
<path class="fill"
	d="M280.50 731.00l8.00 0.00v-3.20l-8.00 -0.00"/>
<use x="264.10" y="715.00" xlink:href="#hl"/>
<use x="264.10" y="715.00" xlink:href="#hd"/>
<circle class="fill" cx="271.80" cy="718.00" r="1.2"/>
<path d="M260.60 715.00v20.00" class="stroke"/>
<use x="292.00" y="715.00" xlink:href="#hl"/>
<use x="292.00" y="715.00" xlink:href="#hd"/>
<path d="M288.50 715.00v20.00" class="stroke"/>
<use x="311.30" y="715.00" xlink:href="#hl"/>
<use x="311.30" y="715.00" xlink:href="#hd"/>
<path d="M307.80 715.00v19.00" class="stroke"/>
<use x="349.80" y="715.00" xlink:href="#hl"/>
<use x="349.80" y="715.00" xlink:href="#hd"/>
<path d="M346.30 715.00v19.00" class="stroke"/>
<text font-family="serif" font-size="16" font-weight="bold" font-style="italic"
	x="110.70" y="727.40">ff</text>
</g>
<g stroke-width="0.70" font-family="Bookman" font-size="12.00" font-style="italic">
<path class="stroke" stroke-width="1"
	d="M67.20 906.00v-87.00"/>
<g transform="translate(67.20,819.00) scale(1,0.87)">
	<use xlink:href="#brace"/>
</g>
<path class="stroke" stroke-width="1"
	d="M225.20 843.00v-24.00"/>
<path class="stroke" stroke-width="1"
	d="M225.20 906.00v-63.00"/>
<path class="stroke" stroke-width="1"
	d="M370.50 843.00v-24.00"/>
<path class="stroke" stroke-width="1"
	d="M370.50 906.00v-63.00"/>
<path class="stroke" stroke-width="1"
	d="M489.10 843.00v-24.00"/>
<path class="stroke" stroke-width="1"
	d="M489.10 906.00v-63.00"/>
<path class="stroke" stroke-width="3"
	d="M651.10 843.00v-24.00"/>
<path class="stroke" stroke-width="1"
	d="M646.60 843.00v-24.00"/>
<use x="642.60" y="843.00" xlink:href="#rdots"/>
<path class="stroke" stroke-width="3"
	d="M651.10 906.00v-63.00"/>
<path class="stroke" stroke-width="1"
	d="M646.60 906.00v-63.00"/>
<use x="642.60" y="906.00" xlink:href="#rdots"/>
<path class="stroke" stroke-width="3"
	d="M747.30 843.00v-24.00"/>
<path class="stroke" stroke-width="1"
	d="M742.80 843.00v-24.00"/>
<path class="stroke" stroke-width="3"
	d="M747.30 906.00v-63.00"/>
<path class="stroke" stroke-width="1"
	d="M742.80 906.00v-63.00"/>
<path d="m67.20 843.00
	h681.60
	M67.20 837.00
	h681.60
	M67.20 831.00
	h681.60
	M67.20 825.00
	h681.60
	M67.20 819.00
	h681.60
	" class="stroke"/>
<path d="m67.20 906.00
	h681.60
	M67.20 900.00
	h681.60
	M67.20 894.00
	h681.60
	M67.20 888.00
	h681.60
	M67.20 882.00
	h681.60
	" class="stroke"/>
</g>
<g stroke-width="0.70" font-family="serif" font-size="13.00">
<text x="493.10" y="804.40">1</text>
<path class="stroke"
	d="M489.10 793.00m0 20v-20h155.50v20"/>
<text x="656.60" y="804.40">2</text>
<path class="stroke"
	d="M652.60 793.00m0 20v-20h96.20v20"/>
<use x="79.20" y="837.00" xlink:href="#tclef"/>
<use x="94.20" y="831.00" xlink:href="#ft0"/>
<use x="112.20" y="849.00" xlink:href="#hl"/>
<use x="112.20" y="855.00" xlink:href="#hl"/>
<use x="112.20" y="861.00" xlink:href="#hl"/>
<use x="112.20" y="861.00" xlink:href="#hd"/>
<circle class="fill" cx="119.90" cy="858.00" r="1.2"/>
<path d="M115.70 861.00v-40.00" class="stroke"/>
<use x="112.20" y="840.00" xlink:href="#hd"/>
<circle class="fill" cx="119.90" cy="840.00" r="1.2"/>
<use x="142.10" y="849.00" xlink:href="#hl"/>
<use x="142.10" y="855.00" xlink:href="#hl"/>
<use x="142.10" y="855.00" xlink:href="#hd"/>
<path d="M145.60 855.00v-25.00" class="stroke"/>
<path class="fill"
	d="M145.60 830.00c0.6 5.6 9.6 9 5.6 18.4
	1.6 -6 -1.3 -11.6 -5.6 -12.8
"/>
<use x="142.10" y="849.00" xlink:href="#hd"/>
<path class="fill"
	d="M164.70 825.90l50.60 -6.70v3.20l-50.60 6.70"/>
<use x="161.50" y="849.00" xlink:href="#hl"/>
<use x="161.50" y="852.00" xlink:href="#hd"/>
<path d="M165.00 852.00v-25.20" class="stroke"/>
<use x="161.50" y="846.00" xlink:href="#hd"/>
<use x="178.30" y="849.00" xlink:href="#hl"/>
<use x="178.30" y="849.00" xlink:href="#hd"/>
<path d="M181.80 849.00v-24.40" class="stroke"/>
<use x="178.30" y="843.00" xlink:href="#hd"/>
<use x="194.80" y="846.00" xlink:href="#hd"/>
<path d="M198.30 846.00v-23.60" class="stroke"/>
<use x="194.80" y="840.00" xlink:href="#hd"/>
<use x="211.40" y="843.00" xlink:href="#hd"/>
<path d="M214.90 843.00v-22.80" class="stroke"/>
<use x="211.40" y="837.00" xlink:href="#hd"/>
<path class="fill"
	d="M240.80 812.80l50.30 0.00v3.20l-50.30 -0.00"/>
<use x="237.70" y="840.00" xlink:href="#hd"/>
<path d="M241.20 840.00v-26.20" class="stroke"/>
<use x="237.70" y="834.00" xlink:href="#hd"/>
<use x="254.20" y="843.00" xlink:href="#hd"/>
<path d="M257.70 843.00v-29.20" class="stroke"/>
<use x="254.20" y="837.00" xlink:href="#hd"/>
<use x="270.80" y="840.00" xlink:href="#hd"/>
<path d="M274.30 840.00v-26.20" class="stroke"/>
<use x="270.80" y="834.00" xlink:href="#hd"/>
<use x="287.30" y="837.00" xlink:href="#hd"/>
<path d="M290.80 837.00v-23.20" class="stroke"/>
<use x="287.30" y="831.00" xlink:href="#hd"/>
<use x="305.50" y="834.00" xlink:href="#hd"/>
<path d="M309.00 834.00v-25.00" class="stroke"/>
<path class="fill"
	d="M309.00 809.00c0.6 5.6 9.6 9 5.6 18.4
	1.6 -6 -1.3 -11.6 -5.6 -12.8
"/>
<use x="305.50" y="828.00" xlink:href="#hd"/>
<use x="322.80" y="831.00" xlink:href="#r8"/>
<use x="339.40" y="846.00" xlink:href="#hd"/>
<path d="M342.90 846.00v-40.00" class="stroke"/>
<path class="fill"
	d="M342.90 806.00c0.6 5.6 9.6 9 5.6 18.4
	1.6 -6 -1.3 -11.6 -5.6 -12.8
"/>
<use x="339.40" y="840.00" xlink:href="#hd"/>
<use x="339.40" y="831.00" xlink:href="#hd"/>
<use x="339.40" y="825.00" xlink:href="#hd"/>
<use x="356.70" y="831.00" xlink:href="#r8"/>
<use x="383.50" y="849.00" xlink:href="#hl"/>
<use x="383.50" y="855.00" xlink:href="#hl"/>
<use x="383.50" y="855.00" xlink:href="#Hd"/>
<path d="M387.00 855.00v-34.00" class="stroke"/>
<use x="383.50" y="849.00" xlink:href="#Hd"/>
<use x="383.50" y="840.00" xlink:href="#Hd"/>
<path class="fill"
	d="M405.00 822.10l8.60 -4.30v1.80l-8.60 4.30"/>
<path class="fill"
	d="M405.30 825.50l8.00 -4.00v1.80l-8.00 4.00"/>
<use x="403.00" y="840.00" xlink:href="#ghd"/>
<path d="M405.30 840.00v-17.00" class="stroke"/>
<use x="411.00" y="834.00" xlink:href="#ghd"/>
<path d="M413.30 834.00v-15.00" class="stroke"/>
<path class="stroke"
	d="M402.00 844.50c0.00 4.80 11.60 6.00 14.50 6.00"/>
<use x="422.00" y="849.00" xlink:href="#hl"/>
<use x="422.00" y="852.00" xlink:href="#hd"/>
<path d="M425.50 852.00v-34.00" class="stroke"/>
<use x="429.10" y="849.00" xlink:href="#hl"/>
<use x="429.10" y="849.00" xlink:href="#hd"/>
<use x="422.00" y="843.00" xlink:href="#hd"/>
<use x="422.00" y="837.00" xlink:href="#hd"/>
<path class="fill"
	d="M454.70 817.30l25.70 2.50v3.20l-25.70 -2.50"/>
<path class="fill"
	d="M472.10 823.90l8.00 0.80v3.20l-8.00 -0.80"/>
<use x="451.60" y="849.00" xlink:href="#hl"/>
<use x="451.60" y="852.00" xlink:href="#hd"/>
<circle class="fill" cx="466.30" cy="852.00" r="1.2"/>
<path d="M455.10 852.00v-33.70" class="stroke"/>
<use x="458.60" y="849.00" xlink:href="#hl"/>
<use x="458.60" y="849.00" xlink:href="#hd"/>
<circle class="fill" cx="466.30" cy="846.00" r="1.2"/>
<use x="451.60" y="843.00" xlink:href="#hd"/>
<circle class="fill" cx="466.30" cy="840.00" r="1.2"/>
<use x="451.60" y="837.00" xlink:href="#hd"/>
<circle class="fill" cx="466.30" cy="834.00" r="1.2"/>
<use x="476.60" y="849.00" xlink:href="#hl"/>
<use x="476.60" y="855.00" xlink:href="#hl"/>
<use x="476.60" y="855.00" xlink:href="#hd"/>
<path d="M480.10 855.00v-34.30" class="stroke"/>
<use x="476.60" y="849.00" xlink:href="#hd"/>
<use x="476.60" y="840.00" xlink:href="#hd"/>
<use x="501.60" y="849.00" xlink:href="#hl"/>
<use x="501.60" y="855.00" xlink:href="#hl"/>
<use x="501.60" y="855.00" xlink:href="#hd"/>
<path d="M505.10 855.00v-34.00" class="stroke"/>
<path class="fill"
	d="M505.10 821.00c0.6 5.6 9.6 9 5.6 18.4
	1.6 -6 -1.3 -11.6 -5.6 -12.8
"/>
<use x="501.60" y="849.00" xlink:href="#hd"/>
<use x="501.60" y="840.00" xlink:href="#hd"/>
<path class="fill"
	d="M517.10 843.20l13.10 0.00v-3.20l-13.10 -0.00"/>
<path class="fill"
	d="M517.50 838.20l12.40 0.00v-3.20l-12.40 -0.00"/>
<use x="521.00" y="819.00" xlink:href="#hd"/>
<path d="M517.50 819.00v23.20" class="stroke"/>
<use x="533.40" y="819.00" xlink:href="#hd"/>
<path d="M529.90 819.00v23.20" class="stroke"/>
<path class="fill"
	d="M543.10 835.20l17.50 3.60v-3.20l-17.50 -3.60"/>
<use x="546.90" y="813.00" xlink:href="#hl"/>
<use x="546.90" y="813.00" xlink:href="#hd"/>
<path d="M543.40 813.00v21.30" class="stroke"/>
<use x="563.70" y="819.00" xlink:href="#hd"/>
<path d="M560.20 819.00v18.70" class="stroke"/>
<path class="fill"
	d="M578.40 853.20l50.60 0.00v-3.20l-50.60 -0.00"/>
<use x="582.20" y="828.00" xlink:href="#hd"/>
<path d="M578.70 828.00v24.20" class="stroke"/>
<use x="599.00" y="819.00" xlink:href="#hd"/>
<path d="M595.50 819.00v33.20" class="stroke"/>
<use x="615.60" y="834.00" xlink:href="#hd"/>
<path d="M612.10 834.00v18.20" class="stroke"/>
<use x="632.10" y="828.00" xlink:href="#hd"/>
<path d="M628.60 828.00v24.20" class="stroke"/>
<use x="665.60" y="849.00" xlink:href="#hl"/>
<use x="665.60" y="855.00" xlink:href="#hl"/>
<use x="665.60" y="855.00" xlink:href="#Hd"/>
<path d="M669.10 855.00v-34.00" class="stroke"/>
<use x="665.60" y="849.00" xlink:href="#Hd"/>
<use x="665.60" y="840.00" xlink:href="#Hd"/>
<use x="702.20" y="849.00" xlink:href="#hl"/>
<use x="702.20" y="855.00" xlink:href="#hl"/>
<use x="702.20" y="855.00" xlink:href="#hd"/>
<path d="M705.70 855.00v-34.00" class="stroke"/>
<use x="702.20" y="849.00" xlink:href="#hd"/>
<use x="702.20" y="840.00" xlink:href="#hd"/>
<use x="727.30" y="831.00" xlink:href="#r4"/>
<path class="fill"
	d="M425.50 852.00c3.55 4.91 18.97 4.91 22.52 -0.00
	v0.22c-4.22 6.68 -18.30 6.68 -22.52 -0.22"/>
<path class="fill"
	d="M429.80 849.00c3.55 -4.91 18.97 -4.91 22.52 -0.00
	v-0.22c-4.22 -6.68 -18.30 -6.68 -22.52 0.22"/>
<path class="fill"
	d="M425.50 843.00c3.55 -4.91 18.97 -4.91 22.52 -0.00
	v-0.22c-4.22 -6.68 -18.30 -6.68 -22.52 0.22"/>
<path class="fill"
	d="M425.50 837.00c3.55 -4.91 18.97 -4.91 22.52 -0.00
	v-0.22c-4.22 -6.68 -18.30 -6.68 -22.52 0.22"/>
<path class="fill"
	d="M669.10 855.00c4.66 5.03 24.93 5.03 29.59 -0.00
	v0.23c-5.55 6.80 -24.05 6.80 -29.59 -0.23"/>
<path class="fill"
	d="M669.10 849.00c4.66 5.03 24.93 5.03 29.59 -0.00
	v0.23c-5.55 6.80 -24.05 6.80 -29.59 -0.23"/>
<path class="fill"
	d="M669.10 840.00c4.66 -5.03 24.93 -5.03 29.59 -0.00
	v-0.23c-5.55 -6.80 -24.05 -6.80 -29.59 0.23"/>
<use x="79.20" y="888.00" xlink:href="#bclef"/>
<use x="94.20" y="900.00" xlink:href="#ft0"/>
<use x="112.20" y="912.00" xlink:href="#hl"/>
<use x="112.20" y="918.00" xlink:href="#hl"/>
<use x="112.20" y="924.00" xlink:href="#hl"/>
<use x="112.20" y="930.00" xlink:href="#hl"/>
<use x="112.20" y="930.00" xlink:href="#hd"/>
<circle class="fill" cx="119.90" cy="927.00" r="1.2"/>
<path d="M115.70 930.00v-40.00" class="stroke"/>
<use x="112.20" y="909.00" xlink:href="#hd"/>
<circle class="fill" cx="119.90" cy="909.00" r="1.2"/>
<use x="142.10" y="903.00" xlink:href="#hd"/>
<path d="M145.60 903.00v-25.00" class="stroke"/>
<path class="fill"
	d="M145.60 878.00c0.6 5.6 9.6 9 5.6 18.4
	1.6 -6 -1.3 -11.6 -5.6 -12.8
"/>
<use x="142.10" y="897.00" xlink:href="#hd"/>
<path class="fill"
	d="M157.70 917.90l50.60 -6.70v-3.20l-50.60 6.70"/>
<use x="161.50" y="894.00" xlink:href="#hd"/>
<path d="M158.00 894.00v22.80" class="stroke"/>
<use x="161.50" y="900.00" xlink:href="#hd"/>
<use x="178.30" y="891.00" xlink:href="#hd"/>
<path d="M174.80 891.00v23.60" class="stroke"/>
<use x="178.30" y="897.00" xlink:href="#hd"/>
<use x="194.80" y="888.00" xlink:href="#hd"/>
<path d="M191.30 888.00v24.40" class="stroke"/>
<use x="194.80" y="894.00" xlink:href="#hd"/>
<use x="211.40" y="885.00" xlink:href="#hd"/>
<path d="M207.90 885.00v25.20" class="stroke"/>
<use x="211.40" y="891.00" xlink:href="#hd"/>
<path class="fill"
	d="M233.80 908.90l50.30 0.00v-3.20l-50.30 -0.00"/>
<use x="237.70" y="882.00" xlink:href="#hd"/>
<path d="M234.20 882.00v26.00" class="stroke"/>
<use x="237.70" y="888.00" xlink:href="#hd"/>
<use x="254.20" y="885.00" xlink:href="#hd"/>
<path d="M250.70 885.00v23.00" class="stroke"/>
<use x="254.20" y="891.00" xlink:href="#hd"/>
<use x="270.80" y="882.00" xlink:href="#hd"/>
<path d="M267.30 882.00v26.00" class="stroke"/>
<use x="270.80" y="888.00" xlink:href="#hd"/>
<use x="287.30" y="879.00" xlink:href="#hd"/>
<path d="M283.80 879.00v29.00" class="stroke"/>
<use x="287.30" y="885.00" xlink:href="#hd"/>
<use x="305.50" y="876.00" xlink:href="#hl"/>
<use x="305.50" y="876.00" xlink:href="#hd"/>
<path d="M302.00 876.00v25.00" class="stroke"/>
<path class="fill"
	d="M302.00 901.00c0.6 -5.6 9.6 -9 5.6 -18.4
	1.6 6 -1.3 11.6 -5.6 12.8
"/>
<use x="305.50" y="882.00" xlink:href="#hd"/>
<use x="322.80" y="894.00" xlink:href="#r8"/>
<use x="339.40" y="912.00" xlink:href="#hl"/>
<use x="339.40" y="918.00" xlink:href="#hl"/>
<use x="339.40" y="921.00" xlink:href="#hd"/>
<path d="M342.90 921.00v-40.00" class="stroke"/>
<path class="fill"
	d="M342.90 881.00c0.6 5.6 9.6 9 5.6 18.4
	1.6 -6 -1.3 -11.6 -5.6 -12.8
"/>
<use x="339.40" y="900.00" xlink:href="#hd"/>
<use x="356.70" y="894.00" xlink:href="#r8"/>
<use x="383.50" y="912.00" xlink:href="#hl"/>
<use x="383.50" y="918.00" xlink:href="#hl"/>
<use x="383.50" y="918.00" xlink:href="#Hd"/>
<path d="M387.00 918.00v-40.00" class="stroke"/>
<use x="383.50" y="897.00" xlink:href="#Hd"/>
<use x="422.00" y="912.00" xlink:href="#hl"/>
<use x="422.00" y="918.00" xlink:href="#hl"/>
<use x="422.00" y="918.00" xlink:href="#hd"/>
<path d="M425.50 918.00v-40.00" class="stroke"/>
<use x="422.00" y="897.00" xlink:href="#hd"/>
<path class="fill"
	d="M454.70 879.70l25.70 6.30v3.20l-25.70 -6.30"/>
<path class="fill"
	d="M472.10 889.00l8.00 2.00v3.20l-8.00 -2.00"/>
<use x="451.60" y="912.00" xlink:href="#hl"/>
<use x="451.60" y="918.00" xlink:href="#hl"/>
<use x="451.60" y="918.00" xlink:href="#hd"/>
<circle class="fill" cx="459.30" cy="915.00" r="1.2"/>
<path d="M455.10 918.00v-37.20" class="stroke"/>
<use x="451.60" y="897.00" xlink:href="#hd"/>
<circle class="fill" cx="459.30" cy="897.00" r="1.2"/>
<use x="476.60" y="912.00" xlink:href="#hl"/>
<use x="476.60" y="918.00" xlink:href="#hl"/>
<use x="476.60" y="924.00" xlink:href="#hl"/>
<use x="476.60" y="930.00" xlink:href="#hl"/>
<use x="476.60" y="930.00" xlink:href="#hd"/>
<path d="M480.10 930.00v-43.10" class="stroke"/>
<use x="476.60" y="909.00" xlink:href="#hd"/>
<use x="501.60" y="912.00" xlink:href="#hl"/>
<use x="501.60" y="918.00" xlink:href="#hl"/>
<use x="501.60" y="924.00" xlink:href="#hl"/>
<use x="501.60" y="930.00" xlink:href="#hl"/>
<use x="501.60" y="930.00" xlink:href="#hd"/>
<path d="M505.10 930.00v-40.00" class="stroke"/>
<path class="fill"
	d="M505.10 890.00c0.6 5.6 9.6 9 5.6 18.4
	1.6 -6 -1.3 -11.6 -5.6 -12.8
"/>
<use x="501.60" y="909.00" xlink:href="#hd"/>
<path class="fill"
	d="M517.10 894.20l13.10 0.00v-3.20l-13.10 -0.00"/>
<path class="fill"
	d="M517.50 889.20l12.40 0.00v-3.20l-12.40 -0.00"/>
<use x="521.00" y="876.00" xlink:href="#hl"/>
<use x="521.00" y="870.00" xlink:href="#hl"/>
<use x="521.00" y="867.00" xlink:href="#hd"/>
<path d="M517.50 867.00v26.20" class="stroke"/>
<use x="533.40" y="876.00" xlink:href="#hl"/>
<use x="533.40" y="870.00" xlink:href="#hl"/>
<use x="533.40" y="867.00" xlink:href="#hd"/>
<path d="M529.90 867.00v26.20" class="stroke"/>
<path class="fill"
	d="M543.10 894.20l17.50 0.00v-3.20l-17.50 -0.00"/>
<use x="546.90" y="876.00" xlink:href="#hl"/>
<use x="546.90" y="870.00" xlink:href="#hl"/>
<use x="546.90" y="864.00" xlink:href="#hl"/>
<use x="546.90" y="861.00" xlink:href="#hd"/>
<path d="M543.40 861.00v32.20" class="stroke"/>
<use x="563.70" y="876.00" xlink:href="#hl"/>
<use x="563.70" y="870.00" xlink:href="#hl"/>
<use x="563.70" y="867.00" xlink:href="#hd"/>
<path d="M560.20 867.00v26.20" class="stroke"/>
<path class="fill"
	d="M578.40 900.20l50.60 0.00v-3.20l-50.60 -0.00"/>
<use x="582.20" y="876.00" xlink:href="#hl"/>
<use x="582.20" y="876.00" xlink:href="#hd"/>
<path d="M578.70 876.00v23.20" class="stroke"/>
<use x="599.00" y="876.00" xlink:href="#hl"/>
<use x="599.00" y="870.00" xlink:href="#hl"/>
<use x="599.00" y="867.00" xlink:href="#hd"/>
<path d="M595.50 867.00v32.20" class="stroke"/>
<use x="615.60" y="882.00" xlink:href="#hd"/>
<path d="M612.10 882.00v17.20" class="stroke"/>
<use x="632.10" y="876.00" xlink:href="#hl"/>
<use x="632.10" y="876.00" xlink:href="#hd"/>
<path d="M628.60 876.00v23.20" class="stroke"/>
<use x="665.60" y="912.00" xlink:href="#hl"/>
<use x="665.60" y="918.00" xlink:href="#hl"/>
<use x="665.60" y="924.00" xlink:href="#hl"/>
<use x="665.60" y="930.00" xlink:href="#hl"/>
<use x="665.60" y="930.00" xlink:href="#Hd"/>
<path d="M669.10 930.00v-40.00" class="stroke"/>
<use x="665.60" y="909.00" xlink:href="#Hd"/>
<use x="702.20" y="912.00" xlink:href="#hl"/>
<use x="702.20" y="918.00" xlink:href="#hl"/>
<use x="702.20" y="924.00" xlink:href="#hl"/>
<use x="702.20" y="930.00" xlink:href="#hl"/>
<use x="702.20" y="930.00" xlink:href="#hd"/>
<path d="M705.70 930.00v-40.00" class="stroke"/>
<use x="702.20" y="909.00" xlink:href="#hd"/>
<use x="727.30" y="894.00" xlink:href="#r4"/>
<path class="fill"
	d="M425.50 918.00c3.55 4.91 18.97 4.91 22.52 -0.00
	v0.22c-4.22 6.68 -18.30 6.68 -22.52 -0.22"/>
<path class="fill"
	d="M425.50 897.00c3.55 -4.91 18.97 -4.91 22.52 -0.00
	v-0.22c-4.22 -6.68 -18.30 -6.68 -22.52 0.22"/>
<path class="fill"
	d="M669.10 930.00c4.66 5.03 24.93 5.03 29.59 -0.00
	v0.23c-5.55 6.80 -24.05 6.80 -29.59 -0.23"/>
<path class="fill"
	d="M669.10 909.00c4.66 -5.03 24.93 -5.03 29.59 -0.00
	v-0.23c-5.55 -6.80 -24.05 -6.80 -29.59 0.23"/>
</g>
</svg>
