<?xml version="1.0" standalone="no"?>
<!DOCTYPE svg PUBLIC "-//W3C//DTD SVG 1.1//EN"
	"http://www.w3.org/Graphics/SVG/1.1/DTD/svg11.dtd">
<svg xmlns="http://www.w3.org/2000/svg" version="1.1"
	xmlns:xlink="http://www.w3.org/1999/xlink"
	color="black"
	width="816.00px" height="1056.00px">
<style type="text/css">
.fill {fill: currentColor}
.stroke {stroke: currentColor; fill: none}
text{white-space: pre}
</style>
<title>MP.abc page 1</title>
<!-- Creator: abcm2ps-8.13.8 -->
<!-- CreationDate: Sep 24, 2017 08:49 -->
<!-- CommandLine: -G -v -O= MP.abc -->
<g stroke-width="0.70">
<!-- title: Marche Pontificale -->
</g>
<g stroke-width="0.70" font-family="serif" font-size="20.00">
<text x="408.00" y="116.00" text-anchor="middle">Marche Pontificale</text>
</g>
<g stroke-width="0.70" font-family="serif" font-size="14.00" font-style="italic">
<text x="748.80" y="140.00" text-anchor="end">Charles Gounod</text>
</g>
<g stroke-width="0.70" font-family="serif" font-size="15.00" font-weight="bold">
<text x="123.70" y="163.00">Allegretto maestoso  </text>
</g>
<g stroke-width="0.70" transform="scale(0.700)" font-family="serif" font-size="15.00" font-weight="bold">
<defs>
<ellipse id="hd" rx="4.1" ry="2.9"
	transform="rotate(-20)" class="fill"/>
</defs>
<use x="385.71" y="229.86" xlink:href="#hd"/>
<path d="M389.21 229.86v-21.00" class="stroke"/>
</g>
<g stroke-width="0.70" font-family="serif" font-size="15.00" font-weight="bold">
<text x="277.70" y="163.00">= 100</text>
<path class="stroke" stroke-width="1"
	d="M67.20 271.00v-89.00"/>
<defs>
<path id="brace" class="fill" d="m-2.5 101
	c-4.5 -4.6 -7.5 -12.2 -4.4 -26.8
	3.5 -14.3 3.2 -21.7 -2.1 -24.2
	7.4 2.4 7.3 14.2 3.5 29.5
	-2.7 9.5 -1.5 16.2 3 21.5
	M-2.5 1c-4.5 4.6 -7.5 12.2 -4.4 26.8
	c3.5 14.3 3.2 21.7 -2.1 24.2
	7.4 -2.4 7.3 -14.2 3.5 -29.5
	-2.7 -9.5 -1.5 -16.2 3 -21.5"/>
</defs>
<g transform="translate(67.20,182.00) scale(1,0.89)">
	<use xlink:href="#brace"/>
</g>
<path class="stroke" stroke-width="1"
	d="M250.50 206.00v-24.00"/>
<path class="stroke" stroke-width="1"
	d="M250.50 271.00v-65.00"/>
<path class="stroke" stroke-width="1"
	d="M385.20 206.00v-24.00"/>
<path class="stroke" stroke-width="1"
	d="M385.20 271.00v-65.00"/>
<path class="stroke" stroke-width="1"
	d="M577.80 206.00v-24.00"/>
<path class="stroke" stroke-width="1"
	d="M577.80 271.00v-65.00"/>
<path class="stroke" stroke-width="1"
	d="M748.80 206.00v-24.00"/>
<path class="stroke" stroke-width="1"
	d="M748.80 271.00v-65.00"/>
<path d="m67.20 206.00
	h681.60
	M67.20 200.00
	h681.60
	M67.20 194.00
	h681.60
	M67.20 188.00
	h681.60
	M67.20 182.00
	h681.60
	" class="stroke"/>
<path d="m67.20 271.00
	h681.60
	M67.20 265.00
	h681.60
	M67.20 259.00
	h681.60
	M67.20 253.00
	h681.60
	M67.20 247.00
	h681.60
	" class="stroke"/>
<defs>
<path id="utclef" class="fill" d="m-50 -90
	c-72 -41 -72 -158 52 -188
	150 -10 220 188 90 256
	-114 52 -275 0 -293 -136
	-15 -181 93 -229 220 -334
	88 -87 79 -133 62 -210
	-51 33 -94 105 -89 186
	17 267 36 374 49 574
	6 96 -19 134 -77 135
	-80 1 -126 -93 -61 -133
	85 -41 133 101 31 105
	23 17 92 37 90 -92
	-10 -223 -39 -342 -50 -617
	0 -90 0 -162 96 -232
	56 72 63 230 22 289
	-74 106 -257 168 -255 316
	9 153 148 185 252 133
	86 -65 29 -192 -80 -176
	-71 12 -105 67 -59 124"/>
<use id="tclef" transform="translate(0,6) scale(0.045)"
	xlink:href="#utclef"/>
</defs>
<use x="79.20" y="200.00" xlink:href="#tclef"/>
<defs>
<path id="uflat" class="fill" d="
	m100 -746
	h32
	v734
	l-32 4
	m32 -332
	c46 -72 152 -90 208 -20
	100 110 -120 326 -208 348
	m0 -28
	c54 0 200 -206 130 -290
	-50 -60 -130 -4 -130 34"/>
<use id="ft0" transform="translate(-3.5,3.5) scale(0.018)"
	xlink:href="#uflat"/>
</defs>
<use x="94.20" y="194.00" xlink:href="#ft0"/>
<defs>
<path id="csig" class="fill" d="
	m6 -5.3
	c0.9 0 2.3 0.7 2.4 2.2
	-1.2 -2 -3.6 0.1 -1.6 1.7
	2 1 3.8 -3.5 -0.8 -4.7
	-2 -0.4 -6.4 1.3 -5.8 7
	0.4 6.4 7.9 6.8 9.1 0.7
	-2.3 5.6 -6.7 5.1 -6.8 0
	-0.5 -4.4 0.7 -7.5 3.5 -6.9"/>
</defs>
<use x="105.20" y="194.00" xlink:href="#csig"/>
<defs>
<path id="Hd" class="fill" d="m3 -1.6
	c-1 -1.8 -7 1.4 -6 3.2
	1 1.8 7 -1.4 6 -3.2
	m0.5 -0.3
	c2 3.8 -5 7.6 -7 3.8
	-2 -3.8 5 -7.6 7 -3.8"/>
</defs>
<use x="128.70" y="197.00" xlink:href="#Hd"/>
<path d="M132.20 197.00v-25.00" class="stroke"/>
<use x="128.70" y="191.00" xlink:href="#Hd"/>
<use x="177.70" y="200.00" xlink:href="#hd"/>
<path d="M181.20 200.00v-28.00" class="stroke"/>
<use x="177.70" y="191.00" xlink:href="#hd"/>
<path class="fill"
	d="M215.70 171.00l26.10 0.00v3.20l-26.10 -0.00"/>
<path class="fill"
	d="M233.50 176.00l8.00 0.00v3.20l-8.00 -0.00"/>
<use x="212.60" y="200.00" xlink:href="#hd"/>
<circle class="fill" cx="220.30" cy="197.00" r="1.2"/>
<path d="M216.10 200.00v-28.00" class="stroke"/>
<use x="212.60" y="191.00" xlink:href="#hd"/>
<circle class="fill" cx="220.30" cy="191.00" r="1.2"/>
<use x="238.00" y="200.00" xlink:href="#hd"/>
<path d="M241.50 200.00v-28.00" class="stroke"/>
<use x="238.00" y="191.00" xlink:href="#hd"/>
<use x="263.50" y="182.00" xlink:href="#Hd"/>
<path d="M260.00 182.00v40.00" class="stroke"/>
<use x="263.50" y="203.00" xlink:href="#Hd"/>
<use x="263.50" y="191.00" xlink:href="#Hd"/>
<use x="312.40" y="203.00" xlink:href="#hd"/>
<path d="M315.90 203.00v-28.00" class="stroke"/>
<use x="312.40" y="194.00" xlink:href="#hd"/>
<path class="fill"
	d="M350.50 174.00l26.10 0.00v3.20l-26.10 -0.00"/>
<path class="fill"
	d="M368.20 179.00l8.00 0.00v3.20l-8.00 -0.00"/>
<use x="347.30" y="203.00" xlink:href="#hd"/>
<circle class="fill" cx="355.00" cy="203.00" r="1.2"/>
<path d="M350.80 203.00v-28.00" class="stroke"/>
<use x="347.30" y="194.00" xlink:href="#hd"/>
<circle class="fill" cx="355.00" cy="191.00" r="1.2"/>
<use x="372.70" y="203.00" xlink:href="#hd"/>
<path d="M376.20 203.00v-28.00" class="stroke"/>
<use x="372.70" y="194.00" xlink:href="#hd"/>
<use x="397.70" y="206.00" xlink:href="#hd"/>
<path d="M401.20 206.00v-31.00" class="stroke"/>
<path class="fill"
	d="M401.20 175.00c0.6 5.6 9.6 9 5.6 18.4
	1.6 -6 -1.3 -11.6 -5.6 -12.8
"/>
<use x="397.70" y="194.00" xlink:href="#hd"/>
<defs>
<path id="r8e" class="fill" d="m 0 0
	c-1.5 1.5 -2.4 2 -3.6 2
	2.4 -2.8 -2.8 -4 -2.8 -1.2
	c0 2.7 4.3 2.4 5.9 0.6"/>
<g id="r8">
	<path d="m3.3 -4l-3.4 9.6" class="stroke"/>
	<use x="3.4" y="-4" xlink:href="#r8e"/>
</g>
</defs>
<use x="420.00" y="194.00" xlink:href="#r8"/>
<use x="444.50" y="203.00" xlink:href="#hd"/>
<path d="M448.00 203.00v-25.00" class="stroke"/>
<path class="fill"
	d="M448.00 178.00c0.6 5.6 9.6 9 5.6 18.4
	1.6 -6 -1.3 -11.6 -5.6 -12.8
"/>
<use x="444.50" y="197.00" xlink:href="#hd"/>
<use x="466.80" y="194.00" xlink:href="#r8"/>
<defs>
<path id="hl" class="stroke" d="m-6 0h12"/>
</defs>
<use x="491.40" y="212.00" xlink:href="#hl"/>
<use x="491.40" y="212.00" xlink:href="#hd"/>
<path d="M494.90 212.00v-31.00" class="stroke"/>
<path class="fill"
	d="M494.90 181.00c0.6 5.6 9.6 9 5.6 18.4
	1.6 -6 -1.3 -11.6 -5.6 -12.8
"/>
<use x="491.40" y="206.00" xlink:href="#hd"/>
<use x="491.40" y="200.00" xlink:href="#hd"/>
<use x="513.60" y="194.00" xlink:href="#r8"/>
<use x="538.20" y="212.00" xlink:href="#hl"/>
<use x="538.20" y="212.00" xlink:href="#hd"/>
<path d="M541.70 212.00v-28.00" class="stroke"/>
<path class="fill"
	d="M541.70 184.00c0.6 5.6 9.6 9 5.6 18.4
	1.6 -6 -1.3 -11.6 -5.6 -12.8
"/>
<use x="538.20" y="203.00" xlink:href="#hd"/>
<use x="560.50" y="194.00" xlink:href="#r8"/>
<use x="590.30" y="212.00" xlink:href="#hl"/>
<use x="590.30" y="212.00" xlink:href="#hd"/>
<circle class="fill" cx="598.00" cy="209.00" r="1.2"/>
<path d="M593.80 212.00v-40.00" class="stroke"/>
<use x="590.30" y="206.00" xlink:href="#hd"/>
<circle class="fill" cx="598.00" cy="203.00" r="1.2"/>
<use x="590.30" y="191.00" xlink:href="#hd"/>
<circle class="fill" cx="598.00" cy="191.00" r="1.2"/>
<use x="649.50" y="212.00" xlink:href="#hl"/>
<use x="649.50" y="212.00" xlink:href="#hd"/>
<path d="M653.00 212.00v-37.00" class="stroke"/>
<path class="fill"
	d="M653.00 175.00c0.6 5.6 9.6 9 5.6 18.4
	1.6 -6 -1.3 -11.6 -5.6 -12.8
"/>
<use x="649.50" y="203.00" xlink:href="#hd"/>
<use x="649.50" y="194.00" xlink:href="#hd"/>
<use x="674.30" y="212.00" xlink:href="#hl"/>
<use x="674.30" y="212.00" xlink:href="#hd"/>
<path d="M677.80 212.00v-34.00" class="stroke"/>
<use x="674.30" y="203.00" xlink:href="#hd"/>
<use x="674.30" y="197.00" xlink:href="#hd"/>
<use x="709.20" y="212.00" xlink:href="#hl"/>
<use x="709.20" y="212.00" xlink:href="#hd"/>
<path d="M712.70 212.00v-34.00" class="stroke"/>
<path class="fill"
	d="M712.70 178.00c0.6 5.6 9.6 9 5.6 18.4
	1.6 -6 -1.3 -11.6 -5.6 -12.8
"/>
<use x="709.20" y="203.00" xlink:href="#hd"/>
<use x="709.20" y="197.00" xlink:href="#hd"/>
<use x="731.40" y="194.00" xlink:href="#r8"/>
<path class="fill"
	d="M181.20 200.00c4.39 5.00 23.50 5.00 27.89 -0.00
	v0.23c-5.23 6.77 -22.66 6.77 -27.89 -0.23"/>
<path class="fill"
	d="M181.20 191.00c4.39 -5.00 23.50 -5.00 27.89 -0.00
	v-0.23c-5.23 -6.77 -22.66 -6.77 -27.89 0.23"/>
<path class="fill"
	d="M315.90 203.00c4.39 5.00 23.50 5.00 27.89 -0.00
	v0.23c-5.23 6.77 -22.66 6.77 -27.89 -0.23"/>
<path class="fill"
	d="M315.90 194.00c4.39 -5.00 23.50 -5.00 27.89 -0.00
	v-0.23c-5.23 -6.77 -22.66 -6.77 -27.89 0.23"/>
<path class="fill"
	d="M677.80 212.00c4.39 5.00 23.50 5.00 27.89 -0.00
	v0.23c-5.23 6.77 -22.66 6.77 -27.89 -0.23"/>
<path class="fill"
	d="M677.80 203.00c4.39 5.00 23.50 5.00 27.89 -0.00
	v0.23c-5.23 6.77 -22.66 6.77 -27.89 -0.23"/>
<path class="fill"
	d="M677.80 197.00c4.39 -5.00 23.50 -5.00 27.89 -0.00
	v-0.23c-5.23 -6.77 -22.66 -6.77 -27.89 0.23"/>
<defs>
<path id="ubclef" class="fill" d="m-200 -87
	c124 -35 222 -78 254 -236
	43 -228 -167 -246 -192 -103
	59 -80 157 22 92 78
	-62 47 -115 -22 -106 -88
	21 -141 270 -136 274 52
	-1 175 -106 264 -322 297
	m357 -250
	c0 -36 51 -34 51 0
	0 37 -51 36 -51 0
	m-2 -129
	c0 -36 51 -34 51 0
	0 38 -51 37 -51 0"/>
<use id="bclef" transform="translate(0,18) scale(0.045)"
	xlink:href="#ubclef"/>
</defs>
<use x="79.20" y="253.00" xlink:href="#bclef"/>
<use x="94.20" y="265.00" xlink:href="#ft0"/>
<use x="105.20" y="259.00" xlink:href="#csig"/>
<use x="128.70" y="241.00" xlink:href="#hl"/>
<use x="128.70" y="235.00" xlink:href="#hl"/>
<use x="128.70" y="232.00" xlink:href="#Hd"/>
<path d="M125.20 232.00v27.00" class="stroke"/>
<use x="177.70" y="241.00" xlink:href="#hl"/>
<use x="177.70" y="235.00" xlink:href="#hl"/>
<use x="177.70" y="235.00" xlink:href="#hd"/>
<path d="M174.20 235.00v24.00" class="stroke"/>
<path class="fill"
	d="M208.70 259.20l26.10 0.00v-3.20l-26.10 -0.00"/>
<path class="fill"
	d="M226.50 254.20l8.00 0.00v-3.20l-8.00 -0.00"/>
<use x="212.60" y="241.00" xlink:href="#hl"/>
<use x="212.60" y="235.00" xlink:href="#hl"/>
<use x="212.60" y="235.00" xlink:href="#hd"/>
<circle class="fill" cx="220.30" cy="232.00" r="1.2"/>
<path d="M209.10 235.00v23.20" class="stroke"/>
<use x="238.00" y="241.00" xlink:href="#hl"/>
<use x="238.00" y="235.00" xlink:href="#hl"/>
<use x="238.00" y="235.00" xlink:href="#hd"/>
<path d="M234.50 235.00v23.20" class="stroke"/>
<use x="263.50" y="241.00" xlink:href="#hl"/>
<use x="263.50" y="238.00" xlink:href="#Hd"/>
<path d="M260.00 238.00v21.00" class="stroke"/>
<use x="312.40" y="241.00" xlink:href="#hl"/>
<use x="312.40" y="238.00" xlink:href="#hd"/>
<path d="M308.90 238.00v21.00" class="stroke"/>
<path class="fill"
	d="M343.50 260.90l26.10 0.00v-3.20l-26.10 -0.00"/>
<path class="fill"
	d="M361.20 255.90l8.00 0.00v-3.20l-8.00 -0.00"/>
<use x="347.30" y="241.00" xlink:href="#hl"/>
<use x="347.30" y="238.00" xlink:href="#hd"/>
<circle class="fill" cx="355.00" cy="238.00" r="1.2"/>
<path d="M343.80 238.00v21.90" class="stroke"/>
<use x="372.70" y="241.00" xlink:href="#hl"/>
<use x="372.70" y="238.00" xlink:href="#hd"/>
<path d="M369.20 238.00v21.90" class="stroke"/>
<use x="397.70" y="241.00" xlink:href="#hl"/>
<use x="397.70" y="241.00" xlink:href="#hd"/>
<path d="M394.20 241.00v21.00" class="stroke"/>
<path class="fill"
	d="M394.20 262.00c0.6 -5.6 9.6 -9 5.6 -18.4
	1.6 6 -1.3 11.6 -5.6 12.8
"/>
<use x="420.00" y="259.00" xlink:href="#r8"/>
<use x="444.50" y="241.00" xlink:href="#hl"/>
<use x="444.50" y="241.00" xlink:href="#hd"/>
<path d="M441.00 241.00v21.00" class="stroke"/>
<path class="fill"
	d="M441.00 262.00c0.6 -5.6 9.6 -9 5.6 -18.4
	1.6 6 -1.3 11.6 -5.6 12.8
"/>
<use x="466.80" y="259.00" xlink:href="#r8"/>
<use x="491.40" y="244.00" xlink:href="#hd"/>
<path d="M487.90 244.00v21.00" class="stroke"/>
<path class="fill"
	d="M487.90 265.00c0.6 -5.6 9.6 -9 5.6 -18.4
	1.6 6 -1.3 11.6 -5.6 12.8
"/>
<use x="513.60" y="259.00" xlink:href="#r8"/>
<use x="538.20" y="247.00" xlink:href="#hd"/>
<path d="M534.70 247.00v21.00" class="stroke"/>
<path class="fill"
	d="M534.70 268.00c0.6 -5.6 9.6 -9 5.6 -18.4
	1.6 6 -1.3 11.6 -5.6 12.8
"/>
<use x="560.50" y="259.00" xlink:href="#r8"/>
<use x="590.30" y="250.00" xlink:href="#hd"/>
<path d="M586.80 250.00v21.00" class="stroke"/>
<use x="625.00" y="262.00" xlink:href="#hd"/>
<path d="M628.50 262.00v-21.00" class="stroke"/>
<use x="674.30" y="253.00" xlink:href="#hd"/>
<path d="M670.80 253.00v21.00" class="stroke"/>
<use x="709.20" y="253.00" xlink:href="#hd"/>
<path d="M705.70 253.00v21.00" class="stroke"/>
<path class="fill"
	d="M705.70 274.00c0.6 -5.6 9.6 -9 5.6 -18.4
	1.6 6 -1.3 11.6 -5.6 12.8
"/>
<use x="731.40" y="259.00" xlink:href="#r8"/>
<path class="fill"
	d="M181.20 235.00c4.39 -5.00 23.50 -5.00 27.89 -0.00
	v-0.23c-5.23 -6.77 -22.66 -6.77 -27.89 0.23"/>
<path class="fill"
	d="M315.90 238.00c4.39 -5.00 23.50 -5.00 27.89 -0.00
	v-0.23c-5.23 -6.77 -22.66 -6.77 -27.89 0.23"/>
<path class="fill"
	d="M677.80 253.00c4.39 -5.00 23.50 -5.00 27.89 -0.00
	v-0.23c-5.23 -6.77 -22.66 -6.77 -27.89 0.23"/>
<text font-family="serif" font-size="16" font-weight="bold" font-style="italic"
	x="127.70" y="217.40">f</text>
</g>
<g stroke-width="0.70" font-family="serif" font-size="15.00" font-weight="bold">
<path class="stroke" stroke-width="1"
	d="M67.20 399.00v-82.00"/>
<g transform="translate(67.20,317.00) scale(1,0.82)">
	<use xlink:href="#brace"/>
</g>
<path class="stroke" stroke-width="1"
	d="M235.20 341.00v-24.00"/>
<path class="stroke" stroke-width="1"
	d="M235.20 399.00v-58.00"/>
<path class="stroke" stroke-width="1"
	d="M382.90 341.00v-24.00"/>
<path class="stroke" stroke-width="1"
	d="M382.90 399.00v-58.00"/>
<path class="stroke" stroke-width="1"
	d="M577.00 341.00v-24.00"/>
<path class="stroke" stroke-width="1"
	d="M577.00 399.00v-58.00"/>
<path class="stroke" stroke-width="1"
	d="M748.80 341.00v-24.00"/>
<path class="stroke" stroke-width="1"
	d="M748.80 399.00v-58.00"/>
<path d="m67.20 341.00
	h681.60
	M67.20 335.00
	h681.60
	M67.20 329.00
	h681.60
	M67.20 323.00
	h681.60
	M67.20 317.00
	h681.60
	" class="stroke"/>
<path d="m67.20 399.00
	h681.60
	M67.20 393.00
	h681.60
	M67.20 387.00
	h681.60
	M67.20 381.00
	h681.60
	M67.20 375.00
	h681.60
	" class="stroke"/>
<path class="fill"
	d="M248.20 328.00c7.05 5.70 38.44 12.33 45.50 9.60
	v0.25c-8.42 4.48 -37.08 -2.14 -45.50 -9.85"/>
<use x="79.20" y="335.00" xlink:href="#tclef"/>
<use x="94.20" y="329.00" xlink:href="#ft0"/>
<use x="112.70" y="338.00" xlink:href="#Hd"/>
<path d="M116.20 338.00v-25.00" class="stroke"/>
<use x="112.70" y="332.00" xlink:href="#Hd"/>
<use x="162.00" y="341.00" xlink:href="#hd"/>
<path d="M165.50 341.00v-28.00" class="stroke"/>
<use x="162.00" y="332.00" xlink:href="#hd"/>
<path class="fill"
	d="M200.30 310.80l26.30 0.00v3.20l-26.30 -0.00"/>
<path class="fill"
	d="M218.20 315.80l8.00 0.00v3.20l-8.00 -0.00"/>
<use x="197.10" y="341.00" xlink:href="#hd"/>
<circle class="fill" cx="204.80" cy="338.00" r="1.2"/>
<path d="M200.60 341.00v-29.20" class="stroke"/>
<use x="197.10" y="332.00" xlink:href="#hd"/>
<circle class="fill" cx="204.80" cy="332.00" r="1.2"/>
<use x="222.70" y="338.00" xlink:href="#hd"/>
<path d="M226.20 338.00v-26.20" class="stroke"/>
<use x="222.70" y="332.00" xlink:href="#hd"/>
<use x="248.20" y="344.00" xlink:href="#Hd"/>
<path d="M251.70 344.00v-40.00" class="stroke"/>
<use x="248.20" y="332.00" xlink:href="#Hd"/>
<use x="248.20" y="323.00" xlink:href="#Hd"/>
<use x="297.70" y="344.00" xlink:href="#hd"/>
<path d="M301.20 344.00v-28.00" class="stroke"/>
<path class="fill"
	d="M301.20 316.00c0.6 5.6 9.6 9 5.6 18.4
	1.6 -6 -1.3 -11.6 -5.6 -12.8
"/>
<use x="297.70" y="335.00" xlink:href="#hd"/>
<use x="320.10" y="329.00" xlink:href="#r8"/>
<path class="fill"
	d="M348.00 310.80l26.30 0.00v3.20l-26.30 -0.00"/>
<path class="fill"
	d="M365.90 315.80l8.00 0.00v3.20l-8.00 -0.00"/>
<use x="344.80" y="338.00" xlink:href="#hd"/>
<circle class="fill" cx="352.50" cy="338.00" r="1.2"/>
<path d="M348.30 338.00v-26.20" class="stroke"/>
<use x="344.80" y="332.00" xlink:href="#hd"/>
<circle class="fill" cx="352.50" cy="332.00" r="1.2"/>
<use x="370.40" y="338.00" xlink:href="#hd"/>
<path d="M373.90 338.00v-26.20" class="stroke"/>
<use x="370.40" y="332.00" xlink:href="#hd"/>
<use x="395.50" y="341.00" xlink:href="#hd"/>
<path d="M399.00 341.00v-31.00" class="stroke"/>
<path class="fill"
	d="M399.00 310.00c0.6 5.6 9.6 9 5.6 18.4
	1.6 -6 -1.3 -11.6 -5.6 -12.8
"/>
<use x="395.50" y="329.00" xlink:href="#hd"/>
<use x="417.90" y="329.00" xlink:href="#r8"/>
<use x="442.60" y="338.00" xlink:href="#hd"/>
<path d="M446.10 338.00v-25.00" class="stroke"/>
<path class="fill"
	d="M446.10 313.00c0.6 5.6 9.6 9 5.6 18.4
	1.6 -6 -1.3 -11.6 -5.6 -12.8
"/>
<use x="442.60" y="332.00" xlink:href="#hd"/>
<use x="465.00" y="329.00" xlink:href="#r8"/>
<use x="489.80" y="347.00" xlink:href="#hl"/>
<use x="489.80" y="347.00" xlink:href="#hd"/>
<path d="M493.30 347.00v-31.00" class="stroke"/>
<path class="fill"
	d="M493.30 316.00c0.6 5.6 9.6 9 5.6 18.4
	1.6 -6 -1.3 -11.6 -5.6 -12.8
"/>
<use x="489.80" y="335.00" xlink:href="#hd"/>
<use x="512.20" y="329.00" xlink:href="#r8"/>
<use x="537.10" y="344.00" xlink:href="#hd"/>
<path d="M540.60 344.00v-25.00" class="stroke"/>
<path class="fill"
	d="M540.60 319.00c0.6 5.6 9.6 9 5.6 18.4
	1.6 -6 -1.3 -11.6 -5.6 -12.8
"/>
<use x="537.10" y="338.00" xlink:href="#hd"/>
<use x="559.60" y="329.00" xlink:href="#r8"/>
<use x="595.50" y="344.00" xlink:href="#hd"/>
<path d="M599.00 344.00v-40.00" class="stroke"/>
<use x="595.50" y="338.00" xlink:href="#hd"/>
<use x="595.50" y="323.00" xlink:href="#hd"/>
<path class="fill"
	d="M633.80 303.30l26.20 2.50v3.20l-26.20 -2.50"/>
<path class="fill"
	d="M651.70 310.00l8.00 0.80v3.20l-8.00 -0.80"/>
<use x="630.70" y="344.00" xlink:href="#hd"/>
<circle class="fill" cx="638.40" cy="344.00" r="1.2"/>
<path d="M634.20 344.00v-39.70" class="stroke"/>
<use x="630.70" y="338.00" xlink:href="#hd"/>
<circle class="fill" cx="638.40" cy="338.00" r="1.2"/>
<use x="630.70" y="323.00" xlink:href="#hd"/>
<circle class="fill" cx="638.40" cy="320.00" r="1.2"/>
<use x="656.20" y="341.00" xlink:href="#hd"/>
<path d="M659.70 341.00v-34.30" class="stroke"/>
<use x="656.20" y="326.00" xlink:href="#hd"/>
<use x="673.80" y="341.00" xlink:href="#hd"/>
<path d="M677.30 341.00v-34.00" class="stroke"/>
<use x="673.80" y="326.00" xlink:href="#hd"/>
<use x="708.90" y="341.00" xlink:href="#hd"/>
<path d="M712.40 341.00v-34.00" class="stroke"/>
<path class="fill"
	d="M712.40 307.00c0.6 5.6 9.6 9 5.6 18.4
	1.6 -6 -1.3 -11.6 -5.6 -12.8
"/>
<use x="708.90" y="326.00" xlink:href="#hd"/>
<use x="731.30" y="329.00" xlink:href="#r8"/>
<path class="fill"
	d="M165.50 341.00c4.43 5.01 23.69 5.01 28.12 -0.00
	v0.23c-5.27 6.78 -22.85 6.78 -28.12 -0.23"/>
<path class="fill"
	d="M165.50 332.00c4.43 -5.01 23.69 -5.01 28.12 -0.00
	v-0.23c-5.27 -6.78 -22.85 -6.78 -28.12 0.23"/>
<path class="fill"
	d="M251.70 344.00c6.65 5.26 35.85 5.26 42.50 -0.00
	v0.24c-7.92 7.02 -34.58 7.02 -42.50 -0.24"/>
<path class="fill"
	d="M599.00 344.00c4.43 5.01 23.69 5.01 28.12 -0.00
	v0.23c-5.27 6.78 -22.85 6.78 -28.12 -0.23"/>
<path class="fill"
	d="M599.00 338.00c4.43 5.01 23.69 5.01 28.12 -0.00
	v0.23c-5.27 6.78 -22.85 6.78 -28.12 -0.23"/>
<path class="fill"
	d="M599.00 323.00c4.43 -5.01 23.69 -5.01 28.12 -0.00
	v-0.23c-5.27 -6.78 -22.85 -6.78 -28.12 0.23"/>
<path class="fill"
	d="M677.30 341.00c4.43 5.01 23.69 5.01 28.12 -0.00
	v0.23c-5.27 6.78 -22.85 6.78 -28.12 -0.23"/>
<path class="fill"
	d="M677.30 326.00c4.43 -5.01 23.69 -5.01 28.12 -0.00
	v-0.23c-5.27 -6.78 -22.85 -6.78 -28.12 0.23"/>
<use x="79.20" y="381.00" xlink:href="#bclef"/>
<use x="94.20" y="393.00" xlink:href="#ft0"/>
<use x="112.70" y="369.00" xlink:href="#hl"/>
<use x="112.70" y="366.00" xlink:href="#Hd"/>
<path d="M109.20 366.00v21.00" class="stroke"/>
<use x="162.00" y="369.00" xlink:href="#hl"/>
<use x="162.00" y="369.00" xlink:href="#hd"/>
<path d="M158.50 369.00v21.00" class="stroke"/>
<path class="fill"
	d="M193.30 393.20l26.30 0.00v-3.20l-26.30 -0.00"/>
<path class="fill"
	d="M211.20 388.20l8.00 0.00v-3.20l-8.00 -0.00"/>
<use x="197.10" y="369.00" xlink:href="#hl"/>
<use x="197.10" y="369.00" xlink:href="#hd"/>
<circle class="fill" cx="204.80" cy="366.00" r="1.2"/>
<path d="M193.60 369.00v23.20" class="stroke"/>
<use x="222.70" y="369.00" xlink:href="#hl"/>
<use x="222.70" y="369.00" xlink:href="#hd"/>
<path d="M219.20 369.00v23.20" class="stroke"/>
<use x="248.20" y="372.00" xlink:href="#Hd"/>
<path d="M244.70 372.00v21.00" class="stroke"/>
<use x="297.70" y="372.00" xlink:href="#hd"/>
<path d="M294.20 372.00v21.00" class="stroke"/>
<path class="fill"
	d="M294.20 393.00c0.6 -5.6 9.6 -9 5.6 -18.4
	1.6 6 -1.3 11.6 -5.6 12.8
"/>
<use x="320.10" y="387.00" xlink:href="#r8"/>
<path class="fill"
	d="M341.00 394.90l26.30 0.00v-3.20l-26.30 -0.00"/>
<path class="fill"
	d="M358.90 389.90l8.00 0.00v-3.20l-8.00 -0.00"/>
<use x="344.80" y="369.00" xlink:href="#hl"/>
<use x="344.80" y="369.00" xlink:href="#hd"/>
<circle class="fill" cx="352.50" cy="366.00" r="1.2"/>
<path d="M341.30 369.00v24.90" class="stroke"/>
<use x="344.80" y="375.00" xlink:href="#hd"/>
<circle class="fill" cx="352.50" cy="372.00" r="1.2"/>
<use x="370.40" y="369.00" xlink:href="#hl"/>
<use x="370.40" y="369.00" xlink:href="#hd"/>
<path d="M366.90 369.00v24.90" class="stroke"/>
<use x="370.40" y="375.00" xlink:href="#hd"/>
<use x="395.50" y="369.00" xlink:href="#hl"/>
<use x="395.50" y="369.00" xlink:href="#hd"/>
<path d="M392.00 369.00v28.00" class="stroke"/>
<path class="fill"
	d="M392.00 397.00c0.6 -5.6 9.6 -9 5.6 -18.4
	1.6 6 -1.3 11.6 -5.6 12.8
"/>
<use x="395.50" y="378.00" xlink:href="#hd"/>
<use x="417.90" y="387.00" xlink:href="#r8"/>
<use x="442.60" y="369.00" xlink:href="#hl"/>
<use x="442.60" y="369.00" xlink:href="#hd"/>
<path d="M439.10 369.00v31.00" class="stroke"/>
<path class="fill"
	d="M439.10 400.00c0.6 -5.6 9.6 -9 5.6 -18.4
	1.6 6 -1.3 11.6 -5.6 12.8
"/>
<use x="442.60" y="381.00" xlink:href="#hd"/>
<use x="465.00" y="387.00" xlink:href="#r8"/>
<use x="489.80" y="378.00" xlink:href="#hd"/>
<path d="M486.30 378.00v25.00" class="stroke"/>
<path class="fill"
	d="M486.30 403.00c0.6 -5.6 9.6 -9 5.6 -18.4
	1.6 6 -1.3 11.6 -5.6 12.8
"/>
<use x="489.80" y="384.00" xlink:href="#hd"/>
<use x="512.20" y="387.00" xlink:href="#r8"/>
<use x="537.10" y="372.00" xlink:href="#hd"/>
<defs>
<path id="unat" class="fill" d="
	m96 -750
	h-32
	v716
	l32 -8
	182 -54
	v282
	h32
	v-706
	l-34 10
	-180 50
	v-290
	m0 592
	v-190
	l182 -52
	v188"/>
<use id="nt0" transform="translate(-3,5) scale(0.018)"
	xlink:href="#unat"/>
</defs>
<use x="528.10" y="372.00" xlink:href="#nt0"/>
<path d="M533.60 372.00v25.00" class="stroke"/>
<path class="fill"
	d="M533.60 397.00c0.6 -5.6 9.6 -9 5.6 -18.4
	1.6 6 -1.3 11.6 -5.6 12.8
"/>
<use x="537.10" y="378.00" xlink:href="#hd"/>
<use x="559.60" y="387.00" xlink:href="#r8"/>
<use x="595.50" y="372.00" xlink:href="#hd"/>
<use x="586.50" y="372.00" xlink:href="#nt0"/>
<path d="M592.00 372.00v25.00" class="stroke"/>
<use x="595.50" y="378.00" xlink:href="#hd"/>
<path class="fill"
	d="M626.80 401.90l26.20 6.40v-3.20l-26.20 -6.40"/>
<path class="fill"
	d="M644.70 401.30l8.00 1.90v-3.20l-8.00 -1.90"/>
<use x="630.70" y="372.00" xlink:href="#hd"/>
<circle class="fill" cx="638.40" cy="372.00" r="1.2"/>
<path d="M627.20 372.00v29.00" class="stroke"/>
<use x="630.70" y="378.00" xlink:href="#hd"/>
<circle class="fill" cx="638.40" cy="378.00" r="1.2"/>
<use x="656.20" y="369.00" xlink:href="#hl"/>
<use x="656.20" y="369.00" xlink:href="#hd"/>
<path d="M652.70 369.00v38.20" class="stroke"/>
<use x="656.20" y="390.00" xlink:href="#hd"/>
<use x="656.20" y="378.00" xlink:href="#hd"/>
<use x="673.80" y="369.00" xlink:href="#hl"/>
<use x="673.80" y="369.00" xlink:href="#hd"/>
<path d="M670.30 369.00v40.00" class="stroke"/>
<use x="673.80" y="390.00" xlink:href="#hd"/>
<use x="673.80" y="378.00" xlink:href="#hd"/>
<use x="708.90" y="369.00" xlink:href="#hl"/>
<use x="708.90" y="369.00" xlink:href="#hd"/>
<path d="M705.40 369.00v40.00" class="stroke"/>
<path class="fill"
	d="M705.40 409.00c0.6 -5.6 9.6 -9 5.6 -18.4
	1.6 6 -1.3 11.6 -5.6 12.8
"/>
<use x="708.90" y="390.00" xlink:href="#hd"/>
<use x="708.90" y="378.00" xlink:href="#hd"/>
<use x="731.30" y="387.00" xlink:href="#r8"/>
<path class="fill"
	d="M165.50 369.00c4.43 -5.01 23.69 -5.01 28.12 -0.00
	v-0.23c-5.27 -6.78 -22.85 -6.78 -28.12 0.23"/>
<path class="fill"
	d="M251.70 372.00c6.65 -5.26 35.85 -5.26 42.50 -0.00
	v-0.24c-7.92 -7.02 -34.58 -7.02 -42.50 0.24"/>
<path class="fill"
	d="M599.00 378.00c4.43 5.01 23.69 5.01 28.12 -0.00
	v0.23c-5.27 6.78 -22.85 6.78 -28.12 -0.23"/>
<path class="fill"
	d="M599.00 372.00c4.43 -5.01 23.69 -5.01 28.12 -0.00
	v-0.23c-5.27 -6.78 -22.85 -6.78 -28.12 0.23"/>
<path class="fill"
	d="M677.30 390.00c4.43 5.01 23.69 5.01 28.12 -0.00
	v0.23c-5.27 6.78 -22.85 6.78 -28.12 -0.23"/>
<path class="fill"
	d="M677.30 378.00c4.43 -5.01 23.69 -5.01 28.12 -0.00
	v-0.23c-5.27 -6.78 -22.85 -6.78 -28.12 0.23"/>
<path class="fill"
	d="M677.30 369.00c4.43 -5.01 23.69 -5.01 28.12 -0.00
	v-0.23c-5.27 -6.78 -22.85 -6.78 -28.12 0.23"/>
</g>
<g stroke-width="0.70" font-family="serif" font-size="15.00" font-weight="bold">
<path class="stroke" stroke-width="1"
	d="M67.20 527.00v-82.00"/>
<g transform="translate(67.20,445.00) scale(1,0.82)">
	<use xlink:href="#brace"/>
</g>
<path class="stroke" stroke-width="1"
	d="M238.10 469.00v-24.00"/>
<path class="stroke" stroke-width="1"
	d="M238.10 527.00v-58.00"/>
<path class="stroke" stroke-width="1"
	d="M376.50 469.00v-24.00"/>
<path class="stroke" stroke-width="1"
	d="M376.50 527.00v-58.00"/>
<path class="stroke" stroke-width="1"
	d="M572.60 469.00v-24.00"/>
<path class="stroke" stroke-width="1"
	d="M572.60 527.00v-58.00"/>
<path class="stroke" stroke-width="1"
	d="M748.80 469.00v-24.00"/>
<path class="stroke" stroke-width="1"
	d="M748.80 527.00v-58.00"/>
<path d="m67.20 469.00
	h681.60
	M67.20 463.00
	h681.60
	M67.20 457.00
	h681.60
	M67.20 451.00
	h681.60
	M67.20 445.00
	h681.60
	" class="stroke"/>
<path d="m67.20 527.00
	h681.60
	M67.20 521.00
	h681.60
	M67.20 515.00
	h681.60
	M67.20 509.00
	h681.60
	M67.20 503.00
	h681.60
	" class="stroke"/>
<use x="79.20" y="463.00" xlink:href="#tclef"/>
<use x="94.20" y="457.00" xlink:href="#ft0"/>
<use x="112.70" y="460.00" xlink:href="#Hd"/>
<path d="M116.20 460.00v-25.00" class="stroke"/>
<use x="112.70" y="454.00" xlink:href="#Hd"/>
<use x="163.40" y="463.00" xlink:href="#hd"/>
<path d="M166.90 463.00v-28.00" class="stroke"/>
<use x="163.40" y="454.00" xlink:href="#hd"/>
<path class="fill"
	d="M202.50 434.00l26.80 0.00v3.20l-26.80 -0.00"/>
<path class="fill"
	d="M220.90 439.00l8.00 0.00v3.20l-8.00 -0.00"/>
<use x="199.30" y="463.00" xlink:href="#hd"/>
<circle class="fill" cx="207.00" cy="460.00" r="1.2"/>
<path d="M202.80 463.00v-28.00" class="stroke"/>
<use x="199.30" y="454.00" xlink:href="#hd"/>
<circle class="fill" cx="207.00" cy="454.00" r="1.2"/>
<use x="225.40" y="463.00" xlink:href="#hd"/>
<path d="M228.90 463.00v-28.00" class="stroke"/>
<use x="225.40" y="454.00" xlink:href="#hd"/>
<use x="251.10" y="445.00" xlink:href="#Hd"/>
<path d="M247.60 445.00v40.00" class="stroke"/>
<use x="251.10" y="466.00" xlink:href="#Hd"/>
<use x="251.10" y="454.00" xlink:href="#Hd"/>
<use x="301.80" y="466.00" xlink:href="#hd"/>
<path d="M305.30 466.00v-28.00" class="stroke"/>
<use x="301.80" y="457.00" xlink:href="#hd"/>
<path class="fill"
	d="M340.90 437.00l26.80 0.00v3.20l-26.80 -0.00"/>
<path class="fill"
	d="M359.30 442.00l8.00 0.00v3.20l-8.00 -0.00"/>
<use x="337.70" y="466.00" xlink:href="#hd"/>
<circle class="fill" cx="345.40" cy="466.00" r="1.2"/>
<path d="M341.20 466.00v-28.00" class="stroke"/>
<use x="337.70" y="457.00" xlink:href="#hd"/>
<circle class="fill" cx="345.40" cy="454.00" r="1.2"/>
<use x="363.80" y="466.00" xlink:href="#hd"/>
<path d="M367.30 466.00v-28.00" class="stroke"/>
<use x="363.80" y="457.00" xlink:href="#hd"/>
<use x="389.30" y="469.00" xlink:href="#hd"/>
<path d="M392.80 469.00v-31.00" class="stroke"/>
<path class="fill"
	d="M392.80 438.00c0.6 5.6 9.6 9 5.6 18.4
	1.6 -6 -1.3 -11.6 -5.6 -12.8
"/>
<use x="389.30" y="457.00" xlink:href="#hd"/>
<use x="412.20" y="457.00" xlink:href="#r8"/>
<use x="437.60" y="466.00" xlink:href="#hd"/>
<path d="M441.10 466.00v-25.00" class="stroke"/>
<path class="fill"
	d="M441.10 441.00c0.6 5.6 9.6 9 5.6 18.4
	1.6 -6 -1.3 -11.6 -5.6 -12.8
"/>
<use x="437.60" y="460.00" xlink:href="#hd"/>
<use x="460.50" y="457.00" xlink:href="#r8"/>
<use x="486.00" y="475.00" xlink:href="#hl"/>
<use x="486.00" y="475.00" xlink:href="#hd"/>
<path d="M489.50 475.00v-31.00" class="stroke"/>
<path class="fill"
	d="M489.50 444.00c0.6 5.6 9.6 9 5.6 18.4
	1.6 -6 -1.3 -11.6 -5.6 -12.8
"/>
<use x="486.00" y="469.00" xlink:href="#hd"/>
<use x="486.00" y="463.00" xlink:href="#hd"/>
<use x="508.90" y="457.00" xlink:href="#r8"/>
<use x="531.80" y="475.00" xlink:href="#hl"/>
<use x="531.80" y="475.00" xlink:href="#hd"/>
<path d="M535.30 475.00v-28.00" class="stroke"/>
<path class="fill"
	d="M535.30 447.00c0.6 5.6 9.6 9 5.6 18.4
	1.6 -6 -1.3 -11.6 -5.6 -12.8
"/>
<use x="531.80" y="466.00" xlink:href="#hd"/>
<use x="554.70" y="457.00" xlink:href="#r8"/>
<use x="585.40" y="475.00" xlink:href="#hl"/>
<use x="585.40" y="475.00" xlink:href="#hd"/>
<circle class="fill" cx="593.10" cy="472.00" r="1.2"/>
<path d="M588.90 475.00v-40.00" class="stroke"/>
<use x="585.40" y="469.00" xlink:href="#hd"/>
<circle class="fill" cx="593.10" cy="466.00" r="1.2"/>
<use x="585.40" y="454.00" xlink:href="#hd"/>
<circle class="fill" cx="593.10" cy="454.00" r="1.2"/>
<use x="646.60" y="475.00" xlink:href="#hl"/>
<use x="646.60" y="475.00" xlink:href="#hd"/>
<path d="M650.10 475.00v-37.00" class="stroke"/>
<path class="fill"
	d="M650.10 438.00c0.6 5.6 9.6 9 5.6 18.4
	1.6 -6 -1.3 -11.6 -5.6 -12.8
"/>
<use x="646.60" y="466.00" xlink:href="#hd"/>
<use x="646.60" y="457.00" xlink:href="#hd"/>
<use x="672.10" y="475.00" xlink:href="#hl"/>
<use x="672.10" y="475.00" xlink:href="#hd"/>
<path d="M675.60 475.00v-34.00" class="stroke"/>
<use x="672.10" y="466.00" xlink:href="#hd"/>
<use x="672.10" y="460.00" xlink:href="#hd"/>
<use x="708.00" y="475.00" xlink:href="#hl"/>
<use x="708.00" y="475.00" xlink:href="#hd"/>
<path d="M711.50 475.00v-34.00" class="stroke"/>
<path class="fill"
	d="M711.50 441.00c0.6 5.6 9.6 9 5.6 18.4
	1.6 -6 -1.3 -11.6 -5.6 -12.8
"/>
<use x="708.00" y="466.00" xlink:href="#hd"/>
<use x="708.00" y="460.00" xlink:href="#hd"/>
<use x="730.90" y="457.00" xlink:href="#r8"/>
<path class="fill"
	d="M166.90 463.00c4.56 5.02 24.40 5.02 28.96 -0.00
	v0.23c-5.43 6.79 -23.53 6.79 -28.96 -0.23"/>
<path class="fill"
	d="M166.90 454.00c4.56 -5.02 24.40 -5.02 28.96 -0.00
	v-0.23c-5.43 -6.79 -23.53 -6.79 -28.96 0.23"/>
<path class="fill"
	d="M305.30 466.00c4.56 5.02 24.40 5.02 28.96 -0.00
	v0.23c-5.43 6.79 -23.53 6.79 -28.96 -0.23"/>
<path class="fill"
	d="M305.30 457.00c4.56 -5.02 24.40 -5.02 28.96 -0.00
	v-0.23c-5.43 -6.79 -23.53 -6.79 -28.96 0.23"/>
<path class="fill"
	d="M675.60 475.00c4.56 5.02 24.40 5.02 28.96 -0.00
	v0.23c-5.43 6.79 -23.53 6.79 -28.96 -0.23"/>
<path class="fill"
	d="M675.60 466.00c4.56 5.02 24.40 5.02 28.96 -0.00
	v0.23c-5.43 6.79 -23.53 6.79 -28.96 -0.23"/>
<path class="fill"
	d="M675.60 460.00c4.56 -5.02 24.40 -5.02 28.96 -0.00
	v-0.23c-5.43 -6.79 -23.53 -6.79 -28.96 0.23"/>
<use x="79.20" y="509.00" xlink:href="#bclef"/>
<use x="94.20" y="521.00" xlink:href="#ft0"/>
<use x="112.70" y="497.00" xlink:href="#hl"/>
<use x="112.70" y="497.00" xlink:href="#Hd"/>
<path d="M109.20 497.00v31.00" class="stroke"/>
<use x="112.70" y="509.00" xlink:href="#Hd"/>
<use x="112.70" y="503.00" xlink:href="#Hd"/>
<use x="163.40" y="497.00" xlink:href="#hl"/>
<use x="163.40" y="497.00" xlink:href="#hd"/>
<path d="M159.90 497.00v34.00" class="stroke"/>
<use x="163.40" y="512.00" xlink:href="#hd"/>
<use x="163.40" y="506.00" xlink:href="#hd"/>
<path class="fill"
	d="M195.50 533.20l26.80 0.00v-3.20l-26.80 -0.00"/>
<path class="fill"
	d="M213.90 528.20l8.00 0.00v-3.20l-8.00 -0.00"/>
<use x="199.30" y="497.00" xlink:href="#hl"/>
<use x="199.30" y="497.00" xlink:href="#hd"/>
<circle class="fill" cx="207.00" cy="494.00" r="1.2"/>
<path d="M195.80 497.00v35.20" class="stroke"/>
<use x="199.30" y="512.00" xlink:href="#hd"/>
<circle class="fill" cx="207.00" cy="512.00" r="1.2"/>
<use x="199.30" y="506.00" xlink:href="#hd"/>
<circle class="fill" cx="207.00" cy="506.00" r="1.2"/>
<use x="225.40" y="497.00" xlink:href="#hl"/>
<use x="225.40" y="497.00" xlink:href="#hd"/>
<path d="M221.90 497.00v35.20" class="stroke"/>
<use x="225.40" y="512.00" xlink:href="#hd"/>
<use x="225.40" y="506.00" xlink:href="#hd"/>
<use x="251.10" y="497.00" xlink:href="#hl"/>
<use x="251.10" y="497.00" xlink:href="#Hd"/>
<path d="M247.60 497.00v37.00" class="stroke"/>
<use x="251.10" y="515.00" xlink:href="#Hd"/>
<use x="251.10" y="509.00" xlink:href="#Hd"/>
<use x="301.80" y="500.00" xlink:href="#hd"/>
<path d="M298.30 500.00v34.00" class="stroke"/>
<use x="301.80" y="515.00" xlink:href="#hd"/>
<use x="301.80" y="509.00" xlink:href="#hd"/>
<path class="fill"
	d="M333.90 534.90l26.80 0.00v-3.20l-26.80 -0.00"/>
<path class="fill"
	d="M352.30 529.90l8.00 0.00v-3.20l-8.00 -0.00"/>
<use x="337.70" y="500.00" xlink:href="#hd"/>
<circle class="fill" cx="345.40" cy="500.00" r="1.2"/>
<path d="M334.20 500.00v33.90" class="stroke"/>
<use x="337.70" y="515.00" xlink:href="#hd"/>
<circle class="fill" cx="345.40" cy="512.00" r="1.2"/>
<use x="337.70" y="509.00" xlink:href="#hd"/>
<circle class="fill" cx="345.40" cy="506.00" r="1.2"/>
<use x="363.80" y="500.00" xlink:href="#hd"/>
<path d="M360.30 500.00v33.90" class="stroke"/>
<use x="363.80" y="515.00" xlink:href="#hd"/>
<use x="363.80" y="509.00" xlink:href="#hd"/>
<use x="389.30" y="500.00" xlink:href="#hd"/>
<path d="M385.80 500.00v37.00" class="stroke"/>
<path class="fill"
	d="M385.80 537.00c0.6 -5.6 9.6 -9 5.6 -18.4
	1.6 6 -1.3 11.6 -5.6 12.8
"/>
<use x="389.30" y="518.00" xlink:href="#hd"/>
<use x="389.30" y="506.00" xlink:href="#hd"/>
<use x="412.20" y="515.00" xlink:href="#r8"/>
<use x="437.60" y="503.00" xlink:href="#hd"/>
<path d="M434.10 503.00v34.00" class="stroke"/>
<path class="fill"
	d="M434.10 537.00c0.6 -5.6 9.6 -9 5.6 -18.4
	1.6 6 -1.3 11.6 -5.6 12.8
"/>
<use x="437.60" y="518.00" xlink:href="#hd"/>
<use x="437.60" y="509.00" xlink:href="#hd"/>
<use x="460.50" y="515.00" xlink:href="#r8"/>
<use x="486.00" y="506.00" xlink:href="#hd"/>
<path d="M482.50 506.00v34.00" class="stroke"/>
<path class="fill"
	d="M482.50 540.00c0.6 -5.6 9.6 -9 5.6 -18.4
	1.6 6 -1.3 11.6 -5.6 12.8
"/>
<use x="479.00" y="521.00" xlink:href="#hd"/>
<use x="486.00" y="518.00" xlink:href="#hd"/>
<use x="508.90" y="515.00" xlink:href="#r8"/>
<use x="531.80" y="524.00" xlink:href="#hd"/>
<path d="M535.30 524.00v-34.00" class="stroke"/>
<path class="fill"
	d="M535.30 490.00c0.6 5.6 9.6 9 5.6 18.4
	1.6 -6 -1.3 -11.6 -5.6 -12.8
"/>
<use x="531.80" y="518.00" xlink:href="#hd"/>
<use x="531.80" y="509.00" xlink:href="#hd"/>
<use x="554.70" y="515.00" xlink:href="#r8"/>
<use x="585.40" y="527.00" xlink:href="#hd"/>
<path d="M588.90 527.00v-40.00" class="stroke"/>
<use x="585.40" y="518.00" xlink:href="#hd"/>
<use x="585.40" y="506.00" xlink:href="#hd"/>
<use x="621.20" y="533.00" xlink:href="#hl"/>
<use x="621.20" y="539.00" xlink:href="#hl"/>
<use x="621.20" y="539.00" xlink:href="#hd"/>
<path d="M624.70 539.00v-40.00" class="stroke"/>
<use x="621.20" y="518.00" xlink:href="#hd"/>
<use x="672.10" y="530.00" xlink:href="#hd"/>
<path d="M675.60 530.00v-40.00" class="stroke"/>
<use x="672.10" y="518.00" xlink:href="#hd"/>
<use x="672.10" y="509.00" xlink:href="#hd"/>
<use x="708.00" y="530.00" xlink:href="#hd"/>
<path d="M711.50 530.00v-40.00" class="stroke"/>
<path class="fill"
	d="M711.50 490.00c0.6 5.6 9.6 9 5.6 18.4
	1.6 -6 -1.3 -11.6 -5.6 -12.8
"/>
<use x="708.00" y="518.00" xlink:href="#hd"/>
<use x="708.00" y="509.00" xlink:href="#hd"/>
<use x="730.90" y="515.00" xlink:href="#r8"/>
<path class="fill"
	d="M166.90 512.00c4.56 5.02 24.40 5.02 28.96 -0.00
	v0.23c-5.43 6.79 -23.53 6.79 -28.96 -0.23"/>
<path class="fill"
	d="M166.90 506.00c4.56 -5.02 24.40 -5.02 28.96 -0.00
	v-0.23c-5.43 -6.79 -23.53 -6.79 -28.96 0.23"/>
<path class="fill"
	d="M166.90 497.00c4.56 -5.02 24.40 -5.02 28.96 -0.00
	v-0.23c-5.43 -6.79 -23.53 -6.79 -28.96 0.23"/>
<path class="fill"
	d="M305.30 515.00c4.56 5.02 24.40 5.02 28.96 -0.00
	v0.23c-5.43 6.79 -23.53 6.79 -28.96 -0.23"/>
<path class="fill"
	d="M305.30 509.00c4.56 -5.02 24.40 -5.02 28.96 -0.00
	v-0.23c-5.43 -6.79 -23.53 -6.79 -28.96 0.23"/>
<path class="fill"
	d="M305.30 500.00c4.56 -5.02 24.40 -5.02 28.96 -0.00
	v-0.23c-5.43 -6.79 -23.53 -6.79 -28.96 0.23"/>
<path class="fill"
	d="M675.60 530.00c4.56 5.02 24.40 5.02 28.96 -0.00
	v0.23c-5.43 6.79 -23.53 6.79 -28.96 -0.23"/>
<path class="fill"
	d="M675.60 518.00c4.56 5.02 24.40 5.02 28.96 -0.00
	v0.23c-5.43 6.79 -23.53 6.79 -28.96 -0.23"/>
<path class="fill"
	d="M675.60 509.00c4.56 -5.02 24.40 -5.02 28.96 -0.00
	v-0.23c-5.43 -6.79 -23.53 -6.79 -28.96 0.23"/>
<text font-family="serif" font-size="16" font-weight="bold" font-style="italic"
	x="111.70" y="480.40">f</text>
</g>
<g stroke-width="0.70" font-family="serif" font-size="15.00" font-weight="bold">
<path class="stroke" stroke-width="1"
	d="M67.20 656.00v-83.00"/>
<g transform="translate(67.20,573.00) scale(1,0.83)">
	<use xlink:href="#brace"/>
</g>
<path class="stroke" stroke-width="1"
	d="M236.60 597.00v-24.00"/>
<path class="stroke" stroke-width="1"
	d="M236.60 656.00v-59.00"/>
<path class="stroke" stroke-width="1"
	d="M386.00 597.00v-24.00"/>
<path class="stroke" stroke-width="1"
	d="M386.00 656.00v-59.00"/>
<path class="stroke" stroke-width="1"
	d="M575.10 597.00v-24.00"/>
<path class="stroke" stroke-width="1"
	d="M575.10 656.00v-59.00"/>
<path class="stroke" stroke-width="1"
	d="M748.80 597.00v-24.00"/>
<path class="stroke" stroke-width="1"
	d="M748.80 656.00v-59.00"/>
<path d="m67.20 597.00
	h681.60
	M67.20 591.00
	h681.60
	M67.20 585.00
	h681.60
	M67.20 579.00
	h681.60
	M67.20 573.00
	h681.60
	" class="stroke"/>
<path d="m67.20 656.00
	h681.60
	M67.20 650.00
	h681.60
	M67.20 644.00
	h681.60
	M67.20 638.00
	h681.60
	M67.20 632.00
	h681.60
	" class="stroke"/>
<path class="fill"
	d="M249.60 584.00c7.14 5.71 39.01 12.34 46.15 9.60
	v0.25c-8.53 4.49 -37.63 -2.14 -46.15 -9.85"/>
<path class="fill"
	d="M251.10 627.90c7.47 -3.93 41.18 -2.48 48.65 2.10
	v-0.25c-8.93 -6.33 -39.72 -7.79 -48.65 -1.85"/>
<use x="79.20" y="591.00" xlink:href="#tclef"/>
<use x="94.20" y="585.00" xlink:href="#ft0"/>
<use x="112.70" y="594.00" xlink:href="#Hd"/>
<path d="M116.20 594.00v-25.00" class="stroke"/>
<use x="112.70" y="588.00" xlink:href="#Hd"/>
<use x="162.60" y="597.00" xlink:href="#hd"/>
<path d="M166.10 597.00v-28.00" class="stroke"/>
<use x="162.60" y="588.00" xlink:href="#hd"/>
<path class="fill"
	d="M201.30 566.80l26.50 0.00v3.20l-26.50 -0.00"/>
<path class="fill"
	d="M219.50 571.80l8.00 0.00v3.20l-8.00 -0.00"/>
<use x="198.20" y="597.00" xlink:href="#hd"/>
<circle class="fill" cx="205.90" cy="594.00" r="1.2"/>
<path d="M201.70 597.00v-29.20" class="stroke"/>
<use x="198.20" y="588.00" xlink:href="#hd"/>
<circle class="fill" cx="205.90" cy="588.00" r="1.2"/>
<use x="224.00" y="594.00" xlink:href="#hd"/>
<path d="M227.50 594.00v-26.20" class="stroke"/>
<use x="224.00" y="588.00" xlink:href="#hd"/>
<use x="249.60" y="600.00" xlink:href="#Hd"/>
<path d="M253.10 600.00v-40.00" class="stroke"/>
<use x="249.60" y="588.00" xlink:href="#Hd"/>
<use x="249.60" y="579.00" xlink:href="#Hd"/>
<use x="299.80" y="600.00" xlink:href="#hd"/>
<path d="M303.30 600.00v-28.00" class="stroke"/>
<path class="fill"
	d="M303.30 572.00c0.6 5.6 9.6 9 5.6 18.4
	1.6 -6 -1.3 -11.6 -5.6 -12.8
"/>
<use x="299.80" y="591.00" xlink:href="#hd"/>
<use x="322.50" y="585.00" xlink:href="#r8"/>
<path class="fill"
	d="M350.70 566.80l26.60 0.00v3.20l-26.60 -0.00"/>
<path class="fill"
	d="M368.90 571.80l8.00 0.00v3.20l-8.00 -0.00"/>
<use x="347.50" y="603.00" xlink:href="#hl"/>
<use x="347.50" y="603.00" xlink:href="#hd"/>
<circle class="fill" cx="355.20" cy="600.00" r="1.2"/>
<path d="M351.00 603.00v-35.20" class="stroke"/>
<use x="347.50" y="594.00" xlink:href="#hd"/>
<circle class="fill" cx="355.20" cy="594.00" r="1.2"/>
<use x="347.50" y="588.00" xlink:href="#hd"/>
<circle class="fill" cx="355.20" cy="588.00" r="1.2"/>
<use x="373.40" y="603.00" xlink:href="#hl"/>
<use x="373.40" y="603.00" xlink:href="#hd"/>
<path d="M376.90 603.00v-35.20" class="stroke"/>
<use x="373.40" y="594.00" xlink:href="#hd"/>
<use x="373.40" y="588.00" xlink:href="#hd"/>
<use x="398.70" y="603.00" xlink:href="#hl"/>
<use x="398.70" y="603.00" xlink:href="#hd"/>
<path d="M402.20 603.00v-37.00" class="stroke"/>
<path class="fill"
	d="M402.20 566.00c0.6 5.6 9.6 9 5.6 18.4
	1.6 -6 -1.3 -11.6 -5.6 -12.8
"/>
<use x="398.70" y="597.00" xlink:href="#hd"/>
<use x="398.70" y="585.00" xlink:href="#hd"/>
<use x="421.40" y="585.00" xlink:href="#r8"/>
<use x="444.00" y="603.00" xlink:href="#hl"/>
<use x="444.00" y="603.00" xlink:href="#hd"/>
<path d="M447.50 603.00v-34.00" class="stroke"/>
<path class="fill"
	d="M447.50 569.00c0.6 5.6 9.6 9 5.6 18.4
	1.6 -6 -1.3 -11.6 -5.6 -12.8
"/>
<use x="444.00" y="594.00" xlink:href="#hd"/>
<use x="444.00" y="588.00" xlink:href="#hd"/>
<use x="466.70" y="585.00" xlink:href="#r8"/>
<use x="489.30" y="603.00" xlink:href="#hl"/>
<use x="489.30" y="609.00" xlink:href="#hl"/>
<use x="489.30" y="612.00" xlink:href="#hd"/>
<path d="M492.80 612.00v-40.00" class="stroke"/>
<path class="fill"
	d="M492.80 572.00c0.6 5.6 9.6 9 5.6 18.4
	1.6 -6 -1.3 -11.6 -5.6 -12.8
"/>
<use x="489.30" y="603.00" xlink:href="#hd"/>
<use x="489.30" y="591.00" xlink:href="#hd"/>
<use x="512.00" y="585.00" xlink:href="#r8"/>
<use x="534.70" y="603.00" xlink:href="#hl"/>
<use x="534.70" y="609.00" xlink:href="#hl"/>
<use x="534.70" y="612.00" xlink:href="#hd"/>
<path d="M538.20 612.00v-37.00" class="stroke"/>
<path class="fill"
	d="M538.20 575.00c0.6 5.6 9.6 9 5.6 18.4
	1.6 -6 -1.3 -11.6 -5.6 -12.8
"/>
<use x="534.70" y="606.00" xlink:href="#hd"/>
<use x="525.70" y="606.00" xlink:href="#nt0"/>
<use x="534.70" y="594.00" xlink:href="#hd"/>
<use x="557.40" y="585.00" xlink:href="#r8"/>
<use x="593.60" y="600.00" xlink:href="#hd"/>
<path d="M597.10 600.00v-40.00" class="stroke"/>
<use x="593.60" y="594.00" xlink:href="#hd"/>
<use x="593.60" y="585.00" xlink:href="#hd"/>
<use x="584.60" y="585.00" xlink:href="#nt0"/>
<use x="593.60" y="579.00" xlink:href="#hd"/>
<path class="fill"
	d="M632.40 559.30l26.50 2.50v3.20l-26.50 -2.50"/>
<path class="fill"
	d="M650.50 566.00l8.00 0.80v3.20l-8.00 -0.80"/>
<use x="629.20" y="600.00" xlink:href="#hd"/>
<circle class="fill" cx="636.90" cy="600.00" r="1.2"/>
<path d="M632.70 600.00v-39.70" class="stroke"/>
<use x="629.20" y="594.00" xlink:href="#hd"/>
<circle class="fill" cx="636.90" cy="594.00" r="1.2"/>
<use x="629.20" y="585.00" xlink:href="#hd"/>
<circle class="fill" cx="636.90" cy="582.00" r="1.2"/>
<use x="629.20" y="579.00" xlink:href="#hd"/>
<circle class="fill" cx="636.90" cy="576.00" r="1.2"/>
<use x="655.00" y="603.00" xlink:href="#hl"/>
<use x="655.00" y="603.00" xlink:href="#hd"/>
<path d="M658.50 603.00v-40.30" class="stroke"/>
<use x="655.00" y="597.00" xlink:href="#hd"/>
<use x="655.00" y="582.00" xlink:href="#hd"/>
<use x="672.90" y="603.00" xlink:href="#hl"/>
<use x="672.90" y="603.00" xlink:href="#hd"/>
<path d="M676.40 603.00v-40.00" class="stroke"/>
<use x="672.90" y="597.00" xlink:href="#hd"/>
<use x="672.90" y="582.00" xlink:href="#hd"/>
<use x="708.40" y="603.00" xlink:href="#hl"/>
<use x="708.40" y="603.00" xlink:href="#hd"/>
<path d="M711.90 603.00v-40.00" class="stroke"/>
<path class="fill"
	d="M711.90 563.00c0.6 5.6 9.6 9 5.6 18.4
	1.6 -6 -1.3 -11.6 -5.6 -12.8
"/>
<use x="708.40" y="597.00" xlink:href="#hd"/>
<use x="708.40" y="582.00" xlink:href="#hd"/>
<use x="731.10" y="585.00" xlink:href="#r8"/>
<path class="fill"
	d="M166.10 597.00c4.50 5.01 24.07 5.01 28.57 -0.00
	v0.23c-5.36 6.79 -23.21 6.79 -28.57 -0.23"/>
<path class="fill"
	d="M166.10 588.00c4.50 -5.01 24.07 -5.01 28.57 -0.00
	v-0.23c-5.36 -6.79 -23.21 -6.79 -28.57 0.23"/>
<path class="fill"
	d="M253.10 600.00c6.74 5.28 36.42 5.28 43.15 -0.00
	v0.24c-8.03 7.03 -35.12 7.03 -43.15 -0.24"/>
<path class="fill"
	d="M597.10 600.00c4.50 5.01 24.07 5.01 28.57 -0.00
	v0.23c-5.36 6.79 -23.21 6.79 -28.57 -0.23"/>
<path class="fill"
	d="M597.10 594.00c4.50 5.01 24.07 5.01 28.57 -0.00
	v0.23c-5.36 6.79 -23.21 6.79 -28.57 -0.23"/>
<path class="fill"
	d="M597.10 585.00c4.50 -5.01 24.07 -5.01 28.57 -0.00
	v-0.23c-5.36 -6.79 -23.21 -6.79 -28.57 0.23"/>
<path class="fill"
	d="M597.10 579.00c4.50 -5.01 24.07 -5.01 28.57 -0.00
	v-0.23c-5.36 -6.79 -23.21 -6.79 -28.57 0.23"/>
<path class="fill"
	d="M676.40 603.00c4.50 5.01 24.07 5.01 28.57 -0.00
	v0.23c-5.36 6.79 -23.21 6.79 -28.57 -0.23"/>
<path class="fill"
	d="M676.40 597.00c4.50 5.01 24.07 5.01 28.57 -0.00
	v0.23c-5.36 6.79 -23.21 6.79 -28.57 -0.23"/>
<path class="fill"
	d="M676.40 582.00c4.50 -5.01 24.07 -5.01 28.57 -0.00
	v-0.23c-5.36 -6.79 -23.21 -6.79 -28.57 0.23"/>
<use x="79.20" y="638.00" xlink:href="#bclef"/>
<use x="94.20" y="650.00" xlink:href="#ft0"/>
<use x="112.70" y="632.00" xlink:href="#Hd"/>
<path d="M109.20 632.00v31.00" class="stroke"/>
<use x="112.70" y="644.00" xlink:href="#Hd"/>
<use x="112.70" y="638.00" xlink:href="#Hd"/>
<use x="162.60" y="632.00" xlink:href="#hd"/>
<path d="M159.10 632.00v34.00" class="stroke"/>
<use x="162.60" y="647.00" xlink:href="#hd"/>
<use x="162.60" y="641.00" xlink:href="#hd"/>
<path class="fill"
	d="M194.30 668.00l26.50 0.00v-3.20l-26.50 -0.00"/>
<path class="fill"
	d="M212.50 663.00l8.00 0.00v-3.20l-8.00 -0.00"/>
<use x="198.20" y="632.00" xlink:href="#hd"/>
<circle class="fill" cx="205.90" cy="629.00" r="1.2"/>
<path d="M194.70 632.00v35.00" class="stroke"/>
<use x="198.20" y="647.00" xlink:href="#hd"/>
<circle class="fill" cx="205.90" cy="647.00" r="1.2"/>
<use x="198.20" y="641.00" xlink:href="#hd"/>
<circle class="fill" cx="205.90" cy="641.00" r="1.2"/>
<use x="224.00" y="632.00" xlink:href="#hd"/>
<path d="M220.50 632.00v35.00" class="stroke"/>
<use x="224.00" y="647.00" xlink:href="#hd"/>
<use x="224.00" y="641.00" xlink:href="#hd"/>
<use x="249.60" y="632.00" xlink:href="#Hd"/>
<path d="M246.10 632.00v37.00" class="stroke"/>
<use x="249.60" y="650.00" xlink:href="#Hd"/>
<use x="249.60" y="644.00" xlink:href="#Hd"/>
<use x="299.80" y="635.00" xlink:href="#hd"/>
<path d="M296.30 635.00v34.00" class="stroke"/>
<path class="fill"
	d="M296.30 669.00c0.6 -5.6 9.6 -9 5.6 -18.4
	1.6 6 -1.3 11.6 -5.6 12.8
"/>
<use x="299.80" y="650.00" xlink:href="#hd"/>
<use x="299.80" y="644.00" xlink:href="#hd"/>
<use x="322.50" y="644.00" xlink:href="#r8"/>
<path class="fill"
	d="M343.70 674.00l26.60 0.00v-3.20l-26.60 -0.00"/>
<path class="fill"
	d="M361.90 669.00l8.00 0.00v-3.20l-8.00 -0.00"/>
<use x="347.50" y="632.00" xlink:href="#hd"/>
<circle class="fill" cx="355.20" cy="629.00" r="1.2"/>
<path d="M344.00 632.00v41.00" class="stroke"/>
<use x="347.50" y="653.00" xlink:href="#hd"/>
<circle class="fill" cx="355.20" cy="653.00" r="1.2"/>
<use x="347.50" y="647.00" xlink:href="#hd"/>
<circle class="fill" cx="355.20" cy="647.00" r="1.2"/>
<use x="373.40" y="632.00" xlink:href="#hd"/>
<path d="M369.90 632.00v41.00" class="stroke"/>
<use x="373.40" y="653.00" xlink:href="#hd"/>
<use x="373.40" y="647.00" xlink:href="#hd"/>
<use x="398.70" y="656.00" xlink:href="#hd"/>
<path d="M402.20 656.00v-40.00" class="stroke"/>
<path class="fill"
	d="M402.20 616.00c0.6 5.6 9.6 9 5.6 18.4
	1.6 -6 -1.3 -11.6 -5.6 -12.8
"/>
<use x="398.70" y="647.00" xlink:href="#hd"/>
<use x="398.70" y="635.00" xlink:href="#hd"/>
<use x="421.40" y="644.00" xlink:href="#r8"/>
<use x="444.00" y="659.00" xlink:href="#hd"/>
<path d="M447.50 659.00v-40.00" class="stroke"/>
<path class="fill"
	d="M447.50 619.00c0.6 5.6 9.6 9 5.6 18.4
	1.6 -6 -1.3 -11.6 -5.6 -12.8
"/>
<use x="444.00" y="647.00" xlink:href="#hd"/>
<use x="444.00" y="638.00" xlink:href="#hd"/>
<use x="466.70" y="644.00" xlink:href="#r8"/>
<use x="489.30" y="662.00" xlink:href="#hl"/>
<use x="489.30" y="662.00" xlink:href="#hd"/>
<path d="M492.80 662.00v-40.00" class="stroke"/>
<path class="fill"
	d="M492.80 622.00c0.6 5.6 9.6 9 5.6 18.4
	1.6 -6 -1.3 -11.6 -5.6 -12.8
"/>
<use x="489.30" y="647.00" xlink:href="#hd"/>
<use x="489.30" y="641.00" xlink:href="#hd"/>
<use x="512.00" y="644.00" xlink:href="#r8"/>
<use x="534.70" y="656.00" xlink:href="#hd"/>
<path d="M538.20 656.00v-31.00" class="stroke"/>
<path class="fill"
	d="M538.20 625.00c0.6 5.6 9.6 9 5.6 18.4
	1.6 -6 -1.3 -11.6 -5.6 -12.8
"/>
<use x="534.70" y="644.00" xlink:href="#hd"/>
<use x="557.40" y="644.00" xlink:href="#r8"/>
<use x="593.60" y="656.00" xlink:href="#hd"/>
<path d="M597.10 656.00v-40.00" class="stroke"/>
<use x="593.60" y="635.00" xlink:href="#hd"/>
<path class="fill"
	d="M632.40 617.70l26.50 6.40v3.20l-26.50 -6.40"/>
<path class="fill"
	d="M650.50 627.10l8.00 1.90v3.20l-8.00 -1.90"/>
<use x="629.20" y="656.00" xlink:href="#hd"/>
<circle class="fill" cx="636.90" cy="653.00" r="1.2"/>
<path d="M632.70 656.00v-37.20" class="stroke"/>
<use x="629.20" y="635.00" xlink:href="#hd"/>
<circle class="fill" cx="636.90" cy="635.00" r="1.2"/>
<use x="655.00" y="662.00" xlink:href="#hl"/>
<use x="655.00" y="668.00" xlink:href="#hl"/>
<use x="655.00" y="668.00" xlink:href="#hd"/>
<path d="M658.50 668.00v-43.00" class="stroke"/>
<use x="655.00" y="647.00" xlink:href="#hd"/>
<use x="672.90" y="662.00" xlink:href="#hl"/>
<use x="672.90" y="668.00" xlink:href="#hl"/>
<use x="672.90" y="668.00" xlink:href="#hd"/>
<path d="M676.40 668.00v-40.00" class="stroke"/>
<use x="672.90" y="647.00" xlink:href="#hd"/>
<use x="708.40" y="662.00" xlink:href="#hl"/>
<use x="708.40" y="668.00" xlink:href="#hl"/>
<use x="708.40" y="668.00" xlink:href="#hd"/>
<path d="M711.90 668.00v-40.00" class="stroke"/>
<path class="fill"
	d="M711.90 628.00c0.6 5.6 9.6 9 5.6 18.4
	1.6 -6 -1.3 -11.6 -5.6 -12.8
"/>
<use x="708.40" y="647.00" xlink:href="#hd"/>
<use x="731.10" y="644.00" xlink:href="#r8"/>
<path class="fill"
	d="M166.10 647.00c4.50 5.01 24.07 5.01 28.57 -0.00
	v0.23c-5.36 6.79 -23.21 6.79 -28.57 -0.23"/>
<path class="fill"
	d="M166.10 641.00c4.50 -5.01 24.07 -5.01 28.57 -0.00
	v-0.23c-5.36 -6.79 -23.21 -6.79 -28.57 0.23"/>
<path class="fill"
	d="M166.10 632.00c4.50 -5.01 24.07 -5.01 28.57 -0.00
	v-0.23c-5.36 -6.79 -23.21 -6.79 -28.57 0.23"/>
<path class="fill"
	d="M253.10 650.00c6.74 5.28 36.42 5.28 43.15 -0.00
	v0.24c-8.03 7.03 -35.12 7.03 -43.15 -0.24"/>
<path class="fill"
	d="M253.10 644.00c6.74 -5.28 36.42 -5.28 43.15 -0.00
	v-0.24c-8.03 -7.03 -35.12 -7.03 -43.15 0.24"/>
<path class="fill"
	d="M597.10 656.00c4.50 5.01 24.07 5.01 28.57 -0.00
	v0.23c-5.36 6.79 -23.21 6.79 -28.57 -0.23"/>
<path class="fill"
	d="M597.10 635.00c4.50 -5.01 24.07 -5.01 28.57 -0.00
	v-0.23c-5.36 -6.79 -23.21 -6.79 -28.57 0.23"/>
<path class="fill"
	d="M676.40 668.00c4.50 5.01 24.07 5.01 28.57 -0.00
	v0.23c-5.36 6.79 -23.21 6.79 -28.57 -0.23"/>
<path class="fill"
	d="M676.40 647.00c4.50 -5.01 24.07 -5.01 28.57 -0.00
	v-0.23c-5.36 -6.79 -23.21 -6.79 -28.57 0.23"/>
</g>
<g stroke-width="0.70" font-family="serif" font-size="15.00" font-weight="bold">
<path class="stroke" stroke-width="1"
	d="M67.20 799.00v-97.00"/>
<g transform="translate(67.20,702.00) scale(1,0.97)">
	<use xlink:href="#brace"/>
</g>
<defs>
<g id="rdots" class="fill">
	<circle cx="0" cy="-9" r="1.2"/>
	<circle cx="0" cy="-15" r="1.2"/>
</g>
</defs>
<use x="118.70" y="726.00" xlink:href="#rdots"/>
<path class="stroke" stroke-width="1"
	d="M114.70 726.00v-24.00"/>
<path class="stroke" stroke-width="3"
	d="M110.20 726.00v-24.00"/>
<use x="118.70" y="799.00" xlink:href="#rdots"/>
<path class="stroke" stroke-width="1"
	d="M114.70 799.00v-73.00"/>
<path class="stroke" stroke-width="3"
	d="M110.20 799.00v-73.00"/>
<path class="stroke" stroke-width="1"
	d="M273.80 726.00v-24.00"/>
<path class="stroke" stroke-width="1"
	d="M273.80 799.00v-73.00"/>
<path class="stroke" stroke-width="1"
	d="M428.00 726.00v-24.00"/>
<path class="stroke" stroke-width="1"
	d="M428.00 799.00v-73.00"/>
<path class="stroke" stroke-width="1"
	d="M592.70 726.00v-24.00"/>
<path class="stroke" stroke-width="1"
	d="M592.70 799.00v-73.00"/>
<path class="stroke" stroke-width="1"
	d="M748.80 726.00v-24.00"/>
<path class="stroke" stroke-width="1"
	d="M748.80 799.00v-73.00"/>
<path d="m67.20 726.00
	h681.60
	M67.20 720.00
	h681.60
	M67.20 714.00
	h681.60
	M67.20 708.00
	h681.60
	M67.20 702.00
	h681.60
	" class="stroke"/>
<path d="m67.20 799.00
	h681.60
	M67.20 793.00
	h681.60
	M67.20 787.00
	h681.60
	M67.20 781.00
	h681.60
	M67.20 775.00
	h681.60
	" class="stroke"/>
</g>
<g stroke-width="0.70" font-family="Bookman" font-size="12.00" font-style="italic">
<text x="432.50" y="753.60">cresc.</text>
<text x="695.20" y="755.10">dim.</text>
<use x="79.20" y="720.00" xlink:href="#tclef"/>
<use x="94.20" y="714.00" xlink:href="#ft0"/>
<use x="132.70" y="732.00" xlink:href="#hl"/>
<use x="132.70" y="738.00" xlink:href="#hl"/>
<use x="132.70" y="738.00" xlink:href="#Hd"/>
<path d="M136.20 738.00v-34.00" class="stroke"/>
<use x="132.70" y="732.00" xlink:href="#Hd"/>
<use x="132.70" y="723.00" xlink:href="#Hd"/>
<use x="200.70" y="732.00" xlink:href="#hl"/>
<use x="200.70" y="738.00" xlink:href="#hl"/>
<use x="200.70" y="738.00" xlink:href="#hd"/>
<path d="M204.20 738.00v-34.00" class="stroke"/>
<path class="fill"
	d="M204.20 704.00c0.6 5.6 9.6 9 5.6 18.4
	1.6 -6 -1.3 -11.6 -5.6 -12.8
"/>
<use x="200.70" y="732.00" xlink:href="#hd"/>
<use x="200.70" y="723.00" xlink:href="#hd"/>
<use x="220.10" y="714.00" xlink:href="#r8"/>
<path class="fill"
	d="M242.30 705.90l20.10 -3.80v3.20l-20.10 3.80"/>
<use x="239.20" y="732.00" xlink:href="#hl"/>
<use x="239.20" y="738.00" xlink:href="#hl"/>
<use x="239.20" y="738.00" xlink:href="#hd"/>
<path d="M242.70 738.00v-31.10" class="stroke"/>
<use x="239.20" y="732.00" xlink:href="#hd"/>
<use x="239.20" y="726.00" xlink:href="#hd"/>
<use x="258.60" y="732.00" xlink:href="#hl"/>
<use x="258.60" y="738.00" xlink:href="#hl"/>
<use x="258.60" y="738.00" xlink:href="#hd"/>
<path d="M262.10 738.00v-34.90" class="stroke"/>
<use x="258.60" y="732.00" xlink:href="#hd"/>
<use x="258.60" y="720.00" xlink:href="#hd"/>
<use x="286.80" y="732.00" xlink:href="#hl"/>
<use x="286.80" y="738.00" xlink:href="#hl"/>
<use x="286.80" y="738.00" xlink:href="#Hd"/>
<path d="M290.30 738.00v-34.00" class="stroke"/>
<use x="286.80" y="732.00" xlink:href="#Hd"/>
<use x="286.80" y="723.00" xlink:href="#Hd"/>
<use x="354.80" y="732.00" xlink:href="#hl"/>
<use x="354.80" y="738.00" xlink:href="#hl"/>
<use x="354.80" y="738.00" xlink:href="#hd"/>
<path d="M358.30 738.00v-34.00" class="stroke"/>
<path class="fill"
	d="M358.30 704.00c0.6 5.6 9.6 9 5.6 18.4
	1.6 -6 -1.3 -11.6 -5.6 -12.8
"/>
<use x="354.80" y="732.00" xlink:href="#hd"/>
<use x="354.80" y="723.00" xlink:href="#hd"/>
<use x="374.20" y="714.00" xlink:href="#r8"/>
<path class="fill"
	d="M396.40 703.70l20.10 -2.40v3.20l-20.10 2.40"/>
<use x="393.30" y="732.00" xlink:href="#hl"/>
<use x="393.30" y="738.00" xlink:href="#hl"/>
<use x="393.30" y="738.00" xlink:href="#hd"/>
<path d="M396.80 738.00v-33.40" class="stroke"/>
<use x="393.30" y="732.00" xlink:href="#hd"/>
<use x="393.30" y="723.00" xlink:href="#hd"/>
<use x="412.70" y="732.00" xlink:href="#hl"/>
<use x="412.70" y="738.00" xlink:href="#hl"/>
<use x="412.70" y="738.00" xlink:href="#hd"/>
<path d="M416.20 738.00v-35.60" class="stroke"/>
<use x="412.70" y="732.00" xlink:href="#hd"/>
<use x="412.70" y="720.00" xlink:href="#hd"/>
<use x="440.50" y="732.00" xlink:href="#hl"/>
<use x="440.50" y="738.00" xlink:href="#hl"/>
<use x="440.50" y="738.00" xlink:href="#hd"/>
<path d="M444.00 738.00v-40.00" class="stroke"/>
<path class="fill"
	d="M444.00 698.00c0.6 5.6 9.6 9 5.6 18.4
	1.6 -6 -1.3 -11.6 -5.6 -12.8
"/>
<use x="440.50" y="732.00" xlink:href="#hd"/>
<use x="440.50" y="717.00" xlink:href="#hd"/>
<use x="459.90" y="714.00" xlink:href="#r8"/>
<path class="fill"
	d="M482.10 697.70l20.10 -2.40v3.20l-20.10 2.40"/>
<use x="478.90" y="732.00" xlink:href="#hl"/>
<use x="478.90" y="732.00" xlink:href="#hd"/>
<path d="M482.40 732.00v-33.40" class="stroke"/>
<use x="478.90" y="723.00" xlink:href="#hd"/>
<use x="478.90" y="717.00" xlink:href="#hd"/>
<use x="498.30" y="732.00" xlink:href="#hl"/>
<use x="498.30" y="732.00" xlink:href="#hd"/>
<path d="M501.80 732.00v-35.60" class="stroke"/>
<use x="498.30" y="723.00" xlink:href="#hd"/>
<use x="498.30" y="714.00" xlink:href="#hd"/>
<use x="519.50" y="732.00" xlink:href="#hl"/>
<use x="519.50" y="732.00" xlink:href="#hd"/>
<path d="M523.00 732.00v-40.00" class="stroke"/>
<path class="fill"
	d="M523.00 692.00c0.6 5.6 9.6 9 5.6 18.4
	1.6 -6 -1.3 -11.6 -5.6 -12.8
"/>
<use x="519.50" y="723.00" xlink:href="#hd"/>
<use x="519.50" y="717.00" xlink:href="#hd"/>
<use x="519.50" y="711.00" xlink:href="#hd"/>
<use x="539.00" y="714.00" xlink:href="#r8"/>
<use x="558.00" y="723.00" xlink:href="#hd"/>
<path d="M561.50 723.00v-34.00" class="stroke"/>
<path class="fill"
	d="M561.50 689.00c0.6 5.6 9.6 9 5.6 18.4
	1.6 -6 -1.3 -11.6 -5.6 -12.8
"/>
<use x="558.00" y="717.00" xlink:href="#hd"/>
<use x="558.00" y="708.00" xlink:href="#hd"/>
<use x="577.40" y="714.00" xlink:href="#r8"/>
<use x="605.70" y="732.00" xlink:href="#hl"/>
<use x="605.70" y="735.00" xlink:href="#Hd"/>
<path d="M609.20 735.00v-34.00" class="stroke"/>
<use x="613.50" y="732.00" xlink:href="#hl"/>
<use x="613.50" y="732.00" xlink:href="#Hd"/>
<use x="605.70" y="726.00" xlink:href="#Hd"/>
<use x="605.70" y="720.00" xlink:href="#Hd"/>
<path class="fill"
	d="M676.80 695.80l60.50 0.00v3.20l-60.50 -0.00"/>
<use x="673.70" y="732.00" xlink:href="#hl"/>
<use x="673.70" y="735.00" xlink:href="#hd"/>
<path d="M677.20 735.00v-38.20" class="stroke"/>
<use x="680.70" y="732.00" xlink:href="#hl"/>
<use x="680.70" y="732.00" xlink:href="#hd"/>
<use x="673.70" y="726.00" xlink:href="#hd"/>
<use x="673.70" y="720.00" xlink:href="#hd"/>
<use x="695.20" y="732.00" xlink:href="#hl"/>
<use x="695.20" y="732.00" xlink:href="#hd"/>
<path d="M698.70 732.00v-35.20" class="stroke"/>
<use x="695.20" y="726.00" xlink:href="#hd"/>
<use x="695.20" y="714.00" xlink:href="#hd"/>
<use x="714.40" y="732.00" xlink:href="#hl"/>
<use x="714.40" y="732.00" xlink:href="#hd"/>
<path d="M717.90 732.00v-35.20" class="stroke"/>
<use x="714.40" y="726.00" xlink:href="#hd"/>
<use x="714.40" y="720.00" xlink:href="#hd"/>
<use x="733.50" y="732.00" xlink:href="#hl"/>
<use x="733.50" y="732.00" xlink:href="#hd"/>
<path d="M737.00 732.00v-35.20" class="stroke"/>
<use x="733.50" y="726.00" xlink:href="#hd"/>
<use x="733.50" y="717.00" xlink:href="#hd"/>
<path class="fill"
	d="M136.20 738.00c9.03 5.60 51.96 5.60 60.99 -0.00
	v0.26c-10.86 7.34 -50.13 7.34 -60.99 -0.26"/>
<path class="fill"
	d="M136.20 732.00c9.03 5.60 51.96 5.60 60.99 -0.00
	v0.26c-10.86 7.34 -50.13 7.34 -60.99 -0.26"/>
<path class="fill"
	d="M136.20 723.00c9.03 -5.60 51.96 -5.60 60.99 -0.00
	v-0.26c-10.86 -7.34 -50.13 -7.34 -60.99 0.26"/>
<path class="fill"
	d="M290.30 738.00c9.03 5.60 51.96 5.60 60.99 -0.00
	v0.26c-10.86 7.34 -50.13 7.34 -60.99 -0.26"/>
<path class="fill"
	d="M290.30 732.00c9.03 5.60 51.96 5.60 60.99 -0.00
	v0.26c-10.86 7.34 -50.13 7.34 -60.99 -0.26"/>
<path class="fill"
	d="M290.30 723.00c9.03 -5.60 51.96 -5.60 60.99 -0.00
	v-0.26c-10.86 -7.34 -50.13 -7.34 -60.99 0.26"/>
<path class="fill"
	d="M609.20 735.00c9.03 5.60 51.96 5.60 60.99 -0.00
	v0.26c-10.86 7.34 -50.13 7.34 -60.99 -0.26"/>
<path class="fill"
	d="M613.90 732.00c8.97 -5.59 51.55 -5.59 60.52 -0.00
	v-0.26c-10.79 -7.33 -49.73 -7.33 -60.52 0.26"/>
<path class="fill"
	d="M609.20 726.00c9.03 -5.60 51.96 -5.60 60.99 -0.00
	v-0.26c-10.86 -7.34 -50.13 -7.34 -60.99 0.26"/>
<path class="fill"
	d="M609.20 720.00c9.03 -5.60 51.96 -5.60 60.99 -0.00
	v-0.26c-10.86 -7.34 -50.13 -7.34 -60.99 0.26"/>
<use x="79.20" y="781.00" xlink:href="#bclef"/>
<use x="94.20" y="793.00" xlink:href="#ft0"/>
<defs>
<path id="r4" class="fill" d="m-1 -8.5
	l3.6 5.1 -2.1 5.2 2.2 4.3
	c-2.6 -2.3 -5.1 0 -2.4 2.6
	-4.8 -3 -1.5 -6.9 1.4 -4.1
	l-3.1 -4.5 1.9 -5.1 -1.5 -3.5"/>
</defs>
<use x="132.70" y="787.00" xlink:href="#r4"/>
<use x="162.20" y="802.00" xlink:href="#hd"/>
<path d="M165.70 802.00v-40.00" class="stroke"/>
<path class="fill"
	d="M165.70 762.00c0.6 5.6 9.6 9 5.6 18.4
	1.6 -6 -1.3 -11.6 -5.6 -12.8
"/>
<use x="162.20" y="781.00" xlink:href="#hd"/>
<use x="181.60" y="787.00" xlink:href="#r8"/>
<use x="200.70" y="805.00" xlink:href="#hl"/>
<use x="200.70" y="811.00" xlink:href="#hl"/>
<use x="200.70" y="811.00" xlink:href="#hd"/>
<path d="M204.20 811.00v-40.00" class="stroke"/>
<use x="200.70" y="790.00" xlink:href="#hd"/>
<use x="239.20" y="805.00" xlink:href="#hl"/>
<use x="239.20" y="811.00" xlink:href="#hl"/>
<use x="239.20" y="811.00" xlink:href="#hd"/>
<path d="M242.70 811.00v-40.00" class="stroke"/>
<path class="fill"
	d="M242.70 771.00c0.6 5.6 9.6 9 5.6 18.4
	1.6 -6 -1.3 -11.6 -5.6 -12.8
"/>
<use x="239.20" y="790.00" xlink:href="#hd"/>
<use x="258.60" y="787.00" xlink:href="#r8"/>
<use x="286.80" y="787.00" xlink:href="#r4"/>
<use x="316.30" y="802.00" xlink:href="#hd"/>
<path d="M319.80 802.00v-40.00" class="stroke"/>
<path class="fill"
	d="M319.80 762.00c0.6 5.6 9.6 9 5.6 18.4
	1.6 -6 -1.3 -11.6 -5.6 -12.8
"/>
<use x="316.30" y="781.00" xlink:href="#hd"/>
<use x="335.80" y="787.00" xlink:href="#r8"/>
<use x="354.80" y="805.00" xlink:href="#hl"/>
<use x="354.80" y="811.00" xlink:href="#hl"/>
<use x="354.80" y="811.00" xlink:href="#hd"/>
<path d="M358.30 811.00v-40.00" class="stroke"/>
<use x="354.80" y="790.00" xlink:href="#hd"/>
<use x="393.30" y="805.00" xlink:href="#hl"/>
<use x="393.30" y="811.00" xlink:href="#hl"/>
<use x="393.30" y="811.00" xlink:href="#hd"/>
<path d="M396.80 811.00v-40.00" class="stroke"/>
<path class="fill"
	d="M396.80 771.00c0.6 5.6 9.6 9 5.6 18.4
	1.6 -6 -1.3 -11.6 -5.6 -12.8
"/>
<use x="393.30" y="790.00" xlink:href="#hd"/>
<use x="412.70" y="787.00" xlink:href="#r8"/>
<use x="440.50" y="787.00" xlink:href="#r4"/>
<use x="478.90" y="802.00" xlink:href="#hd"/>
<path d="M482.40 802.00v-40.00" class="stroke"/>
<path class="fill"
	d="M482.40 762.00c0.6 5.6 9.6 9 5.6 18.4
	1.6 -6 -1.3 -11.6 -5.6 -12.8
"/>
<use x="478.90" y="781.00" xlink:href="#hd"/>
<use x="498.30" y="787.00" xlink:href="#r8"/>
<use x="519.50" y="805.00" xlink:href="#hl"/>
<use x="519.50" y="811.00" xlink:href="#hl"/>
<use x="519.50" y="811.00" xlink:href="#hd"/>
<path d="M523.00 811.00v-40.00" class="stroke"/>
<use x="519.50" y="790.00" xlink:href="#hd"/>
<use x="558.00" y="805.00" xlink:href="#hl"/>
<use x="558.00" y="811.00" xlink:href="#hl"/>
<use x="558.00" y="811.00" xlink:href="#hd"/>
<path d="M561.50 811.00v-40.00" class="stroke"/>
<path class="fill"
	d="M561.50 771.00c0.6 5.6 9.6 9 5.6 18.4
	1.6 -6 -1.3 -11.6 -5.6 -12.8
"/>
<use x="558.00" y="790.00" xlink:href="#hd"/>
<use x="577.40" y="787.00" xlink:href="#r8"/>
<use x="605.70" y="787.00" xlink:href="#r4"/>
<use x="635.20" y="799.00" xlink:href="#hd"/>
<path d="M638.70 799.00v-40.00" class="stroke"/>
<path class="fill"
	d="M638.70 759.00c0.6 5.6 9.6 9 5.6 18.4
	1.6 -6 -1.3 -11.6 -5.6 -12.8
"/>
<use x="635.20" y="778.00" xlink:href="#hd"/>
<use x="654.60" y="787.00" xlink:href="#r8"/>
<use x="673.70" y="805.00" xlink:href="#hl"/>
<use x="673.70" y="811.00" xlink:href="#hl"/>
<use x="673.70" y="811.00" xlink:href="#hd"/>
<path d="M677.20 811.00v-40.00" class="stroke"/>
<path class="fill"
	d="M677.20 771.00c0.6 5.6 9.6 9 5.6 18.4
	1.6 -6 -1.3 -11.6 -5.6 -12.8
"/>
<use x="673.70" y="790.00" xlink:href="#hd"/>
<use x="695.20" y="787.00" xlink:href="#r8"/>
<path class="fill"
	d="M710.50 793.20l19.90 0.00v-3.20l-19.90 -0.00"/>
<use x="714.40" y="772.00" xlink:href="#hd"/>
<path d="M710.90 772.00v20.20" class="stroke"/>
<use x="733.50" y="772.00" xlink:href="#hd"/>
<path d="M730.00 772.00v20.20" class="stroke"/>
<path class="fill"
	d="M204.20 811.00c4.96 5.07 26.51 5.07 31.47 -0.00
	v0.23c-5.90 6.83 -25.57 6.83 -31.47 -0.23"/>
<path class="fill"
	d="M204.20 790.00c4.96 -5.07 26.51 -5.07 31.47 -0.00
	v-0.23c-5.90 -6.83 -25.57 -6.83 -31.47 0.23"/>
<path class="fill"
	d="M358.30 811.00c4.96 5.07 26.51 5.07 31.47 -0.00
	v0.23c-5.90 6.83 -25.57 6.83 -31.47 -0.23"/>
<path class="fill"
	d="M358.30 790.00c4.96 -5.07 26.51 -5.07 31.47 -0.00
	v-0.23c-5.90 -6.83 -25.57 -6.83 -31.47 0.23"/>
<path class="fill"
	d="M523.00 811.00c4.96 5.07 26.51 5.07 31.47 -0.00
	v0.23c-5.90 6.83 -25.57 6.83 -31.47 -0.23"/>
<path class="fill"
	d="M523.00 790.00c4.96 -5.07 26.51 -5.07 31.47 -0.00
	v-0.23c-5.90 -6.83 -25.57 -6.83 -31.47 0.23"/>
<text font-family="serif" font-size="16" font-weight="bold" font-style="italic"
	x="130.70" y="758.40">p</text>
<path class="stroke"
d="M424.00 762.00l-27.70 -4l27.70 -4"/>
</g>
<g stroke-width="0.70" font-family="Bookman" font-size="12.00" font-style="italic">
<path class="stroke" stroke-width="1"
	d="M67.20 942.00v-97.00"/>
<g transform="translate(67.20,845.00) scale(1,0.97)">
	<use xlink:href="#brace"/>
</g>
<path class="stroke" stroke-width="1"
	d="M253.40 869.00v-24.00"/>
<path class="stroke" stroke-width="1"
	d="M253.40 942.00v-73.00"/>
<path class="stroke" stroke-width="1"
	d="M407.20 869.00v-24.00"/>
<path class="stroke" stroke-width="1"
	d="M407.20 942.00v-73.00"/>
<path class="stroke" stroke-width="1"
	d="M575.10 869.00v-24.00"/>
<path class="stroke" stroke-width="1"
	d="M575.10 942.00v-73.00"/>
<path class="stroke" stroke-width="3"
	d="M747.30 869.00v-24.00"/>
<path class="stroke" stroke-width="1"
	d="M742.80 869.00v-24.00"/>
<use x="738.80" y="869.00" xlink:href="#rdots"/>
<path class="stroke" stroke-width="3"
	d="M747.30 942.00v-73.00"/>
<path class="stroke" stroke-width="1"
	d="M742.80 942.00v-73.00"/>
<use x="738.80" y="942.00" xlink:href="#rdots"/>
<path d="m67.20 869.00
	h681.60
	M67.20 863.00
	h681.60
	M67.20 857.00
	h681.60
	M67.20 851.00
	h681.60
	M67.20 845.00
	h681.60
	" class="stroke"/>
<path d="m67.20 942.00
	h681.60
	M67.20 936.00
	h681.60
	M67.20 930.00
	h681.60
	M67.20 924.00
	h681.60
	M67.20 918.00
	h681.60
	" class="stroke"/>
<text x="460.10" y="900.10">cresc.</text>
<use x="79.20" y="863.00" xlink:href="#tclef"/>
<use x="94.20" y="857.00" xlink:href="#ft0"/>
<use x="112.70" y="875.00" xlink:href="#hl"/>
<use x="112.70" y="881.00" xlink:href="#hl"/>
<use x="112.70" y="881.00" xlink:href="#Hd"/>
<path d="M116.20 881.00v-34.00" class="stroke"/>
<use x="112.70" y="875.00" xlink:href="#Hd"/>
<use x="112.70" y="866.00" xlink:href="#Hd"/>
<use x="180.50" y="875.00" xlink:href="#hl"/>
<use x="180.50" y="881.00" xlink:href="#hl"/>
<use x="180.50" y="881.00" xlink:href="#hd"/>
<path d="M184.00 881.00v-34.00" class="stroke"/>
<path class="fill"
	d="M184.00 847.00c0.6 5.6 9.6 9 5.6 18.4
	1.6 -6 -1.3 -11.6 -5.6 -12.8
"/>
<use x="180.50" y="875.00" xlink:href="#hd"/>
<use x="180.50" y="866.00" xlink:href="#hd"/>
<use x="199.80" y="857.00" xlink:href="#r8"/>
<path class="fill"
	d="M222.00 848.90l20.10 -3.80v3.20l-20.10 3.80"/>
<use x="218.80" y="875.00" xlink:href="#hl"/>
<use x="218.80" y="881.00" xlink:href="#hl"/>
<use x="218.80" y="881.00" xlink:href="#hd"/>
<path d="M222.30 881.00v-31.10" class="stroke"/>
<use x="218.80" y="875.00" xlink:href="#hd"/>
<use x="218.80" y="869.00" xlink:href="#hd"/>
<use x="238.20" y="875.00" xlink:href="#hl"/>
<use x="238.20" y="881.00" xlink:href="#hl"/>
<use x="238.20" y="881.00" xlink:href="#hd"/>
<path d="M241.70 881.00v-34.90" class="stroke"/>
<use x="238.20" y="875.00" xlink:href="#hd"/>
<use x="238.20" y="863.00" xlink:href="#hd"/>
<use x="266.40" y="875.00" xlink:href="#hl"/>
<use x="266.40" y="881.00" xlink:href="#hl"/>
<use x="266.40" y="881.00" xlink:href="#Hd"/>
<path d="M269.90 881.00v-34.00" class="stroke"/>
<use x="266.40" y="875.00" xlink:href="#Hd"/>
<use x="266.40" y="866.00" xlink:href="#Hd"/>
<use x="334.20" y="875.00" xlink:href="#hl"/>
<use x="334.20" y="881.00" xlink:href="#hl"/>
<use x="334.20" y="881.00" xlink:href="#hd"/>
<path d="M337.70 881.00v-34.00" class="stroke"/>
<path class="fill"
	d="M337.70 847.00c0.6 5.6 9.6 9 5.6 18.4
	1.6 -6 -1.3 -11.6 -5.6 -12.8
"/>
<use x="334.20" y="875.00" xlink:href="#hd"/>
<use x="334.20" y="866.00" xlink:href="#hd"/>
<use x="353.60" y="857.00" xlink:href="#r8"/>
<path class="fill"
	d="M375.70 846.70l20.10 -2.40v3.20l-20.10 2.40"/>
<use x="372.60" y="875.00" xlink:href="#hl"/>
<use x="372.60" y="881.00" xlink:href="#hl"/>
<use x="372.60" y="881.00" xlink:href="#hd"/>
<path d="M376.10 881.00v-33.40" class="stroke"/>
<use x="372.60" y="875.00" xlink:href="#hd"/>
<use x="372.60" y="866.00" xlink:href="#hd"/>
<use x="392.00" y="875.00" xlink:href="#hl"/>
<use x="392.00" y="881.00" xlink:href="#hl"/>
<use x="392.00" y="881.00" xlink:href="#hd"/>
<path d="M395.50 881.00v-35.60" class="stroke"/>
<use x="392.00" y="875.00" xlink:href="#hd"/>
<use x="392.00" y="863.00" xlink:href="#hd"/>
<use x="419.70" y="875.00" xlink:href="#hl"/>
<use x="419.70" y="881.00" xlink:href="#hl"/>
<use x="419.70" y="881.00" xlink:href="#hd"/>
<path d="M423.20 881.00v-40.00" class="stroke"/>
<path class="fill"
	d="M423.20 841.00c0.6 5.6 9.6 9 5.6 18.4
	1.6 -6 -1.3 -11.6 -5.6 -12.8
"/>
<use x="419.70" y="875.00" xlink:href="#hd"/>
<use x="419.70" y="860.00" xlink:href="#hd"/>
<use x="439.10" y="857.00" xlink:href="#r8"/>
<path class="fill"
	d="M463.30 842.00l19.80 0.00v3.20l-19.80 -0.00"/>
<use x="460.10" y="875.00" xlink:href="#hl"/>
<use x="460.10" y="875.00" xlink:href="#hd"/>
<path d="M463.60 875.00v-32.00" class="stroke"/>
<use x="460.10" y="866.00" xlink:href="#hd"/>
<use x="460.10" y="860.00" xlink:href="#hd"/>
<use x="479.20" y="875.00" xlink:href="#hl"/>
<use x="479.20" y="875.00" xlink:href="#hd"/>
<path d="M482.70 875.00v-32.00" class="stroke"/>
<use x="479.20" y="866.00" xlink:href="#hd"/>
<use x="479.20" y="860.00" xlink:href="#hd"/>
<use x="500.40" y="845.00" xlink:href="#hd"/>
<path d="M496.90 845.00v40.00" class="stroke"/>
<path class="fill"
	d="M496.90 885.00c0.6 -5.6 9.6 -9 5.6 -18.4
	1.6 6 -1.3 11.6 -5.6 12.8
"/>
<use x="500.40" y="866.00" xlink:href="#hd"/>
<use x="500.40" y="860.00" xlink:href="#hd"/>
<use x="500.40" y="851.00" xlink:href="#hd"/>
<use x="519.40" y="857.00" xlink:href="#r8"/>
<use x="540.50" y="848.00" xlink:href="#hd"/>
<path d="M537.00 848.00v37.00" class="stroke"/>
<path class="fill"
	d="M537.00 885.00c0.6 -5.6 9.6 -9 5.6 -18.4
	1.6 6 -1.3 11.6 -5.6 12.8
"/>
<use x="540.50" y="866.00" xlink:href="#hd"/>
<use x="540.50" y="860.00" xlink:href="#hd"/>
<use x="540.50" y="854.00" xlink:href="#hd"/>
<use x="559.90" y="857.00" xlink:href="#r8"/>
<use x="593.60" y="866.00" xlink:href="#hd"/>
<circle class="fill" cx="608.30" cy="866.00" r="1.2"/>
<path d="M597.10 866.00v-34.00" class="stroke"/>
<use x="600.60" y="863.00" xlink:href="#hd"/>
<circle class="fill" cx="608.30" cy="860.00" r="1.2"/>
<use x="593.60" y="857.00" xlink:href="#hd"/>
<circle class="fill" cx="608.30" cy="854.00" r="1.2"/>
<use x="584.60" y="857.00" xlink:href="#nt0"/>
<use x="593.60" y="851.00" xlink:href="#hd"/>
<circle class="fill" cx="608.30" cy="848.00" r="1.2"/>
<use x="646.50" y="866.00" xlink:href="#hd"/>
<path d="M650.00 866.00v-37.00" class="stroke"/>
<path class="fill"
	d="M650.00 829.00c0.6 5.6 9.6 9 5.6 18.4
	1.6 -6 -1.3 -11.6 -5.6 -12.8
"/>
<use x="653.60" y="863.00" xlink:href="#hd"/>
<use x="646.50" y="857.00" xlink:href="#hd"/>
<use x="637.50" y="857.00" xlink:href="#nt0"/>
<use x="646.50" y="848.00" xlink:href="#hd"/>
<use x="668.50" y="869.00" xlink:href="#hd"/>
<path d="M672.00 869.00v-34.00" class="stroke"/>
<use x="668.50" y="863.00" xlink:href="#hd"/>
<use x="668.50" y="854.00" xlink:href="#hd"/>
<use x="708.90" y="869.00" xlink:href="#hd"/>
<path d="M712.40 869.00v-34.00" class="stroke"/>
<path class="fill"
	d="M712.40 835.00c0.6 5.6 9.6 9 5.6 18.4
	1.6 -6 -1.3 -11.6 -5.6 -12.8
"/>
<use x="708.90" y="863.00" xlink:href="#hd"/>
<use x="708.90" y="854.00" xlink:href="#hd"/>
<use x="728.30" y="857.00" xlink:href="#r8"/>
<path class="fill"
	d="M116.20 881.00c9.00 5.59 51.76 5.59 60.77 -0.00
	v0.26c-10.83 7.33 -49.94 7.33 -60.77 -0.26"/>
<path class="fill"
	d="M116.20 875.00c9.00 5.59 51.76 5.59 60.77 -0.00
	v0.26c-10.83 7.33 -49.94 7.33 -60.77 -0.26"/>
<path class="fill"
	d="M116.20 866.00c9.00 -5.59 51.76 -5.59 60.77 -0.00
	v-0.26c-10.83 -7.33 -49.94 -7.33 -60.77 0.26"/>
<path class="fill"
	d="M269.90 881.00c9.00 5.59 51.76 5.59 60.77 -0.00
	v0.26c-10.83 7.33 -49.94 7.33 -60.77 -0.26"/>
<path class="fill"
	d="M269.90 875.00c9.00 5.59 51.76 5.59 60.77 -0.00
	v0.26c-10.83 7.33 -49.94 7.33 -60.77 -0.26"/>
<path class="fill"
	d="M269.90 866.00c9.00 -5.59 51.76 -5.59 60.77 -0.00
	v-0.26c-10.83 -7.33 -49.94 -7.33 -60.77 0.26"/>
<path class="fill"
	d="M672.00 869.00c5.26 5.10 28.14 5.10 33.40 -0.00
	v0.23c-6.26 6.87 -27.13 6.87 -33.40 -0.23"/>
<path class="fill"
	d="M672.00 863.00c5.26 5.10 28.14 5.10 33.40 -0.00
	v0.23c-6.26 6.87 -27.13 6.87 -33.40 -0.23"/>
<path class="fill"
	d="M672.00 854.00c5.26 -5.10 28.14 -5.10 33.40 -0.00
	v-0.23c-6.26 -6.87 -27.13 -6.87 -33.40 0.23"/>
<use x="79.20" y="924.00" xlink:href="#bclef"/>
<use x="94.20" y="936.00" xlink:href="#ft0"/>
<use x="112.70" y="930.00" xlink:href="#r4"/>
<use x="142.10" y="945.00" xlink:href="#hd"/>
<path d="M145.60 945.00v-40.00" class="stroke"/>
<path class="fill"
	d="M145.60 905.00c0.6 5.6 9.6 9 5.6 18.4
	1.6 -6 -1.3 -11.6 -5.6 -12.8
"/>
<use x="142.10" y="924.00" xlink:href="#hd"/>
<use x="161.50" y="930.00" xlink:href="#r8"/>
<use x="180.50" y="948.00" xlink:href="#hl"/>
<use x="180.50" y="954.00" xlink:href="#hl"/>
<use x="180.50" y="954.00" xlink:href="#hd"/>
<path d="M184.00 954.00v-40.00" class="stroke"/>
<use x="180.50" y="933.00" xlink:href="#hd"/>
<use x="218.80" y="948.00" xlink:href="#hl"/>
<use x="218.80" y="954.00" xlink:href="#hl"/>
<use x="218.80" y="954.00" xlink:href="#hd"/>
<path d="M222.30 954.00v-40.00" class="stroke"/>
<path class="fill"
	d="M222.30 914.00c0.6 5.6 9.6 9 5.6 18.4
	1.6 -6 -1.3 -11.6 -5.6 -12.8
"/>
<use x="218.80" y="933.00" xlink:href="#hd"/>
<use x="238.20" y="930.00" xlink:href="#r8"/>
<use x="266.40" y="930.00" xlink:href="#r4"/>
<use x="295.80" y="945.00" xlink:href="#hd"/>
<path d="M299.30 945.00v-40.00" class="stroke"/>
<path class="fill"
	d="M299.30 905.00c0.6 5.6 9.6 9 5.6 18.4
	1.6 -6 -1.3 -11.6 -5.6 -12.8
"/>
<use x="295.80" y="924.00" xlink:href="#hd"/>
<use x="315.20" y="930.00" xlink:href="#r8"/>
<use x="334.20" y="948.00" xlink:href="#hl"/>
<use x="334.20" y="954.00" xlink:href="#hl"/>
<use x="334.20" y="954.00" xlink:href="#hd"/>
<path d="M337.70 954.00v-40.00" class="stroke"/>
<use x="334.20" y="933.00" xlink:href="#hd"/>
<use x="372.60" y="948.00" xlink:href="#hl"/>
<use x="372.60" y="954.00" xlink:href="#hl"/>
<use x="372.60" y="954.00" xlink:href="#hd"/>
<path d="M376.10 954.00v-40.00" class="stroke"/>
<path class="fill"
	d="M376.10 914.00c0.6 5.6 9.6 9 5.6 18.4
	1.6 -6 -1.3 -11.6 -5.6 -12.8
"/>
<use x="372.60" y="933.00" xlink:href="#hd"/>
<use x="392.00" y="930.00" xlink:href="#r8"/>
<use x="419.70" y="930.00" xlink:href="#r4"/>
<use x="460.10" y="918.00" xlink:href="#hd"/>
<path d="M456.60 918.00v40.00" class="stroke"/>
<path class="fill"
	d="M456.60 958.00c0.6 -5.6 9.6 -9 5.6 -18.4
	1.6 6 -1.3 11.6 -5.6 12.8
"/>
<use x="460.10" y="939.00" xlink:href="#hd"/>
<use x="479.20" y="930.00" xlink:href="#r8"/>
<use x="500.40" y="948.00" xlink:href="#hl"/>
<use x="500.40" y="951.00" xlink:href="#hd"/>
<path d="M503.90 951.00v-40.00" class="stroke"/>
<use x="500.40" y="930.00" xlink:href="#hd"/>
<use x="540.50" y="948.00" xlink:href="#hl"/>
<use x="540.50" y="951.00" xlink:href="#hd"/>
<path d="M544.00 951.00v-40.00" class="stroke"/>
<path class="fill"
	d="M544.00 911.00c0.6 5.6 9.6 9 5.6 18.4
	1.6 -6 -1.3 -11.6 -5.6 -12.8
"/>
<use x="540.50" y="930.00" xlink:href="#hd"/>
<use x="559.90" y="930.00" xlink:href="#r8"/>
<use x="593.60" y="930.00" xlink:href="#r4"/>
<use x="623.00" y="942.00" xlink:href="#hd"/>
<path d="M626.50 942.00v-40.00" class="stroke"/>
<path class="fill"
	d="M626.50 902.00c0.6 5.6 9.6 9 5.6 18.4
	1.6 -6 -1.3 -11.6 -5.6 -12.8
"/>
<use x="623.00" y="921.00" xlink:href="#hd"/>
<use x="646.50" y="930.00" xlink:href="#r8"/>
<use x="668.50" y="948.00" xlink:href="#hl"/>
<use x="668.50" y="954.00" xlink:href="#hl"/>
<use x="668.50" y="954.00" xlink:href="#hd"/>
<path d="M672.00 954.00v-40.00" class="stroke"/>
<path class="fill"
	d="M672.00 914.00c0.6 5.6 9.6 9 5.6 18.4
	1.6 -6 -1.3 -11.6 -5.6 -12.8
"/>
<use x="668.50" y="933.00" xlink:href="#hd"/>
<use x="687.90" y="930.00" xlink:href="#r8"/>
<use x="708.90" y="912.00" xlink:href="#hl"/>
<use x="708.90" y="912.00" xlink:href="#hd"/>
<path d="M705.40 912.00v40.00" class="stroke"/>
<path class="fill"
	d="M705.40 952.00c0.6 -5.6 9.6 -9 5.6 -18.4
	1.6 6 -1.3 11.6 -5.6 12.8
"/>
<use x="708.90" y="933.00" xlink:href="#hd"/>
<use x="728.30" y="930.00" xlink:href="#r8"/>
<path class="fill"
	d="M503.90 951.00c5.21 5.10 27.85 5.10 33.06 -0.00
	v0.23c-6.20 6.86 -26.86 6.86 -33.06 -0.23"/>
<path class="fill"
	d="M503.90 930.00c5.21 -5.10 27.85 -5.10 33.06 -0.00
	v-0.23c-6.20 -6.86 -26.86 -6.86 -33.06 0.23"/>
<text font-family="serif" font-size="16" font-weight="bold" font-style="italic"
	x="110.70" y="901.40">p</text>
<path class="stroke"
d="M403.20 905.00l-27.60 -4l27.60 -4"/>
<text font-family="serif" font-size="16" font-weight="bold" font-style="italic"
	x="592.60" y="901.40">f</text>
</g>
</svg>
