<?xml version="1.0" standalone="no"?>
<!DOCTYPE svg PUBLIC "-//W3C//DTD SVG 1.1//EN"
	"http://www.w3.org/Graphics/SVG/1.1/DTD/svg11.dtd">
<svg xmlns="http://www.w3.org/2000/svg" version="1.1"
	xmlns:xlink="http://www.w3.org/1999/xlink"
	color="black"
	width="816.00px" height="1128.00px">
<style type="text/css">
.fill {fill: currentColor}
.stroke {stroke: currentColor; fill: none}
text{white-space: pre}
</style>
<title>MP.abc page 1</title>
<!-- Creator: abcm2ps-8.13.8 -->
<!-- CreationDate: Sep 23, 2017 00:19 -->
<!-- CommandLine: -O= -v MP.abc -->
<g stroke-width="0.70">
<!-- title: Marche Pontificale -->
</g>
<g stroke-width="0.70" font-family="serif" font-size="20.00">
<text x="408.00" y="92.00" text-anchor="middle">Marche Pontificale</text>
</g>
<g stroke-width="0.70" font-family="serif" font-size="14.00" font-style="italic">
<text x="748.80" y="116.00" text-anchor="end">Charles Gounod</text>
</g>
<g stroke-width="0.70" font-family="serif" font-size="15.00" font-weight="bold">
<text x="123.70" y="139.00">Allegretto maestoso  </text>
</g>
<g stroke-width="0.70" transform="scale(0.700)" font-family="serif" font-size="15.00" font-weight="bold">
<defs>
<ellipse id="hd" rx="4.1" ry="2.9"
	transform="rotate(-20)" class="fill"/>
</defs>
<use x="385.71" y="195.57" xlink:href="#hd"/>
<path d="M389.21 195.57v-21.00" class="stroke"/>
</g>
<g stroke-width="0.70" font-family="serif" font-size="15.00" font-weight="bold">
<text x="277.70" y="139.00">= 100</text>
<path class="stroke" stroke-width="1"
	d="M67.20 247.00v-89.00"/>
<defs>
<path id="brace" class="fill" d="m-2.5 101
	c-4.5 -4.6 -7.5 -12.2 -4.4 -26.8
	3.5 -14.3 3.2 -21.7 -2.1 -24.2
	7.4 2.4 7.3 14.2 3.5 29.5
	-2.7 9.5 -1.5 16.2 3 21.5
	M-2.5 1c-4.5 4.6 -7.5 12.2 -4.4 26.8
	c3.5 14.3 3.2 21.7 -2.1 24.2
	7.4 -2.4 7.3 -14.2 3.5 -29.5
	-2.7 -9.5 -1.5 -16.2 3 -21.5"/>
</defs>
<g transform="translate(67.20,158.00) scale(1,0.89)">
	<use xlink:href="#brace"/>
</g>
<path class="stroke" stroke-width="1"
	d="M250.50 182.00v-24.00"/>
<path class="stroke" stroke-width="1"
	d="M250.50 247.00v-65.00"/>
<path class="stroke" stroke-width="1"
	d="M385.20 182.00v-24.00"/>
<path class="stroke" stroke-width="1"
	d="M385.20 247.00v-65.00"/>
<path class="stroke" stroke-width="1"
	d="M577.80 182.00v-24.00"/>
<path class="stroke" stroke-width="1"
	d="M577.80 247.00v-65.00"/>
<path class="stroke" stroke-width="1"
	d="M748.80 182.00v-24.00"/>
<path class="stroke" stroke-width="1"
	d="M748.80 247.00v-65.00"/>
<path d="m67.20 182.00
	h681.60
	M67.20 176.00
	h681.60
	M67.20 170.00
	h681.60
	M67.20 164.00
	h681.60
	M67.20 158.00
	h681.60
	" class="stroke"/>
<path d="m67.20 247.00
	h681.60
	M67.20 241.00
	h681.60
	M67.20 235.00
	h681.60
	M67.20 229.00
	h681.60
	M67.20 223.00
	h681.60
	" class="stroke"/>
<defs>
<path id="utclef" class="fill" d="m-50 -90
	c-72 -41 -72 -158 52 -188
	150 -10 220 188 90 256
	-114 52 -275 0 -293 -136
	-15 -181 93 -229 220 -334
	88 -87 79 -133 62 -210
	-51 33 -94 105 -89 186
	17 267 36 374 49 574
	6 96 -19 134 -77 135
	-80 1 -126 -93 -61 -133
	85 -41 133 101 31 105
	23 17 92 37 90 -92
	-10 -223 -39 -342 -50 -617
	0 -90 0 -162 96 -232
	56 72 63 230 22 289
	-74 106 -257 168 -255 316
	9 153 148 185 252 133
	86 -65 29 -192 -80 -176
	-71 12 -105 67 -59 124"/>
<use id="tclef" transform="translate(0,6) scale(0.045)"
	xlink:href="#utclef"/>
</defs>
<use x="79.20" y="176.00" xlink:href="#tclef"/>
<defs>
<path id="uflat" class="fill" d="
	m100 -746
	h32
	v734
	l-32 4
	m32 -332
	c46 -72 152 -90 208 -20
	100 110 -120 326 -208 348
	m0 -28
	c54 0 200 -206 130 -290
	-50 -60 -130 -4 -130 34"/>
<use id="ft0" transform="translate(-3.5,3.5) scale(0.018)"
	xlink:href="#uflat"/>
</defs>
<use x="94.20" y="170.00" xlink:href="#ft0"/>
<defs>
<path id="csig" class="fill" d="
	m6 -5.3
	c0.9 0 2.3 0.7 2.4 2.2
	-1.2 -2 -3.6 0.1 -1.6 1.7
	2 1 3.8 -3.5 -0.8 -4.7
	-2 -0.4 -6.4 1.3 -5.8 7
	0.4 6.4 7.9 6.8 9.1 0.7
	-2.3 5.6 -6.7 5.1 -6.8 0
	-0.5 -4.4 0.7 -7.5 3.5 -6.9"/>
</defs>
<use x="105.20" y="170.00" xlink:href="#csig"/>
<defs>
<path id="Hd" class="fill" d="m3 -1.6
	c-1 -1.8 -7 1.4 -6 3.2
	1 1.8 7 -1.4 6 -3.2
	m0.5 -0.3
	c2 3.8 -5 7.6 -7 3.8
	-2 -3.8 5 -7.6 7 -3.8"/>
</defs>
<use x="128.70" y="173.00" xlink:href="#Hd"/>
<path d="M132.20 173.00v-25.00" class="stroke"/>
<use x="128.70" y="167.00" xlink:href="#Hd"/>
<use x="177.70" y="176.00" xlink:href="#hd"/>
<path d="M181.20 176.00v-28.00" class="stroke"/>
<use x="177.70" y="167.00" xlink:href="#hd"/>
<path class="fill"
	d="M215.70 147.00l26.10 0.00v3.20l-26.10 -0.00"/>
<path class="fill"
	d="M233.50 152.00l8.00 0.00v3.20l-8.00 -0.00"/>
<use x="212.60" y="176.00" xlink:href="#hd"/>
<circle class="fill" cx="220.30" cy="173.00" r="1.2"/>
<path d="M216.10 176.00v-28.00" class="stroke"/>
<use x="212.60" y="167.00" xlink:href="#hd"/>
<circle class="fill" cx="220.30" cy="167.00" r="1.2"/>
<use x="238.00" y="176.00" xlink:href="#hd"/>
<path d="M241.50 176.00v-28.00" class="stroke"/>
<use x="238.00" y="167.00" xlink:href="#hd"/>
<use x="263.50" y="158.00" xlink:href="#Hd"/>
<path d="M260.00 158.00v40.00" class="stroke"/>
<use x="263.50" y="179.00" xlink:href="#Hd"/>
<use x="263.50" y="167.00" xlink:href="#Hd"/>
<use x="312.40" y="179.00" xlink:href="#hd"/>
<path d="M315.90 179.00v-28.00" class="stroke"/>
<use x="312.40" y="170.00" xlink:href="#hd"/>
<path class="fill"
	d="M350.50 150.00l26.10 0.00v3.20l-26.10 -0.00"/>
<path class="fill"
	d="M368.20 155.00l8.00 0.00v3.20l-8.00 -0.00"/>
<use x="347.30" y="179.00" xlink:href="#hd"/>
<circle class="fill" cx="355.00" cy="179.00" r="1.2"/>
<path d="M350.80 179.00v-28.00" class="stroke"/>
<use x="347.30" y="170.00" xlink:href="#hd"/>
<circle class="fill" cx="355.00" cy="167.00" r="1.2"/>
<use x="372.70" y="179.00" xlink:href="#hd"/>
<path d="M376.20 179.00v-28.00" class="stroke"/>
<use x="372.70" y="170.00" xlink:href="#hd"/>
<use x="397.70" y="182.00" xlink:href="#hd"/>
<path d="M401.20 182.00v-31.00" class="stroke"/>
<path class="fill"
	d="M401.20 151.00c0.6 5.6 9.6 9 5.6 18.4
	1.6 -6 -1.3 -11.6 -5.6 -12.8
"/>
<use x="397.70" y="170.00" xlink:href="#hd"/>
<defs>
<path id="r8e" class="fill" d="m 0 0
	c-1.5 1.5 -2.4 2 -3.6 2
	2.4 -2.8 -2.8 -4 -2.8 -1.2
	c0 2.7 4.3 2.4 5.9 0.6"/>
<g id="r8">
	<path d="m3.3 -4l-3.4 9.6" class="stroke"/>
	<use x="3.4" y="-4" xlink:href="#r8e"/>
</g>
</defs>
<use x="420.00" y="170.00" xlink:href="#r8"/>
<use x="444.50" y="179.00" xlink:href="#hd"/>
<path d="M448.00 179.00v-25.00" class="stroke"/>
<path class="fill"
	d="M448.00 154.00c0.6 5.6 9.6 9 5.6 18.4
	1.6 -6 -1.3 -11.6 -5.6 -12.8
"/>
<use x="444.50" y="173.00" xlink:href="#hd"/>
<use x="466.80" y="170.00" xlink:href="#r8"/>
<defs>
<path id="hl" class="stroke" d="m-6 0h12"/>
</defs>
<use x="491.40" y="188.00" xlink:href="#hl"/>
<use x="491.40" y="188.00" xlink:href="#hd"/>
<path d="M494.90 188.00v-31.00" class="stroke"/>
<path class="fill"
	d="M494.90 157.00c0.6 5.6 9.6 9 5.6 18.4
	1.6 -6 -1.3 -11.6 -5.6 -12.8
"/>
<use x="491.40" y="182.00" xlink:href="#hd"/>
<use x="491.40" y="176.00" xlink:href="#hd"/>
<use x="513.60" y="170.00" xlink:href="#r8"/>
<use x="538.20" y="188.00" xlink:href="#hl"/>
<use x="538.20" y="188.00" xlink:href="#hd"/>
<path d="M541.70 188.00v-28.00" class="stroke"/>
<path class="fill"
	d="M541.70 160.00c0.6 5.6 9.6 9 5.6 18.4
	1.6 -6 -1.3 -11.6 -5.6 -12.8
"/>
<use x="538.20" y="179.00" xlink:href="#hd"/>
<use x="560.50" y="170.00" xlink:href="#r8"/>
<use x="590.30" y="188.00" xlink:href="#hl"/>
<use x="590.30" y="188.00" xlink:href="#hd"/>
<circle class="fill" cx="598.00" cy="185.00" r="1.2"/>
<path d="M593.80 188.00v-40.00" class="stroke"/>
<use x="590.30" y="182.00" xlink:href="#hd"/>
<circle class="fill" cx="598.00" cy="179.00" r="1.2"/>
<use x="590.30" y="167.00" xlink:href="#hd"/>
<circle class="fill" cx="598.00" cy="167.00" r="1.2"/>
<use x="649.50" y="188.00" xlink:href="#hl"/>
<use x="649.50" y="188.00" xlink:href="#hd"/>
<path d="M653.00 188.00v-37.00" class="stroke"/>
<path class="fill"
	d="M653.00 151.00c0.6 5.6 9.6 9 5.6 18.4
	1.6 -6 -1.3 -11.6 -5.6 -12.8
"/>
<use x="649.50" y="179.00" xlink:href="#hd"/>
<use x="649.50" y="170.00" xlink:href="#hd"/>
<use x="674.30" y="188.00" xlink:href="#hl"/>
<use x="674.30" y="188.00" xlink:href="#hd"/>
<path d="M677.80 188.00v-34.00" class="stroke"/>
<use x="674.30" y="179.00" xlink:href="#hd"/>
<use x="674.30" y="173.00" xlink:href="#hd"/>
<use x="709.20" y="188.00" xlink:href="#hl"/>
<use x="709.20" y="188.00" xlink:href="#hd"/>
<path d="M712.70 188.00v-34.00" class="stroke"/>
<path class="fill"
	d="M712.70 154.00c0.6 5.6 9.6 9 5.6 18.4
	1.6 -6 -1.3 -11.6 -5.6 -12.8
"/>
<use x="709.20" y="179.00" xlink:href="#hd"/>
<use x="709.20" y="173.00" xlink:href="#hd"/>
<use x="731.40" y="170.00" xlink:href="#r8"/>
<path class="fill"
	d="M181.20 176.00c4.39 5.00 23.50 5.00 27.89 -0.00
	v0.23c-5.23 6.77 -22.66 6.77 -27.89 -0.23"/>
<path class="fill"
	d="M181.20 167.00c4.39 -5.00 23.50 -5.00 27.89 -0.00
	v-0.23c-5.23 -6.77 -22.66 -6.77 -27.89 0.23"/>
<path class="fill"
	d="M315.90 179.00c4.39 5.00 23.50 5.00 27.89 -0.00
	v0.23c-5.23 6.77 -22.66 6.77 -27.89 -0.23"/>
<path class="fill"
	d="M315.90 170.00c4.39 -5.00 23.50 -5.00 27.89 -0.00
	v-0.23c-5.23 -6.77 -22.66 -6.77 -27.89 0.23"/>
<path class="fill"
	d="M677.80 188.00c4.39 5.00 23.50 5.00 27.89 -0.00
	v0.23c-5.23 6.77 -22.66 6.77 -27.89 -0.23"/>
<path class="fill"
	d="M677.80 179.00c4.39 5.00 23.50 5.00 27.89 -0.00
	v0.23c-5.23 6.77 -22.66 6.77 -27.89 -0.23"/>
<path class="fill"
	d="M677.80 173.00c4.39 -5.00 23.50 -5.00 27.89 -0.00
	v-0.23c-5.23 -6.77 -22.66 -6.77 -27.89 0.23"/>
<defs>
<path id="ubclef" class="fill" d="m-200 -87
	c124 -35 222 -78 254 -236
	43 -228 -167 -246 -192 -103
	59 -80 157 22 92 78
	-62 47 -115 -22 -106 -88
	21 -141 270 -136 274 52
	-1 175 -106 264 -322 297
	m357 -250
	c0 -36 51 -34 51 0
	0 37 -51 36 -51 0
	m-2 -129
	c0 -36 51 -34 51 0
	0 38 -51 37 -51 0"/>
<use id="bclef" transform="translate(0,18) scale(0.045)"
	xlink:href="#ubclef"/>
</defs>
<use x="79.20" y="229.00" xlink:href="#bclef"/>
<use x="94.20" y="241.00" xlink:href="#ft0"/>
<use x="105.20" y="235.00" xlink:href="#csig"/>
<use x="128.70" y="217.00" xlink:href="#hl"/>
<use x="128.70" y="211.00" xlink:href="#hl"/>
<use x="128.70" y="208.00" xlink:href="#Hd"/>
<path d="M125.20 208.00v27.00" class="stroke"/>
<use x="177.70" y="217.00" xlink:href="#hl"/>
<use x="177.70" y="211.00" xlink:href="#hl"/>
<use x="177.70" y="211.00" xlink:href="#hd"/>
<path d="M174.20 211.00v24.00" class="stroke"/>
<path class="fill"
	d="M208.70 235.20l26.10 0.00v-3.20l-26.10 -0.00"/>
<path class="fill"
	d="M226.50 230.20l8.00 0.00v-3.20l-8.00 -0.00"/>
<use x="212.60" y="217.00" xlink:href="#hl"/>
<use x="212.60" y="211.00" xlink:href="#hl"/>
<use x="212.60" y="211.00" xlink:href="#hd"/>
<circle class="fill" cx="220.30" cy="208.00" r="1.2"/>
<path d="M209.10 211.00v23.20" class="stroke"/>
<use x="238.00" y="217.00" xlink:href="#hl"/>
<use x="238.00" y="211.00" xlink:href="#hl"/>
<use x="238.00" y="211.00" xlink:href="#hd"/>
<path d="M234.50 211.00v23.20" class="stroke"/>
<use x="263.50" y="217.00" xlink:href="#hl"/>
<use x="263.50" y="214.00" xlink:href="#Hd"/>
<path d="M260.00 214.00v21.00" class="stroke"/>
<use x="312.40" y="217.00" xlink:href="#hl"/>
<use x="312.40" y="214.00" xlink:href="#hd"/>
<path d="M308.90 214.00v21.00" class="stroke"/>
<path class="fill"
	d="M343.50 236.90l26.10 0.00v-3.20l-26.10 -0.00"/>
<path class="fill"
	d="M361.20 231.90l8.00 0.00v-3.20l-8.00 -0.00"/>
<use x="347.30" y="217.00" xlink:href="#hl"/>
<use x="347.30" y="214.00" xlink:href="#hd"/>
<circle class="fill" cx="355.00" cy="214.00" r="1.2"/>
<path d="M343.80 214.00v21.90" class="stroke"/>
<use x="372.70" y="217.00" xlink:href="#hl"/>
<use x="372.70" y="214.00" xlink:href="#hd"/>
<path d="M369.20 214.00v21.90" class="stroke"/>
<use x="397.70" y="217.00" xlink:href="#hl"/>
<use x="397.70" y="217.00" xlink:href="#hd"/>
<path d="M394.20 217.00v21.00" class="stroke"/>
<path class="fill"
	d="M394.20 238.00c0.6 -5.6 9.6 -9 5.6 -18.4
	1.6 6 -1.3 11.6 -5.6 12.8
"/>
<use x="420.00" y="235.00" xlink:href="#r8"/>
<use x="444.50" y="217.00" xlink:href="#hl"/>
<use x="444.50" y="217.00" xlink:href="#hd"/>
<path d="M441.00 217.00v21.00" class="stroke"/>
<path class="fill"
	d="M441.00 238.00c0.6 -5.6 9.6 -9 5.6 -18.4
	1.6 6 -1.3 11.6 -5.6 12.8
"/>
<use x="466.80" y="235.00" xlink:href="#r8"/>
<use x="491.40" y="220.00" xlink:href="#hd"/>
<path d="M487.90 220.00v21.00" class="stroke"/>
<path class="fill"
	d="M487.90 241.00c0.6 -5.6 9.6 -9 5.6 -18.4
	1.6 6 -1.3 11.6 -5.6 12.8
"/>
<use x="513.60" y="235.00" xlink:href="#r8"/>
<use x="538.20" y="223.00" xlink:href="#hd"/>
<path d="M534.70 223.00v21.00" class="stroke"/>
<path class="fill"
	d="M534.70 244.00c0.6 -5.6 9.6 -9 5.6 -18.4
	1.6 6 -1.3 11.6 -5.6 12.8
"/>
<use x="560.50" y="235.00" xlink:href="#r8"/>
<use x="590.30" y="226.00" xlink:href="#hd"/>
<path d="M586.80 226.00v21.00" class="stroke"/>
<use x="625.00" y="238.00" xlink:href="#hd"/>
<path d="M628.50 238.00v-21.00" class="stroke"/>
<use x="674.30" y="229.00" xlink:href="#hd"/>
<path d="M670.80 229.00v21.00" class="stroke"/>
<use x="709.20" y="229.00" xlink:href="#hd"/>
<path d="M705.70 229.00v21.00" class="stroke"/>
<path class="fill"
	d="M705.70 250.00c0.6 -5.6 9.6 -9 5.6 -18.4
	1.6 6 -1.3 11.6 -5.6 12.8
"/>
<use x="731.40" y="235.00" xlink:href="#r8"/>
<path class="fill"
	d="M181.20 211.00c4.39 -5.00 23.50 -5.00 27.89 -0.00
	v-0.23c-5.23 -6.77 -22.66 -6.77 -27.89 0.23"/>
<path class="fill"
	d="M315.90 214.00c4.39 -5.00 23.50 -5.00 27.89 -0.00
	v-0.23c-5.23 -6.77 -22.66 -6.77 -27.89 0.23"/>
<path class="fill"
	d="M677.80 229.00c4.39 -5.00 23.50 -5.00 27.89 -0.00
	v-0.23c-5.23 -6.77 -22.66 -6.77 -27.89 0.23"/>
<text font-family="serif" font-size="16" font-weight="bold" font-style="italic"
	x="127.70" y="193.40">f</text>
<text font-family="serif" font-size="16" font-weight="bold" font-style="italic"
	x="127.70" y="258.40">f</text>
</g>
<g stroke-width="0.70" font-family="serif" font-size="15.00" font-weight="bold">
<path class="stroke" stroke-width="1"
	d="M67.20 377.00v-84.00"/>
<g transform="translate(67.20,293.00) scale(1,0.84)">
	<use xlink:href="#brace"/>
</g>
<path class="stroke" stroke-width="1"
	d="M235.20 317.00v-24.00"/>
<path class="stroke" stroke-width="1"
	d="M235.20 377.00v-60.00"/>
<path class="stroke" stroke-width="1"
	d="M382.90 317.00v-24.00"/>
<path class="stroke" stroke-width="1"
	d="M382.90 377.00v-60.00"/>
<path class="stroke" stroke-width="1"
	d="M577.00 317.00v-24.00"/>
<path class="stroke" stroke-width="1"
	d="M577.00 377.00v-60.00"/>
<path class="stroke" stroke-width="1"
	d="M748.80 317.00v-24.00"/>
<path class="stroke" stroke-width="1"
	d="M748.80 377.00v-60.00"/>
<path d="m67.20 317.00
	h681.60
	M67.20 311.00
	h681.60
	M67.20 305.00
	h681.60
	M67.20 299.00
	h681.60
	M67.20 293.00
	h681.60
	" class="stroke"/>
<path d="m67.20 377.00
	h681.60
	M67.20 371.00
	h681.60
	M67.20 365.00
	h681.60
	M67.20 359.00
	h681.60
	M67.20 353.00
	h681.60
	" class="stroke"/>
<path class="fill"
	d="M248.20 304.00c7.05 5.70 38.44 12.33 45.50 9.60
	v0.25c-8.42 4.48 -37.08 -2.14 -45.50 -9.85"/>
<use x="79.20" y="311.00" xlink:href="#tclef"/>
<use x="94.20" y="305.00" xlink:href="#ft0"/>
<use x="112.70" y="314.00" xlink:href="#Hd"/>
<path d="M116.20 314.00v-25.00" class="stroke"/>
<use x="112.70" y="308.00" xlink:href="#Hd"/>
<use x="162.00" y="317.00" xlink:href="#hd"/>
<path d="M165.50 317.00v-28.00" class="stroke"/>
<use x="162.00" y="308.00" xlink:href="#hd"/>
<path class="fill"
	d="M200.30 286.80l26.30 0.00v3.20l-26.30 -0.00"/>
<path class="fill"
	d="M218.20 291.80l8.00 0.00v3.20l-8.00 -0.00"/>
<use x="197.10" y="317.00" xlink:href="#hd"/>
<circle class="fill" cx="204.80" cy="314.00" r="1.2"/>
<path d="M200.60 317.00v-29.20" class="stroke"/>
<use x="197.10" y="308.00" xlink:href="#hd"/>
<circle class="fill" cx="204.80" cy="308.00" r="1.2"/>
<use x="222.70" y="314.00" xlink:href="#hd"/>
<path d="M226.20 314.00v-26.20" class="stroke"/>
<use x="222.70" y="308.00" xlink:href="#hd"/>
<use x="248.20" y="320.00" xlink:href="#Hd"/>
<path d="M251.70 320.00v-40.00" class="stroke"/>
<use x="248.20" y="308.00" xlink:href="#Hd"/>
<use x="248.20" y="299.00" xlink:href="#Hd"/>
<use x="297.70" y="320.00" xlink:href="#hd"/>
<path d="M301.20 320.00v-28.00" class="stroke"/>
<path class="fill"
	d="M301.20 292.00c0.6 5.6 9.6 9 5.6 18.4
	1.6 -6 -1.3 -11.6 -5.6 -12.8
"/>
<use x="297.70" y="311.00" xlink:href="#hd"/>
<use x="320.10" y="305.00" xlink:href="#r8"/>
<path class="fill"
	d="M348.00 286.80l26.30 0.00v3.20l-26.30 -0.00"/>
<path class="fill"
	d="M365.90 291.80l8.00 0.00v3.20l-8.00 -0.00"/>
<use x="344.80" y="314.00" xlink:href="#hd"/>
<circle class="fill" cx="352.50" cy="314.00" r="1.2"/>
<path d="M348.30 314.00v-26.20" class="stroke"/>
<use x="344.80" y="308.00" xlink:href="#hd"/>
<circle class="fill" cx="352.50" cy="308.00" r="1.2"/>
<use x="370.40" y="314.00" xlink:href="#hd"/>
<path d="M373.90 314.00v-26.20" class="stroke"/>
<use x="370.40" y="308.00" xlink:href="#hd"/>
<use x="395.50" y="317.00" xlink:href="#hd"/>
<path d="M399.00 317.00v-31.00" class="stroke"/>
<path class="fill"
	d="M399.00 286.00c0.6 5.6 9.6 9 5.6 18.4
	1.6 -6 -1.3 -11.6 -5.6 -12.8
"/>
<use x="395.50" y="305.00" xlink:href="#hd"/>
<use x="417.90" y="305.00" xlink:href="#r8"/>
<use x="442.60" y="314.00" xlink:href="#hd"/>
<path d="M446.10 314.00v-25.00" class="stroke"/>
<path class="fill"
	d="M446.10 289.00c0.6 5.6 9.6 9 5.6 18.4
	1.6 -6 -1.3 -11.6 -5.6 -12.8
"/>
<use x="442.60" y="308.00" xlink:href="#hd"/>
<use x="465.00" y="305.00" xlink:href="#r8"/>
<use x="489.80" y="323.00" xlink:href="#hl"/>
<use x="489.80" y="323.00" xlink:href="#hd"/>
<path d="M493.30 323.00v-31.00" class="stroke"/>
<path class="fill"
	d="M493.30 292.00c0.6 5.6 9.6 9 5.6 18.4
	1.6 -6 -1.3 -11.6 -5.6 -12.8
"/>
<use x="489.80" y="311.00" xlink:href="#hd"/>
<use x="512.20" y="305.00" xlink:href="#r8"/>
<use x="537.10" y="320.00" xlink:href="#hd"/>
<path d="M540.60 320.00v-25.00" class="stroke"/>
<path class="fill"
	d="M540.60 295.00c0.6 5.6 9.6 9 5.6 18.4
	1.6 -6 -1.3 -11.6 -5.6 -12.8
"/>
<use x="537.10" y="314.00" xlink:href="#hd"/>
<use x="559.60" y="305.00" xlink:href="#r8"/>
<use x="595.50" y="320.00" xlink:href="#hd"/>
<path d="M599.00 320.00v-40.00" class="stroke"/>
<use x="595.50" y="314.00" xlink:href="#hd"/>
<use x="595.50" y="299.00" xlink:href="#hd"/>
<path class="fill"
	d="M633.80 279.30l26.20 2.50v3.20l-26.20 -2.50"/>
<path class="fill"
	d="M651.70 286.00l8.00 0.80v3.20l-8.00 -0.80"/>
<use x="630.70" y="320.00" xlink:href="#hd"/>
<circle class="fill" cx="638.40" cy="320.00" r="1.2"/>
<path d="M634.20 320.00v-39.70" class="stroke"/>
<use x="630.70" y="314.00" xlink:href="#hd"/>
<circle class="fill" cx="638.40" cy="314.00" r="1.2"/>
<use x="630.70" y="299.00" xlink:href="#hd"/>
<circle class="fill" cx="638.40" cy="296.00" r="1.2"/>
<use x="656.20" y="317.00" xlink:href="#hd"/>
<path d="M659.70 317.00v-34.30" class="stroke"/>
<use x="656.20" y="302.00" xlink:href="#hd"/>
<use x="673.80" y="317.00" xlink:href="#hd"/>
<path d="M677.30 317.00v-34.00" class="stroke"/>
<use x="673.80" y="302.00" xlink:href="#hd"/>
<use x="708.90" y="317.00" xlink:href="#hd"/>
<path d="M712.40 317.00v-34.00" class="stroke"/>
<path class="fill"
	d="M712.40 283.00c0.6 5.6 9.6 9 5.6 18.4
	1.6 -6 -1.3 -11.6 -5.6 -12.8
"/>
<use x="708.90" y="302.00" xlink:href="#hd"/>
<use x="731.30" y="305.00" xlink:href="#r8"/>
<path class="fill"
	d="M165.50 317.00c4.43 5.01 23.69 5.01 28.12 -0.00
	v0.23c-5.27 6.78 -22.85 6.78 -28.12 -0.23"/>
<path class="fill"
	d="M165.50 308.00c4.43 -5.01 23.69 -5.01 28.12 -0.00
	v-0.23c-5.27 -6.78 -22.85 -6.78 -28.12 0.23"/>
<path class="fill"
	d="M251.70 320.00c6.65 5.26 35.85 5.26 42.50 -0.00
	v0.24c-7.92 7.02 -34.58 7.02 -42.50 -0.24"/>
<path class="fill"
	d="M599.00 320.00c4.43 5.01 23.69 5.01 28.12 -0.00
	v0.23c-5.27 6.78 -22.85 6.78 -28.12 -0.23"/>
<path class="fill"
	d="M599.00 314.00c4.43 5.01 23.69 5.01 28.12 -0.00
	v0.23c-5.27 6.78 -22.85 6.78 -28.12 -0.23"/>
<path class="fill"
	d="M599.00 299.00c4.43 -5.01 23.69 -5.01 28.12 -0.00
	v-0.23c-5.27 -6.78 -22.85 -6.78 -28.12 0.23"/>
<path class="fill"
	d="M677.30 317.00c4.43 5.01 23.69 5.01 28.12 -0.00
	v0.23c-5.27 6.78 -22.85 6.78 -28.12 -0.23"/>
<path class="fill"
	d="M677.30 302.00c4.43 -5.01 23.69 -5.01 28.12 -0.00
	v-0.23c-5.27 -6.78 -22.85 -6.78 -28.12 0.23"/>
<use x="79.20" y="359.00" xlink:href="#bclef"/>
<use x="94.20" y="371.00" xlink:href="#ft0"/>
<use x="112.70" y="347.00" xlink:href="#hl"/>
<use x="112.70" y="344.00" xlink:href="#Hd"/>
<path d="M109.20 344.00v21.00" class="stroke"/>
<use x="162.00" y="347.00" xlink:href="#hl"/>
<use x="162.00" y="347.00" xlink:href="#hd"/>
<path d="M158.50 347.00v21.00" class="stroke"/>
<path class="fill"
	d="M193.30 371.20l26.30 0.00v-3.20l-26.30 -0.00"/>
<path class="fill"
	d="M211.20 366.20l8.00 0.00v-3.20l-8.00 -0.00"/>
<use x="197.10" y="347.00" xlink:href="#hl"/>
<use x="197.10" y="347.00" xlink:href="#hd"/>
<circle class="fill" cx="204.80" cy="344.00" r="1.2"/>
<path d="M193.60 347.00v23.20" class="stroke"/>
<use x="222.70" y="347.00" xlink:href="#hl"/>
<use x="222.70" y="347.00" xlink:href="#hd"/>
<path d="M219.20 347.00v23.20" class="stroke"/>
<use x="248.20" y="350.00" xlink:href="#Hd"/>
<path d="M244.70 350.00v21.00" class="stroke"/>
<use x="297.70" y="350.00" xlink:href="#hd"/>
<path d="M294.20 350.00v21.00" class="stroke"/>
<path class="fill"
	d="M294.20 371.00c0.6 -5.6 9.6 -9 5.6 -18.4
	1.6 6 -1.3 11.6 -5.6 12.8
"/>
<use x="320.10" y="365.00" xlink:href="#r8"/>
<path class="fill"
	d="M341.00 372.90l26.30 0.00v-3.20l-26.30 -0.00"/>
<path class="fill"
	d="M358.90 367.90l8.00 0.00v-3.20l-8.00 -0.00"/>
<use x="344.80" y="347.00" xlink:href="#hl"/>
<use x="344.80" y="347.00" xlink:href="#hd"/>
<circle class="fill" cx="352.50" cy="344.00" r="1.2"/>
<path d="M341.30 347.00v24.90" class="stroke"/>
<use x="344.80" y="353.00" xlink:href="#hd"/>
<circle class="fill" cx="352.50" cy="350.00" r="1.2"/>
<use x="370.40" y="347.00" xlink:href="#hl"/>
<use x="370.40" y="347.00" xlink:href="#hd"/>
<path d="M366.90 347.00v24.90" class="stroke"/>
<use x="370.40" y="353.00" xlink:href="#hd"/>
<use x="395.50" y="347.00" xlink:href="#hl"/>
<use x="395.50" y="347.00" xlink:href="#hd"/>
<path d="M392.00 347.00v28.00" class="stroke"/>
<path class="fill"
	d="M392.00 375.00c0.6 -5.6 9.6 -9 5.6 -18.4
	1.6 6 -1.3 11.6 -5.6 12.8
"/>
<use x="395.50" y="356.00" xlink:href="#hd"/>
<use x="417.90" y="365.00" xlink:href="#r8"/>
<use x="442.60" y="347.00" xlink:href="#hl"/>
<use x="442.60" y="347.00" xlink:href="#hd"/>
<path d="M439.10 347.00v31.00" class="stroke"/>
<path class="fill"
	d="M439.10 378.00c0.6 -5.6 9.6 -9 5.6 -18.4
	1.6 6 -1.3 11.6 -5.6 12.8
"/>
<use x="442.60" y="359.00" xlink:href="#hd"/>
<use x="465.00" y="365.00" xlink:href="#r8"/>
<use x="489.80" y="356.00" xlink:href="#hd"/>
<path d="M486.30 356.00v25.00" class="stroke"/>
<path class="fill"
	d="M486.30 381.00c0.6 -5.6 9.6 -9 5.6 -18.4
	1.6 6 -1.3 11.6 -5.6 12.8
"/>
<use x="489.80" y="362.00" xlink:href="#hd"/>
<use x="512.20" y="365.00" xlink:href="#r8"/>
<use x="537.10" y="350.00" xlink:href="#hd"/>
<defs>
<path id="unat" class="fill" d="
	m96 -750
	h-32
	v716
	l32 -8
	182 -54
	v282
	h32
	v-706
	l-34 10
	-180 50
	v-290
	m0 592
	v-190
	l182 -52
	v188"/>
<use id="nt0" transform="translate(-3,5) scale(0.018)"
	xlink:href="#unat"/>
</defs>
<use x="528.10" y="350.00" xlink:href="#nt0"/>
<path d="M533.60 350.00v25.00" class="stroke"/>
<path class="fill"
	d="M533.60 375.00c0.6 -5.6 9.6 -9 5.6 -18.4
	1.6 6 -1.3 11.6 -5.6 12.8
"/>
<use x="537.10" y="356.00" xlink:href="#hd"/>
<use x="559.60" y="365.00" xlink:href="#r8"/>
<use x="595.50" y="350.00" xlink:href="#hd"/>
<use x="586.50" y="350.00" xlink:href="#nt0"/>
<path d="M592.00 350.00v25.00" class="stroke"/>
<use x="595.50" y="356.00" xlink:href="#hd"/>
<path class="fill"
	d="M626.80 379.90l26.20 6.40v-3.20l-26.20 -6.40"/>
<path class="fill"
	d="M644.70 379.30l8.00 1.90v-3.20l-8.00 -1.90"/>
<use x="630.70" y="350.00" xlink:href="#hd"/>
<circle class="fill" cx="638.40" cy="350.00" r="1.2"/>
<path d="M627.20 350.00v29.00" class="stroke"/>
<use x="630.70" y="356.00" xlink:href="#hd"/>
<circle class="fill" cx="638.40" cy="356.00" r="1.2"/>
<use x="656.20" y="347.00" xlink:href="#hl"/>
<use x="656.20" y="347.00" xlink:href="#hd"/>
<path d="M652.70 347.00v38.20" class="stroke"/>
<use x="656.20" y="368.00" xlink:href="#hd"/>
<use x="656.20" y="356.00" xlink:href="#hd"/>
<use x="673.80" y="347.00" xlink:href="#hl"/>
<use x="673.80" y="347.00" xlink:href="#hd"/>
<path d="M670.30 347.00v40.00" class="stroke"/>
<use x="673.80" y="368.00" xlink:href="#hd"/>
<use x="673.80" y="356.00" xlink:href="#hd"/>
<use x="708.90" y="347.00" xlink:href="#hl"/>
<use x="708.90" y="347.00" xlink:href="#hd"/>
<path d="M705.40 347.00v40.00" class="stroke"/>
<path class="fill"
	d="M705.40 387.00c0.6 -5.6 9.6 -9 5.6 -18.4
	1.6 6 -1.3 11.6 -5.6 12.8
"/>
<use x="708.90" y="368.00" xlink:href="#hd"/>
<use x="708.90" y="356.00" xlink:href="#hd"/>
<use x="731.30" y="365.00" xlink:href="#r8"/>
<path class="fill"
	d="M165.50 347.00c4.43 -5.01 23.69 -5.01 28.12 -0.00
	v-0.23c-5.27 -6.78 -22.85 -6.78 -28.12 0.23"/>
<path class="fill"
	d="M251.70 350.00c6.65 -5.26 35.85 -5.26 42.50 -0.00
	v-0.24c-7.92 -7.02 -34.58 -7.02 -42.50 0.24"/>
<path class="fill"
	d="M599.00 356.00c4.43 5.01 23.69 5.01 28.12 -0.00
	v0.23c-5.27 6.78 -22.85 6.78 -28.12 -0.23"/>
<path class="fill"
	d="M599.00 350.00c4.43 -5.01 23.69 -5.01 28.12 -0.00
	v-0.23c-5.27 -6.78 -22.85 -6.78 -28.12 0.23"/>
<path class="fill"
	d="M677.30 368.00c4.43 5.01 23.69 5.01 28.12 -0.00
	v0.23c-5.27 6.78 -22.85 6.78 -28.12 -0.23"/>
<path class="fill"
	d="M677.30 356.00c4.43 -5.01 23.69 -5.01 28.12 -0.00
	v-0.23c-5.27 -6.78 -22.85 -6.78 -28.12 0.23"/>
<path class="fill"
	d="M677.30 347.00c4.43 -5.01 23.69 -5.01 28.12 -0.00
	v-0.23c-5.27 -6.78 -22.85 -6.78 -28.12 0.23"/>
<text font-family="serif" font-size="16" font-weight="bold" font-style="italic"
	x="111.70" y="329.40">f</text>
<text font-family="serif" font-size="16" font-weight="bold" font-style="italic"
	x="111.70" y="388.40">f</text>
</g>
<g stroke-width="0.70" font-family="serif" font-size="15.00" font-weight="bold">
<path class="stroke" stroke-width="1"
	d="M67.20 505.00v-82.00"/>
<g transform="translate(67.20,423.00) scale(1,0.82)">
	<use xlink:href="#brace"/>
</g>
<path class="stroke" stroke-width="1"
	d="M238.10 447.00v-24.00"/>
<path class="stroke" stroke-width="1"
	d="M238.10 505.00v-58.00"/>
<path class="stroke" stroke-width="1"
	d="M376.50 447.00v-24.00"/>
<path class="stroke" stroke-width="1"
	d="M376.50 505.00v-58.00"/>
<path class="stroke" stroke-width="1"
	d="M572.60 447.00v-24.00"/>
<path class="stroke" stroke-width="1"
	d="M572.60 505.00v-58.00"/>
<path class="stroke" stroke-width="1"
	d="M748.80 447.00v-24.00"/>
<path class="stroke" stroke-width="1"
	d="M748.80 505.00v-58.00"/>
<path d="m67.20 447.00
	h681.60
	M67.20 441.00
	h681.60
	M67.20 435.00
	h681.60
	M67.20 429.00
	h681.60
	M67.20 423.00
	h681.60
	" class="stroke"/>
<path d="m67.20 505.00
	h681.60
	M67.20 499.00
	h681.60
	M67.20 493.00
	h681.60
	M67.20 487.00
	h681.60
	M67.20 481.00
	h681.60
	" class="stroke"/>
<use x="79.20" y="441.00" xlink:href="#tclef"/>
<use x="94.20" y="435.00" xlink:href="#ft0"/>
<use x="112.70" y="438.00" xlink:href="#Hd"/>
<path d="M116.20 438.00v-25.00" class="stroke"/>
<use x="112.70" y="432.00" xlink:href="#Hd"/>
<use x="163.40" y="441.00" xlink:href="#hd"/>
<path d="M166.90 441.00v-28.00" class="stroke"/>
<use x="163.40" y="432.00" xlink:href="#hd"/>
<path class="fill"
	d="M202.50 412.00l26.80 0.00v3.20l-26.80 -0.00"/>
<path class="fill"
	d="M220.90 417.00l8.00 0.00v3.20l-8.00 -0.00"/>
<use x="199.30" y="441.00" xlink:href="#hd"/>
<circle class="fill" cx="207.00" cy="438.00" r="1.2"/>
<path d="M202.80 441.00v-28.00" class="stroke"/>
<use x="199.30" y="432.00" xlink:href="#hd"/>
<circle class="fill" cx="207.00" cy="432.00" r="1.2"/>
<use x="225.40" y="441.00" xlink:href="#hd"/>
<path d="M228.90 441.00v-28.00" class="stroke"/>
<use x="225.40" y="432.00" xlink:href="#hd"/>
<use x="251.10" y="423.00" xlink:href="#Hd"/>
<path d="M247.60 423.00v40.00" class="stroke"/>
<use x="251.10" y="444.00" xlink:href="#Hd"/>
<use x="251.10" y="432.00" xlink:href="#Hd"/>
<use x="301.80" y="444.00" xlink:href="#hd"/>
<path d="M305.30 444.00v-28.00" class="stroke"/>
<use x="301.80" y="435.00" xlink:href="#hd"/>
<path class="fill"
	d="M340.90 415.00l26.80 0.00v3.20l-26.80 -0.00"/>
<path class="fill"
	d="M359.30 420.00l8.00 0.00v3.20l-8.00 -0.00"/>
<use x="337.70" y="444.00" xlink:href="#hd"/>
<circle class="fill" cx="345.40" cy="444.00" r="1.2"/>
<path d="M341.20 444.00v-28.00" class="stroke"/>
<use x="337.70" y="435.00" xlink:href="#hd"/>
<circle class="fill" cx="345.40" cy="432.00" r="1.2"/>
<use x="363.80" y="444.00" xlink:href="#hd"/>
<path d="M367.30 444.00v-28.00" class="stroke"/>
<use x="363.80" y="435.00" xlink:href="#hd"/>
<use x="389.30" y="447.00" xlink:href="#hd"/>
<path d="M392.80 447.00v-31.00" class="stroke"/>
<path class="fill"
	d="M392.80 416.00c0.6 5.6 9.6 9 5.6 18.4
	1.6 -6 -1.3 -11.6 -5.6 -12.8
"/>
<use x="389.30" y="435.00" xlink:href="#hd"/>
<use x="412.20" y="435.00" xlink:href="#r8"/>
<use x="437.60" y="444.00" xlink:href="#hd"/>
<path d="M441.10 444.00v-25.00" class="stroke"/>
<path class="fill"
	d="M441.10 419.00c0.6 5.6 9.6 9 5.6 18.4
	1.6 -6 -1.3 -11.6 -5.6 -12.8
"/>
<use x="437.60" y="438.00" xlink:href="#hd"/>
<use x="460.50" y="435.00" xlink:href="#r8"/>
<use x="486.00" y="453.00" xlink:href="#hl"/>
<use x="486.00" y="453.00" xlink:href="#hd"/>
<path d="M489.50 453.00v-31.00" class="stroke"/>
<path class="fill"
	d="M489.50 422.00c0.6 5.6 9.6 9 5.6 18.4
	1.6 -6 -1.3 -11.6 -5.6 -12.8
"/>
<use x="486.00" y="447.00" xlink:href="#hd"/>
<use x="486.00" y="441.00" xlink:href="#hd"/>
<use x="508.90" y="435.00" xlink:href="#r8"/>
<use x="531.80" y="453.00" xlink:href="#hl"/>
<use x="531.80" y="453.00" xlink:href="#hd"/>
<path d="M535.30 453.00v-28.00" class="stroke"/>
<path class="fill"
	d="M535.30 425.00c0.6 5.6 9.6 9 5.6 18.4
	1.6 -6 -1.3 -11.6 -5.6 -12.8
"/>
<use x="531.80" y="444.00" xlink:href="#hd"/>
<use x="554.70" y="435.00" xlink:href="#r8"/>
<use x="585.40" y="453.00" xlink:href="#hl"/>
<use x="585.40" y="453.00" xlink:href="#hd"/>
<circle class="fill" cx="593.10" cy="450.00" r="1.2"/>
<path d="M588.90 453.00v-40.00" class="stroke"/>
<use x="585.40" y="447.00" xlink:href="#hd"/>
<circle class="fill" cx="593.10" cy="444.00" r="1.2"/>
<use x="585.40" y="432.00" xlink:href="#hd"/>
<circle class="fill" cx="593.10" cy="432.00" r="1.2"/>
<use x="646.60" y="453.00" xlink:href="#hl"/>
<use x="646.60" y="453.00" xlink:href="#hd"/>
<path d="M650.10 453.00v-37.00" class="stroke"/>
<path class="fill"
	d="M650.10 416.00c0.6 5.6 9.6 9 5.6 18.4
	1.6 -6 -1.3 -11.6 -5.6 -12.8
"/>
<use x="646.60" y="444.00" xlink:href="#hd"/>
<use x="646.60" y="435.00" xlink:href="#hd"/>
<use x="672.10" y="453.00" xlink:href="#hl"/>
<use x="672.10" y="453.00" xlink:href="#hd"/>
<path d="M675.60 453.00v-34.00" class="stroke"/>
<use x="672.10" y="444.00" xlink:href="#hd"/>
<use x="672.10" y="438.00" xlink:href="#hd"/>
<use x="708.00" y="453.00" xlink:href="#hl"/>
<use x="708.00" y="453.00" xlink:href="#hd"/>
<path d="M711.50 453.00v-34.00" class="stroke"/>
<path class="fill"
	d="M711.50 419.00c0.6 5.6 9.6 9 5.6 18.4
	1.6 -6 -1.3 -11.6 -5.6 -12.8
"/>
<use x="708.00" y="444.00" xlink:href="#hd"/>
<use x="708.00" y="438.00" xlink:href="#hd"/>
<use x="730.90" y="435.00" xlink:href="#r8"/>
<path class="fill"
	d="M166.90 441.00c4.56 5.02 24.40 5.02 28.96 -0.00
	v0.23c-5.43 6.79 -23.53 6.79 -28.96 -0.23"/>
<path class="fill"
	d="M166.90 432.00c4.56 -5.02 24.40 -5.02 28.96 -0.00
	v-0.23c-5.43 -6.79 -23.53 -6.79 -28.96 0.23"/>
<path class="fill"
	d="M305.30 444.00c4.56 5.02 24.40 5.02 28.96 -0.00
	v0.23c-5.43 6.79 -23.53 6.79 -28.96 -0.23"/>
<path class="fill"
	d="M305.30 435.00c4.56 -5.02 24.40 -5.02 28.96 -0.00
	v-0.23c-5.43 -6.79 -23.53 -6.79 -28.96 0.23"/>
<path class="fill"
	d="M675.60 453.00c4.56 5.02 24.40 5.02 28.96 -0.00
	v0.23c-5.43 6.79 -23.53 6.79 -28.96 -0.23"/>
<path class="fill"
	d="M675.60 444.00c4.56 5.02 24.40 5.02 28.96 -0.00
	v0.23c-5.43 6.79 -23.53 6.79 -28.96 -0.23"/>
<path class="fill"
	d="M675.60 438.00c4.56 -5.02 24.40 -5.02 28.96 -0.00
	v-0.23c-5.43 -6.79 -23.53 -6.79 -28.96 0.23"/>
<use x="79.20" y="487.00" xlink:href="#bclef"/>
<use x="94.20" y="499.00" xlink:href="#ft0"/>
<use x="112.70" y="475.00" xlink:href="#hl"/>
<use x="112.70" y="475.00" xlink:href="#Hd"/>
<path d="M109.20 475.00v31.00" class="stroke"/>
<use x="112.70" y="487.00" xlink:href="#Hd"/>
<use x="112.70" y="481.00" xlink:href="#Hd"/>
<use x="163.40" y="475.00" xlink:href="#hl"/>
<use x="163.40" y="475.00" xlink:href="#hd"/>
<path d="M159.90 475.00v34.00" class="stroke"/>
<use x="163.40" y="490.00" xlink:href="#hd"/>
<use x="163.40" y="484.00" xlink:href="#hd"/>
<path class="fill"
	d="M195.50 511.20l26.80 0.00v-3.20l-26.80 -0.00"/>
<path class="fill"
	d="M213.90 506.20l8.00 0.00v-3.20l-8.00 -0.00"/>
<use x="199.30" y="475.00" xlink:href="#hl"/>
<use x="199.30" y="475.00" xlink:href="#hd"/>
<circle class="fill" cx="207.00" cy="472.00" r="1.2"/>
<path d="M195.80 475.00v35.20" class="stroke"/>
<use x="199.30" y="490.00" xlink:href="#hd"/>
<circle class="fill" cx="207.00" cy="490.00" r="1.2"/>
<use x="199.30" y="484.00" xlink:href="#hd"/>
<circle class="fill" cx="207.00" cy="484.00" r="1.2"/>
<use x="225.40" y="475.00" xlink:href="#hl"/>
<use x="225.40" y="475.00" xlink:href="#hd"/>
<path d="M221.90 475.00v35.20" class="stroke"/>
<use x="225.40" y="490.00" xlink:href="#hd"/>
<use x="225.40" y="484.00" xlink:href="#hd"/>
<use x="251.10" y="475.00" xlink:href="#hl"/>
<use x="251.10" y="475.00" xlink:href="#Hd"/>
<path d="M247.60 475.00v37.00" class="stroke"/>
<use x="251.10" y="493.00" xlink:href="#Hd"/>
<use x="251.10" y="487.00" xlink:href="#Hd"/>
<use x="301.80" y="478.00" xlink:href="#hd"/>
<path d="M298.30 478.00v34.00" class="stroke"/>
<use x="301.80" y="493.00" xlink:href="#hd"/>
<use x="301.80" y="487.00" xlink:href="#hd"/>
<path class="fill"
	d="M333.90 512.90l26.80 0.00v-3.20l-26.80 -0.00"/>
<path class="fill"
	d="M352.30 507.90l8.00 0.00v-3.20l-8.00 -0.00"/>
<use x="337.70" y="478.00" xlink:href="#hd"/>
<circle class="fill" cx="345.40" cy="478.00" r="1.2"/>
<path d="M334.20 478.00v33.90" class="stroke"/>
<use x="337.70" y="493.00" xlink:href="#hd"/>
<circle class="fill" cx="345.40" cy="490.00" r="1.2"/>
<use x="337.70" y="487.00" xlink:href="#hd"/>
<circle class="fill" cx="345.40" cy="484.00" r="1.2"/>
<use x="363.80" y="478.00" xlink:href="#hd"/>
<path d="M360.30 478.00v33.90" class="stroke"/>
<use x="363.80" y="493.00" xlink:href="#hd"/>
<use x="363.80" y="487.00" xlink:href="#hd"/>
<use x="389.30" y="478.00" xlink:href="#hd"/>
<path d="M385.80 478.00v37.00" class="stroke"/>
<path class="fill"
	d="M385.80 515.00c0.6 -5.6 9.6 -9 5.6 -18.4
	1.6 6 -1.3 11.6 -5.6 12.8
"/>
<use x="389.30" y="496.00" xlink:href="#hd"/>
<use x="389.30" y="484.00" xlink:href="#hd"/>
<use x="412.20" y="493.00" xlink:href="#r8"/>
<use x="437.60" y="481.00" xlink:href="#hd"/>
<path d="M434.10 481.00v34.00" class="stroke"/>
<path class="fill"
	d="M434.10 515.00c0.6 -5.6 9.6 -9 5.6 -18.4
	1.6 6 -1.3 11.6 -5.6 12.8
"/>
<use x="437.60" y="496.00" xlink:href="#hd"/>
<use x="437.60" y="487.00" xlink:href="#hd"/>
<use x="460.50" y="493.00" xlink:href="#r8"/>
<use x="486.00" y="484.00" xlink:href="#hd"/>
<path d="M482.50 484.00v34.00" class="stroke"/>
<path class="fill"
	d="M482.50 518.00c0.6 -5.6 9.6 -9 5.6 -18.4
	1.6 6 -1.3 11.6 -5.6 12.8
"/>
<use x="479.00" y="499.00" xlink:href="#hd"/>
<use x="486.00" y="496.00" xlink:href="#hd"/>
<use x="508.90" y="493.00" xlink:href="#r8"/>
<use x="531.80" y="502.00" xlink:href="#hd"/>
<path d="M535.30 502.00v-34.00" class="stroke"/>
<path class="fill"
	d="M535.30 468.00c0.6 5.6 9.6 9 5.6 18.4
	1.6 -6 -1.3 -11.6 -5.6 -12.8
"/>
<use x="531.80" y="496.00" xlink:href="#hd"/>
<use x="531.80" y="487.00" xlink:href="#hd"/>
<use x="554.70" y="493.00" xlink:href="#r8"/>
<use x="585.40" y="505.00" xlink:href="#hd"/>
<path d="M588.90 505.00v-40.00" class="stroke"/>
<use x="585.40" y="496.00" xlink:href="#hd"/>
<use x="585.40" y="484.00" xlink:href="#hd"/>
<use x="621.20" y="511.00" xlink:href="#hl"/>
<use x="621.20" y="517.00" xlink:href="#hl"/>
<use x="621.20" y="517.00" xlink:href="#hd"/>
<path d="M624.70 517.00v-40.00" class="stroke"/>
<use x="621.20" y="496.00" xlink:href="#hd"/>
<use x="672.10" y="508.00" xlink:href="#hd"/>
<path d="M675.60 508.00v-40.00" class="stroke"/>
<use x="672.10" y="496.00" xlink:href="#hd"/>
<use x="672.10" y="487.00" xlink:href="#hd"/>
<use x="708.00" y="508.00" xlink:href="#hd"/>
<path d="M711.50 508.00v-40.00" class="stroke"/>
<path class="fill"
	d="M711.50 468.00c0.6 5.6 9.6 9 5.6 18.4
	1.6 -6 -1.3 -11.6 -5.6 -12.8
"/>
<use x="708.00" y="496.00" xlink:href="#hd"/>
<use x="708.00" y="487.00" xlink:href="#hd"/>
<use x="730.90" y="493.00" xlink:href="#r8"/>
<path class="fill"
	d="M166.90 490.00c4.56 5.02 24.40 5.02 28.96 -0.00
	v0.23c-5.43 6.79 -23.53 6.79 -28.96 -0.23"/>
<path class="fill"
	d="M166.90 484.00c4.56 -5.02 24.40 -5.02 28.96 -0.00
	v-0.23c-5.43 -6.79 -23.53 -6.79 -28.96 0.23"/>
<path class="fill"
	d="M166.90 475.00c4.56 -5.02 24.40 -5.02 28.96 -0.00
	v-0.23c-5.43 -6.79 -23.53 -6.79 -28.96 0.23"/>
<path class="fill"
	d="M305.30 493.00c4.56 5.02 24.40 5.02 28.96 -0.00
	v0.23c-5.43 6.79 -23.53 6.79 -28.96 -0.23"/>
<path class="fill"
	d="M305.30 487.00c4.56 -5.02 24.40 -5.02 28.96 -0.00
	v-0.23c-5.43 -6.79 -23.53 -6.79 -28.96 0.23"/>
<path class="fill"
	d="M305.30 478.00c4.56 -5.02 24.40 -5.02 28.96 -0.00
	v-0.23c-5.43 -6.79 -23.53 -6.79 -28.96 0.23"/>
<path class="fill"
	d="M675.60 508.00c4.56 5.02 24.40 5.02 28.96 -0.00
	v0.23c-5.43 6.79 -23.53 6.79 -28.96 -0.23"/>
<path class="fill"
	d="M675.60 496.00c4.56 5.02 24.40 5.02 28.96 -0.00
	v0.23c-5.43 6.79 -23.53 6.79 -28.96 -0.23"/>
<path class="fill"
	d="M675.60 487.00c4.56 -5.02 24.40 -5.02 28.96 -0.00
	v-0.23c-5.43 -6.79 -23.53 -6.79 -28.96 0.23"/>
</g>
<g stroke-width="0.70" font-family="serif" font-size="15.00" font-weight="bold">
<path class="stroke" stroke-width="1"
	d="M67.20 634.00v-83.00"/>
<g transform="translate(67.20,551.00) scale(1,0.83)">
	<use xlink:href="#brace"/>
</g>
<path class="stroke" stroke-width="1"
	d="M236.60 575.00v-24.00"/>
<path class="stroke" stroke-width="1"
	d="M236.60 634.00v-59.00"/>
<path class="stroke" stroke-width="1"
	d="M386.00 575.00v-24.00"/>
<path class="stroke" stroke-width="1"
	d="M386.00 634.00v-59.00"/>
<path class="stroke" stroke-width="1"
	d="M575.10 575.00v-24.00"/>
<path class="stroke" stroke-width="1"
	d="M575.10 634.00v-59.00"/>
<path class="stroke" stroke-width="1"
	d="M748.80 575.00v-24.00"/>
<path class="stroke" stroke-width="1"
	d="M748.80 634.00v-59.00"/>
<path d="m67.20 575.00
	h681.60
	M67.20 569.00
	h681.60
	M67.20 563.00
	h681.60
	M67.20 557.00
	h681.60
	M67.20 551.00
	h681.60
	" class="stroke"/>
<path d="m67.20 634.00
	h681.60
	M67.20 628.00
	h681.60
	M67.20 622.00
	h681.60
	M67.20 616.00
	h681.60
	M67.20 610.00
	h681.60
	" class="stroke"/>
<path class="fill"
	d="M249.60 562.00c7.14 5.71 39.01 12.34 46.15 9.60
	v0.25c-8.53 4.49 -37.63 -2.14 -46.15 -9.85"/>
<path class="fill"
	d="M251.10 605.90c7.47 -3.93 41.18 -2.48 48.65 2.10
	v-0.25c-8.93 -6.33 -39.72 -7.79 -48.65 -1.85"/>
<use x="79.20" y="569.00" xlink:href="#tclef"/>
<use x="94.20" y="563.00" xlink:href="#ft0"/>
<use x="112.70" y="572.00" xlink:href="#Hd"/>
<path d="M116.20 572.00v-25.00" class="stroke"/>
<use x="112.70" y="566.00" xlink:href="#Hd"/>
<use x="162.60" y="575.00" xlink:href="#hd"/>
<path d="M166.10 575.00v-28.00" class="stroke"/>
<use x="162.60" y="566.00" xlink:href="#hd"/>
<path class="fill"
	d="M201.30 544.80l26.50 0.00v3.20l-26.50 -0.00"/>
<path class="fill"
	d="M219.50 549.80l8.00 0.00v3.20l-8.00 -0.00"/>
<use x="198.20" y="575.00" xlink:href="#hd"/>
<circle class="fill" cx="205.90" cy="572.00" r="1.2"/>
<path d="M201.70 575.00v-29.20" class="stroke"/>
<use x="198.20" y="566.00" xlink:href="#hd"/>
<circle class="fill" cx="205.90" cy="566.00" r="1.2"/>
<use x="224.00" y="572.00" xlink:href="#hd"/>
<path d="M227.50 572.00v-26.20" class="stroke"/>
<use x="224.00" y="566.00" xlink:href="#hd"/>
<use x="249.60" y="578.00" xlink:href="#Hd"/>
<path d="M253.10 578.00v-40.00" class="stroke"/>
<use x="249.60" y="566.00" xlink:href="#Hd"/>
<use x="249.60" y="557.00" xlink:href="#Hd"/>
<use x="299.80" y="578.00" xlink:href="#hd"/>
<path d="M303.30 578.00v-28.00" class="stroke"/>
<path class="fill"
	d="M303.30 550.00c0.6 5.6 9.6 9 5.6 18.4
	1.6 -6 -1.3 -11.6 -5.6 -12.8
"/>
<use x="299.80" y="569.00" xlink:href="#hd"/>
<use x="322.50" y="563.00" xlink:href="#r8"/>
<path class="fill"
	d="M350.70 544.80l26.60 0.00v3.20l-26.60 -0.00"/>
<path class="fill"
	d="M368.90 549.80l8.00 0.00v3.20l-8.00 -0.00"/>
<use x="347.50" y="581.00" xlink:href="#hl"/>
<use x="347.50" y="581.00" xlink:href="#hd"/>
<circle class="fill" cx="355.20" cy="578.00" r="1.2"/>
<path d="M351.00 581.00v-35.20" class="stroke"/>
<use x="347.50" y="572.00" xlink:href="#hd"/>
<circle class="fill" cx="355.20" cy="572.00" r="1.2"/>
<use x="347.50" y="566.00" xlink:href="#hd"/>
<circle class="fill" cx="355.20" cy="566.00" r="1.2"/>
<use x="373.40" y="581.00" xlink:href="#hl"/>
<use x="373.40" y="581.00" xlink:href="#hd"/>
<path d="M376.90 581.00v-35.20" class="stroke"/>
<use x="373.40" y="572.00" xlink:href="#hd"/>
<use x="373.40" y="566.00" xlink:href="#hd"/>
<use x="398.70" y="581.00" xlink:href="#hl"/>
<use x="398.70" y="581.00" xlink:href="#hd"/>
<path d="M402.20 581.00v-37.00" class="stroke"/>
<path class="fill"
	d="M402.20 544.00c0.6 5.6 9.6 9 5.6 18.4
	1.6 -6 -1.3 -11.6 -5.6 -12.8
"/>
<use x="398.70" y="575.00" xlink:href="#hd"/>
<use x="398.70" y="563.00" xlink:href="#hd"/>
<use x="421.40" y="563.00" xlink:href="#r8"/>
<use x="444.00" y="581.00" xlink:href="#hl"/>
<use x="444.00" y="581.00" xlink:href="#hd"/>
<path d="M447.50 581.00v-34.00" class="stroke"/>
<path class="fill"
	d="M447.50 547.00c0.6 5.6 9.6 9 5.6 18.4
	1.6 -6 -1.3 -11.6 -5.6 -12.8
"/>
<use x="444.00" y="572.00" xlink:href="#hd"/>
<use x="444.00" y="566.00" xlink:href="#hd"/>
<use x="466.70" y="563.00" xlink:href="#r8"/>
<use x="489.30" y="581.00" xlink:href="#hl"/>
<use x="489.30" y="587.00" xlink:href="#hl"/>
<use x="489.30" y="590.00" xlink:href="#hd"/>
<path d="M492.80 590.00v-40.00" class="stroke"/>
<path class="fill"
	d="M492.80 550.00c0.6 5.6 9.6 9 5.6 18.4
	1.6 -6 -1.3 -11.6 -5.6 -12.8
"/>
<use x="489.30" y="581.00" xlink:href="#hd"/>
<use x="489.30" y="569.00" xlink:href="#hd"/>
<use x="512.00" y="563.00" xlink:href="#r8"/>
<use x="534.70" y="581.00" xlink:href="#hl"/>
<use x="534.70" y="587.00" xlink:href="#hl"/>
<use x="534.70" y="590.00" xlink:href="#hd"/>
<path d="M538.20 590.00v-37.00" class="stroke"/>
<path class="fill"
	d="M538.20 553.00c0.6 5.6 9.6 9 5.6 18.4
	1.6 -6 -1.3 -11.6 -5.6 -12.8
"/>
<use x="534.70" y="584.00" xlink:href="#hd"/>
<use x="525.70" y="584.00" xlink:href="#nt0"/>
<use x="534.70" y="572.00" xlink:href="#hd"/>
<use x="557.40" y="563.00" xlink:href="#r8"/>
<use x="593.60" y="578.00" xlink:href="#hd"/>
<path d="M597.10 578.00v-40.00" class="stroke"/>
<use x="593.60" y="572.00" xlink:href="#hd"/>
<use x="593.60" y="563.00" xlink:href="#hd"/>
<use x="584.60" y="563.00" xlink:href="#nt0"/>
<use x="593.60" y="557.00" xlink:href="#hd"/>
<path class="fill"
	d="M632.40 537.30l26.50 2.50v3.20l-26.50 -2.50"/>
<path class="fill"
	d="M650.50 544.00l8.00 0.80v3.20l-8.00 -0.80"/>
<use x="629.20" y="578.00" xlink:href="#hd"/>
<circle class="fill" cx="636.90" cy="578.00" r="1.2"/>
<path d="M632.70 578.00v-39.70" class="stroke"/>
<use x="629.20" y="572.00" xlink:href="#hd"/>
<circle class="fill" cx="636.90" cy="572.00" r="1.2"/>
<use x="629.20" y="563.00" xlink:href="#hd"/>
<circle class="fill" cx="636.90" cy="560.00" r="1.2"/>
<use x="629.20" y="557.00" xlink:href="#hd"/>
<circle class="fill" cx="636.90" cy="554.00" r="1.2"/>
<use x="655.00" y="581.00" xlink:href="#hl"/>
<use x="655.00" y="581.00" xlink:href="#hd"/>
<path d="M658.50 581.00v-40.30" class="stroke"/>
<use x="655.00" y="575.00" xlink:href="#hd"/>
<use x="655.00" y="560.00" xlink:href="#hd"/>
<use x="672.90" y="581.00" xlink:href="#hl"/>
<use x="672.90" y="581.00" xlink:href="#hd"/>
<path d="M676.40 581.00v-40.00" class="stroke"/>
<use x="672.90" y="575.00" xlink:href="#hd"/>
<use x="672.90" y="560.00" xlink:href="#hd"/>
<use x="708.40" y="581.00" xlink:href="#hl"/>
<use x="708.40" y="581.00" xlink:href="#hd"/>
<path d="M711.90 581.00v-40.00" class="stroke"/>
<path class="fill"
	d="M711.90 541.00c0.6 5.6 9.6 9 5.6 18.4
	1.6 -6 -1.3 -11.6 -5.6 -12.8
"/>
<use x="708.40" y="575.00" xlink:href="#hd"/>
<use x="708.40" y="560.00" xlink:href="#hd"/>
<use x="731.10" y="563.00" xlink:href="#r8"/>
<path class="fill"
	d="M166.10 575.00c4.50 5.01 24.07 5.01 28.57 -0.00
	v0.23c-5.36 6.79 -23.21 6.79 -28.57 -0.23"/>
<path class="fill"
	d="M166.10 566.00c4.50 -5.01 24.07 -5.01 28.57 -0.00
	v-0.23c-5.36 -6.79 -23.21 -6.79 -28.57 0.23"/>
<path class="fill"
	d="M253.10 578.00c6.74 5.28 36.42 5.28 43.15 -0.00
	v0.24c-8.03 7.03 -35.12 7.03 -43.15 -0.24"/>
<path class="fill"
	d="M597.10 578.00c4.50 5.01 24.07 5.01 28.57 -0.00
	v0.23c-5.36 6.79 -23.21 6.79 -28.57 -0.23"/>
<path class="fill"
	d="M597.10 572.00c4.50 5.01 24.07 5.01 28.57 -0.00
	v0.23c-5.36 6.79 -23.21 6.79 -28.57 -0.23"/>
<path class="fill"
	d="M597.10 563.00c4.50 -5.01 24.07 -5.01 28.57 -0.00
	v-0.23c-5.36 -6.79 -23.21 -6.79 -28.57 0.23"/>
<path class="fill"
	d="M597.10 557.00c4.50 -5.01 24.07 -5.01 28.57 -0.00
	v-0.23c-5.36 -6.79 -23.21 -6.79 -28.57 0.23"/>
<path class="fill"
	d="M676.40 581.00c4.50 5.01 24.07 5.01 28.57 -0.00
	v0.23c-5.36 6.79 -23.21 6.79 -28.57 -0.23"/>
<path class="fill"
	d="M676.40 575.00c4.50 5.01 24.07 5.01 28.57 -0.00
	v0.23c-5.36 6.79 -23.21 6.79 -28.57 -0.23"/>
<path class="fill"
	d="M676.40 560.00c4.50 -5.01 24.07 -5.01 28.57 -0.00
	v-0.23c-5.36 -6.79 -23.21 -6.79 -28.57 0.23"/>
<use x="79.20" y="616.00" xlink:href="#bclef"/>
<use x="94.20" y="628.00" xlink:href="#ft0"/>
<use x="112.70" y="610.00" xlink:href="#Hd"/>
<path d="M109.20 610.00v31.00" class="stroke"/>
<use x="112.70" y="622.00" xlink:href="#Hd"/>
<use x="112.70" y="616.00" xlink:href="#Hd"/>
<use x="162.60" y="610.00" xlink:href="#hd"/>
<path d="M159.10 610.00v34.00" class="stroke"/>
<use x="162.60" y="625.00" xlink:href="#hd"/>
<use x="162.60" y="619.00" xlink:href="#hd"/>
<path class="fill"
	d="M194.30 646.00l26.50 0.00v-3.20l-26.50 -0.00"/>
<path class="fill"
	d="M212.50 641.00l8.00 0.00v-3.20l-8.00 -0.00"/>
<use x="198.20" y="610.00" xlink:href="#hd"/>
<circle class="fill" cx="205.90" cy="607.00" r="1.2"/>
<path d="M194.70 610.00v35.00" class="stroke"/>
<use x="198.20" y="625.00" xlink:href="#hd"/>
<circle class="fill" cx="205.90" cy="625.00" r="1.2"/>
<use x="198.20" y="619.00" xlink:href="#hd"/>
<circle class="fill" cx="205.90" cy="619.00" r="1.2"/>
<use x="224.00" y="610.00" xlink:href="#hd"/>
<path d="M220.50 610.00v35.00" class="stroke"/>
<use x="224.00" y="625.00" xlink:href="#hd"/>
<use x="224.00" y="619.00" xlink:href="#hd"/>
<use x="249.60" y="610.00" xlink:href="#Hd"/>
<path d="M246.10 610.00v37.00" class="stroke"/>
<use x="249.60" y="628.00" xlink:href="#Hd"/>
<use x="249.60" y="622.00" xlink:href="#Hd"/>
<use x="299.80" y="613.00" xlink:href="#hd"/>
<path d="M296.30 613.00v34.00" class="stroke"/>
<path class="fill"
	d="M296.30 647.00c0.6 -5.6 9.6 -9 5.6 -18.4
	1.6 6 -1.3 11.6 -5.6 12.8
"/>
<use x="299.80" y="628.00" xlink:href="#hd"/>
<use x="299.80" y="622.00" xlink:href="#hd"/>
<use x="322.50" y="622.00" xlink:href="#r8"/>
<path class="fill"
	d="M343.70 652.00l26.60 0.00v-3.20l-26.60 -0.00"/>
<path class="fill"
	d="M361.90 647.00l8.00 0.00v-3.20l-8.00 -0.00"/>
<use x="347.50" y="610.00" xlink:href="#hd"/>
<circle class="fill" cx="355.20" cy="607.00" r="1.2"/>
<path d="M344.00 610.00v41.00" class="stroke"/>
<use x="347.50" y="631.00" xlink:href="#hd"/>
<circle class="fill" cx="355.20" cy="631.00" r="1.2"/>
<use x="347.50" y="625.00" xlink:href="#hd"/>
<circle class="fill" cx="355.20" cy="625.00" r="1.2"/>
<use x="373.40" y="610.00" xlink:href="#hd"/>
<path d="M369.90 610.00v41.00" class="stroke"/>
<use x="373.40" y="631.00" xlink:href="#hd"/>
<use x="373.40" y="625.00" xlink:href="#hd"/>
<use x="398.70" y="634.00" xlink:href="#hd"/>
<path d="M402.20 634.00v-40.00" class="stroke"/>
<path class="fill"
	d="M402.20 594.00c0.6 5.6 9.6 9 5.6 18.4
	1.6 -6 -1.3 -11.6 -5.6 -12.8
"/>
<use x="398.70" y="625.00" xlink:href="#hd"/>
<use x="398.70" y="613.00" xlink:href="#hd"/>
<use x="421.40" y="622.00" xlink:href="#r8"/>
<use x="444.00" y="637.00" xlink:href="#hd"/>
<path d="M447.50 637.00v-40.00" class="stroke"/>
<path class="fill"
	d="M447.50 597.00c0.6 5.6 9.6 9 5.6 18.4
	1.6 -6 -1.3 -11.6 -5.6 -12.8
"/>
<use x="444.00" y="625.00" xlink:href="#hd"/>
<use x="444.00" y="616.00" xlink:href="#hd"/>
<use x="466.70" y="622.00" xlink:href="#r8"/>
<use x="489.30" y="640.00" xlink:href="#hl"/>
<use x="489.30" y="640.00" xlink:href="#hd"/>
<path d="M492.80 640.00v-40.00" class="stroke"/>
<path class="fill"
	d="M492.80 600.00c0.6 5.6 9.6 9 5.6 18.4
	1.6 -6 -1.3 -11.6 -5.6 -12.8
"/>
<use x="489.30" y="625.00" xlink:href="#hd"/>
<use x="489.30" y="619.00" xlink:href="#hd"/>
<use x="512.00" y="622.00" xlink:href="#r8"/>
<use x="534.70" y="634.00" xlink:href="#hd"/>
<path d="M538.20 634.00v-31.00" class="stroke"/>
<path class="fill"
	d="M538.20 603.00c0.6 5.6 9.6 9 5.6 18.4
	1.6 -6 -1.3 -11.6 -5.6 -12.8
"/>
<use x="534.70" y="622.00" xlink:href="#hd"/>
<use x="557.40" y="622.00" xlink:href="#r8"/>
<use x="593.60" y="634.00" xlink:href="#hd"/>
<path d="M597.10 634.00v-40.00" class="stroke"/>
<use x="593.60" y="613.00" xlink:href="#hd"/>
<path class="fill"
	d="M632.40 595.70l26.50 6.40v3.20l-26.50 -6.40"/>
<path class="fill"
	d="M650.50 605.10l8.00 1.90v3.20l-8.00 -1.90"/>
<use x="629.20" y="634.00" xlink:href="#hd"/>
<circle class="fill" cx="636.90" cy="631.00" r="1.2"/>
<path d="M632.70 634.00v-37.20" class="stroke"/>
<use x="629.20" y="613.00" xlink:href="#hd"/>
<circle class="fill" cx="636.90" cy="613.00" r="1.2"/>
<use x="655.00" y="640.00" xlink:href="#hl"/>
<use x="655.00" y="646.00" xlink:href="#hl"/>
<use x="655.00" y="646.00" xlink:href="#hd"/>
<path d="M658.50 646.00v-43.00" class="stroke"/>
<use x="655.00" y="625.00" xlink:href="#hd"/>
<use x="672.90" y="640.00" xlink:href="#hl"/>
<use x="672.90" y="646.00" xlink:href="#hl"/>
<use x="672.90" y="646.00" xlink:href="#hd"/>
<path d="M676.40 646.00v-40.00" class="stroke"/>
<use x="672.90" y="625.00" xlink:href="#hd"/>
<use x="708.40" y="640.00" xlink:href="#hl"/>
<use x="708.40" y="646.00" xlink:href="#hl"/>
<use x="708.40" y="646.00" xlink:href="#hd"/>
<path d="M711.90 646.00v-40.00" class="stroke"/>
<path class="fill"
	d="M711.90 606.00c0.6 5.6 9.6 9 5.6 18.4
	1.6 -6 -1.3 -11.6 -5.6 -12.8
"/>
<use x="708.40" y="625.00" xlink:href="#hd"/>
<use x="731.10" y="622.00" xlink:href="#r8"/>
<path class="fill"
	d="M166.10 625.00c4.50 5.01 24.07 5.01 28.57 -0.00
	v0.23c-5.36 6.79 -23.21 6.79 -28.57 -0.23"/>
<path class="fill"
	d="M166.10 619.00c4.50 -5.01 24.07 -5.01 28.57 -0.00
	v-0.23c-5.36 -6.79 -23.21 -6.79 -28.57 0.23"/>
<path class="fill"
	d="M166.10 610.00c4.50 -5.01 24.07 -5.01 28.57 -0.00
	v-0.23c-5.36 -6.79 -23.21 -6.79 -28.57 0.23"/>
<path class="fill"
	d="M253.10 628.00c6.74 5.28 36.42 5.28 43.15 -0.00
	v0.24c-8.03 7.03 -35.12 7.03 -43.15 -0.24"/>
<path class="fill"
	d="M253.10 622.00c6.74 -5.28 36.42 -5.28 43.15 -0.00
	v-0.24c-8.03 -7.03 -35.12 -7.03 -43.15 0.24"/>
<path class="fill"
	d="M597.10 634.00c4.50 5.01 24.07 5.01 28.57 -0.00
	v0.23c-5.36 6.79 -23.21 6.79 -28.57 -0.23"/>
<path class="fill"
	d="M597.10 613.00c4.50 -5.01 24.07 -5.01 28.57 -0.00
	v-0.23c-5.36 -6.79 -23.21 -6.79 -28.57 0.23"/>
<path class="fill"
	d="M676.40 646.00c4.50 5.01 24.07 5.01 28.57 -0.00
	v0.23c-5.36 6.79 -23.21 6.79 -28.57 -0.23"/>
<path class="fill"
	d="M676.40 625.00c4.50 -5.01 24.07 -5.01 28.57 -0.00
	v-0.23c-5.36 -6.79 -23.21 -6.79 -28.57 0.23"/>
</g>
<g stroke-width="0.70" font-family="serif" font-size="15.00" font-weight="bold">
<path class="stroke" stroke-width="1"
	d="M67.20 777.00v-97.00"/>
<g transform="translate(67.20,680.00) scale(1,0.97)">
	<use xlink:href="#brace"/>
</g>
<defs>
<g id="rdots" class="fill">
	<circle cx="0" cy="-9" r="1.2"/>
	<circle cx="0" cy="-15" r="1.2"/>
</g>
</defs>
<use x="118.70" y="704.00" xlink:href="#rdots"/>
<path class="stroke" stroke-width="1"
	d="M114.70 704.00v-24.00"/>
<path class="stroke" stroke-width="3"
	d="M110.20 704.00v-24.00"/>
<use x="118.70" y="777.00" xlink:href="#rdots"/>
<path class="stroke" stroke-width="1"
	d="M114.70 777.00v-73.00"/>
<path class="stroke" stroke-width="3"
	d="M110.20 777.00v-73.00"/>
<path class="stroke" stroke-width="1"
	d="M324.70 704.00v-24.00"/>
<path class="stroke" stroke-width="1"
	d="M324.70 777.00v-73.00"/>
<path class="stroke" stroke-width="1"
	d="M529.80 704.00v-24.00"/>
<path class="stroke" stroke-width="1"
	d="M529.80 777.00v-73.00"/>
<path class="stroke" stroke-width="1"
	d="M748.80 704.00v-24.00"/>
<path class="stroke" stroke-width="1"
	d="M748.80 777.00v-73.00"/>
<path d="m67.20 704.00
	h681.60
	M67.20 698.00
	h681.60
	M67.20 692.00
	h681.60
	M67.20 686.00
	h681.60
	M67.20 680.00
	h681.60
	" class="stroke"/>
<path d="m67.20 777.00
	h681.60
	M67.20 771.00
	h681.60
	M67.20 765.00
	h681.60
	M67.20 759.00
	h681.60
	M67.20 753.00
	h681.60
	" class="stroke"/>
</g>
<g stroke-width="0.70" font-family="Bookman" font-size="10.00" font-style="italic">
<text x="536.20" y="731.60">cresc.</text>
<use x="79.20" y="698.00" xlink:href="#tclef"/>
<use x="94.20" y="692.00" xlink:href="#ft0"/>
<use x="134.10" y="710.00" xlink:href="#hl"/>
<use x="134.10" y="716.00" xlink:href="#hl"/>
<use x="134.10" y="716.00" xlink:href="#Hd"/>
<path d="M137.60 716.00v-34.00" class="stroke"/>
<use x="134.10" y="710.00" xlink:href="#Hd"/>
<use x="134.10" y="701.00" xlink:href="#Hd"/>
<use x="226.70" y="710.00" xlink:href="#hl"/>
<use x="226.70" y="716.00" xlink:href="#hl"/>
<use x="226.70" y="716.00" xlink:href="#hd"/>
<path d="M230.20 716.00v-34.00" class="stroke"/>
<path class="fill"
	d="M230.20 682.00c0.6 5.6 9.6 9 5.6 18.4
	1.6 -6 -1.3 -11.6 -5.6 -12.8
"/>
<use x="226.70" y="710.00" xlink:href="#hd"/>
<use x="226.70" y="701.00" xlink:href="#hd"/>
<use x="252.70" y="692.00" xlink:href="#r8"/>
<path class="fill"
	d="M281.80 684.10l26.60 -4.20v3.20l-26.60 4.20"/>
<use x="278.60" y="710.00" xlink:href="#hl"/>
<use x="278.60" y="716.00" xlink:href="#hl"/>
<use x="278.60" y="716.00" xlink:href="#hd"/>
<path d="M282.10 716.00v-30.90" class="stroke"/>
<use x="278.60" y="710.00" xlink:href="#hd"/>
<use x="278.60" y="704.00" xlink:href="#hd"/>
<use x="304.50" y="710.00" xlink:href="#hl"/>
<use x="304.50" y="716.00" xlink:href="#hl"/>
<use x="304.50" y="716.00" xlink:href="#hd"/>
<path d="M308.00 716.00v-35.10" class="stroke"/>
<use x="304.50" y="710.00" xlink:href="#hd"/>
<use x="304.50" y="698.00" xlink:href="#hd"/>
<use x="339.10" y="710.00" xlink:href="#hl"/>
<use x="339.10" y="716.00" xlink:href="#hl"/>
<use x="339.10" y="716.00" xlink:href="#Hd"/>
<path d="M342.60 716.00v-34.00" class="stroke"/>
<use x="339.10" y="710.00" xlink:href="#Hd"/>
<use x="339.10" y="701.00" xlink:href="#Hd"/>
<use x="431.80" y="710.00" xlink:href="#hl"/>
<use x="431.80" y="716.00" xlink:href="#hl"/>
<use x="431.80" y="716.00" xlink:href="#hd"/>
<path d="M435.30 716.00v-34.00" class="stroke"/>
<path class="fill"
	d="M435.30 682.00c0.6 5.6 9.6 9 5.6 18.4
	1.6 -6 -1.3 -11.6 -5.6 -12.8
"/>
<use x="431.80" y="710.00" xlink:href="#hd"/>
<use x="431.80" y="701.00" xlink:href="#hd"/>
<use x="457.70" y="692.00" xlink:href="#r8"/>
<path class="fill"
	d="M486.80 681.80l26.60 -2.50v3.20l-26.60 2.50"/>
<use x="483.60" y="710.00" xlink:href="#hl"/>
<use x="483.60" y="716.00" xlink:href="#hl"/>
<use x="483.60" y="716.00" xlink:href="#hd"/>
<path d="M487.10 716.00v-33.30" class="stroke"/>
<use x="483.60" y="710.00" xlink:href="#hd"/>
<use x="483.60" y="701.00" xlink:href="#hd"/>
<use x="509.60" y="710.00" xlink:href="#hl"/>
<use x="509.60" y="716.00" xlink:href="#hl"/>
<use x="509.60" y="716.00" xlink:href="#hd"/>
<path d="M513.10 716.00v-35.70" class="stroke"/>
<use x="509.60" y="710.00" xlink:href="#hd"/>
<use x="509.60" y="698.00" xlink:href="#hd"/>
<use x="544.20" y="710.00" xlink:href="#hl"/>
<use x="544.20" y="716.00" xlink:href="#hl"/>
<use x="544.20" y="716.00" xlink:href="#hd"/>
<path d="M547.70 716.00v-40.00" class="stroke"/>
<path class="fill"
	d="M547.70 676.00c0.6 5.6 9.6 9 5.6 18.4
	1.6 -6 -1.3 -11.6 -5.6 -12.8
"/>
<use x="544.20" y="710.00" xlink:href="#hd"/>
<use x="544.20" y="695.00" xlink:href="#hd"/>
<use x="570.10" y="692.00" xlink:href="#r8"/>
<path class="fill"
	d="M599.20 675.80l26.60 -2.50v3.20l-26.60 2.50"/>
<use x="596.00" y="710.00" xlink:href="#hl"/>
<use x="596.00" y="710.00" xlink:href="#hd"/>
<path d="M599.50 710.00v-33.30" class="stroke"/>
<use x="596.00" y="701.00" xlink:href="#hd"/>
<use x="596.00" y="695.00" xlink:href="#hd"/>
<use x="622.00" y="710.00" xlink:href="#hl"/>
<use x="622.00" y="710.00" xlink:href="#hd"/>
<path d="M625.50 710.00v-35.70" class="stroke"/>
<use x="622.00" y="701.00" xlink:href="#hd"/>
<use x="622.00" y="692.00" xlink:href="#hd"/>
<use x="650.80" y="710.00" xlink:href="#hl"/>
<use x="650.80" y="710.00" xlink:href="#hd"/>
<path d="M654.30 710.00v-40.00" class="stroke"/>
<path class="fill"
	d="M654.30 670.00c0.6 5.6 9.6 9 5.6 18.4
	1.6 -6 -1.3 -11.6 -5.6 -12.8
"/>
<use x="650.80" y="701.00" xlink:href="#hd"/>
<use x="650.80" y="695.00" xlink:href="#hd"/>
<use x="650.80" y="689.00" xlink:href="#hd"/>
<use x="676.70" y="692.00" xlink:href="#r8"/>
<use x="702.70" y="701.00" xlink:href="#hd"/>
<path d="M706.20 701.00v-34.00" class="stroke"/>
<path class="fill"
	d="M706.20 667.00c0.6 5.6 9.6 9 5.6 18.4
	1.6 -6 -1.3 -11.6 -5.6 -12.8
"/>
<use x="702.70" y="695.00" xlink:href="#hd"/>
<use x="702.70" y="686.00" xlink:href="#hd"/>
<use x="728.60" y="692.00" xlink:href="#r8"/>
<path class="fill"
	d="M137.60 716.00c11.73 6.04 73.89 6.04 85.62 -0.00
	v0.29c-14.30 7.76 -71.32 7.76 -85.62 -0.29"/>
<path class="fill"
	d="M137.60 710.00c11.73 6.04 73.89 6.04 85.62 -0.00
	v0.29c-14.30 7.76 -71.32 7.76 -85.62 -0.29"/>
<path class="fill"
	d="M137.60 701.00c11.73 -6.04 73.89 -6.04 85.62 -0.00
	v-0.29c-14.30 -7.76 -71.32 -7.76 -85.62 0.29"/>
<path class="fill"
	d="M342.60 716.00c11.73 6.04 73.89 6.04 85.62 -0.00
	v0.29c-14.30 7.76 -71.32 7.76 -85.62 -0.29"/>
<path class="fill"
	d="M342.60 710.00c11.73 6.04 73.89 6.04 85.62 -0.00
	v0.29c-14.30 7.76 -71.32 7.76 -85.62 -0.29"/>
<path class="fill"
	d="M342.60 701.00c11.73 -6.04 73.89 -6.04 85.62 -0.00
	v-0.29c-14.30 -7.76 -71.32 -7.76 -85.62 0.29"/>
<use x="79.20" y="759.00" xlink:href="#bclef"/>
<use x="94.20" y="771.00" xlink:href="#ft0"/>
<defs>
<path id="r4" class="fill" d="m-1 -8.5
	l3.6 5.1 -2.1 5.2 2.2 4.3
	c-2.6 -2.3 -5.1 0 -2.4 2.6
	-4.8 -3 -1.5 -6.9 1.4 -4.1
	l-3.1 -4.5 1.9 -5.1 -1.5 -3.5"/>
</defs>
<use x="134.10" y="765.00" xlink:href="#r4"/>
<use x="174.80" y="780.00" xlink:href="#hd"/>
<path d="M178.30 780.00v-40.00" class="stroke"/>
<path class="fill"
	d="M178.30 740.00c0.6 5.6 9.6 9 5.6 18.4
	1.6 -6 -1.3 -11.6 -5.6 -12.8
"/>
<use x="174.80" y="759.00" xlink:href="#hd"/>
<use x="200.80" y="765.00" xlink:href="#r8"/>
<use x="226.70" y="783.00" xlink:href="#hl"/>
<use x="226.70" y="789.00" xlink:href="#hl"/>
<use x="226.70" y="789.00" xlink:href="#hd"/>
<path d="M230.20 789.00v-40.00" class="stroke"/>
<use x="226.70" y="768.00" xlink:href="#hd"/>
<use x="278.60" y="783.00" xlink:href="#hl"/>
<use x="278.60" y="789.00" xlink:href="#hl"/>
<use x="278.60" y="789.00" xlink:href="#hd"/>
<path d="M282.10 789.00v-40.00" class="stroke"/>
<path class="fill"
	d="M282.10 749.00c0.6 5.6 9.6 9 5.6 18.4
	1.6 -6 -1.3 -11.6 -5.6 -12.8
"/>
<use x="278.60" y="768.00" xlink:href="#hd"/>
<use x="304.50" y="765.00" xlink:href="#r8"/>
<use x="339.10" y="765.00" xlink:href="#r4"/>
<use x="379.90" y="780.00" xlink:href="#hd"/>
<path d="M383.40 780.00v-40.00" class="stroke"/>
<path class="fill"
	d="M383.40 740.00c0.6 5.6 9.6 9 5.6 18.4
	1.6 -6 -1.3 -11.6 -5.6 -12.8
"/>
<use x="379.90" y="759.00" xlink:href="#hd"/>
<use x="405.80" y="765.00" xlink:href="#r8"/>
<use x="431.80" y="783.00" xlink:href="#hl"/>
<use x="431.80" y="789.00" xlink:href="#hl"/>
<use x="431.80" y="789.00" xlink:href="#hd"/>
<path d="M435.30 789.00v-40.00" class="stroke"/>
<use x="431.80" y="768.00" xlink:href="#hd"/>
<use x="483.60" y="783.00" xlink:href="#hl"/>
<use x="483.60" y="789.00" xlink:href="#hl"/>
<use x="483.60" y="789.00" xlink:href="#hd"/>
<path d="M487.10 789.00v-40.00" class="stroke"/>
<path class="fill"
	d="M487.10 749.00c0.6 5.6 9.6 9 5.6 18.4
	1.6 -6 -1.3 -11.6 -5.6 -12.8
"/>
<use x="483.60" y="768.00" xlink:href="#hd"/>
<use x="509.60" y="765.00" xlink:href="#r8"/>
<use x="544.20" y="765.00" xlink:href="#r4"/>
<use x="596.00" y="780.00" xlink:href="#hd"/>
<path d="M599.50 780.00v-40.00" class="stroke"/>
<path class="fill"
	d="M599.50 740.00c0.6 5.6 9.6 9 5.6 18.4
	1.6 -6 -1.3 -11.6 -5.6 -12.8
"/>
<use x="596.00" y="759.00" xlink:href="#hd"/>
<use x="622.00" y="765.00" xlink:href="#r8"/>
<use x="650.80" y="783.00" xlink:href="#hl"/>
<use x="650.80" y="789.00" xlink:href="#hl"/>
<use x="650.80" y="789.00" xlink:href="#hd"/>
<path d="M654.30 789.00v-40.00" class="stroke"/>
<use x="650.80" y="768.00" xlink:href="#hd"/>
<use x="702.70" y="783.00" xlink:href="#hl"/>
<use x="702.70" y="789.00" xlink:href="#hl"/>
<use x="702.70" y="789.00" xlink:href="#hd"/>
<path d="M706.20 789.00v-40.00" class="stroke"/>
<path class="fill"
	d="M706.20 749.00c0.6 5.6 9.6 9 5.6 18.4
	1.6 -6 -1.3 -11.6 -5.6 -12.8
"/>
<use x="702.70" y="768.00" xlink:href="#hd"/>
<use x="728.60" y="765.00" xlink:href="#r8"/>
<path class="fill"
	d="M230.20 789.00c6.97 5.31 37.91 5.31 44.88 -0.00
	v0.24c-8.32 7.06 -36.56 7.06 -44.88 -0.24"/>
<path class="fill"
	d="M230.20 768.00c6.97 -5.31 37.91 -5.31 44.88 -0.00
	v-0.24c-8.32 -7.06 -36.56 -7.06 -44.88 0.24"/>
<path class="fill"
	d="M435.30 789.00c6.97 5.31 37.91 5.31 44.88 -0.00
	v0.24c-8.32 7.06 -36.56 7.06 -44.88 -0.24"/>
<path class="fill"
	d="M435.30 768.00c6.97 -5.31 37.91 -5.31 44.88 -0.00
	v-0.24c-8.32 -7.06 -36.56 -7.06 -44.88 0.24"/>
<path class="fill"
	d="M654.30 789.00c6.97 5.31 37.91 5.31 44.88 -0.00
	v0.24c-8.32 7.06 -36.56 7.06 -44.88 -0.24"/>
<path class="fill"
	d="M654.30 768.00c6.97 -5.31 37.91 -5.31 44.88 -0.00
	v-0.24c-8.32 -7.06 -36.56 -7.06 -44.88 0.24"/>
<text font-family="serif" font-size="16" font-weight="bold" font-style="italic"
	x="132.10" y="736.40">p</text>
<text font-family="serif" font-size="16" font-weight="bold" font-style="italic"
	x="132.10" y="788.40">p</text>
<path class="stroke"
d="M525.70 740.00l-39.10 -4l39.10 -4"/>
</g>
<g stroke-width="0.70" font-family="Bookman" font-size="10.00" font-style="italic">
<path class="stroke" stroke-width="1"
	d="M67.20 920.00v-97.00"/>
<g transform="translate(67.20,823.00) scale(1,0.97)">
	<use xlink:href="#brace"/>
</g>
<path class="stroke" stroke-width="1"
	d="M314.60 847.00v-24.00"/>
<path class="stroke" stroke-width="1"
	d="M314.60 920.00v-73.00"/>
<path class="stroke" stroke-width="1"
	d="M531.70 847.00v-24.00"/>
<path class="stroke" stroke-width="1"
	d="M531.70 920.00v-73.00"/>
<path class="stroke" stroke-width="1"
	d="M748.80 847.00v-24.00"/>
<path class="stroke" stroke-width="1"
	d="M748.80 920.00v-73.00"/>
<path d="m67.20 847.00
	h681.60
	M67.20 841.00
	h681.60
	M67.20 835.00
	h681.60
	M67.20 829.00
	h681.60
	M67.20 823.00
	h681.60
	" class="stroke"/>
<path d="m67.20 920.00
	h681.60
	M67.20 914.00
	h681.60
	M67.20 908.00
	h681.60
	M67.20 902.00
	h681.60
	M67.20 896.00
	h681.60
	" class="stroke"/>
<text x="230.30" y="868.60">dim.</text>
<use x="79.20" y="841.00" xlink:href="#tclef"/>
<use x="94.20" y="835.00" xlink:href="#ft0"/>
<use x="112.70" y="853.00" xlink:href="#hl"/>
<use x="112.70" y="856.00" xlink:href="#Hd"/>
<path d="M116.20 856.00v-34.00" class="stroke"/>
<use x="120.50" y="853.00" xlink:href="#hl"/>
<use x="120.50" y="853.00" xlink:href="#Hd"/>
<use x="112.70" y="847.00" xlink:href="#Hd"/>
<use x="112.70" y="841.00" xlink:href="#Hd"/>
<path class="fill"
	d="M213.90 816.80l83.10 0.00v3.20l-83.10 -0.00"/>
<use x="210.80" y="853.00" xlink:href="#hl"/>
<use x="210.80" y="856.00" xlink:href="#hd"/>
<path d="M214.30 856.00v-38.20" class="stroke"/>
<use x="217.80" y="853.00" xlink:href="#hl"/>
<use x="217.80" y="853.00" xlink:href="#hd"/>
<use x="210.80" y="847.00" xlink:href="#hd"/>
<use x="210.80" y="841.00" xlink:href="#hd"/>
<use x="238.30" y="853.00" xlink:href="#hl"/>
<use x="238.30" y="853.00" xlink:href="#hd"/>
<path d="M241.80 853.00v-35.20" class="stroke"/>
<use x="238.30" y="847.00" xlink:href="#hd"/>
<use x="238.30" y="835.00" xlink:href="#hd"/>
<use x="265.70" y="853.00" xlink:href="#hl"/>
<use x="265.70" y="853.00" xlink:href="#hd"/>
<path d="M269.20 853.00v-35.20" class="stroke"/>
<use x="265.70" y="847.00" xlink:href="#hd"/>
<use x="265.70" y="841.00" xlink:href="#hd"/>
<use x="293.20" y="853.00" xlink:href="#hl"/>
<use x="293.20" y="853.00" xlink:href="#hd"/>
<path d="M296.70 853.00v-35.20" class="stroke"/>
<use x="293.20" y="847.00" xlink:href="#hd"/>
<use x="293.20" y="838.00" xlink:href="#hd"/>
<use x="329.80" y="853.00" xlink:href="#hl"/>
<use x="329.80" y="859.00" xlink:href="#hl"/>
<use x="329.80" y="859.00" xlink:href="#Hd"/>
<path d="M333.30 859.00v-34.00" class="stroke"/>
<use x="329.80" y="853.00" xlink:href="#Hd"/>
<use x="329.80" y="844.00" xlink:href="#Hd"/>
<use x="427.90" y="853.00" xlink:href="#hl"/>
<use x="427.90" y="859.00" xlink:href="#hl"/>
<use x="427.90" y="859.00" xlink:href="#hd"/>
<path d="M431.40 859.00v-34.00" class="stroke"/>
<path class="fill"
	d="M431.40 825.00c0.6 5.6 9.6 9 5.6 18.4
	1.6 -6 -1.3 -11.6 -5.6 -12.8
"/>
<use x="427.90" y="853.00" xlink:href="#hd"/>
<use x="427.90" y="844.00" xlink:href="#hd"/>
<use x="455.40" y="835.00" xlink:href="#r8"/>
<path class="fill"
	d="M486.00 827.10l28.20 -4.30v3.20l-28.20 4.30"/>
<use x="482.80" y="853.00" xlink:href="#hl"/>
<use x="482.80" y="859.00" xlink:href="#hl"/>
<use x="482.80" y="859.00" xlink:href="#hd"/>
<path d="M486.30 859.00v-30.90" class="stroke"/>
<use x="482.80" y="853.00" xlink:href="#hd"/>
<use x="482.80" y="847.00" xlink:href="#hd"/>
<use x="510.30" y="853.00" xlink:href="#hl"/>
<use x="510.30" y="859.00" xlink:href="#hl"/>
<use x="510.30" y="859.00" xlink:href="#hd"/>
<path d="M513.80 859.00v-35.10" class="stroke"/>
<use x="510.30" y="853.00" xlink:href="#hd"/>
<use x="510.30" y="841.00" xlink:href="#hd"/>
<use x="546.90" y="853.00" xlink:href="#hl"/>
<use x="546.90" y="859.00" xlink:href="#hl"/>
<use x="546.90" y="859.00" xlink:href="#Hd"/>
<path d="M550.40 859.00v-34.00" class="stroke"/>
<use x="546.90" y="853.00" xlink:href="#Hd"/>
<use x="546.90" y="844.00" xlink:href="#Hd"/>
<use x="645.00" y="853.00" xlink:href="#hl"/>
<use x="645.00" y="859.00" xlink:href="#hl"/>
<use x="645.00" y="859.00" xlink:href="#hd"/>
<path d="M648.50 859.00v-34.00" class="stroke"/>
<path class="fill"
	d="M648.50 825.00c0.6 5.6 9.6 9 5.6 18.4
	1.6 -6 -1.3 -11.6 -5.6 -12.8
"/>
<use x="645.00" y="853.00" xlink:href="#hd"/>
<use x="645.00" y="844.00" xlink:href="#hd"/>
<use x="672.50" y="835.00" xlink:href="#r8"/>
<path class="fill"
	d="M703.10 824.80l28.20 -2.50v3.20l-28.20 2.50"/>
<use x="700.00" y="853.00" xlink:href="#hl"/>
<use x="700.00" y="859.00" xlink:href="#hl"/>
<use x="700.00" y="859.00" xlink:href="#hd"/>
<path d="M703.50 859.00v-33.30" class="stroke"/>
<use x="700.00" y="853.00" xlink:href="#hd"/>
<use x="700.00" y="844.00" xlink:href="#hd"/>
<use x="727.40" y="853.00" xlink:href="#hl"/>
<use x="727.40" y="859.00" xlink:href="#hl"/>
<use x="727.40" y="859.00" xlink:href="#hd"/>
<path d="M730.90 859.00v-35.70" class="stroke"/>
<use x="727.40" y="853.00" xlink:href="#hd"/>
<use x="727.40" y="841.00" xlink:href="#hd"/>
<path class="fill"
	d="M116.20 856.00c12.25 6.14 78.83 6.14 91.08 -0.00
	v0.29c-14.98 7.85 -76.10 7.85 -91.08 -0.29"/>
<path class="fill"
	d="M120.90 853.00c12.21 -6.13 78.41 -6.13 90.61 -0.00
	v-0.29c-14.93 -7.84 -75.69 -7.84 -90.61 0.29"/>
<path class="fill"
	d="M116.20 847.00c12.25 -6.14 78.83 -6.14 91.08 -0.00
	v-0.29c-14.98 -7.85 -76.10 -7.85 -91.08 0.29"/>
<path class="fill"
	d="M116.20 841.00c12.25 -6.14 78.83 -6.14 91.08 -0.00
	v-0.29c-14.98 -7.85 -76.10 -7.85 -91.08 0.29"/>
<path class="fill"
	d="M333.30 859.00c12.25 6.14 78.83 6.14 91.08 -0.00
	v0.29c-14.98 7.85 -76.10 7.85 -91.08 -0.29"/>
<path class="fill"
	d="M333.30 853.00c12.25 6.14 78.83 6.14 91.08 -0.00
	v0.29c-14.98 7.85 -76.10 7.85 -91.08 -0.29"/>
<path class="fill"
	d="M333.30 844.00c12.25 -6.14 78.83 -6.14 91.08 -0.00
	v-0.29c-14.98 -7.85 -76.10 -7.85 -91.08 0.29"/>
<path class="fill"
	d="M550.40 859.00c12.25 6.14 78.83 6.14 91.08 -0.00
	v0.29c-14.98 7.85 -76.10 7.85 -91.08 -0.29"/>
<path class="fill"
	d="M550.40 853.00c12.25 6.14 78.83 6.14 91.08 -0.00
	v0.29c-14.98 7.85 -76.10 7.85 -91.08 -0.29"/>
<path class="fill"
	d="M550.40 844.00c12.25 -6.14 78.83 -6.14 91.08 -0.00
	v-0.29c-14.98 -7.85 -76.10 -7.85 -91.08 0.29"/>
<use x="79.20" y="902.00" xlink:href="#bclef"/>
<use x="94.20" y="914.00" xlink:href="#ft0"/>
<use x="112.70" y="908.00" xlink:href="#r4"/>
<use x="155.80" y="920.00" xlink:href="#hd"/>
<path d="M159.30 920.00v-40.00" class="stroke"/>
<path class="fill"
	d="M159.30 880.00c0.6 5.6 9.6 9 5.6 18.4
	1.6 -6 -1.3 -11.6 -5.6 -12.8
"/>
<use x="155.80" y="899.00" xlink:href="#hd"/>
<use x="183.30" y="908.00" xlink:href="#r8"/>
<use x="210.80" y="926.00" xlink:href="#hl"/>
<use x="210.80" y="932.00" xlink:href="#hl"/>
<use x="210.80" y="932.00" xlink:href="#hd"/>
<path d="M214.30 932.00v-40.00" class="stroke"/>
<path class="fill"
	d="M214.30 892.00c0.6 5.6 9.6 9 5.6 18.4
	1.6 -6 -1.3 -11.6 -5.6 -12.8
"/>
<use x="210.80" y="911.00" xlink:href="#hd"/>
<use x="238.30" y="908.00" xlink:href="#r8"/>
<path class="fill"
	d="M261.90 914.20l28.20 0.00v-3.20l-28.20 -0.00"/>
<use x="265.70" y="893.00" xlink:href="#hd"/>
<path d="M262.20 893.00v20.20" class="stroke"/>
<use x="293.20" y="893.00" xlink:href="#hd"/>
<path d="M289.70 893.00v20.20" class="stroke"/>
<use x="329.80" y="908.00" xlink:href="#r4"/>
<use x="373.00" y="923.00" xlink:href="#hd"/>
<path d="M376.50 923.00v-40.00" class="stroke"/>
<path class="fill"
	d="M376.50 883.00c0.6 5.6 9.6 9 5.6 18.4
	1.6 -6 -1.3 -11.6 -5.6 -12.8
"/>
<use x="373.00" y="902.00" xlink:href="#hd"/>
<use x="400.40" y="908.00" xlink:href="#r8"/>
<use x="427.90" y="926.00" xlink:href="#hl"/>
<use x="427.90" y="932.00" xlink:href="#hl"/>
<use x="427.90" y="932.00" xlink:href="#hd"/>
<path d="M431.40 932.00v-40.00" class="stroke"/>
<use x="427.90" y="911.00" xlink:href="#hd"/>
<use x="482.80" y="926.00" xlink:href="#hl"/>
<use x="482.80" y="932.00" xlink:href="#hl"/>
<use x="482.80" y="932.00" xlink:href="#hd"/>
<path d="M486.30 932.00v-40.00" class="stroke"/>
<path class="fill"
	d="M486.30 892.00c0.6 5.6 9.6 9 5.6 18.4
	1.6 -6 -1.3 -11.6 -5.6 -12.8
"/>
<use x="482.80" y="911.00" xlink:href="#hd"/>
<use x="510.30" y="908.00" xlink:href="#r8"/>
<use x="546.90" y="908.00" xlink:href="#r4"/>
<use x="590.10" y="923.00" xlink:href="#hd"/>
<path d="M593.60 923.00v-40.00" class="stroke"/>
<path class="fill"
	d="M593.60 883.00c0.6 5.6 9.6 9 5.6 18.4
	1.6 -6 -1.3 -11.6 -5.6 -12.8
"/>
<use x="590.10" y="902.00" xlink:href="#hd"/>
<use x="617.60" y="908.00" xlink:href="#r8"/>
<use x="645.00" y="926.00" xlink:href="#hl"/>
<use x="645.00" y="932.00" xlink:href="#hl"/>
<use x="645.00" y="932.00" xlink:href="#hd"/>
<path d="M648.50 932.00v-40.00" class="stroke"/>
<use x="645.00" y="911.00" xlink:href="#hd"/>
<use x="700.00" y="926.00" xlink:href="#hl"/>
<use x="700.00" y="932.00" xlink:href="#hl"/>
<use x="700.00" y="932.00" xlink:href="#hd"/>
<path d="M703.50 932.00v-40.00" class="stroke"/>
<path class="fill"
	d="M703.50 892.00c0.6 5.6 9.6 9 5.6 18.4
	1.6 -6 -1.3 -11.6 -5.6 -12.8
"/>
<use x="700.00" y="911.00" xlink:href="#hd"/>
<use x="727.40" y="908.00" xlink:href="#r8"/>
<text font-family="serif" font-size="16" font-weight="bold" font-style="italic"
	x="327.80" y="879.40">p</text>
<path class="stroke"
d="M744.80 883.00l-41.80 -4l41.80 -4"/>
</g>
<g stroke-width="0.70" font-family="Bookman" font-size="10.00" font-style="italic">
<path class="stroke" stroke-width="1"
	d="M67.20 1056.00v-90.00"/>
<g transform="translate(67.20,966.00) scale(1,0.90)">
	<use xlink:href="#brace"/>
</g>
<path class="stroke" stroke-width="1"
	d="M260.20 990.00v-24.00"/>
<path class="stroke" stroke-width="1"
	d="M260.20 1056.00v-66.00"/>
<path class="stroke" stroke-width="3"
	d="M427.30 990.00v-24.00"/>
<path class="stroke" stroke-width="1"
	d="M422.80 990.00v-24.00"/>
<use x="418.80" y="990.00" xlink:href="#rdots"/>
<path class="stroke" stroke-width="3"
	d="M427.30 1056.00v-66.00"/>
<path class="stroke" stroke-width="1"
	d="M422.80 1056.00v-66.00"/>
<use x="418.80" y="1056.00" xlink:href="#rdots"/>
<path class="stroke" stroke-width="1"
	d="M588.80 990.00v-24.00"/>
<path class="stroke" stroke-width="1"
	d="M588.80 1056.00v-66.00"/>
<path class="stroke" stroke-width="1"
	d="M748.80 990.00v-24.00"/>
<path class="stroke" stroke-width="1"
	d="M748.80 1056.00v-66.00"/>
<path d="m67.20 990.00
	h681.60
	M67.20 984.00
	h681.60
	M67.20 978.00
	h681.60
	M67.20 972.00
	h681.60
	M67.20 966.00
	h681.60
	" class="stroke"/>
<path d="m67.20 1056.00
	h681.60
	M67.20 1050.00
	h681.60
	M67.20 1044.00
	h681.60
	M67.20 1038.00
	h681.60
	M67.20 1032.00
	h681.60
	" class="stroke"/>
<text x="142.60" y="1011.60">cresc.</text>
<use x="79.20" y="984.00" xlink:href="#tclef"/>
<use x="94.20" y="978.00" xlink:href="#ft0"/>
<use x="112.20" y="996.00" xlink:href="#hl"/>
<use x="112.20" y="1002.00" xlink:href="#hl"/>
<use x="112.20" y="1002.00" xlink:href="#hd"/>
<path d="M115.70 1002.00v-40.00" class="stroke"/>
<path class="fill"
	d="M115.70 962.00c0.6 5.6 9.6 9 5.6 18.4
	1.6 -6 -1.3 -11.6 -5.6 -12.8
"/>
<use x="112.20" y="996.00" xlink:href="#hd"/>
<use x="112.20" y="981.00" xlink:href="#hd"/>
<use x="130.90" y="978.00" xlink:href="#r8"/>
<path class="fill"
	d="M153.80 963.00l18.80 0.00v3.20l-18.80 -0.00"/>
<use x="150.60" y="996.00" xlink:href="#hl"/>
<use x="150.60" y="996.00" xlink:href="#hd"/>
<path d="M154.10 996.00v-32.00" class="stroke"/>
<use x="150.60" y="987.00" xlink:href="#hd"/>
<use x="150.60" y="981.00" xlink:href="#hd"/>
<use x="168.80" y="996.00" xlink:href="#hl"/>
<use x="168.80" y="996.00" xlink:href="#hd"/>
<path d="M172.30 996.00v-32.00" class="stroke"/>
<use x="168.80" y="987.00" xlink:href="#hd"/>
<use x="168.80" y="981.00" xlink:href="#hd"/>
<use x="188.90" y="966.00" xlink:href="#hd"/>
<path d="M185.40 966.00v40.00" class="stroke"/>
<path class="fill"
	d="M185.40 1006.00c0.6 -5.6 9.6 -9 5.6 -18.4
	1.6 6 -1.3 11.6 -5.6 12.8
"/>
<use x="188.90" y="987.00" xlink:href="#hd"/>
<use x="188.90" y="981.00" xlink:href="#hd"/>
<use x="188.90" y="972.00" xlink:href="#hd"/>
<use x="206.80" y="978.00" xlink:href="#r8"/>
<use x="226.70" y="969.00" xlink:href="#hd"/>
<path d="M223.20 969.00v37.00" class="stroke"/>
<path class="fill"
	d="M223.20 1006.00c0.6 -5.6 9.6 -9 5.6 -18.4
	1.6 6 -1.3 11.6 -5.6 12.8
"/>
<use x="226.70" y="987.00" xlink:href="#hd"/>
<use x="226.70" y="981.00" xlink:href="#hd"/>
<use x="226.70" y="975.00" xlink:href="#hd"/>
<use x="245.30" y="978.00" xlink:href="#r8"/>
<use x="278.70" y="987.00" xlink:href="#hd"/>
<circle class="fill" cx="293.40" cy="987.00" r="1.2"/>
<path d="M282.20 987.00v-34.00" class="stroke"/>
<use x="285.70" y="984.00" xlink:href="#hd"/>
<circle class="fill" cx="293.40" cy="981.00" r="1.2"/>
<use x="278.70" y="978.00" xlink:href="#hd"/>
<circle class="fill" cx="293.40" cy="975.00" r="1.2"/>
<use x="269.70" y="978.00" xlink:href="#nt0"/>
<use x="278.70" y="972.00" xlink:href="#hd"/>
<circle class="fill" cx="293.40" cy="969.00" r="1.2"/>
<use x="329.50" y="987.00" xlink:href="#hd"/>
<path d="M333.00 987.00v-37.00" class="stroke"/>
<path class="fill"
	d="M333.00 950.00c0.6 5.6 9.6 9 5.6 18.4
	1.6 -6 -1.3 -11.6 -5.6 -12.8
"/>
<use x="336.50" y="984.00" xlink:href="#hd"/>
<use x="329.50" y="978.00" xlink:href="#hd"/>
<use x="320.50" y="978.00" xlink:href="#nt0"/>
<use x="329.50" y="969.00" xlink:href="#hd"/>
<use x="351.20" y="990.00" xlink:href="#hd"/>
<path d="M354.70 990.00v-34.00" class="stroke"/>
<use x="351.20" y="984.00" xlink:href="#hd"/>
<use x="351.20" y="975.00" xlink:href="#hd"/>
<use x="389.60" y="990.00" xlink:href="#hd"/>
<path d="M393.10 990.00v-34.00" class="stroke"/>
<path class="fill"
	d="M393.10 956.00c0.6 5.6 9.6 9 5.6 18.4
	1.6 -6 -1.3 -11.6 -5.6 -12.8
"/>
<use x="389.60" y="984.00" xlink:href="#hd"/>
<use x="389.60" y="975.00" xlink:href="#hd"/>
<use x="408.30" y="978.00" xlink:href="#r8"/>
<use x="441.80" y="996.00" xlink:href="#hl"/>
<use x="441.80" y="999.00" xlink:href="#Hd"/>
<path d="M445.30 999.00v-34.00" class="stroke"/>
<use x="441.80" y="993.00" xlink:href="#Hd"/>
<use x="441.80" y="984.00" xlink:href="#Hd"/>
<use x="505.60" y="996.00" xlink:href="#hl"/>
<use x="505.60" y="999.00" xlink:href="#hd"/>
<path d="M509.10 999.00v-34.00" class="stroke"/>
<path class="fill"
	d="M509.10 965.00c0.6 5.6 9.6 9 5.6 18.4
	1.6 -6 -1.3 -11.6 -5.6 -12.8
"/>
<use x="505.60" y="993.00" xlink:href="#hd"/>
<use x="505.60" y="984.00" xlink:href="#hd"/>
<use x="524.30" y="978.00" xlink:href="#r8"/>
<path class="fill"
	d="M546.90 961.70l22.20 -2.40v3.20l-22.20 2.40"/>
<use x="543.70" y="996.00" xlink:href="#hl"/>
<use x="543.70" y="996.00" xlink:href="#hd"/>
<path d="M547.20 996.00v-33.30" class="stroke"/>
<use x="550.80" y="993.00" xlink:href="#hd"/>
<use x="543.70" y="987.00" xlink:href="#hd"/>
<defs>
<path id="usharp" class="fill" d="
	m136 -702
	v890
	h32
	v-890
	m128 840
	h32
	v-888
	h-32
	m-232 286
	v116
	l338 -96
	v-116
	m-338 442
	v116
	l338 -98
	v-114"/>
<use id="sh0" transform="translate(-4,5) scale(0.018)"
	xlink:href="#usharp"/>
</defs>
<use x="534.70" y="987.00" xlink:href="#sh0"/>
<use x="543.70" y="981.00" xlink:href="#hd"/>
<use x="565.30" y="996.00" xlink:href="#hl"/>
<use x="565.30" y="996.00" xlink:href="#hd"/>
<path d="M568.80 996.00v-35.70" class="stroke"/>
<use x="572.30" y="993.00" xlink:href="#hd"/>
<use x="565.30" y="987.00" xlink:href="#hd"/>
<use x="565.30" y="978.00" xlink:href="#hd"/>
<use x="601.80" y="996.00" xlink:href="#hl"/>
<use x="601.80" y="999.00" xlink:href="#Hd"/>
<path d="M605.30 999.00v-34.00" class="stroke"/>
<use x="601.80" y="993.00" xlink:href="#Hd"/>
<use x="601.80" y="984.00" xlink:href="#Hd"/>
<use x="665.60" y="996.00" xlink:href="#hl"/>
<use x="665.60" y="999.00" xlink:href="#hd"/>
<path d="M669.10 999.00v-34.00" class="stroke"/>
<path class="fill"
	d="M669.10 965.00c0.6 5.6 9.6 9 5.6 18.4
	1.6 -6 -1.3 -11.6 -5.6 -12.8
"/>
<use x="665.60" y="993.00" xlink:href="#hd"/>
<use x="665.60" y="984.00" xlink:href="#hd"/>
<use x="684.30" y="978.00" xlink:href="#r8"/>
<path class="fill"
	d="M706.90 961.70l22.20 -2.40v3.20l-22.20 2.40"/>
<use x="703.80" y="996.00" xlink:href="#hl"/>
<use x="703.80" y="996.00" xlink:href="#hd"/>
<path d="M707.30 996.00v-33.30" class="stroke"/>
<use x="710.80" y="993.00" xlink:href="#hd"/>
<use x="703.80" y="987.00" xlink:href="#hd"/>
<use x="694.80" y="987.00" xlink:href="#sh0"/>
<use x="703.80" y="981.00" xlink:href="#hd"/>
<use x="725.30" y="996.00" xlink:href="#hl"/>
<use x="725.30" y="996.00" xlink:href="#hd"/>
<path d="M728.80 996.00v-35.70" class="stroke"/>
<use x="732.30" y="993.00" xlink:href="#hd"/>
<use x="725.30" y="987.00" xlink:href="#hd"/>
<use x="725.30" y="978.00" xlink:href="#hd"/>
<path class="fill"
	d="M354.70 990.00c4.95 5.07 26.46 5.07 31.41 -0.00
	v0.23c-5.89 6.83 -25.52 6.83 -31.41 -0.23"/>
<path class="fill"
	d="M354.70 984.00c4.95 5.07 26.46 5.07 31.41 -0.00
	v0.23c-5.89 6.83 -25.52 6.83 -31.41 -0.23"/>
<path class="fill"
	d="M354.70 975.00c4.95 -5.07 26.46 -5.07 31.41 -0.00
	v-0.23c-5.89 -6.83 -25.52 -6.83 -31.41 0.23"/>
<path class="fill"
	d="M445.30 999.00c8.52 5.52 48.31 5.52 56.83 -0.00
	v0.26c-10.23 7.27 -46.61 7.27 -56.83 -0.26"/>
<path class="fill"
	d="M445.30 993.00c8.52 5.52 48.31 5.52 56.83 -0.00
	v0.26c-10.23 7.27 -46.61 7.27 -56.83 -0.26"/>
<path class="fill"
	d="M445.30 984.00c8.52 -5.52 48.31 -5.52 56.83 -0.00
	v-0.26c-10.23 -7.27 -46.61 -7.27 -56.83 0.26"/>
<path class="fill"
	d="M605.30 999.00c8.52 5.52 48.31 5.52 56.83 -0.00
	v0.26c-10.23 7.27 -46.61 7.27 -56.83 -0.26"/>
<path class="fill"
	d="M605.30 993.00c8.52 5.52 48.31 5.52 56.83 -0.00
	v0.26c-10.23 7.27 -46.61 7.27 -56.83 -0.26"/>
<path class="fill"
	d="M605.30 984.00c8.52 -5.52 48.31 -5.52 56.83 -0.00
	v-0.26c-10.23 -7.27 -46.61 -7.27 -56.83 0.26"/>
<use x="79.20" y="1038.00" xlink:href="#bclef"/>
<use x="94.20" y="1050.00" xlink:href="#ft0"/>
<use x="112.20" y="1044.00" xlink:href="#r4"/>
<use x="150.60" y="1032.00" xlink:href="#hd"/>
<path d="M147.10 1032.00v40.00" class="stroke"/>
<path class="fill"
	d="M147.10 1072.00c0.6 -5.6 9.6 -9 5.6 -18.4
	1.6 6 -1.3 11.6 -5.6 12.8
"/>
<use x="150.60" y="1053.00" xlink:href="#hd"/>
<use x="168.80" y="1044.00" xlink:href="#r8"/>
<use x="188.90" y="1062.00" xlink:href="#hl"/>
<use x="188.90" y="1065.00" xlink:href="#hd"/>
<path d="M192.40 1065.00v-40.00" class="stroke"/>
<use x="188.90" y="1044.00" xlink:href="#hd"/>
<use x="226.70" y="1062.00" xlink:href="#hl"/>
<use x="226.70" y="1065.00" xlink:href="#hd"/>
<path d="M230.20 1065.00v-40.00" class="stroke"/>
<path class="fill"
	d="M230.20 1025.00c0.6 5.6 9.6 9 5.6 18.4
	1.6 -6 -1.3 -11.6 -5.6 -12.8
"/>
<use x="226.70" y="1044.00" xlink:href="#hd"/>
<use x="245.30" y="1044.00" xlink:href="#r8"/>
<use x="278.70" y="1044.00" xlink:href="#r4"/>
<use x="306.00" y="1056.00" xlink:href="#hd"/>
<path d="M309.50 1056.00v-40.00" class="stroke"/>
<path class="fill"
	d="M309.50 1016.00c0.6 5.6 9.6 9 5.6 18.4
	1.6 -6 -1.3 -11.6 -5.6 -12.8
"/>
<use x="306.00" y="1035.00" xlink:href="#hd"/>
<use x="329.50" y="1044.00" xlink:href="#r8"/>
<use x="351.20" y="1062.00" xlink:href="#hl"/>
<use x="351.20" y="1068.00" xlink:href="#hl"/>
<use x="351.20" y="1068.00" xlink:href="#hd"/>
<path d="M354.70 1068.00v-40.00" class="stroke"/>
<path class="fill"
	d="M354.70 1028.00c0.6 5.6 9.6 9 5.6 18.4
	1.6 -6 -1.3 -11.6 -5.6 -12.8
"/>
<use x="351.20" y="1047.00" xlink:href="#hd"/>
<use x="369.90" y="1044.00" xlink:href="#r8"/>
<use x="389.60" y="1026.00" xlink:href="#hl"/>
<use x="389.60" y="1026.00" xlink:href="#hd"/>
<path d="M386.10 1026.00v40.00" class="stroke"/>
<path class="fill"
	d="M386.10 1066.00c0.6 -5.6 9.6 -9 5.6 -18.4
	1.6 6 -1.3 11.6 -5.6 12.8
"/>
<use x="389.60" y="1047.00" xlink:href="#hd"/>
<use x="408.30" y="1044.00" xlink:href="#r8"/>
<use x="441.80" y="1044.00" xlink:href="#r4"/>
<use x="469.00" y="1056.00" xlink:href="#hd"/>
<path d="M472.50 1056.00v-40.00" class="stroke"/>
<path class="fill"
	d="M472.50 1016.00c0.6 5.6 9.6 9 5.6 18.4
	1.6 -6 -1.3 -11.6 -5.6 -12.8
"/>
<use x="469.00" y="1035.00" xlink:href="#hd"/>
<use x="487.70" y="1044.00" xlink:href="#r8"/>
<use x="505.60" y="1062.00" xlink:href="#hl"/>
<use x="505.60" y="1065.00" xlink:href="#hd"/>
<path d="M509.10 1065.00v-40.00" class="stroke"/>
<use x="505.60" y="1044.00" xlink:href="#hd"/>
<use x="543.70" y="1062.00" xlink:href="#hl"/>
<use x="543.70" y="1065.00" xlink:href="#hd"/>
<path d="M547.20 1065.00v-40.00" class="stroke"/>
<path class="fill"
	d="M547.20 1025.00c0.6 5.6 9.6 9 5.6 18.4
	1.6 -6 -1.3 -11.6 -5.6 -12.8
"/>
<use x="543.70" y="1044.00" xlink:href="#hd"/>
<use x="565.30" y="1044.00" xlink:href="#r8"/>
<use x="601.80" y="1044.00" xlink:href="#r4"/>
<use x="629.00" y="1056.00" xlink:href="#hd"/>
<path d="M632.50 1056.00v-40.00" class="stroke"/>
<path class="fill"
	d="M632.50 1016.00c0.6 5.6 9.6 9 5.6 18.4
	1.6 -6 -1.3 -11.6 -5.6 -12.8
"/>
<use x="629.00" y="1035.00" xlink:href="#hd"/>
<use x="647.70" y="1044.00" xlink:href="#r8"/>
<use x="665.60" y="1062.00" xlink:href="#hl"/>
<use x="665.60" y="1065.00" xlink:href="#hd"/>
<path d="M669.10 1065.00v-40.00" class="stroke"/>
<use x="665.60" y="1044.00" xlink:href="#hd"/>
<use x="703.80" y="1062.00" xlink:href="#hl"/>
<use x="703.80" y="1065.00" xlink:href="#hd"/>
<path d="M707.30 1065.00v-40.00" class="stroke"/>
<path class="fill"
	d="M707.30 1025.00c0.6 5.6 9.6 9 5.6 18.4
	1.6 -6 -1.3 -11.6 -5.6 -12.8
"/>
<use x="703.80" y="1044.00" xlink:href="#hd"/>
<use x="725.30" y="1044.00" xlink:href="#r8"/>
<path class="fill"
	d="M192.40 1065.00c4.84 5.05 25.88 5.05 30.72 -0.00
	v0.23c-5.76 6.82 -24.96 6.82 -30.72 -0.23"/>
<path class="fill"
	d="M192.40 1044.00c4.84 -5.05 25.88 -5.05 30.72 -0.00
	v-0.23c-5.76 -6.82 -24.96 -6.82 -30.72 0.23"/>
<path class="fill"
	d="M509.10 1065.00c4.90 5.06 26.23 5.06 31.14 -0.00
	v0.23c-5.84 6.83 -25.30 6.83 -31.14 -0.23"/>
<path class="fill"
	d="M509.10 1044.00c4.90 -5.06 26.23 -5.06 31.14 -0.00
	v-0.23c-5.84 -6.83 -25.30 -6.83 -31.14 0.23"/>
<path class="fill"
	d="M669.10 1065.00c4.90 5.06 26.23 5.06 31.14 -0.00
	v0.23c-5.84 6.83 -25.30 6.83 -31.14 -0.23"/>
<path class="fill"
	d="M669.10 1044.00c4.90 -5.06 26.23 -5.06 31.14 -0.00
	v-0.23c-5.84 -6.83 -25.30 -6.83 -31.14 0.23"/>
<text font-family="serif" font-size="16" font-weight="bold" font-style="italic"
	x="277.70" y="1019.40">f</text>
<text font-family="serif" font-size="16" font-weight="bold" font-style="italic"
	x="439.80" y="1019.40">p</text>
</g>
</svg>
