<?xml version="1.0" standalone="no"?>
<!DOCTYPE svg PUBLIC "-//W3C//DTD SVG 1.1//EN"
	"http://www.w3.org/Graphics/SVG/1.1/DTD/svg11.dtd">
<svg xmlns="http://www.w3.org/2000/svg" version="1.1"
	xmlns:xlink="http://www.w3.org/1999/xlink"
	color="black"
	width="816.00px" height="1056.00px">
<style type="text/css">
.fill {fill: currentColor}
.stroke {stroke: currentColor; fill: none}
text{white-space: pre}
</style>
<title>MP.abc page 2</title>
<!-- Creator: abcm2ps-8.13.8 -->
<!-- CreationDate: Sep 24, 2017 08:49 -->
<!-- CommandLine: -G -v -O= MP.abc -->
<g stroke-width="0.70">
<path class="stroke" stroke-width="1"
	d="M67.20 205.00v-88.00"/>
<defs>
<path id="brace" class="fill" d="m-2.5 101
	c-4.5 -4.6 -7.5 -12.2 -4.4 -26.8
	3.5 -14.3 3.2 -21.7 -2.1 -24.2
	7.4 2.4 7.3 14.2 3.5 29.5
	-2.7 9.5 -1.5 16.2 3 21.5
	M-2.5 1c-4.5 4.6 -7.5 12.2 -4.4 26.8
	c3.5 14.3 3.2 21.7 -2.1 24.2
	7.4 -2.4 7.3 -14.2 3.5 -29.5
	-2.7 -9.5 -1.5 -16.2 3 -21.5"/>
</defs>
<g transform="translate(67.20,117.00) scale(1,0.88)">
	<use xlink:href="#brace"/>
</g>
<path class="stroke" stroke-width="1"
	d="M263.90 141.00v-24.00"/>
<path class="stroke" stroke-width="1"
	d="M263.90 205.00v-64.00"/>
<path class="stroke" stroke-width="1"
	d="M428.20 141.00v-24.00"/>
<path class="stroke" stroke-width="1"
	d="M428.20 205.00v-64.00"/>
<path class="stroke" stroke-width="1"
	d="M593.90 141.00v-24.00"/>
<path class="stroke" stroke-width="1"
	d="M593.90 205.00v-64.00"/>
<path class="stroke" stroke-width="1"
	d="M748.80 141.00v-24.00"/>
<path class="stroke" stroke-width="1"
	d="M748.80 205.00v-64.00"/>
<path d="m67.20 141.00
	h681.60
	M67.20 135.00
	h681.60
	M67.20 129.00
	h681.60
	M67.20 123.00
	h681.60
	M67.20 117.00
	h681.60
	" class="stroke"/>
<path d="m67.20 205.00
	h681.60
	M67.20 199.00
	h681.60
	M67.20 193.00
	h681.60
	M67.20 187.00
	h681.60
	M67.20 181.00
	h681.60
	" class="stroke"/>
</g>
<g stroke-width="0.70" font-family="Bookman" font-size="12.00" font-style="italic">
<text x="478.80" y="165.10">cre -</text>
<text x="538.20" y="164.10">-</text>
<text x="578.60" y="164.10">-</text>
<text x="606.90" y="164.10">scen -</text>
<text x="692.70" y="166.10">-</text>
<text x="741.30" y="166.10">-</text>
<defs>
<path id="utclef" class="fill" d="m-50 -90
	c-72 -41 -72 -158 52 -188
	150 -10 220 188 90 256
	-114 52 -275 0 -293 -136
	-15 -181 93 -229 220 -334
	88 -87 79 -133 62 -210
	-51 33 -94 105 -89 186
	17 267 36 374 49 574
	6 96 -19 134 -77 135
	-80 1 -126 -93 -61 -133
	85 -41 133 101 31 105
	23 17 92 37 90 -92
	-10 -223 -39 -342 -50 -617
	0 -90 0 -162 96 -232
	56 72 63 230 22 289
	-74 106 -257 168 -255 316
	9 153 148 185 252 133
	86 -65 29 -192 -80 -176
	-71 12 -105 67 -59 124"/>
<use id="tclef" transform="translate(0,6) scale(0.045)"
	xlink:href="#utclef"/>
</defs>
<use x="79.20" y="135.00" xlink:href="#tclef"/>
<defs>
<path id="uflat" class="fill" d="
	m100 -746
	h32
	v734
	l-32 4
	m32 -332
	c46 -72 152 -90 208 -20
	100 110 -120 326 -208 348
	m0 -28
	c54 0 200 -206 130 -290
	-50 -60 -130 -4 -130 34"/>
<use id="ft0" transform="translate(-3.5,3.5) scale(0.018)"
	xlink:href="#uflat"/>
</defs>
<use x="94.20" y="129.00" xlink:href="#ft0"/>
<defs>
<path id="hl" class="stroke" d="m-6 0h12"/>
</defs>
<use x="112.70" y="147.00" xlink:href="#hl"/>
<defs>
<path id="Hd" class="fill" d="m3 -1.6
	c-1 -1.8 -7 1.4 -6 3.2
	1 1.8 7 -1.4 6 -3.2
	m0.5 -0.3
	c2 3.8 -5 7.6 -7 3.8
	-2 -3.8 5 -7.6 7 -3.8"/>
</defs>
<use x="112.70" y="150.00" xlink:href="#Hd"/>
<path d="M116.20 150.00v-34.00" class="stroke"/>
<use x="112.70" y="144.00" xlink:href="#Hd"/>
<use x="112.70" y="135.00" xlink:href="#Hd"/>
<use x="179.70" y="147.00" xlink:href="#hl"/>
<defs>
<ellipse id="hd" rx="4.1" ry="2.9"
	transform="rotate(-20)" class="fill"/>
</defs>
<use x="179.70" y="150.00" xlink:href="#hd"/>
<path d="M183.20 150.00v-34.00" class="stroke"/>
<path class="fill"
	d="M183.20 116.00c0.6 5.6 9.6 9 5.6 18.4
	1.6 -6 -1.3 -11.6 -5.6 -12.8
"/>
<use x="179.70" y="144.00" xlink:href="#hd"/>
<use x="179.70" y="135.00" xlink:href="#hd"/>
<defs>
<path id="r8e" class="fill" d="m 0 0
	c-1.5 1.5 -2.4 2 -3.6 2
	2.4 -2.8 -2.8 -4 -2.8 -1.2
	c0 2.7 4.3 2.4 5.9 0.6"/>
<g id="r8">
	<path d="m3.3 -4l-3.4 9.6" class="stroke"/>
	<use x="3.4" y="-4" xlink:href="#r8e"/>
</g>
</defs>
<use x="199.00" y="129.00" xlink:href="#r8"/>
<path class="fill"
	d="M222.10 112.70l22.20 -2.40v3.20l-22.20 2.40"/>
<use x="218.90" y="147.00" xlink:href="#hl"/>
<use x="218.90" y="147.00" xlink:href="#hd"/>
<path d="M222.40 147.00v-33.30" class="stroke"/>
<use x="225.90" y="144.00" xlink:href="#hd"/>
<use x="218.90" y="138.00" xlink:href="#hd"/>
<defs>
<path id="usharp" class="fill" d="
	m136 -702
	v890
	h32
	v-890
	m128 840
	h32
	v-888
	h-32
	m-232 286
	v116
	l338 -96
	v-116
	m-338 442
	v116
	l338 -98
	v-114"/>
<use id="sh0" transform="translate(-4,5) scale(0.018)"
	xlink:href="#usharp"/>
</defs>
<use x="209.90" y="138.00" xlink:href="#sh0"/>
<use x="218.90" y="132.00" xlink:href="#hd"/>
<use x="240.40" y="147.00" xlink:href="#hl"/>
<use x="240.40" y="147.00" xlink:href="#hd"/>
<path d="M243.90 147.00v-35.70" class="stroke"/>
<use x="247.40" y="144.00" xlink:href="#hd"/>
<use x="240.40" y="138.00" xlink:href="#hd"/>
<use x="240.40" y="129.00" xlink:href="#hd"/>
<use x="276.90" y="147.00" xlink:href="#hl"/>
<use x="276.90" y="150.00" xlink:href="#Hd"/>
<path d="M280.40 150.00v-34.00" class="stroke"/>
<use x="276.90" y="144.00" xlink:href="#Hd"/>
<use x="276.90" y="135.00" xlink:href="#Hd"/>
<use x="343.90" y="147.00" xlink:href="#hl"/>
<use x="343.90" y="150.00" xlink:href="#hd"/>
<path d="M347.40 150.00v-34.00" class="stroke"/>
<path class="fill"
	d="M347.40 116.00c0.6 5.6 9.6 9 5.6 18.4
	1.6 -6 -1.3 -11.6 -5.6 -12.8
"/>
<use x="343.90" y="144.00" xlink:href="#hd"/>
<use x="343.90" y="135.00" xlink:href="#hd"/>
<use x="363.30" y="129.00" xlink:href="#r8"/>
<path class="fill"
	d="M386.30 112.70l22.20 -2.40v3.20l-22.20 2.40"/>
<use x="383.20" y="147.00" xlink:href="#hl"/>
<use x="383.20" y="147.00" xlink:href="#hd"/>
<path d="M386.70 147.00v-33.30" class="stroke"/>
<use x="390.20" y="144.00" xlink:href="#hd"/>
<use x="383.20" y="138.00" xlink:href="#hd"/>
<use x="374.20" y="138.00" xlink:href="#sh0"/>
<use x="383.20" y="132.00" xlink:href="#hd"/>
<use x="404.70" y="147.00" xlink:href="#hl"/>
<use x="404.70" y="147.00" xlink:href="#hd"/>
<path d="M408.20 147.00v-35.70" class="stroke"/>
<use x="411.70" y="144.00" xlink:href="#hd"/>
<use x="404.70" y="138.00" xlink:href="#hd"/>
<use x="404.70" y="129.00" xlink:href="#hd"/>
<use x="440.70" y="147.00" xlink:href="#hl"/>
<use x="440.70" y="150.00" xlink:href="#hd"/>
<path d="M444.20 150.00v-34.00" class="stroke"/>
<path class="fill"
	d="M444.20 116.00c0.6 5.6 9.6 9 5.6 18.4
	1.6 -6 -1.3 -11.6 -5.6 -12.8
"/>
<use x="440.70" y="144.00" xlink:href="#hd"/>
<use x="440.70" y="135.00" xlink:href="#hd"/>
<use x="460.00" y="129.00" xlink:href="#r8"/>
<path class="fill"
	d="M482.00 115.70l20.00 -2.40v3.20l-20.00 2.40"/>
<use x="478.80" y="147.00" xlink:href="#hl"/>
<use x="478.80" y="150.00" xlink:href="#hd"/>
<path d="M482.30 150.00v-33.40" class="stroke"/>
<use x="478.80" y="135.00" xlink:href="#hd"/>
<use x="498.10" y="144.00" xlink:href="#hd"/>
<path d="M501.60 144.00v-29.60" class="stroke"/>
<use x="498.10" y="132.00" xlink:href="#hd"/>
<use x="518.90" y="135.00" xlink:href="#hd"/>
<path d="M522.40 135.00v-25.00" class="stroke"/>
<path class="fill"
	d="M522.40 110.00c0.6 5.6 9.6 9 5.6 18.4
	1.6 -6 -1.3 -11.6 -5.6 -12.8
"/>
<use x="518.90" y="129.00" xlink:href="#hd"/>
<use x="538.20" y="129.00" xlink:href="#r8"/>
<use x="558.10" y="141.00" xlink:href="#hd"/>
<use x="549.10" y="141.00" xlink:href="#ft0"/>
<path d="M561.60 141.00v-34.00" class="stroke"/>
<path class="fill"
	d="M561.60 107.00c0.6 5.6 9.6 9 5.6 18.4
	1.6 -6 -1.3 -11.6 -5.6 -12.8
"/>
<use x="565.10" y="138.00" xlink:href="#hd"/>
<use x="558.10" y="132.00" xlink:href="#hd"/>
<use x="558.10" y="126.00" xlink:href="#hd"/>
<use x="578.60" y="129.00" xlink:href="#r8"/>
<use x="606.90" y="144.00" xlink:href="#Hd"/>
<path d="M610.40 144.00v-40.00" class="stroke"/>
<use x="606.90" y="138.00" xlink:href="#Hd"/>
<use x="606.90" y="129.00" xlink:href="#Hd"/>
<use x="606.90" y="123.00" xlink:href="#Hd"/>
<use x="673.30" y="144.00" xlink:href="#hd"/>
<path d="M676.80 144.00v-34.00" class="stroke"/>
<path class="fill"
	d="M676.80 110.00c0.6 5.6 9.6 9 5.6 18.4
	1.6 -6 -1.3 -11.6 -5.6 -12.8
"/>
<use x="673.30" y="138.00" xlink:href="#hd"/>
<use x="673.30" y="129.00" xlink:href="#hd"/>
<use x="692.70" y="129.00" xlink:href="#r8"/>
<path class="fill"
	d="M717.70 110.50l19.60 -4.80v3.20l-19.60 4.80"/>
<use x="714.50" y="147.00" xlink:href="#hl"/>
<use x="714.50" y="147.00" xlink:href="#hd"/>
<path d="M718.00 147.00v-35.60" class="stroke"/>
<use x="714.50" y="138.00" xlink:href="#hd"/>
<use x="714.50" y="132.00" xlink:href="#hd"/>
<use x="733.50" y="138.00" xlink:href="#hd"/>
<path d="M737.00 138.00v-31.20" class="stroke"/>
<use x="733.50" y="132.00" xlink:href="#hd"/>
<use x="733.50" y="123.00" xlink:href="#hd"/>
<path class="fill"
	d="M116.20 150.00c8.91 5.58 51.06 5.58 59.97 -0.00
	v0.26c-10.70 7.32 -49.26 7.32 -59.97 -0.26"/>
<path class="fill"
	d="M116.20 144.00c8.91 5.58 51.06 5.58 59.97 -0.00
	v0.26c-10.70 7.32 -49.26 7.32 -59.97 -0.26"/>
<path class="fill"
	d="M116.20 135.00c8.91 -5.58 51.06 -5.58 59.97 -0.00
	v-0.26c-10.70 -7.32 -49.26 -7.32 -59.97 0.26"/>
<path class="fill"
	d="M280.40 150.00c8.91 5.58 51.06 5.58 59.97 -0.00
	v0.26c-10.70 7.32 -49.26 7.32 -59.97 -0.26"/>
<path class="fill"
	d="M280.40 144.00c8.91 5.58 51.06 5.58 59.97 -0.00
	v0.26c-10.70 7.32 -49.26 7.32 -59.97 -0.26"/>
<path class="fill"
	d="M280.40 135.00c8.91 -5.58 51.06 -5.58 59.97 -0.00
	v-0.26c-10.70 -7.32 -49.26 -7.32 -59.97 0.26"/>
<defs>
<path id="ubclef" class="fill" d="m-200 -87
	c124 -35 222 -78 254 -236
	43 -228 -167 -246 -192 -103
	59 -80 157 22 92 78
	-62 47 -115 -22 -106 -88
	21 -141 270 -136 274 52
	-1 175 -106 264 -322 297
	m357 -250
	c0 -36 51 -34 51 0
	0 37 -51 36 -51 0
	m-2 -129
	c0 -36 51 -34 51 0
	0 38 -51 37 -51 0"/>
<use id="bclef" transform="translate(0,18) scale(0.045)"
	xlink:href="#ubclef"/>
</defs>
<use x="79.20" y="187.00" xlink:href="#bclef"/>
<use x="94.20" y="199.00" xlink:href="#ft0"/>
<defs>
<path id="r4" class="fill" d="m-1 -8.5
	l3.6 5.1 -2.1 5.2 2.2 4.3
	c-2.6 -2.3 -5.1 0 -2.4 2.6
	-4.8 -3 -1.5 -6.9 1.4 -4.1
	l-3.1 -4.5 1.9 -5.1 -1.5 -3.5"/>
</defs>
<use x="112.70" y="193.00" xlink:href="#r4"/>
<use x="141.50" y="205.00" xlink:href="#hd"/>
<path d="M145.00 205.00v-40.00" class="stroke"/>
<path class="fill"
	d="M145.00 165.00c0.6 5.6 9.6 9 5.6 18.4
	1.6 -6 -1.3 -11.6 -5.6 -12.8
"/>
<use x="141.50" y="184.00" xlink:href="#hd"/>
<use x="160.90" y="193.00" xlink:href="#r8"/>
<use x="179.70" y="211.00" xlink:href="#hl"/>
<use x="179.70" y="214.00" xlink:href="#hd"/>
<path d="M183.20 214.00v-40.00" class="stroke"/>
<use x="179.70" y="193.00" xlink:href="#hd"/>
<use x="218.90" y="211.00" xlink:href="#hl"/>
<use x="218.90" y="214.00" xlink:href="#hd"/>
<path d="M222.40 214.00v-40.00" class="stroke"/>
<path class="fill"
	d="M222.40 174.00c0.6 5.6 9.6 9 5.6 18.4
	1.6 -6 -1.3 -11.6 -5.6 -12.8
"/>
<use x="218.90" y="193.00" xlink:href="#hd"/>
<use x="240.40" y="193.00" xlink:href="#r8"/>
<use x="276.90" y="193.00" xlink:href="#r4"/>
<use x="305.80" y="205.00" xlink:href="#hd"/>
<path d="M309.30 205.00v-40.00" class="stroke"/>
<path class="fill"
	d="M309.30 165.00c0.6 5.6 9.6 9 5.6 18.4
	1.6 -6 -1.3 -11.6 -5.6 -12.8
"/>
<use x="305.80" y="184.00" xlink:href="#hd"/>
<use x="325.10" y="193.00" xlink:href="#r8"/>
<use x="343.90" y="211.00" xlink:href="#hl"/>
<use x="343.90" y="214.00" xlink:href="#hd"/>
<path d="M347.40 214.00v-40.00" class="stroke"/>
<use x="343.90" y="193.00" xlink:href="#hd"/>
<use x="383.20" y="211.00" xlink:href="#hl"/>
<use x="383.20" y="214.00" xlink:href="#hd"/>
<path d="M386.70 214.00v-40.00" class="stroke"/>
<path class="fill"
	d="M386.70 174.00c0.6 5.6 9.6 9 5.6 18.4
	1.6 -6 -1.3 -11.6 -5.6 -12.8
"/>
<use x="383.20" y="193.00" xlink:href="#hd"/>
<use x="404.70" y="193.00" xlink:href="#r8"/>
<use x="440.70" y="193.00" xlink:href="#r4"/>
<use x="478.80" y="205.00" xlink:href="#hd"/>
<path d="M482.30 205.00v-40.00" class="stroke"/>
<path class="fill"
	d="M482.30 165.00c0.6 5.6 9.6 9 5.6 18.4
	1.6 -6 -1.3 -11.6 -5.6 -12.8
"/>
<use x="478.80" y="184.00" xlink:href="#hd"/>
<use x="498.10" y="193.00" xlink:href="#r8"/>
<use x="518.90" y="211.00" xlink:href="#hl"/>
<use x="518.90" y="214.00" xlink:href="#hd"/>
<path d="M522.40 214.00v-40.00" class="stroke"/>
<use x="518.90" y="193.00" xlink:href="#hd"/>
<use x="558.10" y="208.00" xlink:href="#hd"/>
<path d="M561.60 208.00v-40.00" class="stroke"/>
<path class="fill"
	d="M561.60 168.00c0.6 5.6 9.6 9 5.6 18.4
	1.6 -6 -1.3 -11.6 -5.6 -12.8
"/>
<use x="558.10" y="187.00" xlink:href="#hd"/>
<use x="578.60" y="193.00" xlink:href="#r8"/>
<use x="606.90" y="193.00" xlink:href="#r4"/>
<use x="635.80" y="178.00" xlink:href="#hd"/>
<path d="M632.30 178.00v40.00" class="stroke"/>
<path class="fill"
	d="M632.30 218.00c0.6 -5.6 9.6 -9 5.6 -18.4
	1.6 6 -1.3 11.6 -5.6 12.8
"/>
<use x="635.80" y="199.00" xlink:href="#hd"/>
<use x="654.60" y="193.00" xlink:href="#r8"/>
<use x="673.30" y="208.00" xlink:href="#hd"/>
<path d="M676.80 208.00v-40.00" class="stroke"/>
<path class="fill"
	d="M676.80 168.00c0.6 5.6 9.6 9 5.6 18.4
	1.6 -6 -1.3 -11.6 -5.6 -12.8
"/>
<use x="673.30" y="187.00" xlink:href="#hd"/>
<use x="692.70" y="193.00" xlink:href="#r8"/>
<path class="fill"
	d="M710.70 193.20l19.60 0.00v-3.20l-19.60 -0.00"/>
<use x="714.50" y="175.00" xlink:href="#hl"/>
<use x="714.50" y="169.00" xlink:href="#hl"/>
<use x="714.50" y="169.00" xlink:href="#hd"/>
<use x="705.50" y="169.00" xlink:href="#ft0"/>
<path d="M711.00 169.00v23.20" class="stroke"/>
<use x="733.50" y="175.00" xlink:href="#hl"/>
<use x="733.50" y="169.00" xlink:href="#hl"/>
<use x="733.50" y="169.00" xlink:href="#hd"/>
<path d="M730.00 169.00v23.20" class="stroke"/>
<path class="fill"
	d="M183.20 214.00c5.08 5.08 27.16 5.08 32.24 -0.00
	v0.23c-6.05 6.85 -26.20 6.85 -32.24 -0.23"/>
<path class="fill"
	d="M183.20 193.00c5.08 -5.08 27.16 -5.08 32.24 -0.00
	v-0.23c-6.05 -6.85 -26.20 -6.85 -32.24 0.23"/>
<path class="fill"
	d="M347.40 214.00c5.08 5.08 27.16 5.08 32.24 -0.00
	v0.23c-6.05 6.85 -26.20 6.85 -32.24 -0.23"/>
<path class="fill"
	d="M347.40 193.00c5.08 -5.08 27.16 -5.08 32.24 -0.00
	v-0.23c-6.05 -6.85 -26.20 -6.85 -32.24 0.23"/>
<text font-family="serif" font-size="16" font-weight="bold" font-style="italic"
	x="110.70" y="170.40">p</text>
</g>
<g stroke-width="0.70" font-family="Bookman" font-size="12.00" font-style="italic">
<path class="stroke" stroke-width="1"
	d="M67.20 357.00v-106.00"/>
<g transform="translate(67.20,251.00) scale(1,1.06)">
	<use xlink:href="#brace"/>
</g>
<path class="stroke" stroke-width="1"
	d="M279.90 275.00v-24.00"/>
<path class="stroke" stroke-width="1"
	d="M279.90 357.00v-82.00"/>
<path class="stroke" stroke-width="1"
	d="M456.10 275.00v-24.00"/>
<path class="stroke" stroke-width="1"
	d="M456.10 357.00v-82.00"/>
<path class="stroke" stroke-width="1"
	d="M630.60 275.00v-24.00"/>
<path class="stroke" stroke-width="1"
	d="M630.60 357.00v-82.00"/>
<path class="stroke" stroke-width="1"
	d="M748.80 275.00v-24.00"/>
<path class="stroke" stroke-width="1"
	d="M748.80 357.00v-82.00"/>
<path d="m67.20 275.00
	h681.60
	M67.20 269.00
	h681.60
	M67.20 263.00
	h681.60
	M67.20 257.00
	h681.60
	M67.20 251.00
	h681.60
	" class="stroke"/>
<path d="m67.20 357.00
	h681.60
	M67.20 351.00
	h681.60
	M67.20 345.00
	h681.60
	M67.20 339.00
	h681.60
	M67.20 333.00
	h681.60
	" class="stroke"/>
<text x="104.70" y="303.10">- do</text>
<use x="79.20" y="269.00" xlink:href="#tclef"/>
<use x="94.20" y="263.00" xlink:href="#ft0"/>
<use x="112.20" y="272.00" xlink:href="#hd"/>
<path d="M115.70 272.00v-28.00" class="stroke"/>
<path class="fill"
	d="M115.70 244.00c0.6 5.6 9.6 9 5.6 18.4
	1.6 -6 -1.3 -11.6 -5.6 -12.8
"/>
<use x="112.20" y="263.00" xlink:href="#hd"/>
<use x="132.80" y="263.00" xlink:href="#r8"/>
<path class="fill"
	d="M158.30 243.70l20.90 -2.40v3.20l-20.90 2.40"/>
<use x="155.10" y="278.00" xlink:href="#hd"/>
<path d="M158.60 278.00v-33.30" class="stroke"/>
<use x="155.10" y="263.00" xlink:href="#hd"/>
<use x="175.30" y="272.00" xlink:href="#hd"/>
<path d="M178.80 272.00v-29.70" class="stroke"/>
<use x="175.30" y="260.00" xlink:href="#hd"/>
<use x="197.90" y="257.00" xlink:href="#hd"/>
<path d="M194.40 257.00v25.00" class="stroke"/>
<path class="fill"
	d="M194.40 282.00c0.6 -5.6 9.6 -9 5.6 -18.4
	1.6 6 -1.3 11.6 -5.6 12.8
"/>
<use x="197.90" y="263.00" xlink:href="#hd"/>
<use x="218.50" y="263.00" xlink:href="#r8"/>
<use x="243.50" y="254.00" xlink:href="#hd"/>
<defs>
<path id="unat" class="fill" d="
	m96 -750
	h-32
	v716
	l32 -8
	182 -54
	v282
	h32
	v-706
	l-34 10
	-180 50
	v-290
	m0 592
	v-190
	l182 -52
	v188"/>
<use id="nt0" transform="translate(-3,5) scale(0.018)"
	xlink:href="#unat"/>
</defs>
<use x="234.50" y="254.00" xlink:href="#nt0"/>
<path d="M240.00 254.00v34.00" class="stroke"/>
<path class="fill"
	d="M240.00 288.00c0.6 -5.6 9.6 -9 5.6 -18.4
	1.6 6 -1.3 11.6 -5.6 12.8
"/>
<use x="236.50" y="269.00" xlink:href="#hd"/>
<use x="243.50" y="266.00" xlink:href="#hd"/>
<use x="243.50" y="260.00" xlink:href="#hd"/>
<use x="227.50" y="260.00" xlink:href="#sh0"/>
<use x="263.70" y="263.00" xlink:href="#r8"/>
<use x="292.40" y="251.00" xlink:href="#hd"/>
<path d="M288.90 251.00v40.00" class="stroke"/>
<use x="292.40" y="272.00" xlink:href="#hd"/>
<use x="292.40" y="266.00" xlink:href="#hd"/>
<use x="292.40" y="257.00" xlink:href="#hd"/>
<path class="fill"
	d="M336.60 235.30l21.30 2.40v3.20l-21.30 -2.40"/>
<use x="333.40" y="275.00" xlink:href="#hd"/>
<path d="M336.90 275.00v-38.70" class="stroke"/>
<use x="333.40" y="269.00" xlink:href="#hd"/>
<use x="317.40" y="269.00" xlink:href="#sh0"/>
<use x="333.40" y="263.00" xlink:href="#hd"/>
<use x="324.40" y="263.00" xlink:href="#nt0"/>
<use x="333.40" y="254.00" xlink:href="#hd"/>
<use x="354.00" y="275.00" xlink:href="#hd"/>
<path d="M357.50 275.00v-36.30" class="stroke"/>
<use x="354.00" y="269.00" xlink:href="#hd"/>
<use x="354.00" y="263.00" xlink:href="#hd"/>
<use x="354.00" y="257.00" xlink:href="#hd"/>
<use x="376.40" y="275.00" xlink:href="#hd"/>
<path d="M379.90 275.00v-34.00" class="stroke"/>
<path class="fill"
	d="M379.90 241.00c0.6 5.6 9.6 9 5.6 18.4
	1.6 -6 -1.3 -11.6 -5.6 -12.8
"/>
<use x="376.40" y="266.00" xlink:href="#hd"/>
<use x="376.40" y="260.00" xlink:href="#hd"/>
<use x="397.00" y="263.00" xlink:href="#r8"/>
<use x="419.30" y="245.00" xlink:href="#hl"/>
<use x="419.30" y="245.00" xlink:href="#hd"/>
<path d="M415.80 245.00v40.00" class="stroke"/>
<path class="fill"
	d="M415.80 285.00c0.6 -5.6 9.6 -9 5.6 -18.4
	1.6 6 -1.3 11.6 -5.6 12.8
"/>
<use x="419.30" y="266.00" xlink:href="#hd"/>
<use x="419.30" y="260.00" xlink:href="#hd"/>
<use x="419.30" y="251.00" xlink:href="#hd"/>
<use x="439.90" y="263.00" xlink:href="#r8"/>
<use x="468.60" y="248.00" xlink:href="#hd"/>
<circle class="fill" cx="476.30" cy="248.00" r="1.2"/>
<path d="M465.10 248.00v40.00" class="stroke"/>
<use x="468.60" y="269.00" xlink:href="#hd"/>
<circle class="fill" cx="476.30" cy="266.00" r="1.2"/>
<use x="468.60" y="260.00" xlink:href="#hd"/>
<circle class="fill" cx="476.30" cy="260.00" r="1.2"/>
<use x="468.60" y="254.00" xlink:href="#hd"/>
<circle class="fill" cx="476.30" cy="254.00" r="1.2"/>
<use x="522.60" y="269.00" xlink:href="#hd"/>
<path d="M526.10 269.00v-28.00" class="stroke"/>
<path class="fill"
	d="M526.10 241.00c0.6 5.6 9.6 9 5.6 18.4
	1.6 -6 -1.3 -11.6 -5.6 -12.8
"/>
<use x="522.60" y="260.00" xlink:href="#hd"/>
<use x="545.50" y="254.00" xlink:href="#hd"/>
<path d="M542.00 254.00v34.00" class="stroke"/>
<use x="545.50" y="269.00" xlink:href="#hd"/>
<use x="545.50" y="260.00" xlink:href="#hd"/>
<path class="fill"
	d="M577.70 237.00l33.20 0.00v3.20l-33.20 -0.00"/>
<path class="fill"
	d="M602.60 242.00l8.00 0.00v3.20l-8.00 -0.00"/>
<use x="574.60" y="272.00" xlink:href="#hd"/>
<circle class="fill" cx="589.30" cy="272.00" r="1.2"/>
<path d="M578.10 272.00v-34.00" class="stroke"/>
<use x="581.60" y="269.00" xlink:href="#hd"/>
<circle class="fill" cx="589.30" cy="266.00" r="1.2"/>
<use x="574.60" y="263.00" xlink:href="#hd"/>
<circle class="fill" cx="589.30" cy="260.00" r="1.2"/>
<use x="565.60" y="263.00" xlink:href="#nt0"/>
<use x="574.60" y="257.00" xlink:href="#hd"/>
<circle class="fill" cx="589.30" cy="254.00" r="1.2"/>
<use x="607.10" y="272.00" xlink:href="#hd"/>
<path d="M610.60 272.00v-34.00" class="stroke"/>
<use x="614.10" y="269.00" xlink:href="#hd"/>
<use x="607.10" y="263.00" xlink:href="#hd"/>
<use x="598.10" y="263.00" xlink:href="#nt0"/>
<use x="607.10" y="257.00" xlink:href="#hd"/>
<use x="650.10" y="272.00" xlink:href="#Hd"/>
<path d="M653.60 272.00v-34.00" class="stroke"/>
<use x="657.90" y="269.00" xlink:href="#Hd"/>
<use x="650.10" y="263.00" xlink:href="#Hd"/>
<use x="640.10" y="263.00" xlink:href="#nt0"/>
<use x="650.10" y="257.00" xlink:href="#Hd"/>
<use x="695.10" y="275.00" xlink:href="#hd"/>
<path d="M698.60 275.00v-34.00" class="stroke"/>
<use x="695.10" y="269.00" xlink:href="#hd"/>
<use x="695.10" y="260.00" xlink:href="#hd"/>
<use x="726.40" y="263.00" xlink:href="#r4"/>
<use x="79.20" y="339.00" xlink:href="#bclef"/>
<use x="94.20" y="351.00" xlink:href="#ft0"/>
<use x="112.20" y="327.00" xlink:href="#hl"/>
<use x="112.20" y="324.00" xlink:href="#hd"/>
<path d="M108.70 324.00v21.00" class="stroke"/>
<path class="fill"
	d="M108.70 345.00c0.6 -5.6 9.6 -9 5.6 -18.4
	1.6 6 -1.3 11.6 -5.6 12.8
"/>
<use x="132.80" y="345.00" xlink:href="#r8"/>
<use x="155.10" y="330.00" xlink:href="#hd"/>
<path d="M151.60 330.00v40.00" class="stroke"/>
<path class="fill"
	d="M151.60 370.00c0.6 -5.6 9.6 -9 5.6 -18.4
	1.6 6 -1.3 11.6 -5.6 12.8
"/>
<use x="155.10" y="351.00" xlink:href="#hd"/>
<use x="175.30" y="345.00" xlink:href="#r8"/>
<use x="197.90" y="360.00" xlink:href="#hd"/>
<path d="M201.40 360.00v-40.00" class="stroke"/>
<path class="fill"
	d="M201.40 320.00c0.6 5.6 9.6 9 5.6 18.4
	1.6 -6 -1.3 -11.6 -5.6 -12.8
"/>
<use x="197.90" y="339.00" xlink:href="#hd"/>
<use x="218.50" y="345.00" xlink:href="#r8"/>
<use x="243.50" y="333.00" xlink:href="#hd"/>
<path d="M240.00 333.00v40.00" class="stroke"/>
<path class="fill"
	d="M240.00 373.00c0.6 -5.6 9.6 -9 5.6 -18.4
	1.6 6 -1.3 11.6 -5.6 12.8
"/>
<use x="243.50" y="354.00" xlink:href="#hd"/>
<use x="263.70" y="345.00" xlink:href="#r8"/>
<use x="292.40" y="363.00" xlink:href="#hl"/>
<use x="292.40" y="366.00" xlink:href="#hd"/>
<path d="M295.90 366.00v-40.00" class="stroke"/>
<path class="fill"
	d="M295.90 326.00c0.6 5.6 9.6 9 5.6 18.4
	1.6 -6 -1.3 -11.6 -5.6 -12.8
"/>
<use x="292.40" y="345.00" xlink:href="#hd"/>
<use x="313.00" y="345.00" xlink:href="#r8"/>
<use x="333.40" y="363.00" xlink:href="#hl"/>
<use x="333.40" y="363.00" xlink:href="#hd"/>
<path d="M336.90 363.00v-40.00" class="stroke"/>
<path class="fill"
	d="M336.90 323.00c0.6 5.6 9.6 9 5.6 18.4
	1.6 -6 -1.3 -11.6 -5.6 -12.8
"/>
<use x="333.40" y="342.00" xlink:href="#hd"/>
<use x="354.00" y="345.00" xlink:href="#r8"/>
<use x="376.40" y="333.00" xlink:href="#hd"/>
<path d="M372.90 333.00v40.00" class="stroke"/>
<path class="fill"
	d="M372.90 373.00c0.6 -5.6 9.6 -9 5.6 -18.4
	1.6 6 -1.3 11.6 -5.6 12.8
"/>
<use x="376.40" y="354.00" xlink:href="#hd"/>
<use x="397.00" y="345.00" xlink:href="#r8"/>
<use x="419.30" y="360.00" xlink:href="#hd"/>
<path d="M422.80 360.00v-40.00" class="stroke"/>
<path class="fill"
	d="M422.80 320.00c0.6 5.6 9.6 9 5.6 18.4
	1.6 -6 -1.3 -11.6 -5.6 -12.8
"/>
<use x="419.30" y="339.00" xlink:href="#hd"/>
<use x="439.90" y="345.00" xlink:href="#r8"/>
<use x="468.60" y="357.00" xlink:href="#hd"/>
<path d="M472.10 357.00v-40.00" class="stroke"/>
<use x="468.60" y="336.00" xlink:href="#hd"/>
<path class="fill"
	d="M496.30 366.00l23.20 -4.00v-3.20l-23.20 4.00"/>
<use x="500.10" y="327.00" xlink:href="#hl"/>
<use x="500.10" y="327.00" xlink:href="#hd"/>
<path d="M496.60 327.00v38.00" class="stroke"/>
<use x="500.10" y="348.00" xlink:href="#hd"/>
<use x="522.60" y="327.00" xlink:href="#hl"/>
<use x="522.60" y="327.00" xlink:href="#hd"/>
<path d="M519.10 327.00v34.00" class="stroke"/>
<use x="522.60" y="342.00" xlink:href="#hd"/>
<use x="545.50" y="336.00" xlink:href="#hd"/>
<path d="M542.00 336.00v21.00" class="stroke"/>
<path class="fill"
	d="M577.70 316.00l33.20 0.00v3.20l-33.20 -0.00"/>
<path class="fill"
	d="M602.60 321.00l8.00 0.00v3.20l-8.00 -0.00"/>
<use x="574.60" y="357.00" xlink:href="#hd"/>
<circle class="fill" cx="582.30" cy="354.00" r="1.2"/>
<path d="M578.10 357.00v-40.00" class="stroke"/>
<use x="574.60" y="336.00" xlink:href="#hd"/>
<circle class="fill" cx="582.30" cy="336.00" r="1.2"/>
<use x="607.10" y="357.00" xlink:href="#hd"/>
<path d="M610.60 357.00v-40.00" class="stroke"/>
<use x="607.10" y="336.00" xlink:href="#hd"/>
<use x="650.10" y="357.00" xlink:href="#Hd"/>
<path d="M653.60 357.00v-40.00" class="stroke"/>
<use x="650.10" y="336.00" xlink:href="#Hd"/>
<use x="695.10" y="363.00" xlink:href="#hl"/>
<use x="695.10" y="369.00" xlink:href="#hl"/>
<use x="695.10" y="369.00" xlink:href="#hd"/>
<path d="M698.60 369.00v-40.00" class="stroke"/>
<use x="695.10" y="348.00" xlink:href="#hd"/>
<use x="726.40" y="345.00" xlink:href="#r4"/>
<text font-family="serif" font-size="16" font-weight="bold" font-style="italic"
	x="291.40" y="304.40">f</text>
<text font-family="serif" font-size="16" font-weight="bold" font-style="italic"
	x="466.60" y="304.40">ff</text>
</g>
<g stroke-width="0.70" font-family="Bookman" font-size="12.00" font-style="italic">
<path class="stroke" stroke-width="1"
	d="M67.20 504.00v-101.00"/>
<g transform="translate(67.20,403.00) scale(1,1.01)">
	<use xlink:href="#brace"/>
</g>
<defs>
<g id="rdots" class="fill">
	<circle cx="0" cy="-9" r="1.2"/>
	<circle cx="0" cy="-15" r="1.2"/>
</g>
</defs>
<use x="118.70" y="427.00" xlink:href="#rdots"/>
<path class="stroke" stroke-width="1"
	d="M114.70 427.00v-24.00"/>
<path class="stroke" stroke-width="3"
	d="M110.20 427.00v-24.00"/>
<use x="118.70" y="504.00" xlink:href="#rdots"/>
<path class="stroke" stroke-width="1"
	d="M114.70 504.00v-77.00"/>
<path class="stroke" stroke-width="3"
	d="M110.20 504.00v-77.00"/>
<path class="stroke" stroke-width="1"
	d="M277.10 427.00v-24.00"/>
<path class="stroke" stroke-width="1"
	d="M277.10 504.00v-77.00"/>
<path class="stroke" stroke-width="1"
	d="M447.20 427.00v-24.00"/>
<path class="stroke" stroke-width="1"
	d="M447.20 504.00v-77.00"/>
<path class="stroke" stroke-width="1"
	d="M599.80 427.00v-24.00"/>
<path class="stroke" stroke-width="1"
	d="M599.80 504.00v-77.00"/>
<path class="stroke" stroke-width="1"
	d="M748.80 427.00v-24.00"/>
<path class="stroke" stroke-width="1"
	d="M748.80 504.00v-77.00"/>
<path d="m67.20 427.00
	h681.60
	M67.20 421.00
	h681.60
	M67.20 415.00
	h681.60
	M67.20 409.00
	h681.60
	M67.20 403.00
	h681.60
	" class="stroke"/>
<path d="m67.20 504.00
	h681.60
	M67.20 498.00
	h681.60
	M67.20 492.00
	h681.60
	M67.20 486.00
	h681.60
	M67.20 480.00
	h681.60
	" class="stroke"/>
<use x="79.20" y="421.00" xlink:href="#tclef"/>
<use x="94.20" y="415.00" xlink:href="#ft0"/>
<use x="133.30" y="433.00" xlink:href="#hl"/>
<use x="133.30" y="439.00" xlink:href="#hl"/>
<use x="133.30" y="439.00" xlink:href="#Hd"/>
<path d="M136.80 439.00v-34.00" class="stroke"/>
<use x="133.30" y="433.00" xlink:href="#Hd"/>
<use x="133.30" y="424.00" xlink:href="#Hd"/>
<use x="187.20" y="433.00" xlink:href="#hl"/>
<use x="187.20" y="433.00" xlink:href="#hd"/>
<path d="M190.70 433.00v-21.00" class="stroke"/>
<path class="fill"
	d="M190.70 412.00c0.6 5.6 9.6 9 5.6 18.4
	1.6 -6 -1.3 -11.6 -5.6 -12.8
"/>
<use x="211.60" y="415.00" xlink:href="#r8"/>
<path class="fill"
	d="M239.00 403.80l28.40 -2.50v3.20l-28.40 2.50"/>
<path class="fill"
	d="M259.10 407.00l8.00 -0.70v3.20l-8.00 0.70"/>
<use x="235.90" y="433.00" xlink:href="#hl"/>
<use x="235.90" y="439.00" xlink:href="#hl"/>
<use x="235.90" y="439.00" xlink:href="#hd"/>
<circle class="fill" cx="243.60" cy="436.00" r="1.2"/>
<path d="M239.40 439.00v-34.30" class="stroke"/>
<use x="235.90" y="433.00" xlink:href="#hd"/>
<circle class="fill" cx="243.60" cy="430.00" r="1.2"/>
<use x="235.90" y="424.00" xlink:href="#hd"/>
<circle class="fill" cx="243.60" cy="424.00" r="1.2"/>
<use x="263.60" y="433.00" xlink:href="#hl"/>
<use x="263.60" y="433.00" xlink:href="#hd"/>
<path d="M267.10 433.00v-30.70" class="stroke"/>
<use x="263.60" y="427.00" xlink:href="#hd"/>
<use x="263.60" y="421.00" xlink:href="#hd"/>
<use x="290.60" y="433.00" xlink:href="#hl"/>
<use x="290.60" y="433.00" xlink:href="#Hd"/>
<path d="M294.10 433.00v-34.00" class="stroke"/>
<use x="290.60" y="424.00" xlink:href="#Hd"/>
<use x="290.60" y="418.00" xlink:href="#Hd"/>
<use x="344.60" y="433.00" xlink:href="#hl"/>
<use x="344.60" y="439.00" xlink:href="#hl"/>
<use x="344.60" y="439.00" xlink:href="#hd"/>
<path d="M348.10 439.00v-34.00" class="stroke"/>
<path class="fill"
	d="M348.10 405.00c0.6 5.6 9.6 9 5.6 18.4
	1.6 -6 -1.3 -11.6 -5.6 -12.8
"/>
<use x="344.60" y="433.00" xlink:href="#hd"/>
<use x="344.60" y="424.00" xlink:href="#hd"/>
<use x="368.90" y="415.00" xlink:href="#r8"/>
<path class="fill"
	d="M399.10 397.80l28.50 -2.50v3.20l-28.50 2.50"/>
<path class="fill"
	d="M419.20 401.00l8.00 -0.70v3.20l-8.00 0.70"/>
<use x="395.90" y="424.00" xlink:href="#hd"/>
<circle class="fill" cx="403.60" cy="424.00" r="1.2"/>
<path d="M399.40 424.00v-25.30" class="stroke"/>
<use x="395.90" y="418.00" xlink:href="#hd"/>
<circle class="fill" cx="403.60" cy="418.00" r="1.2"/>
<use x="423.70" y="424.00" xlink:href="#hd"/>
<path d="M427.20 424.00v-27.70" class="stroke"/>
<use x="430.70" y="421.00" xlink:href="#hd"/>
<use x="423.70" y="415.00" xlink:href="#hd"/>
<use x="460.80" y="424.00" xlink:href="#hd"/>
<path d="M464.30 424.00v-31.00" class="stroke"/>
<use x="460.80" y="418.00" xlink:href="#hd"/>
<use x="460.80" y="412.00" xlink:href="#hd"/>
<use x="499.00" y="424.00" xlink:href="#hd"/>
<path d="M502.50 424.00v-31.00" class="stroke"/>
<use x="499.00" y="418.00" xlink:href="#hd"/>
<use x="499.00" y="412.00" xlink:href="#hd"/>
<path class="fill"
	d="M520.30 394.10l8.60 -4.30v1.80l-8.60 4.30"/>
<path class="fill"
	d="M520.60 397.50l8.00 -4.00v1.80l-8.00 4.00"/>
<defs>
<path id="ghd" class="fill" d="m2.2 -1.5
	c-1.32 -2.31 -5.94 0.33 -4.62 2.64
	1.32 2.31 5.94 -0.33 4.62 -2.64"/>
</defs>
<use x="518.30" y="412.00" xlink:href="#ghd"/>
<path d="M520.60 412.00v-17.00" class="stroke"/>
<use x="526.30" y="406.00" xlink:href="#ghd"/>
<path d="M528.60 406.00v-15.00" class="stroke"/>
<use x="537.30" y="424.00" xlink:href="#hd"/>
<circle class="fill" cx="545.00" cy="424.00" r="1.2"/>
<path d="M540.80 424.00v-34.00" class="stroke"/>
<use x="537.30" y="418.00" xlink:href="#hd"/>
<circle class="fill" cx="545.00" cy="418.00" r="1.2"/>
<use x="537.30" y="409.00" xlink:href="#hd"/>
<circle class="fill" cx="545.00" cy="406.00" r="1.2"/>
<use x="580.80" y="424.00" xlink:href="#hd"/>
<path d="M584.30 424.00v-31.00" class="stroke"/>
<path class="fill"
	d="M584.30 393.00c0.6 5.6 9.6 9 5.6 18.4
	1.6 -6 -1.3 -11.6 -5.6 -12.8
"/>
<use x="580.80" y="418.00" xlink:href="#hd"/>
<use x="580.80" y="412.00" xlink:href="#hd"/>
<use x="613.30" y="424.00" xlink:href="#Hd"/>
<path d="M616.80 424.00v-31.00" class="stroke"/>
<use x="613.30" y="418.00" xlink:href="#Hd"/>
<use x="613.30" y="412.00" xlink:href="#Hd"/>
<use x="667.30" y="433.00" xlink:href="#hl"/>
<use x="667.30" y="439.00" xlink:href="#hl"/>
<use x="667.30" y="439.00" xlink:href="#hd"/>
<path d="M670.80 439.00v-40.00" class="stroke"/>
<use x="667.30" y="433.00" xlink:href="#hd"/>
<use x="667.30" y="424.00" xlink:href="#hd"/>
<use x="667.30" y="418.00" xlink:href="#hd"/>
<use x="705.50" y="433.00" xlink:href="#hl"/>
<use x="705.50" y="439.00" xlink:href="#hl"/>
<use x="705.50" y="439.00" xlink:href="#hd"/>
<path d="M709.00 439.00v-40.00" class="stroke"/>
<path class="fill"
	d="M709.00 399.00c0.6 5.6 9.6 9 5.6 18.4
	1.6 -6 -1.3 -11.6 -5.6 -12.8
"/>
<use x="705.50" y="433.00" xlink:href="#hd"/>
<use x="705.50" y="424.00" xlink:href="#hd"/>
<use x="705.50" y="418.00" xlink:href="#hd"/>
<use x="729.80" y="415.00" xlink:href="#r8"/>
<path class="fill"
	d="M670.80 439.00c4.92 5.06 26.30 5.06 31.22 -0.00
	v0.23c-5.85 6.83 -25.37 6.83 -31.22 -0.23"/>
<path class="fill"
	d="M670.80 433.00c4.92 5.06 26.30 5.06 31.22 -0.00
	v0.23c-5.85 6.83 -25.37 6.83 -31.22 -0.23"/>
<path class="fill"
	d="M670.80 424.00c4.92 -5.06 26.30 -5.06 31.22 -0.00
	v-0.23c-5.85 -6.83 -25.37 -6.83 -31.22 0.23"/>
<path class="fill"
	d="M670.80 418.00c4.92 -5.06 26.30 -5.06 31.22 -0.00
	v-0.23c-5.85 -6.83 -25.37 -6.83 -31.22 0.23"/>
<use x="79.20" y="486.00" xlink:href="#bclef"/>
<use x="94.20" y="498.00" xlink:href="#ft0"/>
<use x="133.30" y="507.00" xlink:href="#Hd"/>
<path d="M136.80 507.00v-40.00" class="stroke"/>
<use x="133.30" y="495.00" xlink:href="#Hd"/>
<use x="133.30" y="486.00" xlink:href="#Hd"/>
<use x="187.20" y="486.00" xlink:href="#hd"/>
<path d="M190.70 486.00v-53.00" class="stroke"/>
<use x="187.20" y="480.00" xlink:href="#hd"/>
<use x="211.60" y="492.00" xlink:href="#r8"/>
<path class="fill"
	d="M239.00 465.80l28.40 -2.50v3.20l-28.40 2.50"/>
<path class="fill"
	d="M259.10 469.00l8.00 -0.70v3.20l-8.00 0.70"/>
<use x="235.90" y="501.00" xlink:href="#hd"/>
<circle class="fill" cx="243.60" cy="501.00" r="1.2"/>
<path d="M239.40 501.00v-34.30" class="stroke"/>
<use x="235.90" y="486.00" xlink:href="#hd"/>
<circle class="fill" cx="243.60" cy="483.00" r="1.2"/>
<use x="263.60" y="495.00" xlink:href="#hd"/>
<path d="M267.10 495.00v-30.70" class="stroke"/>
<use x="263.60" y="483.00" xlink:href="#hd"/>
<use x="290.60" y="480.00" xlink:href="#Hd"/>
<path d="M287.10 480.00v25.00" class="stroke"/>
<use x="290.60" y="486.00" xlink:href="#Hd"/>
<use x="344.60" y="510.00" xlink:href="#hl"/>
<use x="344.60" y="516.00" xlink:href="#hl"/>
<use x="344.60" y="522.00" xlink:href="#hl"/>
<use x="344.60" y="528.00" xlink:href="#hl"/>
<use x="344.60" y="528.00" xlink:href="#hd"/>
<path d="M348.10 528.00v-40.00" class="stroke"/>
<path class="fill"
	d="M348.10 488.00c0.6 5.6 9.6 9 5.6 18.4
	1.6 -6 -1.3 -11.6 -5.6 -12.8
"/>
<use x="344.60" y="507.00" xlink:href="#hd"/>
<use x="368.90" y="492.00" xlink:href="#r8"/>
<path class="fill"
	d="M392.10 505.90l28.50 0.00v-3.20l-28.50 -0.00"/>
<path class="fill"
	d="M412.20 500.90l8.00 0.00v-3.20l-8.00 -0.00"/>
<use x="395.90" y="480.00" xlink:href="#hd"/>
<circle class="fill" cx="403.60" cy="477.00" r="1.2"/>
<path d="M392.40 480.00v25.00" class="stroke"/>
<use x="395.90" y="486.00" xlink:href="#hd"/>
<circle class="fill" cx="403.60" cy="483.00" r="1.2"/>
<use x="423.70" y="477.00" xlink:href="#hd"/>
<path d="M420.20 477.00v28.00" class="stroke"/>
<use x="416.70" y="486.00" xlink:href="#hd"/>
<use x="423.70" y="483.00" xlink:href="#hd"/>
<use x="460.80" y="474.00" xlink:href="#hl"/>
<use x="460.80" y="474.00" xlink:href="#hd"/>
<path d="M457.30 474.00v31.00" class="stroke"/>
<use x="460.80" y="486.00" xlink:href="#hd"/>
<use x="460.80" y="480.00" xlink:href="#hd"/>
<use x="499.00" y="474.00" xlink:href="#hl"/>
<use x="499.00" y="474.00" xlink:href="#hd"/>
<path d="M495.50 474.00v31.00" class="stroke"/>
<use x="499.00" y="486.00" xlink:href="#hd"/>
<use x="499.00" y="480.00" xlink:href="#hd"/>
<use x="537.30" y="480.00" xlink:href="#hd"/>
<path d="M533.80 480.00v31.00" class="stroke"/>
<path class="fill"
	d="M533.80 511.00c0.6 -5.6 9.6 -9 5.6 -18.4
	1.6 6 -1.3 11.6 -5.6 12.8
"/>
<use x="537.30" y="492.00" xlink:href="#hd"/>
<use x="537.30" y="486.00" xlink:href="#hd"/>
<circle class="fill" cx="545.00" cy="483.00" r="1.2"/>
<use x="580.80" y="474.00" xlink:href="#hl"/>
<use x="580.80" y="474.00" xlink:href="#hd"/>
<path d="M577.30 474.00v31.00" class="stroke"/>
<path class="fill"
	d="M577.30 505.00c0.6 -5.6 9.6 -9 5.6 -18.4
	1.6 6 -1.3 11.6 -5.6 12.8
"/>
<use x="580.80" y="486.00" xlink:href="#hd"/>
<use x="580.80" y="480.00" xlink:href="#hd"/>
<use x="613.30" y="474.00" xlink:href="#hl"/>
<use x="613.30" y="474.00" xlink:href="#Hd"/>
<path d="M609.80 474.00v31.00" class="stroke"/>
<use x="613.30" y="486.00" xlink:href="#Hd"/>
<use x="613.30" y="480.00" xlink:href="#Hd"/>
<use x="667.30" y="507.00" xlink:href="#hd"/>
<path d="M670.80 507.00v-40.00" class="stroke"/>
<use x="667.30" y="495.00" xlink:href="#hd"/>
<use x="667.30" y="486.00" xlink:href="#hd"/>
<use x="705.50" y="507.00" xlink:href="#hd"/>
<path d="M709.00 507.00v-40.00" class="stroke"/>
<path class="fill"
	d="M709.00 467.00c0.6 5.6 9.6 9 5.6 18.4
	1.6 -6 -1.3 -11.6 -5.6 -12.8
"/>
<use x="705.50" y="495.00" xlink:href="#hd"/>
<use x="705.50" y="486.00" xlink:href="#hd"/>
<use x="729.80" y="492.00" xlink:href="#r8"/>
<path class="fill"
	d="M670.80 507.00c4.92 5.06 26.30 5.06 31.22 -0.00
	v0.23c-5.85 6.83 -25.37 6.83 -31.22 -0.23"/>
<path class="fill"
	d="M670.80 495.00c4.92 5.06 26.30 5.06 31.22 -0.00
	v0.23c-5.85 6.83 -25.37 6.83 -31.22 -0.23"/>
<path class="fill"
	d="M670.80 486.00c4.92 -5.06 26.30 -5.06 31.22 -0.00
	v-0.23c-5.85 -6.83 -25.37 -6.83 -31.22 0.23"/>
<use x="187.20" y="510.00" xlink:href="#hl"/>
<use x="187.20" y="516.00" xlink:href="#hl"/>
<use x="187.20" y="522.00" xlink:href="#hl"/>
<use x="187.20" y="528.00" xlink:href="#hl"/>
<use x="187.20" y="507.00" xlink:href="#hd"/>
<path d="M183.70 507.00v40.00" class="stroke"/>
<path class="fill"
	d="M183.70 547.00c0.6 -5.6 9.6 -9 5.6 -18.4
	1.6 6 -1.3 11.6 -5.6 12.8
"/>
<use x="187.20" y="528.00" xlink:href="#hd"/>
<text font-family="serif" font-size="16" font-weight="bold" font-style="italic"
	x="131.30" y="454.40">ff</text>
</g>
<g stroke-width="0.70" font-family="Bookman" font-size="12.00" font-style="italic">
<path class="stroke" stroke-width="1"
	d="M67.20 656.00v-82.00"/>
<g transform="translate(67.20,574.00) scale(1,0.82)">
	<use xlink:href="#brace"/>
</g>
<path class="stroke" stroke-width="1"
	d="M250.90 598.00v-24.00"/>
<path class="stroke" stroke-width="1"
	d="M250.90 656.00v-58.00"/>
<path class="stroke" stroke-width="1"
	d="M402.20 598.00v-24.00"/>
<path class="stroke" stroke-width="1"
	d="M402.20 656.00v-58.00"/>
<path class="stroke" stroke-width="1"
	d="M558.70 598.00v-24.00"/>
<path class="stroke" stroke-width="1"
	d="M558.70 656.00v-58.00"/>
<path class="stroke" stroke-width="1"
	d="M748.80 598.00v-24.00"/>
<path class="stroke" stroke-width="1"
	d="M748.80 656.00v-58.00"/>
<path d="m67.20 598.00
	h681.60
	M67.20 592.00
	h681.60
	M67.20 586.00
	h681.60
	M67.20 580.00
	h681.60
	M67.20 574.00
	h681.60
	" class="stroke"/>
<path d="m67.20 656.00
	h681.60
	M67.20 650.00
	h681.60
	M67.20 644.00
	h681.60
	M67.20 638.00
	h681.60
	M67.20 632.00
	h681.60
	" class="stroke"/>
<use x="79.20" y="592.00" xlink:href="#tclef"/>
<use x="94.20" y="586.00" xlink:href="#ft0"/>
<use x="112.70" y="604.00" xlink:href="#hl"/>
<use x="112.70" y="604.00" xlink:href="#Hd"/>
<path d="M116.20 604.00v-40.00" class="stroke"/>
<use x="112.70" y="598.00" xlink:href="#Hd"/>
<use x="112.70" y="592.00" xlink:href="#Hd"/>
<use x="112.70" y="583.00" xlink:href="#Hd"/>
<use x="163.50" y="604.00" xlink:href="#hl"/>
<use x="163.50" y="604.00" xlink:href="#hd"/>
<path d="M167.00 604.00v-34.00" class="stroke"/>
<path class="fill"
	d="M167.00 570.00c0.6 5.6 9.6 9 5.6 18.4
	1.6 -6 -1.3 -11.6 -5.6 -12.8
"/>
<use x="163.50" y="595.00" xlink:href="#hd"/>
<use x="163.50" y="589.00" xlink:href="#hd"/>
<use x="186.50" y="586.00" xlink:href="#r8"/>
<path class="fill"
	d="M215.10 574.10l26.90 -4.20v3.20l-26.90 4.20"/>
<path class="fill"
	d="M233.70 576.20l8.00 -1.30v3.20l-8.00 1.30"/>
<use x="211.90" y="604.00" xlink:href="#hl"/>
<use x="211.90" y="604.00" xlink:href="#hd"/>
<circle class="fill" cx="219.60" cy="601.00" r="1.2"/>
<path d="M215.40 604.00v-28.90" class="stroke"/>
<use x="211.90" y="595.00" xlink:href="#hd"/>
<circle class="fill" cx="219.60" cy="595.00" r="1.2"/>
<use x="238.20" y="604.00" xlink:href="#hl"/>
<use x="238.20" y="604.00" xlink:href="#hd"/>
<path d="M241.70 604.00v-33.10" class="stroke"/>
<use x="238.20" y="595.00" xlink:href="#hd"/>
<use x="238.20" y="589.00" xlink:href="#hd"/>
<use x="263.90" y="604.00" xlink:href="#hl"/>
<use x="263.90" y="604.00" xlink:href="#Hd"/>
<path d="M267.40 604.00v-40.00" class="stroke"/>
<use x="263.90" y="598.00" xlink:href="#Hd"/>
<use x="263.90" y="592.00" xlink:href="#Hd"/>
<use x="263.90" y="583.00" xlink:href="#Hd"/>
<use x="314.70" y="604.00" xlink:href="#hl"/>
<use x="314.70" y="604.00" xlink:href="#hd"/>
<path d="M318.20 604.00v-34.00" class="stroke"/>
<path class="fill"
	d="M318.20 570.00c0.6 5.6 9.6 9 5.6 18.4
	1.6 -6 -1.3 -11.6 -5.6 -12.8
"/>
<use x="314.70" y="595.00" xlink:href="#hd"/>
<use x="314.70" y="589.00" xlink:href="#hd"/>
<use x="337.70" y="586.00" xlink:href="#r8"/>
<path class="fill"
	d="M366.30 574.10l26.90 -4.20v3.20l-26.90 4.20"/>
<path class="fill"
	d="M384.90 576.20l8.00 -1.30v3.20l-8.00 1.30"/>
<use x="363.20" y="604.00" xlink:href="#hl"/>
<use x="363.20" y="604.00" xlink:href="#hd"/>
<circle class="fill" cx="370.90" cy="601.00" r="1.2"/>
<path d="M366.70 604.00v-28.90" class="stroke"/>
<use x="363.20" y="595.00" xlink:href="#hd"/>
<circle class="fill" cx="370.90" cy="595.00" r="1.2"/>
<use x="389.40" y="604.00" xlink:href="#hl"/>
<use x="389.40" y="604.00" xlink:href="#hd"/>
<path d="M392.90 604.00v-33.10" class="stroke"/>
<use x="389.40" y="595.00" xlink:href="#hd"/>
<use x="389.40" y="589.00" xlink:href="#hd"/>
<use x="415.10" y="604.00" xlink:href="#hl"/>
<use x="415.10" y="604.00" xlink:href="#hd"/>
<path d="M418.60 604.00v-31.00" class="stroke"/>
<use x="415.10" y="598.00" xlink:href="#hd"/>
<use x="415.10" y="592.00" xlink:href="#hd"/>
<path class="fill"
	d="M454.10 562.80l26.90 -2.50v3.20l-26.90 2.50"/>
<path class="fill"
	d="M472.70 566.00l8.00 -0.70v3.20l-8.00 0.70"/>
<use x="451.00" y="598.00" xlink:href="#hd"/>
<circle class="fill" cx="458.70" cy="595.00" r="1.2"/>
<path d="M454.50 598.00v-34.30" class="stroke"/>
<use x="451.00" y="592.00" xlink:href="#hd"/>
<circle class="fill" cx="458.70" cy="589.00" r="1.2"/>
<use x="451.00" y="583.00" xlink:href="#hd"/>
<circle class="fill" cx="458.70" cy="583.00" r="1.2"/>
<use x="477.20" y="595.00" xlink:href="#hd"/>
<path d="M480.70 595.00v-33.70" class="stroke"/>
<use x="484.20" y="592.00" xlink:href="#hd"/>
<use x="477.20" y="580.00" xlink:href="#hd"/>
<use x="497.20" y="604.00" xlink:href="#hl"/>
<use x="497.20" y="604.00" xlink:href="#hd"/>
<path d="M500.70 604.00v-31.00" class="stroke"/>
<use x="497.20" y="598.00" xlink:href="#hd"/>
<use x="497.20" y="592.00" xlink:href="#hd"/>
<use x="533.30" y="598.00" xlink:href="#hd"/>
<path d="M536.80 598.00v-31.00" class="stroke"/>
<use x="540.30" y="595.00" xlink:href="#hd"/>
<use x="533.30" y="592.00" xlink:href="#hd"/>
<use x="533.30" y="586.00" xlink:href="#hd"/>
<use x="524.30" y="586.00" xlink:href="#nt0"/>
<use x="571.60" y="604.00" xlink:href="#hl"/>
<use x="571.60" y="604.00" xlink:href="#hd"/>
<path d="M575.10 604.00v-40.00" class="stroke"/>
<path class="fill"
	d="M575.10 564.00c0.6 5.6 9.6 9 5.6 18.4
	1.6 -6 -1.3 -11.6 -5.6 -12.8
"/>
<use x="571.60" y="598.00" xlink:href="#hd"/>
<use x="571.60" y="592.00" xlink:href="#hd"/>
<use x="571.60" y="583.00" xlink:href="#hd"/>
<use x="594.70" y="586.00" xlink:href="#r8"/>
<path class="fill"
	d="M620.70 579.80l26.90 0.00v3.20l-26.90 -0.00"/>
<path class="fill"
	d="M639.30 584.80l8.00 0.00v3.20l-8.00 -0.00"/>
<use x="617.60" y="604.00" xlink:href="#hl"/>
<use x="617.60" y="604.00" xlink:href="#hd"/>
<circle class="fill" cx="625.30" cy="601.00" r="1.2"/>
<path d="M621.10 604.00v-23.20" class="stroke"/>
<use x="643.80" y="604.00" xlink:href="#hl"/>
<use x="643.80" y="604.00" xlink:href="#hd"/>
<path d="M647.30 604.00v-23.20" class="stroke"/>
<use x="661.90" y="604.00" xlink:href="#hl"/>
<use x="661.90" y="604.00" xlink:href="#hd"/>
<path d="M665.40 604.00v-21.00" class="stroke"/>
<path class="fill"
	d="M665.40 583.00c0.6 5.6 9.6 9 5.6 18.4
	1.6 -6 -1.3 -11.6 -5.6 -12.8
"/>
<use x="684.90" y="586.00" xlink:href="#r8"/>
<use x="707.80" y="604.00" xlink:href="#hl"/>
<use x="707.80" y="604.00" xlink:href="#hd"/>
<path d="M711.30 604.00v-21.00" class="stroke"/>
<path class="fill"
	d="M711.30 583.00c0.6 5.6 9.6 9 5.6 18.4
	1.6 -6 -1.3 -11.6 -5.6 -12.8
"/>
<use x="730.90" y="586.00" xlink:href="#r8"/>
<use x="79.20" y="638.00" xlink:href="#bclef"/>
<use x="94.20" y="650.00" xlink:href="#ft0"/>
<use x="112.70" y="635.00" xlink:href="#Hd"/>
<path d="M109.20 635.00v31.00" class="stroke"/>
<use x="112.70" y="647.00" xlink:href="#Hd"/>
<use x="163.50" y="632.00" xlink:href="#hd"/>
<path d="M160.00 632.00v25.00" class="stroke"/>
<path class="fill"
	d="M160.00 657.00c0.6 -5.6 9.6 -9 5.6 -18.4
	1.6 6 -1.3 11.6 -5.6 12.8
"/>
<use x="163.50" y="638.00" xlink:href="#hd"/>
<use x="186.50" y="644.00" xlink:href="#r8"/>
<path class="fill"
	d="M208.10 655.40l26.90 3.10v-3.20l-26.90 -3.10"/>
<path class="fill"
	d="M226.70 652.60l8.00 0.90v-3.20l-8.00 -0.90"/>
<use x="211.90" y="632.00" xlink:href="#hd"/>
<circle class="fill" cx="219.60" cy="629.00" r="1.2"/>
<path d="M208.40 632.00v22.50" class="stroke"/>
<use x="238.20" y="632.00" xlink:href="#hd"/>
<path d="M234.70 632.00v25.50" class="stroke"/>
<use x="238.20" y="638.00" xlink:href="#hd"/>
<use x="263.90" y="635.00" xlink:href="#Hd"/>
<path d="M260.40 635.00v31.00" class="stroke"/>
<use x="263.90" y="647.00" xlink:href="#Hd"/>
<use x="314.70" y="632.00" xlink:href="#hd"/>
<path d="M311.20 632.00v25.00" class="stroke"/>
<path class="fill"
	d="M311.20 657.00c0.6 -5.6 9.6 -9 5.6 -18.4
	1.6 6 -1.3 11.6 -5.6 12.8
"/>
<use x="314.70" y="638.00" xlink:href="#hd"/>
<use x="337.70" y="644.00" xlink:href="#r8"/>
<path class="fill"
	d="M359.30 655.40l26.90 3.10v-3.20l-26.90 -3.10"/>
<path class="fill"
	d="M377.90 652.60l8.00 0.90v-3.20l-8.00 -0.90"/>
<use x="363.20" y="632.00" xlink:href="#hd"/>
<circle class="fill" cx="370.90" cy="629.00" r="1.2"/>
<path d="M359.70 632.00v22.50" class="stroke"/>
<use x="389.40" y="632.00" xlink:href="#hd"/>
<path d="M385.90 632.00v25.50" class="stroke"/>
<use x="389.40" y="638.00" xlink:href="#hd"/>
<use x="415.10" y="635.00" xlink:href="#hd"/>
<path d="M411.60 635.00v21.00" class="stroke"/>
<path class="fill"
	d="M447.10 657.90l26.90 0.00v-3.20l-26.90 -0.00"/>
<path class="fill"
	d="M465.70 652.90l8.00 0.00v-3.20l-8.00 -0.00"/>
<use x="451.00" y="635.00" xlink:href="#hd"/>
<circle class="fill" cx="458.70" cy="635.00" r="1.2"/>
<path d="M447.50 635.00v22.00" class="stroke"/>
<use x="477.20" y="635.00" xlink:href="#hd"/>
<path d="M473.70 635.00v22.00" class="stroke"/>
<use x="497.20" y="656.00" xlink:href="#hd"/>
<path d="M500.70 656.00v-40.00" class="stroke"/>
<use x="497.20" y="635.00" xlink:href="#hd"/>
<use x="533.30" y="656.00" xlink:href="#hd"/>
<path d="M536.80 656.00v-40.00" class="stroke"/>
<use x="533.30" y="635.00" xlink:href="#hd"/>
<use x="571.60" y="662.00" xlink:href="#hl"/>
<use x="571.60" y="668.00" xlink:href="#hl"/>
<use x="571.60" y="668.00" xlink:href="#hd"/>
<path d="M575.10 668.00v-40.00" class="stroke"/>
<path class="fill"
	d="M575.10 628.00c0.6 5.6 9.6 9 5.6 18.4
	1.6 -6 -1.3 -11.6 -5.6 -12.8
"/>
<use x="571.60" y="647.00" xlink:href="#hd"/>
<use x="594.70" y="644.00" xlink:href="#r8"/>
<path class="fill"
	d="M620.70 624.10l26.90 0.00v3.20l-26.90 -0.00"/>
<path class="fill"
	d="M639.30 629.10l8.00 0.00v3.20l-8.00 -0.00"/>
<use x="617.60" y="647.00" xlink:href="#hd"/>
<circle class="fill" cx="625.30" cy="647.00" r="1.2"/>
<path d="M621.10 647.00v-22.00" class="stroke"/>
<use x="643.80" y="647.00" xlink:href="#hd"/>
<path d="M647.30 647.00v-22.00" class="stroke"/>
<use x="661.90" y="647.00" xlink:href="#hd"/>
<path d="M665.40 647.00v-21.00" class="stroke"/>
<path class="fill"
	d="M665.40 626.00c0.6 5.6 9.6 9 5.6 18.4
	1.6 -6 -1.3 -11.6 -5.6 -12.8
"/>
<use x="684.90" y="644.00" xlink:href="#r8"/>
<use x="707.80" y="647.00" xlink:href="#hd"/>
<path d="M711.30 647.00v-21.00" class="stroke"/>
<path class="fill"
	d="M711.30 626.00c0.6 5.6 9.6 9 5.6 18.4
	1.6 -6 -1.3 -11.6 -5.6 -12.8
"/>
<use x="730.90" y="644.00" xlink:href="#r8"/>
</g>
<g stroke-width="0.70" font-family="Bookman" font-size="12.00" font-style="italic">
<path class="stroke" stroke-width="1"
	d="M67.20 785.00v-83.00"/>
<g transform="translate(67.20,702.00) scale(1,0.83)">
	<use xlink:href="#brace"/>
</g>
<path class="stroke" stroke-width="1"
	d="M247.10 726.00v-24.00"/>
<path class="stroke" stroke-width="1"
	d="M247.10 785.00v-59.00"/>
<path class="stroke" stroke-width="1"
	d="M415.20 726.00v-24.00"/>
<path class="stroke" stroke-width="1"
	d="M415.20 785.00v-59.00"/>
<path class="stroke" stroke-width="1"
	d="M592.70 726.00v-24.00"/>
<path class="stroke" stroke-width="1"
	d="M592.70 785.00v-59.00"/>
<path class="stroke" stroke-width="1"
	d="M748.80 726.00v-24.00"/>
<path class="stroke" stroke-width="1"
	d="M748.80 785.00v-59.00"/>
<path d="m67.20 726.00
	h681.60
	M67.20 720.00
	h681.60
	M67.20 714.00
	h681.60
	M67.20 708.00
	h681.60
	M67.20 702.00
	h681.60
	" class="stroke"/>
<path d="m67.20 785.00
	h681.60
	M67.20 779.00
	h681.60
	M67.20 773.00
	h681.60
	M67.20 767.00
	h681.60
	M67.20 761.00
	h681.60
	" class="stroke"/>
<use x="79.20" y="720.00" xlink:href="#tclef"/>
<use x="94.20" y="714.00" xlink:href="#ft0"/>
<use x="112.70" y="729.00" xlink:href="#Hd"/>
<path d="M116.20 729.00v-40.00" class="stroke"/>
<use x="112.70" y="714.00" xlink:href="#Hd"/>
<use x="112.70" y="708.00" xlink:href="#Hd"/>
<use x="167.10" y="732.00" xlink:href="#hl"/>
<use x="167.10" y="732.00" xlink:href="#hd"/>
<path d="M170.60 732.00v-40.00" class="stroke"/>
<use x="167.10" y="717.00" xlink:href="#hd"/>
<use x="167.10" y="711.00" xlink:href="#hd"/>
<path class="fill"
	d="M208.80 695.90l28.60 4.30v3.20l-28.60 -4.30"/>
<path class="fill"
	d="M229.00 703.90l8.00 1.20v3.20l-8.00 -1.20"/>
<use x="205.60" y="717.00" xlink:href="#hd"/>
<circle class="fill" cx="213.30" cy="717.00" r="1.2"/>
<path d="M209.10 717.00v-20.10" class="stroke"/>
<use x="233.50" y="723.00" xlink:href="#hd"/>
<path d="M237.00 723.00v-21.90" class="stroke"/>
<use x="264.10" y="732.00" xlink:href="#hl"/>
<path d="M267.60 732.00v-40.00" class="stroke"/>
<use x="264.10" y="717.00" xlink:href="#hd"/>
<use x="264.10" y="711.00" xlink:href="#hd"/>
<use x="311.30" y="720.00" xlink:href="#hd"/>
<path d="M314.80 720.00v-25.00" class="stroke"/>
<use x="311.30" y="714.00" xlink:href="#hd"/>
<use x="349.80" y="723.00" xlink:href="#hd"/>
<path d="M353.30 723.00v-25.00" class="stroke"/>
<use x="349.80" y="717.00" xlink:href="#hd"/>
<use x="388.30" y="714.00" xlink:href="#r4"/>
<use x="428.90" y="729.00" xlink:href="#hd"/>
<circle class="fill" cx="436.60" cy="729.00" r="1.2"/>
<path d="M432.40 729.00v-40.00" class="stroke"/>
<use x="428.90" y="714.00" xlink:href="#hd"/>
<circle class="fill" cx="436.60" cy="711.00" r="1.2"/>
<use x="428.90" y="708.00" xlink:href="#hd"/>
<circle class="fill" cx="436.60" cy="705.00" r="1.2"/>
<use x="472.70" y="732.00" xlink:href="#hl"/>
<use x="472.70" y="732.00" xlink:href="#hd"/>
<path d="M476.20 732.00v-40.00" class="stroke"/>
<path class="fill"
	d="M476.20 692.00c0.6 5.6 9.6 9 5.6 18.4
	1.6 -6 -1.3 -11.6 -5.6 -12.8
"/>
<use x="472.70" y="717.00" xlink:href="#hd"/>
<use x="472.70" y="711.00" xlink:href="#hd"/>
<path class="fill"
	d="M503.20 689.90l74.30 7.30v3.20l-74.30 -7.30"/>
<use x="500.00" y="729.00" xlink:href="#hd"/>
<path d="M503.50 729.00v-38.10" class="stroke"/>
<use x="500.00" y="714.00" xlink:href="#hd"/>
<use x="500.00" y="708.00" xlink:href="#hd"/>
<use x="524.50" y="732.00" xlink:href="#hl"/>
<use x="524.50" y="732.00" xlink:href="#hd"/>
<path d="M528.00 732.00v-38.70" class="stroke"/>
<use x="524.50" y="717.00" xlink:href="#hd"/>
<use x="524.50" y="711.00" xlink:href="#hd"/>
<use x="549.00" y="732.00" xlink:href="#hl"/>
<use x="549.00" y="732.00" xlink:href="#hd"/>
<path d="M552.50 732.00v-36.30" class="stroke"/>
<use x="549.00" y="720.00" xlink:href="#hd"/>
<use x="549.00" y="714.00" xlink:href="#hd"/>
<use x="573.60" y="732.00" xlink:href="#hl"/>
<use x="573.60" y="732.00" xlink:href="#hd"/>
<path d="M577.10 732.00v-33.90" class="stroke"/>
<use x="573.60" y="723.00" xlink:href="#hd"/>
<use x="573.60" y="717.00" xlink:href="#hd"/>
<use x="606.30" y="729.00" xlink:href="#hd"/>
<path d="M609.80 729.00v-34.00" class="stroke"/>
<use x="606.30" y="720.00" xlink:href="#hd"/>
<use x="606.30" y="714.00" xlink:href="#hd"/>
<use x="644.90" y="729.00" xlink:href="#hd"/>
<path d="M648.40 729.00v-31.00" class="stroke"/>
<use x="644.90" y="723.00" xlink:href="#hd"/>
<use x="644.90" y="717.00" xlink:href="#hd"/>
<use x="683.40" y="726.00" xlink:href="#hd"/>
<path d="M686.90 726.00v-25.00" class="stroke"/>
<use x="683.40" y="720.00" xlink:href="#hd"/>
<use x="721.80" y="714.00" xlink:href="#r4"/>
<use x="79.20" y="767.00" xlink:href="#bclef"/>
<use x="94.20" y="779.00" xlink:href="#ft0"/>
<use x="112.70" y="770.00" xlink:href="#Hd"/>
<path d="M109.20 770.00v25.00" class="stroke"/>
<use x="112.70" y="776.00" xlink:href="#Hd"/>
<use x="167.10" y="767.00" xlink:href="#hd"/>
<path d="M163.60 767.00v28.00" class="stroke"/>
<use x="167.10" y="776.00" xlink:href="#hd"/>
<path class="fill"
	d="M201.80 785.00l28.60 4.30v-3.20l-28.60 -4.30"/>
<path class="fill"
	d="M222.00 783.00l8.00 1.20v-3.20l-8.00 -1.20"/>
<use x="205.60" y="761.00" xlink:href="#hd"/>
<circle class="fill" cx="213.30" cy="758.00" r="1.2"/>
<path d="M202.10 761.00v23.00" class="stroke"/>
<use x="233.50" y="767.00" xlink:href="#hd"/>
<path d="M230.00 767.00v21.20" class="stroke"/>
<use x="264.10" y="767.00" xlink:href="#hd"/>
<path d="M260.60 767.00v28.00" class="stroke"/>
<use x="257.10" y="776.00" xlink:href="#hd"/>
<use x="264.10" y="773.00" xlink:href="#hd"/>
<use x="311.30" y="764.00" xlink:href="#hd"/>
<path d="M307.80 764.00v31.00" class="stroke"/>
<use x="311.30" y="776.00" xlink:href="#hd"/>
<use x="311.30" y="770.00" xlink:href="#hd"/>
<use x="349.80" y="761.00" xlink:href="#hd"/>
<path d="M346.30 761.00v34.00" class="stroke"/>
<use x="349.80" y="776.00" xlink:href="#hd"/>
<use x="349.80" y="767.00" xlink:href="#hd"/>
<use x="388.30" y="773.00" xlink:href="#r4"/>
<use x="428.90" y="770.00" xlink:href="#hd"/>
<circle class="fill" cx="436.60" cy="770.00" r="1.2"/>
<path d="M425.40 770.00v25.00" class="stroke"/>
<use x="428.90" y="776.00" xlink:href="#hd"/>
<circle class="fill" cx="436.60" cy="776.00" r="1.2"/>
<use x="472.70" y="767.00" xlink:href="#hd"/>
<path d="M469.20 767.00v28.00" class="stroke"/>
<path class="fill"
	d="M469.20 795.00c0.6 -5.6 9.6 -9 5.6 -18.4
	1.6 6 -1.3 11.6 -5.6 12.8
"/>
<use x="472.70" y="776.00" xlink:href="#hd"/>
<path class="fill"
	d="M496.20 795.00l74.30 0.00v-3.20l-74.30 -0.00"/>
<use x="500.00" y="770.00" xlink:href="#hd"/>
<path d="M496.50 770.00v24.00" class="stroke"/>
<use x="500.00" y="776.00" xlink:href="#hd"/>
<use x="524.50" y="767.00" xlink:href="#hd"/>
<path d="M521.00 767.00v27.00" class="stroke"/>
<use x="524.50" y="776.00" xlink:href="#hd"/>
<use x="549.00" y="764.00" xlink:href="#hd"/>
<path d="M545.50 764.00v30.00" class="stroke"/>
<use x="549.00" y="776.00" xlink:href="#hd"/>
<use x="573.60" y="761.00" xlink:href="#hd"/>
<path d="M570.10 761.00v33.00" class="stroke"/>
<use x="573.60" y="776.00" xlink:href="#hd"/>
<use x="606.30" y="758.00" xlink:href="#hd"/>
<path d="M602.80 758.00v37.00" class="stroke"/>
<use x="606.30" y="776.00" xlink:href="#hd"/>
<use x="644.90" y="758.00" xlink:href="#hd"/>
<use x="635.90" y="758.00" xlink:href="#nt0"/>
<path d="M641.40 758.00v37.00" class="stroke"/>
<use x="644.90" y="776.00" xlink:href="#hd"/>
<use x="683.40" y="755.00" xlink:href="#hl"/>
<use x="683.40" y="755.00" xlink:href="#hd"/>
<path d="M679.90 755.00v40.00" class="stroke"/>
<use x="683.40" y="776.00" xlink:href="#hd"/>
<use x="721.80" y="773.00" xlink:href="#r4"/>
<path class="fill"
	d="M260.20 753.00l28.60 0.00v-3.20l-28.60 -0.00"/>
<path class="fill"
	d="M280.50 748.00l8.00 0.00v-3.20l-8.00 -0.00"/>
<use x="264.10" y="732.00" xlink:href="#hl"/>
<use x="264.10" y="732.00" xlink:href="#hd"/>
<circle class="fill" cx="271.80" cy="735.00" r="1.2"/>
<path d="M260.60 732.00v20.00" class="stroke"/>
<use x="292.00" y="732.00" xlink:href="#hl"/>
<use x="292.00" y="732.00" xlink:href="#hd"/>
<path d="M288.50 732.00v20.00" class="stroke"/>
<use x="311.30" y="732.00" xlink:href="#hl"/>
<use x="311.30" y="732.00" xlink:href="#hd"/>
<path d="M307.80 732.00v19.00" class="stroke"/>
<use x="349.80" y="732.00" xlink:href="#hl"/>
<use x="349.80" y="732.00" xlink:href="#hd"/>
<path d="M346.30 732.00v19.00" class="stroke"/>
<text font-family="serif" font-size="16" font-weight="bold" font-style="italic"
	x="110.70" y="744.40">ff</text>
</g>
<g stroke-width="0.70" font-family="Bookman" font-size="12.00" font-style="italic">
<path class="stroke" stroke-width="1"
	d="M67.20 923.00v-87.00"/>
<g transform="translate(67.20,836.00) scale(1,0.87)">
	<use xlink:href="#brace"/>
</g>
<path class="stroke" stroke-width="1"
	d="M225.10 860.00v-24.00"/>
<path class="stroke" stroke-width="1"
	d="M225.10 923.00v-63.00"/>
<path class="stroke" stroke-width="1"
	d="M370.40 860.00v-24.00"/>
<path class="stroke" stroke-width="1"
	d="M370.40 923.00v-63.00"/>
<path class="stroke" stroke-width="1"
	d="M489.00 860.00v-24.00"/>
<path class="stroke" stroke-width="1"
	d="M489.00 923.00v-63.00"/>
<path class="stroke" stroke-width="3"
	d="M651.10 860.00v-24.00"/>
<path class="stroke" stroke-width="1"
	d="M646.60 860.00v-24.00"/>
<use x="642.60" y="860.00" xlink:href="#rdots"/>
<path class="stroke" stroke-width="3"
	d="M651.10 923.00v-63.00"/>
<path class="stroke" stroke-width="1"
	d="M646.60 923.00v-63.00"/>
<use x="642.60" y="923.00" xlink:href="#rdots"/>
<path class="stroke" stroke-width="3"
	d="M747.30 860.00v-24.00"/>
<path class="stroke" stroke-width="1"
	d="M742.80 860.00v-24.00"/>
<path class="stroke" stroke-width="3"
	d="M747.30 923.00v-63.00"/>
<path class="stroke" stroke-width="1"
	d="M742.80 923.00v-63.00"/>
<path d="m67.20 860.00
	h681.60
	M67.20 854.00
	h681.60
	M67.20 848.00
	h681.60
	M67.20 842.00
	h681.60
	M67.20 836.00
	h681.60
	" class="stroke"/>
<path d="m67.20 923.00
	h681.60
	M67.20 917.00
	h681.60
	M67.20 911.00
	h681.60
	M67.20 905.00
	h681.60
	M67.20 899.00
	h681.60
	" class="stroke"/>
</g>
<g stroke-width="0.70" font-family="serif" font-size="13.00">
<text x="493.00" y="821.40">1</text>
<path class="stroke"
	d="M489.00 810.00m0 20v-20h155.60v20"/>
<text x="656.60" y="821.40">2</text>
<path class="stroke"
	d="M652.60 810.00m0 20v-20h96.20v20"/>
<use x="79.20" y="854.00" xlink:href="#tclef"/>
<use x="94.20" y="848.00" xlink:href="#ft0"/>
<use x="112.20" y="857.00" xlink:href="#hd"/>
<circle class="fill" cx="119.90" cy="857.00" r="1.2"/>
<path d="M115.70 857.00v-21.00" class="stroke"/>
<use x="141.90" y="866.00" xlink:href="#hl"/>
<use x="141.90" y="872.00" xlink:href="#hl"/>
<use x="141.90" y="872.00" xlink:href="#hd"/>
<path d="M145.40 872.00v-25.00" class="stroke"/>
<path class="fill"
	d="M145.40 847.00c0.6 5.6 9.6 9 5.6 18.4
	1.6 -6 -1.3 -11.6 -5.6 -12.8
"/>
<use x="141.90" y="866.00" xlink:href="#hd"/>
<path class="fill"
	d="M164.50 842.90l50.60 -6.70v3.20l-50.60 6.70"/>
<use x="161.30" y="866.00" xlink:href="#hl"/>
<use x="161.30" y="869.00" xlink:href="#hd"/>
<path d="M164.80 869.00v-25.20" class="stroke"/>
<use x="161.30" y="863.00" xlink:href="#hd"/>
<use x="178.20" y="866.00" xlink:href="#hl"/>
<use x="178.20" y="866.00" xlink:href="#hd"/>
<path d="M181.70 866.00v-24.40" class="stroke"/>
<use x="178.20" y="860.00" xlink:href="#hd"/>
<use x="194.70" y="863.00" xlink:href="#hd"/>
<path d="M198.20 863.00v-23.60" class="stroke"/>
<use x="194.70" y="857.00" xlink:href="#hd"/>
<use x="211.30" y="860.00" xlink:href="#hd"/>
<path d="M214.80 860.00v-22.80" class="stroke"/>
<use x="211.30" y="854.00" xlink:href="#hd"/>
<path class="fill"
	d="M240.70 829.80l50.30 0.00v3.20l-50.30 -0.00"/>
<use x="237.60" y="857.00" xlink:href="#hd"/>
<path d="M241.10 857.00v-26.20" class="stroke"/>
<use x="237.60" y="851.00" xlink:href="#hd"/>
<use x="254.10" y="860.00" xlink:href="#hd"/>
<path d="M257.60 860.00v-29.20" class="stroke"/>
<use x="254.10" y="854.00" xlink:href="#hd"/>
<use x="270.70" y="857.00" xlink:href="#hd"/>
<path d="M274.20 857.00v-26.20" class="stroke"/>
<use x="270.70" y="851.00" xlink:href="#hd"/>
<use x="287.20" y="854.00" xlink:href="#hd"/>
<path d="M290.70 854.00v-23.20" class="stroke"/>
<use x="287.20" y="848.00" xlink:href="#hd"/>
<use x="305.40" y="851.00" xlink:href="#hd"/>
<path d="M308.90 851.00v-25.00" class="stroke"/>
<path class="fill"
	d="M308.90 826.00c0.6 5.6 9.6 9 5.6 18.4
	1.6 -6 -1.3 -11.6 -5.6 -12.8
"/>
<use x="305.40" y="845.00" xlink:href="#hd"/>
<use x="322.70" y="848.00" xlink:href="#r8"/>
<use x="339.30" y="863.00" xlink:href="#hd"/>
<path d="M342.80 863.00v-40.00" class="stroke"/>
<path class="fill"
	d="M342.80 823.00c0.6 5.6 9.6 9 5.6 18.4
	1.6 -6 -1.3 -11.6 -5.6 -12.8
"/>
<use x="339.30" y="857.00" xlink:href="#hd"/>
<use x="339.30" y="848.00" xlink:href="#hd"/>
<use x="339.30" y="842.00" xlink:href="#hd"/>
<use x="356.60" y="848.00" xlink:href="#r8"/>
<use x="383.40" y="866.00" xlink:href="#hl"/>
<use x="383.40" y="872.00" xlink:href="#hl"/>
<use x="383.40" y="872.00" xlink:href="#Hd"/>
<path d="M386.90 872.00v-34.00" class="stroke"/>
<use x="383.40" y="866.00" xlink:href="#Hd"/>
<use x="383.40" y="857.00" xlink:href="#Hd"/>
<path class="fill"
	d="M405.00 839.10l8.60 -4.30v1.80l-8.60 4.30"/>
<path class="fill"
	d="M405.30 842.50l8.00 -4.00v1.80l-8.00 4.00"/>
<use x="403.00" y="857.00" xlink:href="#ghd"/>
<path d="M405.30 857.00v-17.00" class="stroke"/>
<use x="411.00" y="851.00" xlink:href="#ghd"/>
<path d="M413.30 851.00v-15.00" class="stroke"/>
<use x="422.00" y="866.00" xlink:href="#hl"/>
<use x="422.00" y="869.00" xlink:href="#hd"/>
<path d="M425.50 869.00v-34.00" class="stroke"/>
<use x="429.00" y="866.00" xlink:href="#hl"/>
<use x="429.00" y="866.00" xlink:href="#hd"/>
<use x="422.00" y="860.00" xlink:href="#hd"/>
<use x="422.00" y="854.00" xlink:href="#hd"/>
<path class="fill"
	d="M454.60 834.30l25.70 2.50v3.20l-25.70 -2.50"/>
<path class="fill"
	d="M472.00 840.90l8.00 0.80v3.20l-8.00 -0.80"/>
<use x="451.50" y="866.00" xlink:href="#hl"/>
<use x="451.50" y="869.00" xlink:href="#hd"/>
<circle class="fill" cx="466.20" cy="869.00" r="1.2"/>
<path d="M455.00 869.00v-33.70" class="stroke"/>
<use x="458.50" y="866.00" xlink:href="#hl"/>
<use x="458.50" y="866.00" xlink:href="#hd"/>
<circle class="fill" cx="466.20" cy="863.00" r="1.2"/>
<use x="451.50" y="860.00" xlink:href="#hd"/>
<circle class="fill" cx="466.20" cy="857.00" r="1.2"/>
<use x="451.50" y="854.00" xlink:href="#hd"/>
<circle class="fill" cx="466.20" cy="851.00" r="1.2"/>
<use x="476.50" y="866.00" xlink:href="#hl"/>
<use x="476.50" y="872.00" xlink:href="#hl"/>
<use x="476.50" y="872.00" xlink:href="#hd"/>
<path d="M480.00 872.00v-34.30" class="stroke"/>
<use x="476.50" y="866.00" xlink:href="#hd"/>
<use x="476.50" y="857.00" xlink:href="#hd"/>
<use x="501.50" y="866.00" xlink:href="#hl"/>
<use x="501.50" y="872.00" xlink:href="#hl"/>
<use x="501.50" y="872.00" xlink:href="#hd"/>
<path d="M505.00 872.00v-34.00" class="stroke"/>
<path class="fill"
	d="M505.00 838.00c0.6 5.6 9.6 9 5.6 18.4
	1.6 -6 -1.3 -11.6 -5.6 -12.8
"/>
<use x="501.50" y="866.00" xlink:href="#hd"/>
<use x="501.50" y="857.00" xlink:href="#hd"/>
<path class="fill"
	d="M517.10 860.20l13.10 0.00v-3.20l-13.10 -0.00"/>
<path class="fill"
	d="M517.40 855.20l12.40 0.00v-3.20l-12.40 -0.00"/>
<use x="520.90" y="836.00" xlink:href="#hd"/>
<path d="M517.40 836.00v23.20" class="stroke"/>
<use x="533.30" y="836.00" xlink:href="#hd"/>
<path d="M529.80 836.00v23.20" class="stroke"/>
<path class="fill"
	d="M543.00 852.20l17.50 3.60v-3.20l-17.50 -3.60"/>
<use x="546.90" y="830.00" xlink:href="#hl"/>
<use x="546.90" y="830.00" xlink:href="#hd"/>
<path d="M543.40 830.00v21.20" class="stroke"/>
<use x="563.70" y="836.00" xlink:href="#hd"/>
<path d="M560.20 836.00v18.80" class="stroke"/>
<path class="fill"
	d="M578.30 870.20l50.60 0.00v-3.20l-50.60 -0.00"/>
<use x="582.20" y="845.00" xlink:href="#hd"/>
<path d="M578.70 845.00v24.20" class="stroke"/>
<use x="599.00" y="836.00" xlink:href="#hd"/>
<path d="M595.50 836.00v33.20" class="stroke"/>
<use x="615.50" y="851.00" xlink:href="#hd"/>
<path d="M612.00 851.00v18.20" class="stroke"/>
<use x="632.10" y="845.00" xlink:href="#hd"/>
<path d="M628.60 845.00v24.20" class="stroke"/>
<use x="665.60" y="866.00" xlink:href="#hl"/>
<use x="665.60" y="872.00" xlink:href="#hl"/>
<use x="665.60" y="872.00" xlink:href="#Hd"/>
<path d="M669.10 872.00v-34.00" class="stroke"/>
<use x="665.60" y="866.00" xlink:href="#Hd"/>
<use x="665.60" y="857.00" xlink:href="#Hd"/>
<use x="702.20" y="866.00" xlink:href="#hl"/>
<use x="702.20" y="872.00" xlink:href="#hl"/>
<use x="702.20" y="872.00" xlink:href="#hd"/>
<path d="M705.70 872.00v-34.00" class="stroke"/>
<use x="702.20" y="866.00" xlink:href="#hd"/>
<use x="702.20" y="857.00" xlink:href="#hd"/>
<use x="727.30" y="848.00" xlink:href="#r4"/>
<path class="fill"
	d="M425.50 869.00c3.55 4.91 18.97 4.91 22.52 -0.00
	v0.22c-4.22 6.68 -18.30 6.68 -22.52 -0.22"/>
<path class="fill"
	d="M429.70 866.00c3.55 -4.91 18.97 -4.91 22.52 -0.00
	v-0.22c-4.22 -6.68 -18.30 -6.68 -22.52 0.22"/>
<path class="fill"
	d="M425.50 860.00c3.55 -4.91 18.97 -4.91 22.52 -0.00
	v-0.22c-4.22 -6.68 -18.30 -6.68 -22.52 0.22"/>
<path class="fill"
	d="M425.50 854.00c3.55 -4.91 18.97 -4.91 22.52 -0.00
	v-0.22c-4.22 -6.68 -18.30 -6.68 -22.52 0.22"/>
<path class="fill"
	d="M669.10 872.00c4.66 5.03 24.95 5.03 29.61 -0.00
	v0.23c-5.55 6.80 -24.06 6.80 -29.61 -0.23"/>
<path class="fill"
	d="M669.10 866.00c4.66 5.03 24.95 5.03 29.61 -0.00
	v0.23c-5.55 6.80 -24.06 6.80 -29.61 -0.23"/>
<path class="fill"
	d="M669.10 857.00c4.66 -5.03 24.95 -5.03 29.61 -0.00
	v-0.23c-5.55 -6.80 -24.06 -6.80 -29.61 0.23"/>
<use x="79.20" y="905.00" xlink:href="#bclef"/>
<use x="94.20" y="917.00" xlink:href="#ft0"/>
<use x="112.20" y="905.00" xlink:href="#hd"/>
<circle class="fill" cx="119.90" cy="902.00" r="1.2"/>
<path d="M115.70 905.00v-48.00" class="stroke"/>
<path class="fill"
	d="M233.70 925.90l50.30 0.00v-3.20l-50.30 -0.00"/>
<use x="237.60" y="899.00" xlink:href="#hd"/>
<path d="M234.10 899.00v26.00" class="stroke"/>
<use x="237.60" y="905.00" xlink:href="#hd"/>
<use x="254.10" y="902.00" xlink:href="#hd"/>
<path d="M250.60 902.00v23.00" class="stroke"/>
<use x="254.10" y="908.00" xlink:href="#hd"/>
<use x="270.70" y="899.00" xlink:href="#hd"/>
<path d="M267.20 899.00v26.00" class="stroke"/>
<use x="270.70" y="905.00" xlink:href="#hd"/>
<use x="287.20" y="896.00" xlink:href="#hd"/>
<path d="M283.70 896.00v29.00" class="stroke"/>
<use x="287.20" y="902.00" xlink:href="#hd"/>
<use x="305.40" y="893.00" xlink:href="#hl"/>
<use x="305.40" y="893.00" xlink:href="#hd"/>
<path d="M301.90 893.00v25.00" class="stroke"/>
<path class="fill"
	d="M301.90 918.00c0.6 -5.6 9.6 -9 5.6 -18.4
	1.6 6 -1.3 11.6 -5.6 12.8
"/>
<use x="305.40" y="899.00" xlink:href="#hd"/>
<use x="322.70" y="911.00" xlink:href="#r8"/>
<use x="339.30" y="929.00" xlink:href="#hl"/>
<use x="339.30" y="935.00" xlink:href="#hl"/>
<use x="339.30" y="938.00" xlink:href="#hd"/>
<path d="M342.80 938.00v-40.00" class="stroke"/>
<path class="fill"
	d="M342.80 898.00c0.6 5.6 9.6 9 5.6 18.4
	1.6 -6 -1.3 -11.6 -5.6 -12.8
"/>
<use x="339.30" y="917.00" xlink:href="#hd"/>
<use x="356.60" y="911.00" xlink:href="#r8"/>
<use x="383.40" y="929.00" xlink:href="#hl"/>
<use x="383.40" y="935.00" xlink:href="#hl"/>
<use x="383.40" y="935.00" xlink:href="#Hd"/>
<path d="M386.90 935.00v-40.00" class="stroke"/>
<use x="383.40" y="914.00" xlink:href="#Hd"/>
<use x="422.00" y="929.00" xlink:href="#hl"/>
<use x="422.00" y="935.00" xlink:href="#hl"/>
<use x="422.00" y="935.00" xlink:href="#hd"/>
<path d="M425.50 935.00v-40.00" class="stroke"/>
<use x="422.00" y="914.00" xlink:href="#hd"/>
<path class="fill"
	d="M454.60 896.70l25.70 6.30v3.20l-25.70 -6.30"/>
<path class="fill"
	d="M472.00 906.00l8.00 2.00v3.20l-8.00 -2.00"/>
<use x="451.50" y="929.00" xlink:href="#hl"/>
<use x="451.50" y="935.00" xlink:href="#hl"/>
<use x="451.50" y="935.00" xlink:href="#hd"/>
<circle class="fill" cx="459.20" cy="932.00" r="1.2"/>
<path d="M455.00 935.00v-37.20" class="stroke"/>
<use x="451.50" y="914.00" xlink:href="#hd"/>
<circle class="fill" cx="459.20" cy="914.00" r="1.2"/>
<use x="476.50" y="929.00" xlink:href="#hl"/>
<use x="476.50" y="935.00" xlink:href="#hl"/>
<use x="476.50" y="941.00" xlink:href="#hl"/>
<use x="476.50" y="947.00" xlink:href="#hl"/>
<use x="476.50" y="947.00" xlink:href="#hd"/>
<path d="M480.00 947.00v-43.10" class="stroke"/>
<use x="476.50" y="926.00" xlink:href="#hd"/>
<use x="501.50" y="929.00" xlink:href="#hl"/>
<use x="501.50" y="935.00" xlink:href="#hl"/>
<use x="501.50" y="941.00" xlink:href="#hl"/>
<use x="501.50" y="947.00" xlink:href="#hl"/>
<use x="501.50" y="947.00" xlink:href="#hd"/>
<path d="M505.00 947.00v-40.00" class="stroke"/>
<path class="fill"
	d="M505.00 907.00c0.6 5.6 9.6 9 5.6 18.4
	1.6 -6 -1.3 -11.6 -5.6 -12.8
"/>
<use x="501.50" y="926.00" xlink:href="#hd"/>
<path class="fill"
	d="M517.10 911.20l13.10 0.00v-3.20l-13.10 -0.00"/>
<path class="fill"
	d="M517.40 906.20l12.40 0.00v-3.20l-12.40 -0.00"/>
<use x="520.90" y="893.00" xlink:href="#hl"/>
<use x="520.90" y="887.00" xlink:href="#hl"/>
<use x="520.90" y="884.00" xlink:href="#hd"/>
<path d="M517.40 884.00v26.20" class="stroke"/>
<use x="533.30" y="893.00" xlink:href="#hl"/>
<use x="533.30" y="887.00" xlink:href="#hl"/>
<use x="533.30" y="884.00" xlink:href="#hd"/>
<path d="M529.80 884.00v26.20" class="stroke"/>
<path class="fill"
	d="M543.00 911.20l17.50 0.00v-3.20l-17.50 -0.00"/>
<use x="546.90" y="893.00" xlink:href="#hl"/>
<use x="546.90" y="887.00" xlink:href="#hl"/>
<use x="546.90" y="881.00" xlink:href="#hl"/>
<use x="546.90" y="878.00" xlink:href="#hd"/>
<path d="M543.40 878.00v32.20" class="stroke"/>
<use x="563.70" y="893.00" xlink:href="#hl"/>
<use x="563.70" y="887.00" xlink:href="#hl"/>
<use x="563.70" y="884.00" xlink:href="#hd"/>
<path d="M560.20 884.00v26.20" class="stroke"/>
<path class="fill"
	d="M578.30 917.20l50.60 0.00v-3.20l-50.60 -0.00"/>
<use x="582.20" y="893.00" xlink:href="#hl"/>
<use x="582.20" y="893.00" xlink:href="#hd"/>
<path d="M578.70 893.00v23.20" class="stroke"/>
<use x="599.00" y="893.00" xlink:href="#hl"/>
<use x="599.00" y="887.00" xlink:href="#hl"/>
<use x="599.00" y="884.00" xlink:href="#hd"/>
<path d="M595.50 884.00v32.20" class="stroke"/>
<use x="615.50" y="899.00" xlink:href="#hd"/>
<path d="M612.00 899.00v17.20" class="stroke"/>
<use x="632.10" y="893.00" xlink:href="#hl"/>
<use x="632.10" y="893.00" xlink:href="#hd"/>
<path d="M628.60 893.00v23.20" class="stroke"/>
<use x="665.60" y="929.00" xlink:href="#hl"/>
<use x="665.60" y="935.00" xlink:href="#hl"/>
<use x="665.60" y="941.00" xlink:href="#hl"/>
<use x="665.60" y="947.00" xlink:href="#hl"/>
<use x="665.60" y="947.00" xlink:href="#Hd"/>
<path d="M669.10 947.00v-40.00" class="stroke"/>
<use x="665.60" y="926.00" xlink:href="#Hd"/>
<use x="702.20" y="929.00" xlink:href="#hl"/>
<use x="702.20" y="935.00" xlink:href="#hl"/>
<use x="702.20" y="941.00" xlink:href="#hl"/>
<use x="702.20" y="947.00" xlink:href="#hl"/>
<use x="702.20" y="947.00" xlink:href="#hd"/>
<path d="M705.70 947.00v-40.00" class="stroke"/>
<use x="702.20" y="926.00" xlink:href="#hd"/>
<use x="727.30" y="911.00" xlink:href="#r4"/>
<path class="fill"
	d="M425.50 935.00c3.55 4.91 18.97 4.91 22.52 -0.00
	v0.22c-4.22 6.68 -18.30 6.68 -22.52 -0.22"/>
<path class="fill"
	d="M425.50 914.00c3.55 -4.91 18.97 -4.91 22.52 -0.00
	v-0.22c-4.22 -6.68 -18.30 -6.68 -22.52 0.22"/>
<path class="fill"
	d="M669.10 947.00c4.66 5.03 24.95 5.03 29.61 -0.00
	v0.23c-5.55 6.80 -24.06 6.80 -29.61 -0.23"/>
<path class="fill"
	d="M669.10 926.00c4.66 -5.03 24.95 -5.03 29.61 -0.00
	v-0.23c-5.55 -6.80 -24.06 -6.80 -29.61 0.23"/>
<use x="112.20" y="929.00" xlink:href="#hl"/>
<use x="112.20" y="935.00" xlink:href="#hl"/>
<use x="112.20" y="941.00" xlink:href="#hl"/>
<use x="112.20" y="947.00" xlink:href="#hl"/>
<use x="112.20" y="926.00" xlink:href="#hd"/>
<circle class="fill" cx="119.90" cy="926.00" r="1.2"/>
<path d="M108.70 926.00v36.00" class="stroke"/>
<use x="112.20" y="947.00" xlink:href="#hd"/>
<circle class="fill" cx="119.90" cy="950.00" r="1.2"/>
<use x="141.90" y="914.00" xlink:href="#hd"/>
<path d="M138.40 914.00v25.00" class="stroke"/>
<path class="fill"
	d="M138.40 939.00c0.6 -5.6 9.6 -9 5.6 -18.4
	1.6 6 -1.3 11.6 -5.6 12.8
"/>
<use x="141.90" y="920.00" xlink:href="#hd"/>
<path class="fill"
	d="M157.50 934.90l50.60 -6.70v-3.20l-50.60 6.70"/>
<use x="161.30" y="911.00" xlink:href="#hd"/>
<path d="M157.80 911.00v22.80" class="stroke"/>
<use x="161.30" y="917.00" xlink:href="#hd"/>
<use x="178.20" y="908.00" xlink:href="#hd"/>
<path d="M174.70 908.00v23.60" class="stroke"/>
<use x="178.20" y="914.00" xlink:href="#hd"/>
<use x="194.70" y="905.00" xlink:href="#hd"/>
<path d="M191.20 905.00v24.40" class="stroke"/>
<use x="194.70" y="911.00" xlink:href="#hd"/>
<use x="211.30" y="902.00" xlink:href="#hd"/>
<path d="M207.80 902.00v25.20" class="stroke"/>
<use x="211.30" y="908.00" xlink:href="#hd"/>
</g>
</svg>
